<svg width="1155" height="655" viewBox="0 0 1155 655" fill="none" xmlns="http://www.w3.org/2000/svg">
<rect width="1155" height="655" fill="white"/>
<g clip-path="url(#clip0_2557_8861)">
<rect x="131" y="158.564" width="43.8709" height="43.871" rx="21.9355" fill="#191F4D"/>
<path d="M179.391 180.874C158.004 184.372 149.873 199.507 148.48 206.627C146.245 205.976 144.192 204.988 143.426 204.483C151.179 186.184 170.647 181.042 179.391 180.874Z" fill="white"/>
<path d="M179.268 178.823C157.608 181.284 139.46 189.203 136.512 197.934C134.819 195.883 133.773 193.587 133.501 192.91C149.349 181.776 170.515 178.987 179.268 178.823Z" fill="white"/>
<line x1="150.808" y1="198.426" x2="150.808" y2="206.874" stroke="white" stroke-width="1.3123"/>
<line x1="154.909" y1="193.012" x2="154.909" y2="207.119" stroke="white" stroke-width="1.3123"/>
<line x1="159.009" y1="189.281" x2="159.009" y2="207.12" stroke="white" stroke-width="1.3123"/>
<line x1="163.11" y1="186.205" x2="163.11" y2="206.628" stroke="white" stroke-width="1.3123"/>
<line x1="167.211" y1="183.908" x2="167.211" y2="205.151" stroke="white" stroke-width="1.3123"/>
<line x1="171.312" y1="182.678" x2="171.312" y2="203.224" stroke="white" stroke-width="1.3123"/>
<line x1="175.413" y1="181.489" x2="175.413" y2="201.665" stroke="white" stroke-width="1.3123"/>
</g>
<path d="M191.717 199V164.004H206.759C210.001 164.004 212.508 164.956 214.28 166.861C216.051 168.767 216.937 171.324 216.937 174.533C216.937 177.741 216.051 180.298 214.28 182.204C212.508 184.109 210.001 185.062 206.759 185.062H197.383V199H191.717ZM197.383 180.098H206.408C207.845 180.098 208.965 179.73 209.767 178.995C210.569 178.226 210.97 177.14 210.97 175.736V173.329C210.97 171.925 210.569 170.856 209.767 170.12C208.965 169.352 207.845 168.967 206.408 168.967H197.383V180.098ZM238.544 194.688H238.344C238.11 195.323 237.792 195.942 237.391 196.543C237.023 197.145 236.539 197.68 235.937 198.148C235.369 198.582 234.667 198.933 233.831 199.201C233.029 199.468 232.093 199.602 231.023 199.602C228.316 199.602 226.21 198.733 224.706 196.994C223.235 195.256 222.5 192.766 222.5 189.524V172.928H227.965V188.822C227.965 192.866 229.636 194.889 232.979 194.889C233.681 194.889 234.366 194.805 235.034 194.638C235.703 194.437 236.288 194.153 236.789 193.786C237.324 193.418 237.742 192.95 238.043 192.382C238.377 191.814 238.544 191.145 238.544 190.376V172.928H244.009V199H238.544V194.688ZM251.835 199V172.928H257.3V177.942H257.55C257.918 176.605 258.687 175.435 259.857 174.432C261.027 173.43 262.648 172.928 264.72 172.928H266.174V178.193H264.018C261.846 178.193 260.174 178.544 259.004 179.246C257.868 179.947 257.3 180.984 257.3 182.354V199H251.835ZM281.012 199.602C279.14 199.602 277.469 199.284 275.998 198.649C274.527 198.014 273.274 197.111 272.237 195.942C271.201 194.738 270.399 193.301 269.831 191.63C269.296 189.925 269.029 188.036 269.029 185.964C269.029 183.892 269.296 182.02 269.831 180.349C270.399 178.644 271.201 177.207 272.237 176.037C273.274 174.833 274.527 173.914 275.998 173.279C277.469 172.644 279.14 172.326 281.012 172.326C282.917 172.326 284.588 172.661 286.025 173.329C287.496 173.998 288.716 174.934 289.686 176.137C290.655 177.307 291.374 178.677 291.841 180.248C292.343 181.819 292.594 183.507 292.594 185.312V187.368H274.694V188.22C274.694 190.226 275.279 191.88 276.449 193.184C277.652 194.454 279.357 195.089 281.563 195.089C283.168 195.089 284.521 194.738 285.624 194.036C286.727 193.334 287.663 192.382 288.432 191.178L291.641 194.337C290.672 195.942 289.268 197.228 287.429 198.198C285.591 199.134 283.452 199.602 281.012 199.602ZM281.012 176.588C280.076 176.588 279.207 176.755 278.404 177.09C277.636 177.424 276.967 177.892 276.399 178.493C275.864 179.095 275.446 179.814 275.145 180.649C274.845 181.485 274.694 182.404 274.694 183.407V183.758H286.828V183.257C286.828 181.251 286.31 179.647 285.273 178.443C284.237 177.207 282.817 176.588 281.012 176.588ZM325.818 172.226H325.568L322.81 177.892L315.139 191.88L307.468 177.892L304.71 172.226H304.459V199H299.045V164.004H305.763L315.139 181.803H315.44L324.816 164.004H331.233V199H325.818V172.226ZM339.88 199V164.004H345.545V193.986H359.785V199H339.88Z" fill="#1E293B"/>
<path d="M134.76 345V337.32H142.28V296.68H134.76V289H157.16C164.627 289 170.333 290.893 174.28 294.68C178.28 298.467 180.28 304.173 180.28 311.8V322.28C180.28 329.907 178.28 335.613 174.28 339.4C170.333 343.133 164.627 345 157.16 345H134.76ZM151 337.16H157.24C162.093 337.16 165.693 335.933 168.04 333.48C170.387 331.027 171.56 327.373 171.56 322.52V311.48C171.56 306.573 170.387 302.92 168.04 300.52C165.693 298.12 162.093 296.92 157.24 296.92H151V337.16ZM208.363 346.12C204.363 346.12 200.87 345.293 197.883 343.64C194.896 341.933 192.55 339.56 190.843 336.52C189.19 333.427 188.363 329.853 188.363 325.8V324.84C188.363 320.733 189.19 317.16 190.843 314.12C192.496 311.027 194.79 308.653 197.723 307C200.71 305.293 204.15 304.44 208.043 304.44C211.83 304.44 215.136 305.293 217.963 307C220.843 308.653 223.083 310.973 224.683 313.96C226.283 316.947 227.083 320.44 227.083 324.44V327.56H196.763C196.87 331.027 198.016 333.8 200.203 335.88C202.443 337.907 205.216 338.92 208.523 338.92C211.616 338.92 213.936 338.227 215.483 336.84C217.083 335.453 218.31 333.853 219.163 332.04L225.963 335.56C225.216 337.053 224.123 338.627 222.683 340.28C221.296 341.933 219.456 343.32 217.163 344.44C214.87 345.56 211.936 346.12 208.363 346.12ZM196.843 321.24H218.683C218.47 318.253 217.403 315.933 215.483 314.28C213.563 312.573 211.056 311.72 207.963 311.72C204.87 311.72 202.336 312.573 200.363 314.28C198.443 315.933 197.27 318.253 196.843 321.24ZM244.716 345L231.436 305.56H240.156L250.636 338.92H251.916L262.396 305.56H271.116L257.836 345H244.716ZM295.785 346.12C291.785 346.12 288.292 345.293 285.305 343.64C282.318 341.933 279.972 339.56 278.265 336.52C276.612 333.427 275.785 329.853 275.785 325.8V324.84C275.785 320.733 276.612 317.16 278.265 314.12C279.918 311.027 282.212 308.653 285.145 307C288.132 305.293 291.572 304.44 295.465 304.44C299.252 304.44 302.558 305.293 305.385 307C308.265 308.653 310.505 310.973 312.105 313.96C313.705 316.947 314.505 320.44 314.505 324.44V327.56H284.185C284.292 331.027 285.438 333.8 287.625 335.88C289.865 337.907 292.638 338.92 295.945 338.92C299.038 338.92 301.358 338.227 302.905 336.84C304.505 335.453 305.732 333.853 306.585 332.04L313.385 335.56C312.638 337.053 311.545 338.627 310.105 340.28C308.718 341.933 306.878 343.32 304.585 344.44C302.292 345.56 299.358 346.12 295.785 346.12ZM284.265 321.24H306.105C305.892 318.253 304.825 315.933 302.905 314.28C300.985 312.573 298.478 311.72 295.385 311.72C292.292 311.72 289.758 312.573 287.785 314.28C285.865 315.933 284.692 318.253 284.265 321.24ZM324.424 345V289H332.664V345H324.424ZM363.373 346.12C359.426 346.12 355.906 345.32 352.813 343.72C349.773 342.067 347.373 339.72 345.613 336.68C343.853 333.64 342.973 330.04 342.973 325.88V324.68C342.973 320.52 343.853 316.947 345.613 313.96C347.373 310.92 349.773 308.573 352.813 306.92C355.906 305.267 359.426 304.44 363.373 304.44C367.319 304.44 370.839 305.267 373.933 306.92C377.026 308.573 379.453 310.92 381.213 313.96C382.973 316.947 383.853 320.52 383.853 324.68V325.88C383.853 330.04 382.973 333.64 381.213 336.68C379.453 339.72 377.026 342.067 373.933 343.72C370.839 345.32 367.319 346.12 363.373 346.12ZM363.373 338.76C366.999 338.76 369.933 337.613 372.173 335.32C374.466 332.973 375.613 329.747 375.613 325.64V324.92C375.613 320.813 374.493 317.613 372.253 315.32C370.013 312.973 367.053 311.8 363.373 311.8C359.799 311.8 356.866 312.973 354.573 315.32C352.333 317.613 351.213 320.813 351.213 324.92V325.64C351.213 329.747 352.333 332.973 354.573 335.32C356.866 337.613 359.799 338.76 363.373 338.76ZM394.111 361V305.56H402.191V311.24H403.471C404.485 309.48 406.005 307.907 408.031 306.52C410.111 305.133 413.071 304.44 416.911 304.44C420.218 304.44 423.231 305.24 425.951 306.84C428.725 308.44 430.938 310.76 432.591 313.8C434.298 316.787 435.151 320.413 435.151 324.68V325.88C435.151 330.147 434.325 333.8 432.671 336.84C431.018 339.827 428.805 342.12 426.031 343.72C423.258 345.32 420.218 346.12 416.911 346.12C414.351 346.12 412.191 345.8 410.431 345.16C408.671 344.52 407.258 343.72 406.191 342.76C405.125 341.747 404.271 340.707 403.631 339.64H402.351V361H394.111ZM414.511 338.92C418.138 338.92 421.098 337.773 423.391 335.48C425.685 333.187 426.831 329.907 426.831 325.64V324.92C426.831 320.707 425.658 317.453 423.311 315.16C421.018 312.867 418.085 311.72 414.511 311.72C410.991 311.72 408.058 312.867 405.711 315.16C403.418 317.453 402.271 320.707 402.271 324.92V325.64C402.271 329.907 403.418 333.187 405.711 335.48C408.058 337.773 410.991 338.92 414.511 338.92ZM463.441 346.12C459.441 346.12 455.948 345.293 452.961 343.64C449.975 341.933 447.628 339.56 445.921 336.52C444.268 333.427 443.441 329.853 443.441 325.8V324.84C443.441 320.733 444.268 317.16 445.921 314.12C447.575 311.027 449.868 308.653 452.801 307C455.788 305.293 459.228 304.44 463.121 304.44C466.908 304.44 470.215 305.293 473.041 307C475.921 308.653 478.161 310.973 479.761 313.96C481.361 316.947 482.161 320.44 482.161 324.44V327.56H451.841C451.948 331.027 453.095 333.8 455.281 335.88C457.521 337.907 460.295 338.92 463.601 338.92C466.695 338.92 469.015 338.227 470.561 336.84C472.161 335.453 473.388 333.853 474.241 332.04L481.041 335.56C480.295 337.053 479.201 338.627 477.761 340.28C476.375 341.933 474.535 343.32 472.241 344.44C469.948 345.56 467.015 346.12 463.441 346.12ZM451.921 321.24H473.761C473.548 318.253 472.481 315.933 470.561 314.28C468.641 312.573 466.135 311.72 463.041 311.72C459.948 311.72 457.415 312.573 455.441 314.28C453.521 315.933 452.348 318.253 451.921 321.24ZM492.08 345V305.56H500.16V310.2H501.44C502.08 308.547 503.093 307.347 504.48 306.6C505.92 305.8 507.68 305.4 509.76 305.4H514.48V312.84H509.44C506.773 312.84 504.587 313.587 502.88 315.08C501.173 316.52 500.32 318.76 500.32 321.8V345H492.08ZM543.408 361V305.56H551.488V311.24H552.768C553.781 309.48 555.301 307.907 557.328 306.52C559.408 305.133 562.368 304.44 566.208 304.44C569.515 304.44 572.528 305.24 575.248 306.84C578.021 308.44 580.235 310.76 581.888 313.8C583.595 316.787 584.448 320.413 584.448 324.68V325.88C584.448 330.147 583.621 333.8 581.968 336.84C580.315 339.827 578.101 342.12 575.328 343.72C572.555 345.32 569.515 346.12 566.208 346.12C563.648 346.12 561.488 345.8 559.728 345.16C557.968 344.52 556.555 343.72 555.488 342.76C554.421 341.747 553.568 340.707 552.928 339.64H551.648V361H543.408ZM563.808 338.92C567.435 338.92 570.395 337.773 572.688 335.48C574.981 333.187 576.128 329.907 576.128 325.64V324.92C576.128 320.707 574.955 317.453 572.608 315.16C570.315 312.867 567.381 311.72 563.808 311.72C560.288 311.72 557.355 312.867 555.008 315.16C552.715 317.453 551.568 320.707 551.568 324.92V325.64C551.568 329.907 552.715 333.187 555.008 335.48C557.355 337.773 560.288 338.92 563.808 338.92ZM594.658 345V289H602.898V345H594.658ZM627.367 346.12C624.54 346.12 622.007 345.64 619.767 344.68C617.58 343.72 615.82 342.307 614.487 340.44C613.207 338.573 612.567 336.307 612.567 333.64C612.567 330.92 613.207 328.68 614.487 326.92C615.82 325.107 617.607 323.747 619.847 322.84C622.14 321.933 624.727 321.48 627.607 321.48H639.607V318.92C639.607 316.627 638.914 314.787 637.527 313.4C636.14 312.013 634.007 311.32 631.127 311.32C628.3 311.32 626.14 311.987 624.647 313.32C623.154 314.653 622.167 316.387 621.687 318.52L614.007 316.04C614.647 313.907 615.66 311.987 617.047 310.28C618.487 308.52 620.38 307.107 622.727 306.04C625.074 304.973 627.9 304.44 631.207 304.44C636.327 304.44 640.354 305.747 643.287 308.36C646.22 310.973 647.687 314.68 647.687 319.48V335.72C647.687 337.32 648.434 338.12 649.927 338.12H653.287V345H647.127C645.26 345 643.74 344.52 642.567 343.56C641.394 342.6 640.807 341.293 640.807 339.64V339.4H639.607C639.18 340.2 638.54 341.133 637.687 342.2C636.834 343.267 635.58 344.2 633.927 345C632.274 345.747 630.087 346.12 627.367 346.12ZM628.567 339.32C631.874 339.32 634.54 338.387 636.567 336.52C638.594 334.6 639.607 331.987 639.607 328.68V327.88H628.087C625.9 327.88 624.14 328.36 622.807 329.32C621.474 330.227 620.807 331.587 620.807 333.4C620.807 335.213 621.5 336.653 622.887 337.72C624.274 338.787 626.167 339.32 628.567 339.32ZM673.364 345C670.964 345 669.044 344.28 667.604 342.84C666.218 341.4 665.524 339.48 665.524 337.08V312.52H654.644V305.56H665.524V292.52H673.764V305.56H685.524V312.52H673.764V335.64C673.764 337.24 674.511 338.04 676.004 338.04H684.244V345H673.364ZM700.138 345V312.52H689.098V305.56H700.138V296.92C700.138 294.52 700.858 292.6 702.298 291.16C703.738 289.72 705.658 289 708.057 289H718.218V295.96H710.698C709.151 295.96 708.378 296.76 708.378 298.36V305.56H719.738V312.52H708.378V345H700.138ZM745.013 346.12C741.066 346.12 737.546 345.32 734.453 343.72C731.413 342.067 729.013 339.72 727.253 336.68C725.493 333.64 724.613 330.04 724.613 325.88V324.68C724.613 320.52 725.493 316.947 727.253 313.96C729.013 310.92 731.413 308.573 734.453 306.92C737.546 305.267 741.066 304.44 745.013 304.44C748.96 304.44 752.48 305.267 755.573 306.92C758.666 308.573 761.093 310.92 762.853 313.96C764.613 316.947 765.493 320.52 765.493 324.68V325.88C765.493 330.04 764.613 333.64 762.853 336.68C761.093 339.72 758.666 342.067 755.573 343.72C752.48 345.32 748.96 346.12 745.013 346.12ZM745.013 338.76C748.64 338.76 751.573 337.613 753.813 335.32C756.106 332.973 757.253 329.747 757.253 325.64V324.92C757.253 320.813 756.133 317.613 753.893 315.32C751.653 312.973 748.693 311.8 745.013 311.8C741.44 311.8 738.506 312.973 736.213 315.32C733.973 317.613 732.853 320.813 732.853 324.92V325.64C732.853 329.747 733.973 332.973 736.213 335.32C738.506 337.613 741.44 338.76 745.013 338.76ZM775.752 345V305.56H783.832V310.2H785.112C785.752 308.547 786.765 307.347 788.152 306.6C789.592 305.8 791.352 305.4 793.432 305.4H798.152V312.84H793.112C790.445 312.84 788.259 313.587 786.552 315.08C784.845 316.52 783.992 318.76 783.992 321.8V345H775.752ZM806.689 345V305.56H814.769V310.2H816.049C816.796 308.813 817.996 307.587 819.649 306.52C821.303 305.453 823.543 304.92 826.369 304.92C829.303 304.92 831.649 305.533 833.409 306.76C835.223 307.933 836.583 309.453 837.489 311.32H838.769C839.676 309.507 840.983 307.987 842.689 306.76C844.449 305.533 846.929 304.92 850.129 304.92C852.689 304.92 854.956 305.453 856.929 306.52C858.903 307.533 860.476 309.08 861.649 311.16C862.823 313.187 863.409 315.72 863.409 318.76V345H855.169V319.4C855.169 317 854.503 315.16 853.169 313.88C851.889 312.547 850.049 311.88 847.649 311.88C845.089 311.88 843.036 312.707 841.489 314.36C839.943 316.013 839.169 318.387 839.169 321.48V345H830.929V319.4C830.929 317 830.263 315.16 828.929 313.88C827.649 312.547 825.809 311.88 823.409 311.88C820.849 311.88 818.796 312.707 817.249 314.36C815.703 316.013 814.929 318.387 814.929 321.48V345H806.689ZM902.794 345V312.52H891.754V305.56H902.794V296.92C902.794 294.52 903.514 292.6 904.954 291.16C906.394 289.72 908.314 289 910.714 289H920.874V295.96H913.354C911.807 295.96 911.034 296.76 911.034 298.36V305.56H922.394V312.52H911.034V345H902.794ZM947.669 346.12C943.723 346.12 940.203 345.32 937.109 343.72C934.069 342.067 931.669 339.72 929.909 336.68C928.149 333.64 927.269 330.04 927.269 325.88V324.68C927.269 320.52 928.149 316.947 929.909 313.96C931.669 310.92 934.069 308.573 937.109 306.92C940.203 305.267 943.723 304.44 947.669 304.44C951.616 304.44 955.136 305.267 958.229 306.92C961.323 308.573 963.749 310.92 965.509 313.96C967.269 316.947 968.149 320.52 968.149 324.68V325.88C968.149 330.04 967.269 333.64 965.509 336.68C963.749 339.72 961.323 342.067 958.229 343.72C955.136 345.32 951.616 346.12 947.669 346.12ZM947.669 338.76C951.296 338.76 954.229 337.613 956.469 335.32C958.763 332.973 959.909 329.747 959.909 325.64V324.92C959.909 320.813 958.789 317.613 956.549 315.32C954.309 312.973 951.349 311.8 947.669 311.8C944.096 311.8 941.163 312.973 938.869 315.32C936.629 317.613 935.509 320.813 935.509 324.92V325.64C935.509 329.747 936.629 332.973 938.869 335.32C941.163 337.613 944.096 338.76 947.669 338.76ZM978.408 345V305.56H986.488V310.2H987.768C988.408 308.547 989.421 307.347 990.808 306.6C992.248 305.8 994.008 305.4 996.088 305.4H1000.81V312.84H995.768C993.101 312.84 990.915 313.587 989.208 315.08C987.501 316.52 986.648 318.76 986.648 321.8V345H978.408Z" fill="#0F172A"/>
<path d="M137.08 473V417.56H145.16V423.24H146.44C147.453 421.48 148.973 419.907 151 418.52C153.08 417.133 156.04 416.44 159.88 416.44C163.187 416.44 166.2 417.24 168.92 418.84C171.693 420.44 173.907 422.76 175.56 425.8C177.267 428.787 178.12 432.413 178.12 436.68V437.88C178.12 442.147 177.293 445.8 175.64 448.84C173.987 451.827 171.773 454.12 169 455.72C166.227 457.32 163.187 458.12 159.88 458.12C157.32 458.12 155.16 457.8 153.4 457.16C151.64 456.52 150.227 455.72 149.16 454.76C148.093 453.747 147.24 452.707 146.6 451.64H145.32V473H137.08ZM157.48 450.92C161.107 450.92 164.067 449.773 166.36 447.48C168.653 445.187 169.8 441.907 169.8 437.64V436.92C169.8 432.707 168.627 429.453 166.28 427.16C163.987 424.867 161.053 423.72 157.48 423.72C153.96 423.72 151.027 424.867 148.68 427.16C146.387 429.453 145.24 432.707 145.24 436.92V437.64C145.24 441.907 146.387 445.187 148.68 447.48C151.027 449.773 153.96 450.92 157.48 450.92ZM188.33 457V417.56H196.41V422.2H197.69C198.33 420.547 199.343 419.347 200.73 418.6C202.17 417.8 203.93 417.4 206.01 417.4H210.73V424.84H205.69C203.023 424.84 200.837 425.587 199.13 427.08C197.423 428.52 196.57 430.76 196.57 433.8V457H188.33ZM236.341 458.12C232.395 458.12 228.875 457.32 225.781 455.72C222.741 454.067 220.341 451.72 218.581 448.68C216.821 445.64 215.941 442.04 215.941 437.88V436.68C215.941 432.52 216.821 428.947 218.581 425.96C220.341 422.92 222.741 420.573 225.781 418.92C228.875 417.267 232.395 416.44 236.341 416.44C240.288 416.44 243.808 417.267 246.901 418.92C249.995 420.573 252.421 422.92 254.181 425.96C255.941 428.947 256.821 432.52 256.821 436.68V437.88C256.821 442.04 255.941 445.64 254.181 448.68C252.421 451.72 249.995 454.067 246.901 455.72C243.808 457.32 240.288 458.12 236.341 458.12ZM236.341 450.76C239.968 450.76 242.901 449.613 245.141 447.32C247.435 444.973 248.581 441.747 248.581 437.64V436.92C248.581 432.813 247.461 429.613 245.221 427.32C242.981 424.973 240.021 423.8 236.341 423.8C232.768 423.8 229.835 424.973 227.541 427.32C225.301 429.613 224.181 432.813 224.181 436.92V437.64C224.181 441.747 225.301 444.973 227.541 447.32C229.835 449.613 232.768 450.76 236.341 450.76ZM283.4 458.12C280.147 458.12 277.133 457.32 274.36 455.72C271.587 454.12 269.347 451.827 267.64 448.84C265.987 445.8 265.16 442.147 265.16 437.88V436.68C265.16 432.467 265.987 428.84 267.64 425.8C269.293 422.76 271.507 420.44 274.28 418.84C277.053 417.24 280.093 416.44 283.4 416.44C285.96 416.44 288.093 416.76 289.8 417.4C291.56 418.04 293 418.867 294.12 419.88C295.24 420.84 296.093 421.853 296.68 422.92H297.96V401H306.2V457H298.12V451.4H296.84C295.827 453.107 294.28 454.653 292.2 456.04C290.173 457.427 287.24 458.12 283.4 458.12ZM285.72 450.92C289.293 450.92 292.227 449.773 294.52 447.48C296.867 445.187 298.04 441.907 298.04 437.64V436.92C298.04 432.707 296.893 429.453 294.6 427.16C292.307 424.867 289.347 423.72 285.72 423.72C282.2 423.72 279.267 424.867 276.92 427.16C274.627 429.453 273.48 432.707 273.48 436.92V437.64C273.48 441.907 274.627 445.187 276.92 447.48C279.267 449.773 282.2 450.92 285.72 450.92ZM333.45 457.72C330.463 457.72 327.797 457.053 325.45 455.72C323.103 454.387 321.263 452.493 319.93 450.04C318.597 447.587 317.93 444.653 317.93 441.24V417.56H326.17V440.68C326.17 444.093 327.023 446.627 328.73 448.28C330.437 449.88 332.81 450.68 335.85 450.68C339.21 450.68 341.903 449.56 343.93 447.32C346.01 445.027 347.05 441.747 347.05 437.48V417.56H355.29V457H347.21V451.08H345.93C345.183 452.68 343.85 454.2 341.93 455.64C340.01 457.027 337.183 457.72 333.45 457.72ZM385.791 458.12C382.004 458.12 378.564 457.32 375.471 455.72C372.431 454.12 370.004 451.8 368.191 448.76C366.431 445.72 365.551 442.067 365.551 437.8V436.76C365.551 432.493 366.431 428.867 368.191 425.88C370.004 422.84 372.431 420.52 375.471 418.92C378.564 417.267 382.004 416.44 385.791 416.44C389.577 416.44 392.804 417.133 395.471 418.52C398.137 419.907 400.271 421.747 401.871 424.04C403.524 426.333 404.591 428.867 405.071 431.64L397.071 433.32C396.804 431.56 396.244 429.96 395.391 428.52C394.537 427.08 393.337 425.933 391.791 425.08C390.244 424.227 388.297 423.8 385.951 423.8C383.657 423.8 381.577 424.333 379.711 425.4C377.897 426.413 376.457 427.907 375.391 429.88C374.324 431.8 373.791 434.147 373.791 436.92V437.64C373.791 440.413 374.324 442.787 375.391 444.76C376.457 446.733 377.897 448.227 379.711 449.24C381.577 450.253 383.657 450.76 385.951 450.76C389.417 450.76 392.057 449.88 393.871 448.12C395.684 446.307 396.831 444.013 397.311 441.24L405.311 443.08C404.671 445.8 403.524 448.307 401.871 450.6C400.271 452.893 398.137 454.733 395.471 456.12C392.804 457.453 389.577 458.12 385.791 458.12ZM428.13 457C425.73 457 423.81 456.28 422.37 454.84C420.983 453.4 420.29 451.48 420.29 449.08V424.52H409.41V417.56H420.29V404.52H428.53V417.56H440.29V424.52H428.53V447.64C428.53 449.24 429.277 450.04 430.77 450.04H439.01V457H428.13ZM449.971 457V417.56H458.211V457H449.971ZM454.131 412.2C452.531 412.2 451.171 411.693 450.051 410.68C448.984 409.613 448.451 408.253 448.451 406.6C448.451 404.947 448.984 403.613 450.051 402.6C451.171 401.533 452.531 401 454.131 401C455.784 401 457.144 401.533 458.211 402.6C459.277 403.613 459.811 404.947 459.811 406.6C459.811 408.253 459.277 409.613 458.211 410.68C457.144 411.693 455.784 412.2 454.131 412.2ZM488.919 458.12C484.973 458.12 481.453 457.32 478.359 455.72C475.319 454.067 472.919 451.72 471.159 448.68C469.399 445.64 468.519 442.04 468.519 437.88V436.68C468.519 432.52 469.399 428.947 471.159 425.96C472.919 422.92 475.319 420.573 478.359 418.92C481.453 417.267 484.973 416.44 488.919 416.44C492.866 416.44 496.386 417.267 499.479 418.92C502.573 420.573 504.999 422.92 506.759 425.96C508.519 428.947 509.399 432.52 509.399 436.68V437.88C509.399 442.04 508.519 445.64 506.759 448.68C504.999 451.72 502.573 454.067 499.479 455.72C496.386 457.32 492.866 458.12 488.919 458.12ZM488.919 450.76C492.546 450.76 495.479 449.613 497.719 447.32C500.013 444.973 501.159 441.747 501.159 437.64V436.92C501.159 432.813 500.039 429.613 497.799 427.32C495.559 424.973 492.599 423.8 488.919 423.8C485.346 423.8 482.413 424.973 480.119 427.32C477.879 429.613 476.759 432.813 476.759 436.92V437.64C476.759 441.747 477.879 444.973 480.119 447.32C482.413 449.613 485.346 450.76 488.919 450.76ZM519.658 457V417.56H527.738V423.48H529.018C529.765 421.88 531.098 420.387 533.018 419C534.938 417.613 537.791 416.92 541.578 416.92C544.565 416.92 547.205 417.587 549.498 418.92C551.845 420.253 553.685 422.147 555.018 424.6C556.351 427 557.018 429.907 557.018 433.32V457H548.778V433.96C548.778 430.547 547.925 428.04 546.218 426.44C544.511 424.787 542.165 423.96 539.178 423.96C535.765 423.96 533.018 425.08 530.938 427.32C528.911 429.56 527.898 432.813 527.898 437.08V457H519.658ZM589.028 457V401H605.268L617.508 451.24H618.788L631.028 401H647.268V457H638.868V407.08H637.588L625.427 457H610.868L598.708 407.08H597.428V457H589.028ZM658.949 457V401H667.589V449.16H694.549V457H658.949Z" fill="url(#paint0_linear_2557_8861)"/>
<defs>
<linearGradient id="paint0_linear_2557_8861" x1="287" y1="408" x2="871" y2="457" gradientUnits="userSpaceOnUse">
<stop stop-color="#FF64CF"/>
<stop offset="1" stop-color="#27A8FF"/>
</linearGradient>
<clipPath id="clip0_2557_8861">
<rect x="131" y="158.564" width="43.8709" height="43.871" rx="21.9355" fill="white"/>
</clipPath>
</defs>
</svg>
