<svg width="59" height="59" viewBox="0 0 59 59" fill="none" xmlns="http://www.w3.org/2000/svg">
<path d="M22.6333 12.998L23.3404 12.2909L23.0475 11.998H22.6333V12.998ZM27.4666 17.8314L26.7595 18.5385L27.0524 18.8314H27.4666V17.8314ZM40.9666 25.0814C40.9666 25.6337 41.4143 26.0814 41.9666 26.0814C42.5189 26.0814 42.9666 25.6337 42.9666 25.0814H40.9666ZM9.1333 41.998V17.8314H7.1333V41.998H9.1333ZM12.9666 13.998H22.6333V11.998H12.9666V13.998ZM21.9262 13.7052L26.7595 18.5385L28.1737 17.1243L23.3404 12.2909L21.9262 13.7052ZM27.4666 18.8314H37.1333V16.8314H27.4666V18.8314ZM37.1333 18.8314C39.2504 18.8314 40.9666 20.5476 40.9666 22.6647H42.9666C42.9666 19.4431 40.355 16.8314 37.1333 16.8314V18.8314ZM9.1333 17.8314C9.1333 15.7143 10.8495 13.998 12.9666 13.998V11.998C9.74497 11.998 7.1333 14.6097 7.1333 17.8314H9.1333ZM7.1333 41.998C7.1333 45.2197 9.74497 47.8314 12.9666 47.8314V45.8314C10.8495 45.8314 9.1333 44.1151 9.1333 41.998H7.1333ZM40.9666 22.6647V25.0814H42.9666V22.6647H40.9666ZM18.8 29.9147C18.8 27.7976 20.5162 26.0814 22.6333 26.0814V24.0814C19.4116 24.0814 16.8 26.6931 16.8 29.9147H18.8ZM22.6333 26.0814H46.8V24.0814H22.6333V26.0814ZM46.8 26.0814C48.9171 26.0814 50.6333 27.7976 50.6333 29.9147H52.6333C52.6333 26.6931 50.0216 24.0814 46.8 24.0814V26.0814ZM50.6333 29.9147V41.998H52.6333V29.9147H50.6333ZM50.6333 41.998C50.6333 44.1151 48.9171 45.8314 46.8 45.8314V47.8314C50.0216 47.8314 52.6333 45.2197 52.6333 41.998H50.6333ZM46.8 45.8314H12.9666V47.8314H46.8V45.8314ZM12.9666 47.8314C16.1883 47.8314 18.8 45.2197 18.8 41.998H16.8C16.8 44.1151 15.0837 45.8314 12.9666 45.8314V47.8314ZM18.8 41.998V29.9147H16.8V41.998H18.8Z" fill="#03DAC5"/>
</svg>
