<svg width="1155" height="655" viewBox="0 0 1155 655" fill="none" xmlns="http://www.w3.org/2000/svg">
<rect width="1155" height="655" fill="#0F172A"/>
<g clip-path="url(#clip0_2547_8750)">
<rect x="450.259" y="107.701" width="48.5977" height="48.5977" rx="24.2989" fill="white"/>
<path d="M503.864 132.414C480.173 136.289 471.165 153.056 469.623 160.943C467.147 160.221 464.872 159.126 464.024 158.567C472.612 138.297 494.178 132.6 503.864 132.414Z" fill="#191F4D"/>
<path d="M503.728 130.143C479.734 132.868 459.631 141.641 456.365 151.312C454.489 149.041 453.331 146.497 453.03 145.747C470.585 133.413 494.031 130.324 503.728 130.143Z" fill="#191F4D"/>
<line x1="472.201" y1="151.857" x2="472.201" y2="161.215" stroke="#191F4D" stroke-width="1.45369"/>
<line x1="476.743" y1="145.86" x2="476.743" y2="161.488" stroke="#191F4D" stroke-width="1.45369"/>
<line x1="481.286" y1="141.727" x2="481.286" y2="161.488" stroke="#191F4D" stroke-width="1.45369"/>
<line x1="485.829" y1="138.32" x2="485.829" y2="160.943" stroke="#191F4D" stroke-width="1.45369"/>
<line x1="490.372" y1="135.775" x2="490.372" y2="159.307" stroke="#191F4D" stroke-width="1.45369"/>
<line x1="494.915" y1="134.413" x2="494.915" y2="157.172" stroke="#191F4D" stroke-width="1.45369"/>
<line x1="499.457" y1="133.095" x2="499.457" y2="155.446" stroke="#191F4D" stroke-width="1.45369"/>
</g>
<path d="M517.517 153V114.235H534.178C537.77 114.235 540.547 115.29 542.509 117.401C544.471 119.511 545.452 122.343 545.452 125.898C545.452 129.452 544.471 132.285 542.509 134.395C540.547 136.505 537.77 137.561 534.178 137.561H523.793V153H517.517ZM523.793 132.062H533.79C535.382 132.062 536.622 131.655 537.511 130.841C538.399 129.989 538.843 128.786 538.843 127.231V124.565C538.843 123.01 538.399 121.825 537.511 121.011C536.622 120.159 535.382 119.733 533.79 119.733H523.793V132.062ZM569.386 148.224H569.164C568.905 148.927 568.553 149.612 568.109 150.279C567.702 150.945 567.165 151.538 566.498 152.056C565.869 152.537 565.091 152.926 564.166 153.222C563.277 153.518 562.24 153.666 561.056 153.666C558.057 153.666 555.724 152.704 554.058 150.779C552.429 148.853 551.614 146.095 551.614 142.503V124.121H557.668V141.726C557.668 146.206 559.519 148.446 563.222 148.446C563.999 148.446 564.758 148.353 565.499 148.168C566.239 147.946 566.887 147.631 567.442 147.224C568.035 146.817 568.498 146.299 568.831 145.669C569.201 145.04 569.386 144.299 569.386 143.448V124.121H575.44V153H569.386V148.224ZM584.108 153V124.121H590.161V129.674H590.439C590.846 128.193 591.698 126.898 592.994 125.787C594.29 124.676 596.085 124.121 598.381 124.121H599.992V129.952H597.603C595.197 129.952 593.346 130.341 592.05 131.118C590.791 131.896 590.161 133.044 590.161 134.562V153H584.108ZM616.427 153.666C614.353 153.666 612.502 153.315 610.873 152.611C609.244 151.908 607.855 150.908 606.708 149.612C605.56 148.279 604.671 146.687 604.042 144.836C603.449 142.948 603.153 140.856 603.153 138.56C603.153 136.265 603.449 134.191 604.042 132.34C604.671 130.452 605.56 128.86 606.708 127.564C607.855 126.231 609.244 125.213 610.873 124.509C612.502 123.806 614.353 123.454 616.427 123.454C618.537 123.454 620.388 123.824 621.98 124.565C623.609 125.305 624.961 126.342 626.035 127.675C627.108 128.971 627.904 130.489 628.423 132.229C628.978 133.969 629.256 135.839 629.256 137.838V140.115H609.429V141.06C609.429 143.281 610.077 145.114 611.373 146.558C612.706 147.965 614.594 148.668 617.038 148.668C618.815 148.668 620.314 148.279 621.536 147.502C622.758 146.724 623.795 145.669 624.646 144.336L628.2 147.835C627.127 149.612 625.572 151.038 623.535 152.111C621.499 153.148 619.129 153.666 616.427 153.666ZM616.427 128.175C615.39 128.175 614.427 128.36 613.539 128.73C612.687 129.101 611.947 129.619 611.317 130.285C610.725 130.952 610.262 131.748 609.929 132.673C609.596 133.599 609.429 134.617 609.429 135.728V136.117H622.869V135.561C622.869 133.34 622.295 131.563 621.147 130.23C620 128.86 618.426 128.175 616.427 128.175ZM666.058 123.343H665.78L662.726 129.619L654.229 145.114L645.732 129.619L642.677 123.343H642.399V153H636.401V114.235H643.843L654.229 133.951H654.562L664.947 114.235H672.056V153H666.058V123.343ZM681.634 153V114.235H687.909V147.446H703.682V153H681.634Z" fill="white"/>
<path d="M210.708 220V216.16H214.468V195.84H210.708V192H221.908C225.641 192 228.495 192.947 230.468 194.84C232.468 196.733 233.468 199.587 233.468 203.4V208.64C233.468 212.453 232.468 215.307 230.468 217.2C228.495 219.067 225.641 220 221.908 220H210.708ZM218.828 216.08H221.948C224.375 216.08 226.175 215.467 227.348 214.24C228.521 213.013 229.108 211.187 229.108 208.76V203.24C229.108 200.787 228.521 198.96 227.348 197.76C226.175 196.56 224.375 195.96 221.948 195.96H218.828V216.08ZM247.51 220.56C245.51 220.56 243.763 220.147 242.27 219.32C240.776 218.467 239.603 217.28 238.75 215.76C237.923 214.213 237.51 212.427 237.51 210.4V209.92C237.51 207.867 237.923 206.08 238.75 204.56C239.576 203.013 240.723 201.827 242.19 201C243.683 200.147 245.403 199.72 247.35 199.72C249.243 199.72 250.896 200.147 252.31 201C253.75 201.827 254.87 202.987 255.67 204.48C256.47 205.973 256.87 207.72 256.87 209.72V211.28H241.71C241.763 213.013 242.336 214.4 243.43 215.44C244.55 216.453 245.936 216.96 247.59 216.96C249.136 216.96 250.296 216.613 251.07 215.92C251.87 215.227 252.483 214.427 252.91 213.52L256.31 215.28C255.936 216.027 255.39 216.813 254.67 217.64C253.976 218.467 253.056 219.16 251.91 219.72C250.763 220.28 249.296 220.56 247.51 220.56ZM241.75 208.12H252.67C252.563 206.627 252.03 205.467 251.07 204.64C250.11 203.787 248.856 203.36 247.31 203.36C245.763 203.36 244.496 203.787 243.51 204.64C242.55 205.467 241.963 206.627 241.75 208.12ZM265.686 220L259.046 200.28H263.406L268.646 216.96H269.286L274.526 200.28H278.886L272.246 220H265.686ZM291.221 220.56C289.221 220.56 287.474 220.147 285.981 219.32C284.487 218.467 283.314 217.28 282.461 215.76C281.634 214.213 281.221 212.427 281.221 210.4V209.92C281.221 207.867 281.634 206.08 282.461 204.56C283.287 203.013 284.434 201.827 285.901 201C287.394 200.147 289.114 199.72 291.061 199.72C292.954 199.72 294.607 200.147 296.021 201C297.461 201.827 298.581 202.987 299.381 204.48C300.181 205.973 300.581 207.72 300.581 209.72V211.28H285.421C285.474 213.013 286.047 214.4 287.141 215.44C288.261 216.453 289.647 216.96 291.301 216.96C292.847 216.96 294.007 216.613 294.781 215.92C295.581 215.227 296.194 214.427 296.621 213.52L300.021 215.28C299.647 216.027 299.101 216.813 298.381 217.64C297.687 218.467 296.767 219.16 295.621 219.72C294.474 220.28 293.007 220.56 291.221 220.56ZM285.461 208.12H296.381C296.274 206.627 295.741 205.467 294.781 204.64C293.821 203.787 292.567 203.36 291.021 203.36C289.474 203.36 288.207 203.787 287.221 204.64C286.261 205.467 285.674 206.627 285.461 208.12ZM305.54 220V192H309.66V220H305.54ZM325.014 220.56C323.041 220.56 321.281 220.16 319.734 219.36C318.214 218.533 317.014 217.36 316.134 215.84C315.254 214.32 314.814 212.52 314.814 210.44V209.84C314.814 207.76 315.254 205.973 316.134 204.48C317.014 202.96 318.214 201.787 319.734 200.96C321.281 200.133 323.041 199.72 325.014 199.72C326.988 199.72 328.748 200.133 330.294 200.96C331.841 201.787 333.054 202.96 333.934 204.48C334.814 205.973 335.254 207.76 335.254 209.84V210.44C335.254 212.52 334.814 214.32 333.934 215.84C333.054 217.36 331.841 218.533 330.294 219.36C328.748 220.16 326.988 220.56 325.014 220.56ZM325.014 216.88C326.828 216.88 328.294 216.307 329.414 215.16C330.561 213.987 331.134 212.373 331.134 210.32V209.96C331.134 207.907 330.574 206.307 329.454 205.16C328.334 203.987 326.854 203.4 325.014 203.4C323.228 203.4 321.761 203.987 320.614 205.16C319.494 206.307 318.934 207.907 318.934 209.96V210.32C318.934 212.373 319.494 213.987 320.614 215.16C321.761 216.307 323.228 216.88 325.014 216.88ZM340.384 228V200.28H344.424V203.12H345.064C345.57 202.24 346.33 201.453 347.344 200.76C348.384 200.067 349.864 199.72 351.784 199.72C353.437 199.72 354.944 200.12 356.304 200.92C357.69 201.72 358.797 202.88 359.624 204.4C360.477 205.893 360.904 207.707 360.904 209.84V210.44C360.904 212.573 360.49 214.4 359.664 215.92C358.837 217.413 357.73 218.56 356.344 219.36C354.957 220.16 353.437 220.56 351.784 220.56C350.504 220.56 349.424 220.4 348.544 220.08C347.664 219.76 346.957 219.36 346.424 218.88C345.89 218.373 345.464 217.853 345.144 217.32H344.504V228H340.384ZM350.584 216.96C352.397 216.96 353.877 216.387 355.024 215.24C356.17 214.093 356.744 212.453 356.744 210.32V209.96C356.744 207.853 356.157 206.227 354.984 205.08C353.837 203.933 352.37 203.36 350.584 203.36C348.824 203.36 347.357 203.933 346.184 205.08C345.037 206.227 344.464 207.853 344.464 209.96V210.32C344.464 212.453 345.037 214.093 346.184 215.24C347.357 216.387 348.824 216.96 350.584 216.96ZM375.049 220.56C373.049 220.56 371.302 220.147 369.809 219.32C368.315 218.467 367.142 217.28 366.289 215.76C365.462 214.213 365.049 212.427 365.049 210.4V209.92C365.049 207.867 365.462 206.08 366.289 204.56C367.115 203.013 368.262 201.827 369.729 201C371.222 200.147 372.942 199.72 374.889 199.72C376.782 199.72 378.435 200.147 379.849 201C381.289 201.827 382.409 202.987 383.209 204.48C384.009 205.973 384.409 207.72 384.409 209.72V211.28H369.249C369.302 213.013 369.875 214.4 370.969 215.44C372.089 216.453 373.475 216.96 375.129 216.96C376.675 216.96 377.835 216.613 378.609 215.92C379.409 215.227 380.022 214.427 380.449 213.52L383.849 215.28C383.475 216.027 382.929 216.813 382.209 217.64C381.515 218.467 380.595 219.16 379.449 219.72C378.302 220.28 376.835 220.56 375.049 220.56ZM369.289 208.12H380.209C380.102 206.627 379.569 205.467 378.609 204.64C377.649 203.787 376.395 203.36 374.849 203.36C373.302 203.36 372.035 203.787 371.049 204.64C370.089 205.467 369.502 206.627 369.289 208.12ZM389.368 220V200.28H393.408V202.6H394.048C394.368 201.773 394.875 201.173 395.568 200.8C396.288 200.4 397.168 200.2 398.208 200.2H400.568V203.92H398.048C396.715 203.92 395.621 204.293 394.768 205.04C393.915 205.76 393.488 206.88 393.488 208.4V220H389.368ZM415.032 228V200.28H419.072V203.12H419.712C420.219 202.24 420.979 201.453 421.992 200.76C423.032 200.067 424.512 199.72 426.432 199.72C428.086 199.72 429.592 200.12 430.952 200.92C432.339 201.72 433.446 202.88 434.272 204.4C435.126 205.893 435.552 207.707 435.552 209.84V210.44C435.552 212.573 435.139 214.4 434.312 215.92C433.486 217.413 432.379 218.56 430.992 219.36C429.606 220.16 428.086 220.56 426.432 220.56C425.152 220.56 424.072 220.4 423.192 220.08C422.312 219.76 421.606 219.36 421.072 218.88C420.539 218.373 420.112 217.853 419.792 217.32H419.152V228H415.032ZM425.232 216.96C427.046 216.96 428.526 216.387 429.672 215.24C430.819 214.093 431.392 212.453 431.392 210.32V209.96C431.392 207.853 430.806 206.227 429.632 205.08C428.486 203.933 427.019 203.36 425.232 203.36C423.472 203.36 422.006 203.933 420.832 205.08C419.686 206.227 419.112 207.853 419.112 209.96V210.32C419.112 212.453 419.686 214.093 420.832 215.24C422.006 216.387 423.472 216.96 425.232 216.96ZM440.657 220V192H444.777V220H440.657ZM457.012 220.56C455.598 220.56 454.332 220.32 453.212 219.84C452.118 219.36 451.238 218.653 450.572 217.72C449.932 216.787 449.612 215.653 449.612 214.32C449.612 212.96 449.932 211.84 450.572 210.96C451.238 210.053 452.132 209.373 453.252 208.92C454.398 208.467 455.692 208.24 457.132 208.24H463.132V206.96C463.132 205.813 462.785 204.893 462.092 204.2C461.398 203.507 460.332 203.16 458.892 203.16C457.478 203.16 456.398 203.493 455.652 204.16C454.905 204.827 454.412 205.693 454.172 206.76L450.332 205.52C450.652 204.453 451.158 203.493 451.852 202.64C452.572 201.76 453.518 201.053 454.692 200.52C455.865 199.987 457.278 199.72 458.932 199.72C461.492 199.72 463.505 200.373 464.972 201.68C466.438 202.987 467.172 204.84 467.172 207.24V215.36C467.172 216.16 467.545 216.56 468.292 216.56H469.972V220H466.892C465.958 220 465.198 219.76 464.612 219.28C464.025 218.8 463.732 218.147 463.732 217.32V217.2H463.132C462.918 217.6 462.598 218.067 462.172 218.6C461.745 219.133 461.118 219.6 460.292 220C459.465 220.373 458.372 220.56 457.012 220.56ZM457.612 217.16C459.265 217.16 460.598 216.693 461.612 215.76C462.625 214.8 463.132 213.493 463.132 211.84V211.44H457.372C456.278 211.44 455.398 211.68 454.732 212.16C454.065 212.613 453.732 213.293 453.732 214.2C453.732 215.107 454.078 215.827 454.772 216.36C455.465 216.893 456.412 217.16 457.612 217.16ZM480.01 220C478.81 220 477.85 219.64 477.13 218.92C476.437 218.2 476.09 217.24 476.09 216.04V203.76H470.65V200.28H476.09V193.76H480.21V200.28H486.09V203.76H480.21V215.32C480.21 216.12 480.584 216.52 481.33 216.52H485.45V220H480.01ZM493.397 220V203.76H487.877V200.28H493.397V195.96C493.397 194.76 493.757 193.8 494.477 193.08C495.197 192.36 496.157 192 497.357 192H502.437V195.48H498.677C497.904 195.48 497.517 195.88 497.517 196.68V200.28H503.197V203.76H497.517V220H493.397ZM515.835 220.56C513.861 220.56 512.101 220.16 510.555 219.36C509.035 218.533 507.835 217.36 506.955 215.84C506.075 214.32 505.635 212.52 505.635 210.44V209.84C505.635 207.76 506.075 205.973 506.955 204.48C507.835 202.96 509.035 201.787 510.555 200.96C512.101 200.133 513.861 199.72 515.835 199.72C517.808 199.72 519.568 200.133 521.115 200.96C522.661 201.787 523.875 202.96 524.755 204.48C525.635 205.973 526.075 207.76 526.075 209.84V210.44C526.075 212.52 525.635 214.32 524.755 215.84C523.875 217.36 522.661 218.533 521.115 219.36C519.568 220.16 517.808 220.56 515.835 220.56ZM515.835 216.88C517.648 216.88 519.115 216.307 520.235 215.16C521.381 213.987 521.955 212.373 521.955 210.32V209.96C521.955 207.907 521.395 206.307 520.275 205.16C519.155 203.987 517.675 203.4 515.835 203.4C514.048 203.4 512.581 203.987 511.435 205.16C510.315 206.307 509.755 207.907 509.755 209.96V210.32C509.755 212.373 510.315 213.987 511.435 215.16C512.581 216.307 514.048 216.88 515.835 216.88ZM531.204 220V200.28H535.244V202.6H535.884C536.204 201.773 536.711 201.173 537.404 200.8C538.124 200.4 539.004 200.2 540.044 200.2H542.404V203.92H539.884C538.551 203.92 537.457 204.293 536.604 205.04C535.751 205.76 535.324 206.88 535.324 208.4V220H531.204ZM546.673 220V200.28H550.713V202.6H551.353C551.726 201.907 552.326 201.293 553.153 200.76C553.979 200.227 555.099 199.96 556.513 199.96C557.979 199.96 559.153 200.267 560.033 200.88C560.939 201.467 561.619 202.227 562.073 203.16H562.713C563.166 202.253 563.819 201.493 564.673 200.88C565.553 200.267 566.793 199.96 568.393 199.96C569.673 199.96 570.806 200.227 571.793 200.76C572.779 201.267 573.566 202.04 574.153 203.08C574.739 204.093 575.033 205.36 575.033 206.88V220H570.913V207.2C570.913 206 570.579 205.08 569.913 204.44C569.273 203.773 568.353 203.44 567.153 203.44C565.873 203.44 564.846 203.853 564.073 204.68C563.299 205.507 562.913 206.693 562.913 208.24V220H558.793V207.2C558.793 206 558.459 205.08 557.793 204.44C557.153 203.773 556.233 203.44 555.033 203.44C553.753 203.44 552.726 203.853 551.953 204.68C551.179 205.507 550.793 206.693 550.793 208.24V220H546.673ZM594.725 220V203.76H589.205V200.28H594.725V195.96C594.725 194.76 595.085 193.8 595.805 193.08C596.525 192.36 597.485 192 598.685 192H603.765V195.48H600.005C599.232 195.48 598.845 195.88 598.845 196.68V200.28H604.525V203.76H598.845V220H594.725ZM617.163 220.56C615.189 220.56 613.429 220.16 611.883 219.36C610.363 218.533 609.163 217.36 608.283 215.84C607.403 214.32 606.963 212.52 606.963 210.44V209.84C606.963 207.76 607.403 205.973 608.283 204.48C609.163 202.96 610.363 201.787 611.883 200.96C613.429 200.133 615.189 199.72 617.163 199.72C619.136 199.72 620.896 200.133 622.443 200.96C623.989 201.787 625.203 202.96 626.083 204.48C626.963 205.973 627.403 207.76 627.403 209.84V210.44C627.403 212.52 626.963 214.32 626.083 215.84C625.203 217.36 623.989 218.533 622.443 219.36C620.896 220.16 619.136 220.56 617.163 220.56ZM617.163 216.88C618.976 216.88 620.443 216.307 621.563 215.16C622.709 213.987 623.283 212.373 623.283 210.32V209.96C623.283 207.907 622.723 206.307 621.603 205.16C620.483 203.987 619.003 203.4 617.163 203.4C615.376 203.4 613.909 203.987 612.763 205.16C611.643 206.307 611.083 207.907 611.083 209.96V210.32C611.083 212.373 611.643 213.987 612.763 215.16C613.909 216.307 615.376 216.88 617.163 216.88ZM632.532 220V200.28H636.572V202.6H637.212C637.532 201.773 638.039 201.173 638.732 200.8C639.452 200.4 640.332 200.2 641.372 200.2H643.732V203.92H641.212C639.879 203.92 638.786 204.293 637.932 205.04C637.079 205.76 636.652 206.88 636.652 208.4V220H632.532ZM658.076 220V192H669.196C670.903 192 672.423 192.347 673.756 193.04C675.116 193.707 676.17 194.667 676.916 195.92C677.69 197.147 678.076 198.627 678.076 200.36V200.88C678.076 202.613 677.676 204.107 676.876 205.36C676.103 206.613 675.05 207.573 673.716 208.24C672.383 208.907 670.876 209.24 669.196 209.24H662.396V220H658.076ZM662.396 205.32H668.756C670.276 205.32 671.49 204.92 672.396 204.12C673.303 203.32 673.756 202.227 673.756 200.84V200.44C673.756 199.027 673.303 197.92 672.396 197.12C671.49 196.32 670.276 195.92 668.756 195.92H662.396V205.32ZM682.298 220V200.28H686.338V202.6H686.978C687.298 201.773 687.804 201.173 688.498 200.8C689.218 200.4 690.098 200.2 691.138 200.2H693.498V203.92H690.978C689.644 203.92 688.551 204.293 687.698 205.04C686.844 205.76 686.418 206.88 686.418 208.4V220H682.298ZM706.303 220.56C704.33 220.56 702.57 220.16 701.023 219.36C699.503 218.533 698.303 217.36 697.423 215.84C696.543 214.32 696.103 212.52 696.103 210.44V209.84C696.103 207.76 696.543 205.973 697.423 204.48C698.303 202.96 699.503 201.787 701.023 200.96C702.57 200.133 704.33 199.72 706.303 199.72C708.277 199.72 710.037 200.133 711.583 200.96C713.13 201.787 714.343 202.96 715.223 204.48C716.103 205.973 716.543 207.76 716.543 209.84V210.44C716.543 212.52 716.103 214.32 715.223 215.84C714.343 217.36 713.13 218.533 711.583 219.36C710.037 220.16 708.277 220.56 706.303 220.56ZM706.303 216.88C708.117 216.88 709.583 216.307 710.703 215.16C711.85 213.987 712.423 212.373 712.423 210.32V209.96C712.423 207.907 711.863 206.307 710.743 205.16C709.623 203.987 708.143 203.4 706.303 203.4C704.517 203.4 703.05 203.987 701.903 205.16C700.783 206.307 700.223 207.907 700.223 209.96V210.32C700.223 212.373 700.783 213.987 701.903 215.16C703.05 216.307 704.517 216.88 706.303 216.88ZM729.833 220.56C728.206 220.56 726.699 220.16 725.313 219.36C723.926 218.56 722.806 217.413 721.953 215.92C721.126 214.4 720.713 212.573 720.713 210.44V209.84C720.713 207.733 721.126 205.92 721.953 204.4C722.779 202.88 723.886 201.72 725.273 200.92C726.659 200.12 728.179 199.72 729.833 199.72C731.113 199.72 732.179 199.88 733.033 200.2C733.913 200.52 734.633 200.933 735.193 201.44C735.753 201.92 736.179 202.427 736.473 202.96H737.113V192H741.233V220H737.193V217.2H736.553C736.046 218.053 735.273 218.827 734.233 219.52C733.219 220.213 731.753 220.56 729.833 220.56ZM730.993 216.96C732.779 216.96 734.246 216.387 735.393 215.24C736.566 214.093 737.153 212.453 737.153 210.32V209.96C737.153 207.853 736.579 206.227 735.433 205.08C734.286 203.933 732.806 203.36 730.993 203.36C729.233 203.36 727.766 203.933 726.593 205.08C725.446 206.227 724.873 207.853 724.873 209.96V210.32C724.873 212.453 725.446 214.093 726.593 215.24C727.766 216.387 729.233 216.96 730.993 216.96ZM754.858 220.36C753.364 220.36 752.031 220.027 750.858 219.36C749.684 218.693 748.764 217.747 748.098 216.52C747.431 215.293 747.098 213.827 747.098 212.12V200.28H751.218V211.84C751.218 213.547 751.644 214.813 752.498 215.64C753.351 216.44 754.538 216.84 756.058 216.84C757.738 216.84 759.084 216.28 760.098 215.16C761.138 214.013 761.658 212.373 761.658 210.24V200.28H765.778V220H761.738V217.04H761.098C760.724 217.84 760.058 218.6 759.098 219.32C758.138 220.013 756.724 220.36 754.858 220.36ZM781.028 220.56C779.135 220.56 777.415 220.16 775.868 219.36C774.348 218.56 773.135 217.4 772.228 215.88C771.348 214.36 770.908 212.533 770.908 210.4V209.88C770.908 207.747 771.348 205.933 772.228 204.44C773.135 202.92 774.348 201.76 775.868 200.96C777.415 200.133 779.135 199.72 781.028 199.72C782.921 199.72 784.535 200.067 785.868 200.76C787.201 201.453 788.268 202.373 789.068 203.52C789.895 204.667 790.428 205.933 790.668 207.32L786.668 208.16C786.535 207.28 786.255 206.48 785.828 205.76C785.401 205.04 784.801 204.467 784.028 204.04C783.255 203.613 782.281 203.4 781.108 203.4C779.961 203.4 778.921 203.667 777.988 204.2C777.081 204.707 776.361 205.453 775.828 206.44C775.295 207.4 775.028 208.573 775.028 209.96V210.32C775.028 211.707 775.295 212.893 775.828 213.88C776.361 214.867 777.081 215.613 777.988 216.12C778.921 216.627 779.961 216.88 781.108 216.88C782.841 216.88 784.161 216.44 785.068 215.56C785.975 214.653 786.548 213.507 786.788 212.12L790.788 213.04C790.468 214.4 789.895 215.653 789.068 216.8C788.268 217.947 787.201 218.867 785.868 219.56C784.535 220.227 782.921 220.56 781.028 220.56ZM802.198 220C800.998 220 800.038 219.64 799.318 218.92C798.624 218.2 798.278 217.24 798.278 216.04V203.76H792.838V200.28H798.278V193.76H802.398V200.28H808.278V203.76H802.398V215.32C802.398 216.12 802.771 216.52 803.518 216.52H807.638V220H802.198ZM813.118 220V200.28H817.238V220H813.118ZM815.198 197.6C814.398 197.6 813.718 197.347 813.158 196.84C812.625 196.307 812.358 195.627 812.358 194.8C812.358 193.973 812.625 193.307 813.158 192.8C813.718 192.267 814.398 192 815.198 192C816.025 192 816.705 192.267 817.238 192.8C817.771 193.307 818.038 193.973 818.038 194.8C818.038 195.627 817.771 196.307 817.238 196.84C816.705 197.347 816.025 197.6 815.198 197.6ZM832.593 220.56C830.619 220.56 828.859 220.16 827.313 219.36C825.793 218.533 824.593 217.36 823.713 215.84C822.833 214.32 822.393 212.52 822.393 210.44V209.84C822.393 207.76 822.833 205.973 823.713 204.48C824.593 202.96 825.793 201.787 827.313 200.96C828.859 200.133 830.619 199.72 832.593 199.72C834.566 199.72 836.326 200.133 837.873 200.96C839.419 201.787 840.633 202.96 841.513 204.48C842.393 205.973 842.833 207.76 842.833 209.84V210.44C842.833 212.52 842.393 214.32 841.513 215.84C840.633 217.36 839.419 218.533 837.873 219.36C836.326 220.16 834.566 220.56 832.593 220.56ZM832.593 216.88C834.406 216.88 835.873 216.307 836.993 215.16C838.139 213.987 838.713 212.373 838.713 210.32V209.96C838.713 207.907 838.153 206.307 837.033 205.16C835.913 203.987 834.433 203.4 832.593 203.4C830.806 203.4 829.339 203.987 828.193 205.16C827.073 206.307 826.513 207.907 826.513 209.96V210.32C826.513 212.373 827.073 213.987 828.193 215.16C829.339 216.307 830.806 216.88 832.593 216.88ZM847.962 220V200.28H852.002V203.24H852.642C853.015 202.44 853.682 201.693 854.642 201C855.602 200.307 857.029 199.96 858.922 199.96C860.415 199.96 861.735 200.293 862.882 200.96C864.055 201.627 864.975 202.573 865.642 203.8C866.309 205 866.642 206.453 866.642 208.16V220H862.522V208.48C862.522 206.773 862.095 205.52 861.242 204.72C860.389 203.893 859.215 203.48 857.722 203.48C856.015 203.48 854.642 204.04 853.602 205.16C852.589 206.28 852.082 207.907 852.082 210.04V220H847.962ZM882.647 220V192H890.767L896.887 217.12H897.527L903.647 192H911.767V220H907.567V195.04H906.927L900.847 220H893.567L887.487 195.04H886.847V220H882.647ZM917.608 220V192H921.928V216.08H935.408V220H917.608ZM941.965 220.56C941.032 220.56 940.245 220.253 939.605 219.64C938.992 219.027 938.685 218.24 938.685 217.28C938.685 216.32 938.992 215.547 939.605 214.96C940.245 214.347 941.032 214.04 941.965 214.04C942.899 214.04 943.672 214.347 944.285 214.96C944.925 215.573 945.245 216.347 945.245 217.28C945.245 218.24 944.925 219.027 944.285 219.64C943.672 220.253 942.899 220.56 941.965 220.56Z" fill="#E2E8F0"/>
<path d="M182.075 382.735L174.514 379L147.425 392.386C146.232 392.972 144.768 392.972 143.575 392.386L116.486 379L108.925 382.735C108.34 383.024 107.854 383.44 107.516 383.941C107.178 384.441 107 385.009 107 385.587C107 386.166 107.178 386.733 107.516 387.234C107.854 387.735 108.34 388.151 108.925 388.44L143.575 405.56C144.768 406.147 146.232 406.147 147.425 405.56L182.075 388.44C182.66 388.151 183.146 387.735 183.484 387.234C183.822 386.733 184 386.166 184 385.587C184 385.009 183.822 384.441 183.484 383.941C183.146 383.44 182.66 383.024 182.075 382.735Z" fill="#94A3B8"/>
<g filter="url(#filter0_b_2547_8750)">
<path d="M182.075 369.873L174.514 366L147.425 379.881C146.232 380.489 144.768 380.489 143.575 379.881L116.486 366L108.925 369.873C108.34 370.173 107.854 370.604 107.516 371.124C107.178 371.643 107 372.232 107 372.831C107 373.431 107.178 374.02 107.516 374.539C107.854 375.058 108.34 375.49 108.925 375.789L143.575 393.544C144.768 394.152 146.232 394.152 147.425 393.544L182.075 375.789C182.66 375.49 183.146 375.058 183.484 374.539C183.822 374.02 184 373.431 184 372.831C184 372.232 183.822 371.643 183.484 371.124C183.146 370.604 182.66 370.173 182.075 369.873Z" fill="url(#paint0_linear_2547_8750)"/>
</g>
<g filter="url(#filter1_b_2547_8750)">
<path d="M145.5 381C144.822 381 144.16 380.848 143.575 380.56L108.925 363.359C108.34 363.068 107.854 362.651 107.516 362.147C107.178 361.644 107 361.074 107 360.493C107 359.912 107.178 359.341 107.516 358.838C107.854 358.335 108.34 357.918 108.925 357.627L143.575 340.439C144.768 339.854 146.232 339.854 147.425 340.439L182.075 357.627C182.66 357.918 183.146 358.335 183.484 358.838C183.822 359.341 184 359.912 184 360.493C184 361.074 183.822 361.644 183.484 362.147C183.146 362.651 182.66 363.068 182.075 363.359L147.425 380.56C146.839 380.849 146.175 381.001 145.5 381Z" fill="url(#paint1_linear_2547_8750)" fill-opacity="0.5"/>
<path d="M145.5 380.75H145.5C146.138 380.751 146.764 380.607 147.314 380.336L145.5 380.75ZM145.5 380.75C144.86 380.75 144.236 380.606 143.686 380.336C143.686 380.336 143.686 380.336 143.685 380.336L109.036 363.135L109.036 363.135C108.487 362.862 108.035 362.472 107.723 362.008C107.412 361.544 107.25 361.022 107.25 360.493C107.25 359.964 107.412 359.442 107.723 358.978C108.035 358.514 108.487 358.124 109.036 357.851C109.036 357.851 109.036 357.851 109.036 357.851L143.685 340.664C143.685 340.664 143.686 340.664 143.686 340.663C144.809 340.112 146.191 340.112 147.314 340.663C147.314 340.664 147.315 340.664 147.315 340.664L181.964 357.851C182.513 358.124 182.965 358.514 183.277 358.978C183.588 359.442 183.75 359.964 183.75 360.493C183.75 361.022 183.588 361.544 183.277 362.008C182.965 362.472 182.513 362.862 181.964 363.135L182.075 363.359L181.964 363.135L147.314 380.336L145.5 380.75ZM145.5 381C144.822 381 144.16 380.848 143.575 380.56L145.5 381Z" stroke="url(#paint2_linear_2547_8750)" stroke-width="0.5"/>
</g>
<path d="M399.075 382.735L391.514 379L364.425 392.386C363.232 392.972 361.768 392.972 360.575 392.386L333.486 379L325.925 382.735C325.34 383.024 324.854 383.44 324.516 383.941C324.178 384.441 324 385.009 324 385.587C324 386.166 324.178 386.733 324.516 387.234C324.854 387.735 325.34 388.151 325.925 388.44L360.575 405.56C361.768 406.147 363.232 406.147 364.425 405.56L399.075 388.44C399.66 388.151 400.146 387.735 400.484 387.234C400.822 386.733 401 386.166 401 385.587C401 385.009 400.822 384.441 400.484 383.941C400.146 383.44 399.66 383.024 399.075 382.735Z" fill="#94A3B8"/>
<g filter="url(#filter2_b_2547_8750)">
<path d="M399.075 369.873L391.514 366L364.425 379.881C363.232 380.489 361.768 380.489 360.575 379.881L333.486 366L325.925 369.873C325.34 370.173 324.854 370.604 324.516 371.124C324.178 371.643 324 372.232 324 372.831C324 373.431 324.178 374.02 324.516 374.539C324.854 375.058 325.34 375.49 325.925 375.789L360.575 393.544C361.768 394.152 363.232 394.152 364.425 393.544L399.075 375.789C399.66 375.49 400.146 375.058 400.484 374.539C400.822 374.02 401 373.431 401 372.831C401 372.232 400.822 371.643 400.484 371.124C400.146 370.604 399.66 370.173 399.075 369.873Z" fill="url(#paint3_linear_2547_8750)"/>
</g>
<g filter="url(#filter3_b_2547_8750)">
<path d="M362.5 381C361.822 381 361.16 380.848 360.575 380.56L325.925 363.359C325.34 363.068 324.854 362.651 324.516 362.147C324.178 361.644 324 361.074 324 360.493C324 359.912 324.178 359.341 324.516 358.838C324.854 358.335 325.34 357.918 325.925 357.627L360.575 340.439C361.768 339.854 363.232 339.854 364.425 340.439L399.075 357.627C399.66 357.918 400.146 358.335 400.484 358.838C400.822 359.341 401 359.912 401 360.493C401 361.074 400.822 361.644 400.484 362.147C400.146 362.651 399.66 363.068 399.075 363.359L364.425 380.56C363.839 380.849 363.175 381.001 362.5 381Z" fill="url(#paint4_linear_2547_8750)" fill-opacity="0.5"/>
<path d="M362.5 380.75H362.5C363.138 380.751 363.764 380.607 364.314 380.336L362.5 380.75ZM362.5 380.75C361.86 380.75 361.236 380.606 360.686 380.336C360.686 380.336 360.686 380.336 360.685 380.336L326.036 363.135L326.036 363.135C325.487 362.862 325.035 362.472 324.723 362.008C324.412 361.544 324.25 361.022 324.25 360.493C324.25 359.964 324.412 359.442 324.723 358.978C325.035 358.514 325.487 358.124 326.036 357.851C326.036 357.851 326.036 357.851 326.036 357.851L360.685 340.664C360.685 340.664 360.686 340.664 360.686 340.663C361.809 340.112 363.191 340.112 364.314 340.663C364.314 340.664 364.315 340.664 364.315 340.664L398.964 357.851C399.513 358.124 399.965 358.514 400.277 358.978C400.588 359.442 400.75 359.964 400.75 360.493C400.75 361.022 400.588 361.544 400.277 362.008C399.965 362.472 399.513 362.862 398.964 363.135L399.075 363.359L398.964 363.135L364.314 380.336L362.5 380.75ZM362.5 381C361.822 381 361.16 380.848 360.575 380.56L362.5 381Z" stroke="url(#paint5_linear_2547_8750)" stroke-width="0.5"/>
</g>
<g filter="url(#filter4_b_2547_8750)">
<mask id="path-21-inside-1_2547_8750" fill="white">
<path fill-rule="evenodd" clip-rule="evenodd" d="M398 409C406.837 409 414 401.837 414 393C414 384.163 406.837 377 398 377C389.163 377 382 384.163 382 393C382 401.837 389.163 409 398 409ZM389.691 394.021C389.494 394.217 389.494 394.535 389.691 394.731L394.981 399.984C395.176 400.177 395.491 400.177 395.686 399.984L406.976 388.773C407.173 388.578 407.173 388.259 406.976 388.064L405.586 386.683C405.391 386.49 405.076 386.49 404.881 386.683L395.686 395.813C395.491 396.007 395.176 396.007 394.981 395.813L391.786 392.641C391.591 392.447 391.276 392.447 391.081 392.641L389.691 394.021Z"/>
</mask>
<path fill-rule="evenodd" clip-rule="evenodd" d="M398 409C406.837 409 414 401.837 414 393C414 384.163 406.837 377 398 377C389.163 377 382 384.163 382 393C382 401.837 389.163 409 398 409ZM389.691 394.021C389.494 394.217 389.494 394.535 389.691 394.731L394.981 399.984C395.176 400.177 395.491 400.177 395.686 399.984L406.976 388.773C407.173 388.578 407.173 388.259 406.976 388.064L405.586 386.683C405.391 386.49 405.076 386.49 404.881 386.683L395.686 395.813C395.491 396.007 395.176 396.007 394.981 395.813L391.786 392.641C391.591 392.447 391.276 392.447 391.081 392.641L389.691 394.021Z" fill="url(#paint6_linear_2547_8750)" fill-opacity="0.5"/>
<path d="M391.786 392.641L391.433 392.995L391.786 392.641ZM391.081 392.641L391.433 392.995L391.081 392.641ZM395.686 395.813L396.038 396.168L395.686 395.813ZM394.981 395.813L394.629 396.168L394.981 395.813ZM405.586 386.683L405.233 387.038L405.586 386.683ZM406.976 388.773L406.624 388.418L406.976 388.773ZM406.976 388.064L407.328 387.709L406.976 388.064ZM389.691 394.731L390.043 394.376L389.691 394.731ZM394.981 399.984L395.333 399.629L394.981 399.984ZM395.686 399.984L395.333 399.629L395.686 399.984ZM413.5 393C413.5 401.56 406.56 408.5 398 408.5V409.5C407.113 409.5 414.5 402.113 414.5 393H413.5ZM398 377.5C406.56 377.5 413.5 384.44 413.5 393H414.5C414.5 383.887 407.113 376.5 398 376.5V377.5ZM382.5 393C382.5 384.44 389.44 377.5 398 377.5V376.5C388.887 376.5 381.5 383.887 381.5 393H382.5ZM398 408.5C389.44 408.5 382.5 401.56 382.5 393H381.5C381.5 402.113 388.887 409.5 398 409.5V408.5ZM395.333 399.629L390.043 394.376L389.338 395.086L394.629 400.338L395.333 399.629ZM406.624 388.418L395.333 399.629L396.038 400.338L407.328 389.128L406.624 388.418ZM405.233 387.038L406.624 388.418L407.328 387.709L405.938 386.328L405.233 387.038ZM396.038 396.168L405.233 387.038L404.529 386.328L395.333 395.459L396.038 396.168ZM391.433 392.995L394.629 396.168L395.333 395.459L392.138 392.286L391.433 392.995ZM390.043 394.376L391.433 392.995L390.729 392.286L389.338 393.666L390.043 394.376ZM392.138 392.286C391.748 391.899 391.119 391.899 390.729 392.286L391.433 392.995L392.138 392.286ZM395.333 395.459L394.629 396.168C395.019 396.555 395.648 396.555 396.038 396.168L395.333 395.459ZM405.938 386.328C405.548 385.941 404.919 385.941 404.529 386.328L405.233 387.038L405.938 386.328ZM407.328 389.128C407.722 388.737 407.722 388.1 407.328 387.709L406.624 388.418L407.328 389.128ZM390.043 394.376H390.043L389.338 393.666C388.944 394.057 388.944 394.694 389.338 395.086L390.043 394.376ZM394.629 400.338C395.019 400.726 395.648 400.726 396.038 400.338L395.333 399.629L395.333 399.629L394.629 400.338Z" fill="url(#paint7_linear_2547_8750)" mask="url(#path-21-inside-1_2547_8750)"/>
</g>
<g filter="url(#filter5_b_2547_8750)">
<path d="M1056.1 394.25C1056.1 406.428 1046.23 416.3 1034.05 416.3C1021.87 416.3 1012 406.428 1012 394.25C1012 382.072 1021.87 372.2 1034.05 372.2C1046.23 372.2 1056.1 382.072 1056.1 394.25Z" fill="url(#paint8_linear_2547_8750)" fill-opacity="0.25"/>
</g>
<g filter="url(#filter6_b_2547_8750)">
<path d="M1045.07 389.926C1041.34 387.764 1036.79 388.344 1033.72 391.051L1029.06 388.353V375.02C1029.06 373.64 1028.32 372.356 1027.13 371.671L1015.17 364.789V358.892C1019.06 357.573 1021.85 353.899 1021.85 349.566C1021.85 344.126 1017.45 339.723 1012.01 339.723C1006.57 339.723 1002.17 344.126 1002.17 349.566C1002.17 353.899 1004.96 357.573 1008.84 358.892V364.789L996.892 371.671C995.696 372.356 994.958 373.64 994.958 375.02V388.344L990.3 391.042C987.232 388.335 982.671 387.755 978.944 389.917C974.242 392.642 972.643 398.653 975.341 403.355C978.048 408.058 984.033 409.675 988.718 406.959C992.453 404.797 994.229 400.543 993.429 396.518L997.709 394.03L1010.07 401.149C1010.66 401.492 1011.33 401.668 1012 401.668C1012.67 401.668 1013.34 401.492 1013.93 401.149L1026.28 394.039L1030.56 396.526C1029.76 400.543 1031.55 404.806 1035.27 406.968C1039.96 409.684 1045.95 408.075 1048.65 403.364C1051.36 398.653 1049.76 392.642 1045.07 389.926ZM985.923 402.09C985.446 402.366 984.918 402.546 984.371 402.618C983.824 402.689 983.268 402.652 982.736 402.509C982.203 402.365 981.704 402.117 981.268 401.78C980.831 401.442 980.466 401.022 980.192 400.543C979.032 398.53 979.718 395.946 981.731 394.786C982.208 394.51 982.735 394.33 983.282 394.258C983.829 394.187 984.385 394.224 984.918 394.367C985.45 394.511 985.949 394.759 986.386 395.096C986.822 395.433 987.188 395.854 987.461 396.333C988.621 398.346 987.936 400.93 985.923 402.09ZM1007.78 349.566C1007.8 348.462 1008.26 347.411 1009.05 346.639C1009.84 345.866 1010.9 345.433 1012 345.433C1013.1 345.433 1014.16 345.866 1014.95 346.639C1015.74 347.411 1016.2 348.462 1016.22 349.566C1016.2 350.67 1015.74 351.722 1014.95 352.494C1014.16 353.267 1013.1 353.7 1012 353.7C1010.9 353.7 1009.84 353.267 1009.05 352.494C1008.26 351.722 1007.8 350.67 1007.78 349.566ZM1022.72 388.783L1012 394.962L1001.28 388.783V376.443L1012 370.265L1022.72 376.443V388.783ZM1043.81 400.552C1042.65 402.564 1040.08 403.259 1038.08 402.099C1036.07 400.938 1035.38 398.354 1036.54 396.342C1037.7 394.329 1040.27 393.635 1042.27 394.795C1044.28 395.955 1044.97 398.53 1043.81 400.552Z" fill="url(#paint9_linear_2547_8750)" fill-opacity="0.5"/>
<path d="M1033.78 391.664L1033.47 391.483L1028.81 388.785L1028.56 388.641V388.353V375.02C1028.56 373.817 1027.92 372.7 1026.88 372.105L1026.88 372.104L1014.92 365.222L1014.67 365.078V364.789V358.892V358.533L1015.01 358.418C1018.7 357.166 1021.35 353.679 1021.35 349.566C1021.35 344.402 1017.17 340.223 1012.01 340.223C1006.84 340.223 1002.67 344.402 1002.67 349.566C1002.67 353.679 1005.32 357.166 1009.01 358.418L1009.34 358.533V358.892V364.789V365.078L1009.09 365.222L997.141 372.104L997.14 372.105C996.102 372.7 995.458 373.817 995.458 375.02V388.344V388.632L995.209 388.776L990.55 391.475L990.239 391.655L989.969 391.417C987.058 388.848 982.73 388.299 979.195 390.349L979.195 390.35C974.732 392.936 973.213 398.642 975.775 403.107C978.345 407.57 984.024 409.102 988.467 406.526L988.467 406.526C992.011 404.475 993.698 400.438 992.938 396.615L992.869 396.265L993.178 396.085L997.458 393.598L997.708 393.453L997.959 393.597L1010.32 400.716L1033.78 391.664ZM1033.78 391.664L1034.05 391.426M1033.78 391.664L1034.05 391.426M1034.05 391.426C1036.96 388.857 1041.28 388.307 1044.82 390.359C1049.27 392.935 1050.79 398.642 1048.22 403.115L1048.22 403.116C1045.66 407.586 1039.97 409.112 1035.52 406.535C1031.99 404.484 1030.29 400.438 1031.05 396.624L1031.12 396.274L1030.81 396.094L1026.53 393.607L1026.28 393.461M1034.05 391.426L1026.28 393.461M1026.28 393.461L1026.03 393.606M1026.28 393.461L1026.03 393.606M1026.03 393.606L1013.68 400.716L1026.03 393.606ZM1007.28 349.556L1007.28 349.566L1007.28 349.577C1007.31 350.811 1007.81 351.987 1008.7 352.851C1009.58 353.716 1010.77 354.2 1012 354.2C1013.24 354.2 1014.42 353.716 1015.3 352.851C1016.19 351.987 1016.69 350.811 1016.72 349.577L1016.72 349.566L1016.72 349.556C1016.69 348.321 1016.19 347.146 1015.3 346.281C1014.42 345.417 1013.24 344.933 1012 344.933C1010.77 344.933 1009.58 345.417 1008.7 346.281C1007.81 347.146 1007.31 348.321 1007.28 349.556ZM1022.97 389.216L1023.22 389.072V388.783V376.443V376.154L1022.97 376.01L1012.25 369.831L1012 369.688L1011.75 369.831L1001.03 376.01L1000.78 376.154V376.443V388.783V389.072L1001.03 389.216L1011.75 395.395L1012 395.539L1012.25 395.395L1022.97 389.216ZM1044.24 400.801L1044.24 400.801C1045.54 398.542 1044.77 395.662 1042.52 394.362C1040.28 393.062 1037.4 393.842 1036.11 396.092C1034.81 398.344 1035.58 401.233 1037.83 402.531C1040.07 403.831 1042.94 403.052 1044.24 400.801ZM1012 401.168C1011.42 401.168 1010.84 401.015 1010.32 400.716L1013.68 400.716C1013.16 401.015 1012.58 401.168 1012 401.168ZM984.436 403.113C985.049 403.033 985.639 402.832 986.173 402.523C988.426 401.224 989.191 398.334 987.895 396.084C987.589 395.548 987.18 395.078 986.691 394.701C986.203 394.323 985.644 394.046 985.048 393.885C984.452 393.724 983.829 393.682 983.217 393.763C982.605 393.843 982.015 394.044 981.48 394.353C979.228 395.652 978.462 398.542 979.759 400.792C980.065 401.328 980.474 401.798 980.962 402.175C981.451 402.553 982.009 402.83 982.606 402.991C983.202 403.152 983.824 403.194 984.436 403.113Z" stroke="url(#paint10_linear_2547_8750)"/>
</g>
<g filter="url(#filter7_b_2547_8750)">
<path d="M793.278 338.344L793.28 338.345L822.155 354.144C822.902 354.553 823.526 355.155 823.961 355.888C824.395 356.621 824.625 357.457 824.625 358.309C824.625 358.309 824.625 358.309 824.625 358.309V389.687C824.623 390.537 824.393 391.371 823.958 392.102C823.524 392.834 822.901 393.435 822.155 393.843L822.155 393.843L793.28 409.649L793.278 409.65C792.581 410.035 791.797 410.237 791 410.237C790.203 410.237 789.419 410.035 788.722 409.65L788.72 409.649L759.845 393.843L759.845 393.843C759.099 393.435 758.476 392.834 758.042 392.102C757.607 391.371 757.377 390.537 757.375 389.687V358.306C757.377 357.456 757.607 356.622 758.042 355.891C758.476 355.16 759.099 354.559 759.845 354.151L759.845 354.151L788.72 338.345L788.722 338.344C789.419 337.958 790.203 337.756 791 337.756C791.797 337.756 792.581 337.958 793.278 338.344ZM791.24 342.061L791 341.93L790.76 342.061L780.988 347.406L780.187 347.845L780.988 348.284L807.353 362.721L807.593 362.853L807.833 362.721L817.605 357.376L818.406 356.938L817.605 356.499L791.24 342.061ZM790.76 371.814L791 371.945L791.24 371.814L802.367 365.72L803.168 365.282L802.367 364.843L776.002 350.406L775.762 350.274L775.522 350.406L764.395 356.499L763.594 356.938L764.395 357.376L790.76 371.814ZM820.115 390.139L820.375 389.997V389.701V389.688V361.548V360.704L819.635 361.109L809.135 366.854L808.875 366.997V367.293V381.875C808.875 382.439 808.651 382.979 808.253 383.378C807.854 383.776 807.314 384 806.75 384C806.186 384 805.646 383.776 805.247 383.378C804.849 382.979 804.625 382.439 804.625 381.875V370.167V369.324L803.885 369.729L793.385 375.474L793.125 375.617V375.913V404.069V404.913L793.865 404.508L820.115 390.139Z" fill="url(#paint11_linear_2547_8750)" fill-opacity="0.75" stroke="url(#paint12_linear_2547_8750)"/>
<g filter="url(#filter8_b_2547_8750)">
<rect width="34.641" height="34.641" rx="4" transform="matrix(0.866025 0.5 -2.20305e-08 1 751 362)" fill="url(#paint13_linear_2547_8750)" fill-opacity="0.45"/>
</g>
</g>
<g clip-path="url(#clip1_2547_8750)">
<rect x="523.29" y="361.742" width="9.30325" height="4.65162" fill="#94A3B8"/>
<rect x="535.916" y="361.742" width="15.2839" height="4.65162" fill="#94A3B8"/>
</g>
<g clip-path="url(#clip2_2547_8750)">
<rect x="510" y="371.045" width="15.2839" height="4.65162" fill="#94A3B8"/>
<rect x="528.606" y="371.045" width="22.5936" height="4.65162" fill="#94A3B8"/>
</g>
<g clip-path="url(#clip3_2547_8750)">
<rect x="519.968" y="380.348" width="18.6065" height="4.65162" fill="#94A3B8"/>
<rect x="541.897" y="380.348" width="9.30325" height="4.65162" fill="#94A3B8"/>
</g>
<g clip-path="url(#clip4_2547_8750)" filter="url(#filter9_b_2547_8750)">
<g filter="url(#filter10_b_2547_8750)">
<path d="M577.958 409.916C558.233 409.916 542 393.683 542 373.958C542 354.233 558.233 338 577.958 338C597.683 338 613.916 354.233 613.916 373.958C613.912 381.866 611.282 389.549 606.44 395.801L612.626 401.987C613.505 402.866 614 404.06 614 405.305C614 407.882 611.882 410 609.305 410C608.06 410 606.866 409.505 605.987 408.626L599.801 402.44C593.549 407.282 585.866 409.912 577.958 409.916ZM597.95 391.913C602.403 386.992 604.872 380.594 604.88 373.958C604.88 359.189 592.727 347.036 577.958 347.036C569.852 347.036 562.535 350.696 557.582 356.441H573.347V363.815H553.043C552.308 365.595 551.769 367.45 551.435 369.347H569.66V376.724H551.18C551.441 379.259 552.071 381.743 553.043 384.101H565.973V391.475H557.582C562.535 397.22 569.852 400.88 577.958 400.88C584.828 400.88 591.134 398.249 595.913 393.95C596.366 393.077 597.077 392.366 597.95 391.913ZM569.66 391.475H591.788V384.101H569.66V391.475ZM588.101 376.724H602.852V369.347H588.101V376.724ZM573.347 376.724H582.569V369.347H573.347V376.724ZM578.879 363.815H593.633V356.441H578.879V363.815Z" fill="url(#paint14_linear_2547_8750)" fill-opacity="0.5"/>
<path d="M606.045 395.495L605.775 395.843L606.086 396.155L612.272 402.341C613.058 403.126 613.5 404.193 613.5 405.305C613.5 407.606 611.606 409.5 609.305 409.5C608.193 409.5 607.126 409.058 606.341 408.272L600.155 402.086L599.843 401.775L599.495 402.045C593.33 406.819 585.755 409.412 577.958 409.416C558.509 409.416 542.5 393.407 542.5 373.958C542.5 354.509 558.509 338.5 577.958 338.5C597.407 338.5 613.416 354.509 613.416 373.958C613.412 381.755 610.819 389.33 606.045 395.495ZM598.18 392.357L598.26 392.315L598.321 392.248C602.857 387.236 605.372 380.719 605.38 373.959V373.958C605.38 358.913 593.003 346.536 577.958 346.536C569.698 346.536 562.246 350.266 557.203 356.115L556.491 356.941H557.582H572.847V363.315H553.043H552.709L552.581 363.624C551.832 365.438 551.283 367.328 550.943 369.26L550.839 369.847H551.435H569.16V376.224H551.18H550.626L550.683 376.775C550.949 379.359 551.591 381.89 552.581 384.292L552.708 384.601H553.043H565.473V390.975H557.582H556.491L557.203 391.801C562.246 397.65 569.698 401.38 577.958 401.38C584.958 401.38 591.381 398.699 596.247 394.322L596.315 394.261L596.357 394.18C596.762 393.399 597.399 392.762 598.18 392.357ZM591.288 390.975H570.16V384.601H591.288V390.975ZM602.352 376.224H588.601V369.847H602.352V376.224ZM582.069 376.224H573.847V369.847H582.069V376.224ZM593.133 363.315H579.379V356.941H593.133V363.315Z" stroke="url(#paint15_linear_2547_8750)"/>
</g>
</g>
<path d="M103.435 473L97.9747 453.4H101.111L105.871 471.096H106.235L110.967 453.4H114.103L108.671 473H103.435ZM122.249 473.392C120.849 473.392 119.626 473.103 118.581 472.524C117.536 471.927 116.714 471.096 116.117 470.032C115.538 468.949 115.249 467.699 115.249 466.28V465.944C115.249 464.507 115.538 463.256 116.117 462.192C116.696 461.109 117.498 460.279 118.525 459.7C119.57 459.103 120.774 458.804 122.137 458.804C123.462 458.804 124.62 459.103 125.609 459.7C126.617 460.279 127.401 461.091 127.961 462.136C128.521 463.181 128.801 464.404 128.801 465.804V466.896H118.189C118.226 468.109 118.628 469.08 119.393 469.808C120.177 470.517 121.148 470.872 122.305 470.872C123.388 470.872 124.2 470.629 124.741 470.144C125.301 469.659 125.73 469.099 126.029 468.464L128.409 469.696C128.148 470.219 127.765 470.769 127.261 471.348C126.776 471.927 126.132 472.412 125.329 472.804C124.526 473.196 123.5 473.392 122.249 473.392ZM118.217 464.684H125.861C125.786 463.639 125.413 462.827 124.741 462.248C124.069 461.651 123.192 461.352 122.109 461.352C121.026 461.352 120.14 461.651 119.449 462.248C118.777 462.827 118.366 463.639 118.217 464.684ZM132.273 473V459.196H135.101V460.82H135.549C135.773 460.241 136.127 459.821 136.613 459.56C137.117 459.28 137.733 459.14 138.461 459.14H140.113V461.744H138.349C137.415 461.744 136.65 462.005 136.053 462.528C135.455 463.032 135.157 463.816 135.157 464.88V473H132.273ZM148.456 473.392C146.701 473.392 145.245 473 144.088 472.216C142.931 471.432 142.221 470.247 141.96 468.66L144.648 468.016C144.797 468.781 145.049 469.388 145.404 469.836C145.759 470.284 146.197 470.601 146.72 470.788C147.261 470.975 147.84 471.068 148.456 471.068C149.371 471.068 150.071 470.891 150.556 470.536C151.06 470.181 151.312 469.724 151.312 469.164C151.312 468.604 151.079 468.193 150.612 467.932C150.145 467.671 149.455 467.456 148.54 467.288L147.588 467.12C146.655 466.952 145.805 466.709 145.04 466.392C144.275 466.075 143.668 465.636 143.22 465.076C142.772 464.516 142.548 463.797 142.548 462.92C142.548 461.613 143.033 460.605 144.004 459.896C144.975 459.168 146.263 458.804 147.868 458.804C149.417 458.804 150.687 459.159 151.676 459.868C152.684 460.559 153.337 461.501 153.636 462.696L150.948 463.452C150.78 462.612 150.425 462.024 149.884 461.688C149.343 461.333 148.671 461.156 147.868 461.156C147.084 461.156 146.468 461.305 146.02 461.604C145.572 461.884 145.348 462.285 145.348 462.808C145.348 463.368 145.563 463.779 145.992 464.04C146.44 464.301 147.037 464.497 147.784 464.628L148.764 464.796C149.753 464.964 150.659 465.197 151.48 465.496C152.301 465.795 152.945 466.224 153.412 466.784C153.897 467.344 154.14 468.091 154.14 469.024C154.14 470.405 153.627 471.479 152.6 472.244C151.573 473.009 150.192 473.392 148.456 473.392ZM157.511 473V459.196H160.395V473H157.511ZM158.967 457.32C158.407 457.32 157.931 457.143 157.539 456.788C157.165 456.415 156.979 455.939 156.979 455.36C156.979 454.781 157.165 454.315 157.539 453.96C157.931 453.587 158.407 453.4 158.967 453.4C159.545 453.4 160.021 453.587 160.395 453.96C160.768 454.315 160.955 454.781 160.955 455.36C160.955 455.939 160.768 456.415 160.395 456.788C160.021 457.143 159.545 457.32 158.967 457.32ZM171.143 473.392C169.762 473.392 168.53 473.112 167.447 472.552C166.383 471.973 165.543 471.152 164.927 470.088C164.311 469.024 164.003 467.764 164.003 466.308V465.888C164.003 464.432 164.311 463.181 164.927 462.136C165.543 461.072 166.383 460.251 167.447 459.672C168.53 459.093 169.762 458.804 171.143 458.804C172.524 458.804 173.756 459.093 174.839 459.672C175.922 460.251 176.771 461.072 177.387 462.136C178.003 463.181 178.311 464.432 178.311 465.888V466.308C178.311 467.764 178.003 469.024 177.387 470.088C176.771 471.152 175.922 471.973 174.839 472.552C173.756 473.112 172.524 473.392 171.143 473.392ZM171.143 470.816C172.412 470.816 173.439 470.415 174.223 469.612C175.026 468.791 175.427 467.661 175.427 466.224V465.972C175.427 464.535 175.035 463.415 174.251 462.612C173.467 461.791 172.431 461.38 171.143 461.38C169.892 461.38 168.866 461.791 168.063 462.612C167.279 463.415 166.887 464.535 166.887 465.972V466.224C166.887 467.661 167.279 468.791 168.063 469.612C168.866 470.415 169.892 470.816 171.143 470.816ZM181.901 473V459.196H184.729V461.268H185.177C185.439 460.708 185.905 460.185 186.577 459.7C187.249 459.215 188.248 458.972 189.573 458.972C190.619 458.972 191.543 459.205 192.345 459.672C193.167 460.139 193.811 460.801 194.277 461.66C194.744 462.5 194.977 463.517 194.977 464.712V473H192.093V464.936C192.093 463.741 191.795 462.864 191.197 462.304C190.6 461.725 189.779 461.436 188.733 461.436C187.539 461.436 186.577 461.828 185.849 462.612C185.14 463.396 184.785 464.535 184.785 466.028V473H181.901Z" fill="white"/>
<line x1="221" y1="462.5" x2="285" y2="462.5" stroke="#94A3B8"/>
<path d="M315.329 473L309.869 453.4H313.005L317.765 471.096H318.129L322.861 453.4H325.997L320.565 473H315.329ZM332.1 473.392C331.11 473.392 330.224 473.224 329.44 472.888C328.674 472.552 328.058 472.057 327.592 471.404C327.144 470.751 326.92 469.957 326.92 469.024C326.92 468.072 327.144 467.288 327.592 466.672C328.058 466.037 328.684 465.561 329.468 465.244C330.27 464.927 331.176 464.768 332.184 464.768H336.384V463.872C336.384 463.069 336.141 462.425 335.656 461.94C335.17 461.455 334.424 461.212 333.416 461.212C332.426 461.212 331.67 461.445 331.148 461.912C330.625 462.379 330.28 462.985 330.112 463.732L327.424 462.864C327.648 462.117 328.002 461.445 328.488 460.848C328.992 460.232 329.654 459.737 330.476 459.364C331.297 458.991 332.286 458.804 333.444 458.804C335.236 458.804 336.645 459.261 337.672 460.176C338.698 461.091 339.212 462.388 339.212 464.068V469.752C339.212 470.312 339.473 470.592 339.996 470.592H341.172V473H339.016C338.362 473 337.83 472.832 337.42 472.496C337.009 472.16 336.804 471.703 336.804 471.124V471.04H336.384C336.234 471.32 336.01 471.647 335.712 472.02C335.413 472.393 334.974 472.72 334.396 473C333.817 473.261 333.052 473.392 332.1 473.392ZM332.52 471.012C333.677 471.012 334.61 470.685 335.32 470.032C336.029 469.36 336.384 468.445 336.384 467.288V467.008H332.352C331.586 467.008 330.97 467.176 330.504 467.512C330.037 467.829 329.803 468.305 329.803 468.94C329.803 469.575 330.046 470.079 330.532 470.452C331.017 470.825 331.68 471.012 332.52 471.012ZM343.976 473V453.4H346.86V473H343.976ZM351.14 473V459.196H354.024V473H351.14ZM352.596 457.32C352.036 457.32 351.56 457.143 351.168 456.788C350.794 456.415 350.608 455.939 350.608 455.36C350.608 454.781 350.794 454.315 351.168 453.96C351.56 453.587 352.036 453.4 352.596 453.4C353.174 453.4 353.65 453.587 354.024 453.96C354.397 454.315 354.584 454.781 354.584 455.36C354.584 455.939 354.397 456.415 354.024 456.788C353.65 457.143 353.174 457.32 352.596 457.32ZM364.016 473.392C362.877 473.392 361.822 473.112 360.852 472.552C359.881 471.992 359.097 471.189 358.5 470.144C357.921 469.08 357.632 467.801 357.632 466.308V465.888C357.632 464.413 357.921 463.144 358.5 462.08C359.078 461.016 359.853 460.204 360.824 459.644C361.794 459.084 362.858 458.804 364.016 458.804C364.912 458.804 365.658 458.916 366.256 459.14C366.872 459.364 367.376 459.653 367.768 460.008C368.16 460.344 368.458 460.699 368.664 461.072H369.112V453.4H371.996V473H369.168V471.04H368.72C368.365 471.637 367.824 472.179 367.096 472.664C366.386 473.149 365.36 473.392 364.016 473.392ZM364.828 470.872C366.078 470.872 367.105 470.471 367.908 469.668C368.729 468.865 369.14 467.717 369.14 466.224V465.972C369.14 464.497 368.738 463.359 367.936 462.556C367.133 461.753 366.097 461.352 364.828 461.352C363.596 461.352 362.569 461.753 361.748 462.556C360.945 463.359 360.544 464.497 360.544 465.972V466.224C360.544 467.717 360.945 468.865 361.748 469.668C362.569 470.471 363.596 470.872 364.828 470.872ZM380.525 473.392C379.536 473.392 378.649 473.224 377.865 472.888C377.1 472.552 376.484 472.057 376.017 471.404C375.569 470.751 375.345 469.957 375.345 469.024C375.345 468.072 375.569 467.288 376.017 466.672C376.484 466.037 377.109 465.561 377.893 465.244C378.696 464.927 379.601 464.768 380.609 464.768H384.809V463.872C384.809 463.069 384.567 462.425 384.081 461.94C383.596 461.455 382.849 461.212 381.841 461.212C380.852 461.212 380.096 461.445 379.573 461.912C379.051 462.379 378.705 462.985 378.537 463.732L375.849 462.864C376.073 462.117 376.428 461.445 376.913 460.848C377.417 460.232 378.08 459.737 378.901 459.364C379.723 458.991 380.712 458.804 381.869 458.804C383.661 458.804 385.071 459.261 386.097 460.176C387.124 461.091 387.637 462.388 387.637 464.068V469.752C387.637 470.312 387.899 470.592 388.421 470.592H389.597V473H387.441C386.788 473 386.256 472.832 385.845 472.496C385.435 472.16 385.229 471.703 385.229 471.124V471.04H384.809C384.66 471.32 384.436 471.647 384.137 472.02C383.839 472.393 383.4 472.72 382.821 473C382.243 473.261 381.477 473.392 380.525 473.392ZM380.945 471.012C382.103 471.012 383.036 470.685 383.745 470.032C384.455 469.36 384.809 468.445 384.809 467.288V467.008H380.777C380.012 467.008 379.396 467.176 378.929 467.512C378.463 467.829 378.229 468.305 378.229 468.94C378.229 469.575 378.472 470.079 378.957 470.452C379.443 470.825 380.105 471.012 380.945 471.012ZM396.624 473C395.784 473 395.112 472.748 394.608 472.244C394.123 471.74 393.88 471.068 393.88 470.228V461.632H390.072V459.196H393.88V454.632H396.764V459.196H400.88V461.632H396.764V469.724C396.764 470.284 397.026 470.564 397.548 470.564H400.432V473H396.624ZM410.104 473.392C408.704 473.392 407.482 473.103 406.436 472.524C405.391 471.927 404.57 471.096 403.972 470.032C403.394 468.949 403.104 467.699 403.104 466.28V465.944C403.104 464.507 403.394 463.256 403.972 462.192C404.551 461.109 405.354 460.279 406.38 459.7C407.426 459.103 408.63 458.804 409.992 458.804C411.318 458.804 412.475 459.103 413.464 459.7C414.472 460.279 415.256 461.091 415.816 462.136C416.376 463.181 416.656 464.404 416.656 465.804V466.896H406.044C406.082 468.109 406.483 469.08 407.248 469.808C408.032 470.517 409.003 470.872 410.16 470.872C411.243 470.872 412.055 470.629 412.596 470.144C413.156 469.659 413.586 469.099 413.884 468.464L416.264 469.696C416.003 470.219 415.62 470.769 415.116 471.348C414.631 471.927 413.987 472.412 413.184 472.804C412.382 473.196 411.355 473.392 410.104 473.392ZM406.072 464.684H413.716C413.642 463.639 413.268 462.827 412.596 462.248C411.924 461.651 411.047 461.352 409.964 461.352C408.882 461.352 407.995 461.651 407.304 462.248C406.632 462.827 406.222 463.639 406.072 464.684Z" fill="white"/>
<line x1="442" y1="462.5" x2="506" y2="462.5" stroke="#94A3B8"/>
<path d="M532.735 473V453.4H540.967C542.181 453.4 543.245 453.615 544.159 454.044C545.093 454.455 545.811 455.052 546.315 455.836C546.838 456.62 547.099 457.553 547.099 458.636V458.944C547.099 460.176 546.801 461.165 546.203 461.912C545.625 462.64 544.915 463.153 544.075 463.452V463.9C544.785 463.937 545.354 464.18 545.783 464.628C546.213 465.057 546.427 465.683 546.427 466.504V473H543.375V466.924C543.375 466.42 543.245 466.019 542.983 465.72C542.722 465.421 542.302 465.272 541.723 465.272H535.759V473H532.735ZM535.759 462.528H540.631C541.714 462.528 542.554 462.257 543.151 461.716C543.749 461.156 544.047 460.4 544.047 459.448V459.224C544.047 458.272 543.749 457.525 543.151 456.984C542.573 456.424 541.733 456.144 540.631 456.144H535.759V462.528ZM556.839 473.392C555.439 473.392 554.216 473.103 553.171 472.524C552.125 471.927 551.304 471.096 550.707 470.032C550.128 468.949 549.839 467.699 549.839 466.28V465.944C549.839 464.507 550.128 463.256 550.707 462.192C551.285 461.109 552.088 460.279 553.115 459.7C554.16 459.103 555.364 458.804 556.727 458.804C558.052 458.804 559.209 459.103 560.199 459.7C561.207 460.279 561.991 461.091 562.551 462.136C563.111 463.181 563.391 464.404 563.391 465.804V466.896H552.779C552.816 468.109 553.217 469.08 553.983 469.808C554.767 470.517 555.737 470.872 556.895 470.872C557.977 470.872 558.789 470.629 559.331 470.144C559.891 469.659 560.32 469.099 560.619 468.464L562.999 469.696C562.737 470.219 562.355 470.769 561.851 471.348C561.365 471.927 560.721 472.412 559.919 472.804C559.116 473.196 558.089 473.392 556.839 473.392ZM552.807 464.684H560.451C560.376 463.639 560.003 462.827 559.331 462.248C558.659 461.651 557.781 461.352 556.699 461.352C555.616 461.352 554.729 461.651 554.039 462.248C553.367 462.827 552.956 463.639 552.807 464.684ZM569.562 473L564.914 459.196H567.966L571.634 470.872H572.082L575.75 459.196H578.802L574.154 473H569.562ZM581.601 473V459.196H584.485V473H581.601ZM583.057 457.32C582.497 457.32 582.021 457.143 581.629 456.788C581.255 456.415 581.069 455.939 581.069 455.36C581.069 454.781 581.255 454.315 581.629 453.96C582.021 453.587 582.497 453.4 583.057 453.4C583.635 453.4 584.111 453.587 584.485 453.96C584.858 454.315 585.045 454.781 585.045 455.36C585.045 455.939 584.858 456.415 584.485 456.788C584.111 457.143 583.635 457.32 583.057 457.32ZM595.093 473.392C593.693 473.392 592.47 473.103 591.425 472.524C590.379 471.927 589.558 471.096 588.961 470.032C588.382 468.949 588.093 467.699 588.093 466.28V465.944C588.093 464.507 588.382 463.256 588.961 462.192C589.539 461.109 590.342 460.279 591.369 459.7C592.414 459.103 593.618 458.804 594.981 458.804C596.306 458.804 597.463 459.103 598.453 459.7C599.461 460.279 600.245 461.091 600.805 462.136C601.365 463.181 601.645 464.404 601.645 465.804V466.896H591.033C591.07 468.109 591.471 469.08 592.237 469.808C593.021 470.517 593.991 470.872 595.149 470.872C596.231 470.872 597.043 470.629 597.585 470.144C598.145 469.659 598.574 469.099 598.873 468.464L601.253 469.696C600.991 470.219 600.609 470.769 600.105 471.348C599.619 471.927 598.975 472.412 598.173 472.804C597.37 473.196 596.343 473.392 595.093 473.392ZM591.061 464.684H598.705C598.63 463.639 598.257 462.827 597.585 462.248C596.913 461.651 596.035 461.352 594.953 461.352C593.87 461.352 592.983 461.651 592.293 462.248C591.621 462.827 591.21 463.639 591.061 464.684ZM606.464 473L604.112 459.196H606.996L608.732 471.068H609.18L611.588 459.196H616.264L618.644 471.068H619.092L620.828 459.196H623.712L621.36 473H616.516L614.136 461.156H613.688L611.308 473H606.464Z" fill="white"/>
<line x1="649" y1="462.5" x2="713" y2="462.5" stroke="#94A3B8"/>
<path d="M739.857 473V453.4H747.641C748.835 453.4 749.899 453.643 750.833 454.128C751.785 454.595 752.522 455.267 753.045 456.144C753.586 457.003 753.857 458.039 753.857 459.252V459.616C753.857 460.829 753.577 461.875 753.017 462.752C752.475 463.629 751.738 464.301 750.805 464.768C749.871 465.235 748.817 465.468 747.641 465.468H742.881V473H739.857ZM742.881 462.724H747.333C748.397 462.724 749.246 462.444 749.881 461.884C750.515 461.324 750.833 460.559 750.833 459.588V459.308C750.833 458.319 750.515 457.544 749.881 456.984C749.246 456.424 748.397 456.144 747.333 456.144H742.881V462.724ZM760.795 473.392C759.805 473.392 758.919 473.224 758.135 472.888C757.369 472.552 756.753 472.057 756.287 471.404C755.839 470.751 755.615 469.957 755.615 469.024C755.615 468.072 755.839 467.288 756.287 466.672C756.753 466.037 757.379 465.561 758.163 465.244C758.965 464.927 759.871 464.768 760.879 464.768H765.079V463.872C765.079 463.069 764.836 462.425 764.351 461.94C763.865 461.455 763.119 461.212 762.111 461.212C761.121 461.212 760.365 461.445 759.843 461.912C759.32 462.379 758.975 462.985 758.807 463.732L756.119 462.864C756.343 462.117 756.697 461.445 757.183 460.848C757.687 460.232 758.349 459.737 759.171 459.364C759.992 458.991 760.981 458.804 762.139 458.804C763.931 458.804 765.34 459.261 766.367 460.176C767.393 461.091 767.907 462.388 767.907 464.068V469.752C767.907 470.312 768.168 470.592 768.691 470.592H769.867V473H767.711C767.057 473 766.525 472.832 766.115 472.496C765.704 472.16 765.499 471.703 765.499 471.124V471.04H765.079C764.929 471.32 764.705 471.647 764.407 472.02C764.108 472.393 763.669 472.72 763.091 473C762.512 473.261 761.747 473.392 760.795 473.392ZM761.215 471.012C762.372 471.012 763.305 470.685 764.015 470.032C764.724 469.36 765.079 468.445 765.079 467.288V467.008H761.047C760.281 467.008 759.665 467.176 759.199 467.512C758.732 467.829 758.499 468.305 758.499 468.94C758.499 469.575 758.741 470.079 759.227 470.452C759.712 470.825 760.375 471.012 761.215 471.012ZM778.755 473.392C777.43 473.392 776.226 473.112 775.143 472.552C774.079 471.992 773.23 471.18 772.595 470.116C771.979 469.052 771.671 467.773 771.671 466.28V465.916C771.671 464.423 771.979 463.153 772.595 462.108C773.23 461.044 774.079 460.232 775.143 459.672C776.226 459.093 777.43 458.804 778.755 458.804C780.08 458.804 781.21 459.047 782.143 459.532C783.076 460.017 783.823 460.661 784.383 461.464C784.962 462.267 785.335 463.153 785.503 464.124L782.703 464.712C782.61 464.096 782.414 463.536 782.115 463.032C781.816 462.528 781.396 462.127 780.855 461.828C780.314 461.529 779.632 461.38 778.811 461.38C778.008 461.38 777.28 461.567 776.627 461.94C775.992 462.295 775.488 462.817 775.115 463.508C774.742 464.18 774.555 465.001 774.555 465.972V466.224C774.555 467.195 774.742 468.025 775.115 468.716C775.488 469.407 775.992 469.929 776.627 470.284C777.28 470.639 778.008 470.816 778.811 470.816C780.024 470.816 780.948 470.508 781.583 469.892C782.218 469.257 782.619 468.455 782.787 467.484L785.587 468.128C785.363 469.08 784.962 469.957 784.383 470.76C783.823 471.563 783.076 472.207 782.143 472.692C781.21 473.159 780.08 473.392 778.755 473.392ZM788.913 473V453.4H791.797V464.572H792.245L797.677 459.196H801.513L794.541 465.888L801.737 473H797.929L792.245 467.26H791.797V473H788.913ZM808.318 473.392C807.329 473.392 806.442 473.224 805.658 472.888C804.893 472.552 804.277 472.057 803.81 471.404C803.362 470.751 803.138 469.957 803.138 469.024C803.138 468.072 803.362 467.288 803.81 466.672C804.277 466.037 804.902 465.561 805.686 465.244C806.489 464.927 807.394 464.768 808.402 464.768H812.602V463.872C812.602 463.069 812.36 462.425 811.874 461.94C811.389 461.455 810.642 461.212 809.634 461.212C808.645 461.212 807.889 461.445 807.366 461.912C806.844 462.379 806.498 462.985 806.33 463.732L803.642 462.864C803.866 462.117 804.221 461.445 804.706 460.848C805.21 460.232 805.873 459.737 806.694 459.364C807.516 458.991 808.505 458.804 809.662 458.804C811.454 458.804 812.864 459.261 813.89 460.176C814.917 461.091 815.43 462.388 815.43 464.068V469.752C815.43 470.312 815.692 470.592 816.214 470.592H817.39V473H815.234C814.581 473 814.049 472.832 813.638 472.496C813.228 472.16 813.022 471.703 813.022 471.124V471.04H812.602C812.453 471.32 812.229 471.647 811.93 472.02C811.632 472.393 811.193 472.72 810.614 473C810.036 473.261 809.27 473.392 808.318 473.392ZM808.738 471.012C809.896 471.012 810.829 470.685 811.538 470.032C812.248 469.36 812.602 468.445 812.602 467.288V467.008H808.57C807.805 467.008 807.189 467.176 806.722 467.512C806.256 467.829 806.022 468.305 806.022 468.94C806.022 469.575 806.265 470.079 806.75 470.452C807.236 470.825 807.898 471.012 808.738 471.012ZM819.194 466.168V465.748C819.194 464.292 819.484 463.051 820.062 462.024C820.66 460.997 821.444 460.204 822.414 459.644C823.385 459.084 824.449 458.804 825.606 458.804C826.95 458.804 827.977 459.056 828.686 459.56C829.414 460.064 829.946 460.605 830.282 461.184H830.73V459.196H833.53V475.828C833.53 476.668 833.278 477.34 832.774 477.844C832.289 478.348 831.617 478.6 830.758 478.6H821.462V476.08H829.862C830.404 476.08 830.674 475.8 830.674 475.24V470.844H830.226C830.021 471.18 829.732 471.525 829.358 471.88C828.985 472.235 828.49 472.524 827.874 472.748C827.277 472.972 826.521 473.084 825.606 473.084C824.449 473.084 823.376 472.813 822.386 472.272C821.416 471.712 820.641 470.919 820.062 469.892C819.484 468.847 819.194 467.605 819.194 466.168ZM826.39 470.564C827.641 470.564 828.668 470.172 829.47 469.388C830.292 468.585 830.702 467.484 830.702 466.084V465.832C830.702 464.395 830.301 463.293 829.498 462.528C828.696 461.744 827.66 461.352 826.39 461.352C825.158 461.352 824.132 461.744 823.31 462.528C822.508 463.293 822.106 464.395 822.106 465.832V466.084C822.106 467.484 822.508 468.585 823.31 469.388C824.132 470.172 825.158 470.564 826.39 470.564ZM844.104 473.392C842.704 473.392 841.482 473.103 840.436 472.524C839.391 471.927 838.57 471.096 837.972 470.032C837.394 468.949 837.104 467.699 837.104 466.28V465.944C837.104 464.507 837.394 463.256 837.972 462.192C838.551 461.109 839.354 460.279 840.38 459.7C841.426 459.103 842.63 458.804 843.992 458.804C845.318 458.804 846.475 459.103 847.464 459.7C848.472 460.279 849.256 461.091 849.816 462.136C850.376 463.181 850.656 464.404 850.656 465.804V466.896H840.044C840.082 468.109 840.483 469.08 841.248 469.808C842.032 470.517 843.003 470.872 844.16 470.872C845.243 470.872 846.055 470.629 846.596 470.144C847.156 469.659 847.586 469.099 847.884 468.464L850.264 469.696C850.003 470.219 849.62 470.769 849.116 471.348C848.631 471.927 847.987 472.412 847.184 472.804C846.382 473.196 845.355 473.392 844.104 473.392ZM840.072 464.684H847.716C847.642 463.639 847.268 462.827 846.596 462.248C845.924 461.651 845.047 461.352 843.964 461.352C842.882 461.352 841.995 461.651 841.304 462.248C840.632 462.827 840.222 463.639 840.072 464.684Z" fill="white"/>
<line x1="876" y1="462.5" x2="940" y2="462.5" stroke="#94A3B8"/>
<path d="M965.816 473V470.312H968.448V456.088H965.816V453.4H973.656C976.269 453.4 978.267 454.063 979.648 455.388C981.048 456.713 981.748 458.711 981.748 461.38V465.048C981.748 467.717 981.048 469.715 979.648 471.04C978.267 472.347 976.269 473 973.656 473H965.816ZM971.5 470.256H973.684C975.383 470.256 976.643 469.827 977.464 468.968C978.285 468.109 978.696 466.831 978.696 465.132V461.268C978.696 459.551 978.285 458.272 977.464 457.432C976.643 456.592 975.383 456.172 973.684 456.172H971.5V470.256ZM991.577 473.392C990.177 473.392 988.954 473.103 987.909 472.524C986.864 471.927 986.042 471.096 985.445 470.032C984.866 468.949 984.577 467.699 984.577 466.28V465.944C984.577 464.507 984.866 463.256 985.445 462.192C986.024 461.109 986.826 460.279 987.853 459.7C988.898 459.103 990.102 458.804 991.465 458.804C992.79 458.804 993.948 459.103 994.937 459.7C995.945 460.279 996.729 461.091 997.289 462.136C997.849 463.181 998.129 464.404 998.129 465.804V466.896H987.517C987.554 468.109 987.956 469.08 988.721 469.808C989.505 470.517 990.476 470.872 991.633 470.872C992.716 470.872 993.528 470.629 994.069 470.144C994.629 469.659 995.058 469.099 995.357 468.464L997.737 469.696C997.476 470.219 997.093 470.769 996.589 471.348C996.104 471.927 995.46 472.412 994.657 472.804C993.854 473.196 992.828 473.392 991.577 473.392ZM987.545 464.684H995.189C995.114 463.639 994.741 462.827 994.069 462.248C993.397 461.651 992.52 461.352 991.437 461.352C990.354 461.352 989.468 461.651 988.777 462.248C988.105 462.827 987.694 463.639 987.545 464.684ZM1001.6 478.6V459.196H1004.43V461.184H1004.88C1005.23 460.568 1005.76 460.017 1006.47 459.532C1007.2 459.047 1008.24 458.804 1009.58 458.804C1010.74 458.804 1011.79 459.084 1012.74 459.644C1013.72 460.204 1014.49 461.016 1015.07 462.08C1015.67 463.125 1015.96 464.395 1015.96 465.888V466.308C1015.96 467.801 1015.68 469.08 1015.1 470.144C1014.52 471.189 1013.74 471.992 1012.77 472.552C1011.8 473.112 1010.74 473.392 1009.58 473.392C1008.68 473.392 1007.93 473.28 1007.31 473.056C1006.7 472.832 1006.2 472.552 1005.83 472.216C1005.46 471.861 1005.16 471.497 1004.93 471.124H1004.48V478.6H1001.6ZM1008.74 470.872C1010.01 470.872 1011.05 470.471 1011.85 469.668C1012.65 468.865 1013.05 467.717 1013.05 466.224V465.972C1013.05 464.497 1012.64 463.359 1011.82 462.556C1011.02 461.753 1009.99 461.352 1008.74 461.352C1007.51 461.352 1006.48 461.753 1005.66 462.556C1004.86 463.359 1004.46 464.497 1004.46 465.972V466.224C1004.46 467.717 1004.86 468.865 1005.66 469.668C1006.48 470.471 1007.51 470.872 1008.74 470.872ZM1019.54 473V453.4H1022.42V473H1019.54ZM1033.17 473.392C1031.79 473.392 1030.56 473.112 1029.47 472.552C1028.41 471.973 1027.57 471.152 1026.95 470.088C1026.34 469.024 1026.03 467.764 1026.03 466.308V465.888C1026.03 464.432 1026.34 463.181 1026.95 462.136C1027.57 461.072 1028.41 460.251 1029.47 459.672C1030.56 459.093 1031.79 458.804 1033.17 458.804C1034.55 458.804 1035.78 459.093 1036.87 459.672C1037.95 460.251 1038.8 461.072 1039.41 462.136C1040.03 463.181 1040.34 464.432 1040.34 465.888V466.308C1040.34 467.764 1040.03 469.024 1039.41 470.088C1038.8 471.152 1037.95 471.973 1036.87 472.552C1035.78 473.112 1034.55 473.392 1033.17 473.392ZM1033.17 470.816C1034.44 470.816 1035.47 470.415 1036.25 469.612C1037.05 468.791 1037.45 467.661 1037.45 466.224V465.972C1037.45 464.535 1037.06 463.415 1036.28 462.612C1035.49 461.791 1034.46 461.38 1033.17 461.38C1031.92 461.38 1030.89 461.791 1030.09 462.612C1029.31 463.415 1028.91 464.535 1028.91 465.972V466.224C1028.91 467.661 1029.31 468.791 1030.09 469.612C1030.89 470.415 1031.92 470.816 1033.17 470.816ZM1045.52 478.6V476.08H1053.22C1053.75 476.08 1054.01 475.8 1054.01 475.24V470.984H1053.56C1053.39 471.357 1053.13 471.721 1052.78 472.076C1052.44 472.412 1051.98 472.692 1051.4 472.916C1050.83 473.14 1050.1 473.252 1049.22 473.252C1048.18 473.252 1047.24 473.019 1046.42 472.552C1045.6 472.085 1044.96 471.423 1044.49 470.564C1044.02 469.705 1043.79 468.688 1043.79 467.512V459.196H1046.67V467.288C1046.67 468.483 1046.97 469.369 1047.57 469.948C1048.17 470.508 1049 470.788 1050.06 470.788C1051.24 470.788 1052.18 470.396 1052.89 469.612C1053.62 468.828 1053.98 467.689 1053.98 466.196V459.196H1056.86V475.828C1056.86 476.668 1056.61 477.34 1056.11 477.844C1055.62 478.348 1054.95 478.6 1054.09 478.6H1045.52Z" fill="white"/>
<defs>
<filter id="filter0_b_2547_8750" x="90" y="349" width="111" height="62" filterUnits="userSpaceOnUse" color-interpolation-filters="sRGB">
<feFlood flood-opacity="0" result="BackgroundImageFix"/>
<feGaussianBlur in="BackgroundImageFix" stdDeviation="8.5"/>
<feComposite in2="SourceAlpha" operator="in" result="effect1_backgroundBlur_2547_8750"/>
<feBlend mode="normal" in="SourceGraphic" in2="effect1_backgroundBlur_2547_8750" result="shape"/>
</filter>
<filter id="filter1_b_2547_8750" x="103" y="336" width="85" height="49" filterUnits="userSpaceOnUse" color-interpolation-filters="sRGB">
<feFlood flood-opacity="0" result="BackgroundImageFix"/>
<feGaussianBlur in="BackgroundImageFix" stdDeviation="2"/>
<feComposite in2="SourceAlpha" operator="in" result="effect1_backgroundBlur_2547_8750"/>
<feBlend mode="normal" in="SourceGraphic" in2="effect1_backgroundBlur_2547_8750" result="shape"/>
</filter>
<filter id="filter2_b_2547_8750" x="307" y="349" width="111" height="62" filterUnits="userSpaceOnUse" color-interpolation-filters="sRGB">
<feFlood flood-opacity="0" result="BackgroundImageFix"/>
<feGaussianBlur in="BackgroundImageFix" stdDeviation="8.5"/>
<feComposite in2="SourceAlpha" operator="in" result="effect1_backgroundBlur_2547_8750"/>
<feBlend mode="normal" in="SourceGraphic" in2="effect1_backgroundBlur_2547_8750" result="shape"/>
</filter>
<filter id="filter3_b_2547_8750" x="320" y="336" width="85" height="49" filterUnits="userSpaceOnUse" color-interpolation-filters="sRGB">
<feFlood flood-opacity="0" result="BackgroundImageFix"/>
<feGaussianBlur in="BackgroundImageFix" stdDeviation="2"/>
<feComposite in2="SourceAlpha" operator="in" result="effect1_backgroundBlur_2547_8750"/>
<feBlend mode="normal" in="SourceGraphic" in2="effect1_backgroundBlur_2547_8750" result="shape"/>
</filter>
<filter id="filter4_b_2547_8750" x="378" y="373" width="40" height="40" filterUnits="userSpaceOnUse" color-interpolation-filters="sRGB">
<feFlood flood-opacity="0" result="BackgroundImageFix"/>
<feGaussianBlur in="BackgroundImageFix" stdDeviation="2"/>
<feComposite in2="SourceAlpha" operator="in" result="effect1_backgroundBlur_2547_8750"/>
<feBlend mode="normal" in="SourceGraphic" in2="effect1_backgroundBlur_2547_8750" result="shape"/>
</filter>
<filter id="filter5_b_2547_8750" x="1008" y="368.2" width="52.1001" height="52.1001" filterUnits="userSpaceOnUse" color-interpolation-filters="sRGB">
<feFlood flood-opacity="0" result="BackgroundImageFix"/>
<feGaussianBlur in="BackgroundImageFix" stdDeviation="2"/>
<feComposite in2="SourceAlpha" operator="in" result="effect1_backgroundBlur_2547_8750"/>
<feBlend mode="normal" in="SourceGraphic" in2="effect1_backgroundBlur_2547_8750" result="shape"/>
</filter>
<filter id="filter6_b_2547_8750" x="970.031" y="335.723" width="83.9365" height="76.5649" filterUnits="userSpaceOnUse" color-interpolation-filters="sRGB">
<feFlood flood-opacity="0" result="BackgroundImageFix"/>
<feGaussianBlur in="BackgroundImageFix" stdDeviation="2"/>
<feComposite in2="SourceAlpha" operator="in" result="effect1_backgroundBlur_2547_8750"/>
<feBlend mode="normal" in="SourceGraphic" in2="effect1_backgroundBlur_2547_8750" result="shape"/>
</filter>
<filter id="filter7_b_2547_8750" x="745" y="328" width="92" height="92" filterUnits="userSpaceOnUse" color-interpolation-filters="sRGB">
<feFlood flood-opacity="0" result="BackgroundImageFix"/>
<feGaussianBlur in="BackgroundImageFix" stdDeviation="2"/>
<feComposite in2="SourceAlpha" operator="in" result="effect1_backgroundBlur_2547_8750"/>
<feBlend mode="normal" in="SourceGraphic" in2="effect1_backgroundBlur_2547_8750" result="shape"/>
</filter>
<filter id="filter8_b_2547_8750" x="747" y="359.527" width="38" height="56.9077" filterUnits="userSpaceOnUse" color-interpolation-filters="sRGB">
<feFlood flood-opacity="0" result="BackgroundImageFix"/>
<feGaussianBlur in="BackgroundImageFix" stdDeviation="2"/>
<feComposite in2="SourceAlpha" operator="in" result="effect1_backgroundBlur_2547_8750"/>
<feBlend mode="normal" in="SourceGraphic" in2="effect1_backgroundBlur_2547_8750" result="shape"/>
</filter>
<filter id="filter9_b_2547_8750" x="538" y="334" width="80" height="80" filterUnits="userSpaceOnUse" color-interpolation-filters="sRGB">
<feFlood flood-opacity="0" result="BackgroundImageFix"/>
<feGaussianBlur in="BackgroundImageFix" stdDeviation="2"/>
<feComposite in2="SourceAlpha" operator="in" result="effect1_backgroundBlur_2547_8750"/>
<feBlend mode="normal" in="SourceGraphic" in2="effect1_backgroundBlur_2547_8750" result="shape"/>
</filter>
<filter id="filter10_b_2547_8750" x="538" y="334" width="80" height="80" filterUnits="userSpaceOnUse" color-interpolation-filters="sRGB">
<feFlood flood-opacity="0" result="BackgroundImageFix"/>
<feGaussianBlur in="BackgroundImageFix" stdDeviation="2"/>
<feComposite in2="SourceAlpha" operator="in" result="effect1_backgroundBlur_2547_8750"/>
<feBlend mode="normal" in="SourceGraphic" in2="effect1_backgroundBlur_2547_8750" result="shape"/>
</filter>
<linearGradient id="paint0_linear_2547_8750" x1="107" y1="373.5" x2="186.5" y2="373" gradientUnits="userSpaceOnUse">
<stop stop-color="#94A3B8"/>
<stop offset="1" stop-color="#94A3B8" stop-opacity="0"/>
</linearGradient>
<linearGradient id="paint1_linear_2547_8750" x1="106" y1="360" x2="185.5" y2="361" gradientUnits="userSpaceOnUse">
<stop stop-color="#94A3B8"/>
<stop offset="0.192696" stop-color="#94A3B8" stop-opacity="0.807304"/>
<stop offset="1" stop-color="#94A3B8" stop-opacity="0"/>
</linearGradient>
<linearGradient id="paint2_linear_2547_8750" x1="106" y1="362" x2="198" y2="361" gradientUnits="userSpaceOnUse">
<stop stop-color="#D8D8D8"/>
<stop offset="1" stop-color="#5E5E5E" stop-opacity="0"/>
</linearGradient>
<linearGradient id="paint3_linear_2547_8750" x1="324" y1="373.5" x2="403.5" y2="373" gradientUnits="userSpaceOnUse">
<stop stop-color="#94A3B8"/>
<stop offset="1" stop-color="#94A3B8" stop-opacity="0"/>
</linearGradient>
<linearGradient id="paint4_linear_2547_8750" x1="323" y1="360" x2="402.5" y2="361" gradientUnits="userSpaceOnUse">
<stop stop-color="#94A3B8"/>
<stop offset="0.192696" stop-color="#94A3B8" stop-opacity="0.807304"/>
<stop offset="1" stop-color="#94A3B8" stop-opacity="0"/>
</linearGradient>
<linearGradient id="paint5_linear_2547_8750" x1="323" y1="362" x2="415" y2="361" gradientUnits="userSpaceOnUse">
<stop stop-color="#D8D8D8"/>
<stop offset="1" stop-color="#5E5E5E" stop-opacity="0"/>
</linearGradient>
<linearGradient id="paint6_linear_2547_8750" x1="385" y1="381" x2="409.333" y2="405.333" gradientUnits="userSpaceOnUse">
<stop stop-color="#94A3B8"/>
<stop offset="1" stop-color="#555B64"/>
</linearGradient>
<linearGradient id="paint7_linear_2547_8750" x1="385.5" y1="381" x2="407.5" y2="400.5" gradientUnits="userSpaceOnUse">
<stop stop-color="#C5E2FF"/>
<stop offset="1" stop-color="#F1F5F9" stop-opacity="0"/>
</linearGradient>
<linearGradient id="paint8_linear_2547_8750" x1="1016.13" y1="377.713" x2="1049.67" y2="411.247" gradientUnits="userSpaceOnUse">
<stop stop-color="#E5E5E5"/>
<stop offset="1" stop-color="#555B64"/>
</linearGradient>
<linearGradient id="paint9_linear_2547_8750" x1="988.6" y1="344.75" x2="1038.55" y2="397.4" gradientUnits="userSpaceOnUse">
<stop stop-color="#596679"/>
<stop offset="1" stop-color="#CBD4E0"/>
</linearGradient>
<linearGradient id="paint10_linear_2547_8750" x1="974.2" y1="345.65" x2="1056.55" y2="408.2" gradientUnits="userSpaceOnUse">
<stop stop-color="#E1E6EE"/>
<stop offset="1" stop-opacity="0"/>
</linearGradient>
<linearGradient id="paint11_linear_2547_8750" x1="791" y1="337.256" x2="791" y2="410.737" gradientUnits="userSpaceOnUse">
<stop stop-color="#CBD4E0"/>
<stop offset="1" stop-color="#374255"/>
</linearGradient>
<linearGradient id="paint12_linear_2547_8750" x1="753.62" y1="347.96" x2="818.72" y2="388.28" gradientUnits="userSpaceOnUse">
<stop stop-color="#E1E6EE"/>
<stop offset="1" stop-opacity="0"/>
</linearGradient>
<linearGradient id="paint13_linear_2547_8750" x1="-1.88266" y1="-2.00646e-07" x2="34.641" y2="34.641" gradientUnits="userSpaceOnUse">
<stop stop-color="#AFB7C3"/>
<stop offset="1" stop-color="#4A5361"/>
</linearGradient>
<linearGradient id="paint14_linear_2547_8750" x1="578" y1="338" x2="578" y2="410" gradientUnits="userSpaceOnUse">
<stop stop-color="#E0E6F0"/>
<stop offset="1" stop-color="#646D7E"/>
</linearGradient>
<linearGradient id="paint15_linear_2547_8750" x1="547.143" y1="344.857" x2="602.429" y2="399.286" gradientUnits="userSpaceOnUse">
<stop stop-color="#E1E6EE"/>
<stop offset="1" stop-color="#94A3B8" stop-opacity="0"/>
</linearGradient>
<clipPath id="clip0_2547_8750">
<rect x="450.259" y="107.701" width="48.5977" height="48.5977" rx="24.2989" fill="white"/>
</clipPath>
<clipPath id="clip1_2547_8750">
<rect width="41.2001" height="4.65162" fill="white" transform="translate(510 361.742)"/>
</clipPath>
<clipPath id="clip2_2547_8750">
<rect width="41.2001" height="4.65162" fill="white" transform="translate(510 371.045)"/>
</clipPath>
<clipPath id="clip3_2547_8750">
<rect width="41.2001" height="4.65162" fill="white" transform="translate(510 380.348)"/>
</clipPath>
<clipPath id="clip4_2547_8750">
<rect width="72" height="72" fill="white" transform="translate(542 338)"/>
</clipPath>
</defs>
</svg>
