<svg width="106" height="23" viewBox="0 0 106 23" fill="none" xmlns="http://www.w3.org/2000/svg">
<path d="M44.3759 13.248V11.448H47.5259C47.9579 11.448 48.3359 11.364 48.6599 11.196C48.9959 11.016 49.2599 10.77 49.4519 10.458C49.6439 10.134 49.7399 9.756 49.7399 9.324C49.7399 8.892 49.6439 8.52 49.4519 8.208C49.2599 7.884 48.9959 7.638 48.6599 7.47C48.3359 7.29 47.9579 7.2 47.5259 7.2H44.3759V5.4H47.6339C48.4259 5.4 49.1339 5.562 49.7579 5.886C50.3939 6.21 50.8919 6.666 51.2519 7.254C51.6239 7.842 51.8099 8.532 51.8099 9.324C51.8099 10.116 51.6239 10.806 51.2519 11.394C50.8919 11.982 50.3939 12.438 49.7579 12.762C49.1339 13.086 48.4259 13.248 47.6339 13.248H44.3759ZM42.9539 18V5.4H45.0239V18H42.9539ZM57.0932 18.18C56.3612 18.18 55.7072 18.018 55.1312 17.694C54.5672 17.37 54.1232 16.926 53.7992 16.362C53.4872 15.786 53.3312 15.126 53.3312 14.382V9.36H55.3112V14.292C55.3112 14.712 55.3772 15.072 55.5092 15.372C55.6532 15.66 55.8572 15.882 56.1212 16.038C56.3972 16.194 56.7212 16.272 57.0932 16.272C57.6692 16.272 58.1072 16.104 58.4072 15.768C58.7192 15.42 58.8752 14.928 58.8752 14.292V9.36H60.8552V14.382C60.8552 15.138 60.6932 15.804 60.3692 16.38C60.0572 16.944 59.6192 17.388 59.0552 17.712C58.4912 18.024 57.8372 18.18 57.0932 18.18ZM62.846 18V9.36H64.826V18H62.846ZM64.826 13.194L64.142 12.852C64.142 11.76 64.382 10.878 64.862 10.206C65.354 9.522 66.092 9.18 67.076 9.18C67.508 9.18 67.898 9.258 68.246 9.414C68.594 9.57 68.918 9.822 69.218 10.17L67.922 11.502C67.766 11.334 67.592 11.214 67.4 11.142C67.208 11.07 66.986 11.034 66.734 11.034C66.182 11.034 65.726 11.208 65.366 11.556C65.006 11.904 64.826 12.45 64.826 13.194ZM73.9265 18.18C73.0625 18.18 72.2825 17.988 71.5865 17.604C70.9025 17.208 70.3565 16.668 69.9485 15.984C69.5525 15.3 69.3545 14.532 69.3545 13.68C69.3545 12.828 69.5525 12.066 69.9485 11.394C70.3445 10.71 70.8785 10.17 71.5505 9.774C72.2345 9.378 72.9905 9.18 73.8185 9.18C74.6225 9.18 75.3305 9.366 75.9425 9.738C76.5665 10.11 77.0525 10.62 77.4005 11.268C77.7605 11.916 77.9405 12.654 77.9405 13.482C77.9405 13.626 77.9285 13.776 77.9045 13.932C77.8925 14.076 77.8685 14.238 77.8325 14.418H70.7405V12.798H76.8065L76.0685 13.446C76.0445 12.918 75.9425 12.474 75.7625 12.114C75.5825 11.754 75.3245 11.478 74.9885 11.286C74.6645 11.094 74.2625 10.998 73.7825 10.998C73.2785 10.998 72.8405 11.106 72.4685 11.322C72.0965 11.538 71.8085 11.844 71.6045 12.24C71.4005 12.624 71.2985 13.086 71.2985 13.626C71.2985 14.166 71.4065 14.64 71.6225 15.048C71.8385 15.456 72.1445 15.774 72.5405 16.002C72.9365 16.218 73.3925 16.326 73.9085 16.326C74.3525 16.326 74.7605 16.248 75.1325 16.092C75.5165 15.936 75.8405 15.708 76.1045 15.408L77.3645 16.686C76.9445 17.178 76.4345 17.55 75.8345 17.802C75.2345 18.054 74.5985 18.18 73.9265 18.18ZM79.7977 18V5.4H81.2377L86.4757 14.022H85.5397L90.7777 5.4H92.2177V18H90.1477V9.036L90.6157 9.162L86.7277 15.552H85.2877L81.3997 9.162L81.8677 9.036V18H79.7977ZM94.95 18V5.4H97.02V18H94.95ZM96.372 18V16.11H102.96V18H96.372Z" fill="#18181B"/>
<path fill-rule="evenodd" clip-rule="evenodd" d="M11.4053 21.7734C13.0075 21.7734 14.5134 21.4026 15.839 20.7475C13.2638 18.8357 11.6043 15.833 11.6043 12.4565C11.6043 9.08008 13.2638 6.0774 15.839 4.16563C14.5134 3.51053 13.0075 3.13967 11.4053 3.13967C6.0071 3.13967 1.70217 7.34959 1.70217 12.4565C1.70217 17.5635 6.0071 21.7734 11.4053 21.7734ZM19.5864 17.466L12.8193 11.2927C12.8905 10.7459 13.0113 10.2132 13.1773 9.69902L20.2306 16.331C20.0428 16.7246 19.8273 17.1037 19.5864 17.466ZM20.626 15.3621L13.5588 8.71705C13.7587 8.27986 13.9925 7.85988 14.2573 7.46033L20.9366 13.9017L21.002 13.8385C20.9208 14.3613 20.7941 14.8705 20.626 15.3621ZM18.2296 19.0795C18.5033 18.8192 18.7608 18.5434 19.0006 18.2537L12.7444 12.5465C12.7511 13.2259 12.8341 13.889 12.9855 14.528L18.2296 19.0795ZM14.8438 6.66899L21.105 12.7071C21.1073 12.6238 21.1085 12.5403 21.1085 12.4565C21.1085 11.3724 20.9144 10.3286 20.5571 9.35695L20.3895 9.52829L15.9774 5.51264C15.5662 5.86654 15.1869 6.25351 14.8438 6.66899ZM17.4802 19.7225L13.6573 16.4044C14.3876 17.9007 15.5205 19.1839 16.9262 20.1203C17.116 19.9939 17.3008 19.8612 17.4802 19.7225ZM16.7611 4.90519L19.6348 7.52067C18.9345 6.44563 18.0117 5.5158 16.9262 4.79277C16.8708 4.8297 16.8157 4.86718 16.7611 4.90519ZM11.4053 22.9131C13.4215 22.9131 15.3091 22.3824 16.9262 21.458C18.5433 22.3824 20.431 22.9131 22.4471 22.9131C28.4354 22.9131 33.2899 18.2315 33.2899 12.4565C33.2899 6.68155 28.4354 2 22.4471 2C20.431 2 18.5433 2.53067 16.9262 3.45509C15.3091 2.53067 13.4215 2 11.4053 2C5.417 2 0.5625 6.68155 0.5625 12.4565C0.5625 18.2315 5.417 22.9131 11.4053 22.9131ZM22.4471 3.13967C20.8449 3.13967 19.339 3.51053 18.0134 4.16563C20.5887 6.0774 22.2481 9.08008 22.2481 12.4565C22.2481 15.833 20.5887 18.8357 18.0134 20.7475C19.339 21.4026 20.8449 21.7734 22.4471 21.7734C27.8453 21.7734 32.1503 17.5635 32.1503 12.4565C32.1503 7.34959 27.8453 3.13967 22.4471 3.13967Z" fill="#03DAC5"/>
</svg>
