<svg width="102" height="67" viewBox="0 0 102 67" fill="none" xmlns="http://www.w3.org/2000/svg">
<path fill-rule="evenodd" clip-rule="evenodd" d="M33.5 61.17C37.7359 61.17 41.7495 60.2182 45.3385 58.5167C38.4545 52.3813 34.1194 43.4469 34.1194 33.5C34.1194 23.5531 38.4545 14.6187 45.3385 8.48325C41.7495 6.78182 37.7359 5.83 33.5 5.83C18.2183 5.83 5.83 18.2183 5.83 33.5C5.83 48.7817 18.2183 61.17 33.5 61.17ZM33.5 67C39.7301 67 45.5629 65.2993 50.5597 62.3369C55.5564 65.2993 61.3893 67 67.6194 67C86.1209 67 101.119 52.0015 101.119 33.5C101.119 14.9985 86.1209 0 67.6194 0C61.3893 0 55.5564 1.70066 50.5597 4.66307C45.5629 1.70066 39.7301 0 33.5 0C14.9985 0 0 14.9985 0 33.5C0 52.0015 14.9985 67 33.5 67ZM67.6194 5.83C63.3835 5.83 59.3699 6.78182 55.7808 8.48325C62.6648 14.6187 67 23.5531 67 33.5C67 36.9911 66.466 40.3575 65.4752 43.522L65.5229 43.5686L65.4306 43.6633C63.5882 49.4567 60.2127 54.5667 55.7808 58.5167C59.3699 60.2182 63.3835 61.17 67.6194 61.17C82.9011 61.17 95.2894 48.7817 95.2894 33.5C95.2894 18.2183 82.9011 5.83 67.6194 5.83ZM60.658 38.8253C60.8243 37.9726 60.9513 37.106 61.0373 36.2272L43.9578 19.1478C43.5218 19.8651 43.1175 20.6038 42.7468 21.3619L60.658 38.8253ZM40.8449 26.4907L59.0203 44.2117C58.7307 44.9008 58.4141 45.5756 58.0717 46.2349L40.2539 29.3803C40.4004 28.3993 40.5983 27.4352 40.8449 26.4907ZM48.5474 13.4528L59.3729 23.6697C60.0097 25.3447 60.4884 27.0975 60.791 28.9099L46.9664 15.0853C47.471 14.5198 47.9985 13.9751 48.5474 13.4528ZM40.6156 39.5626C40.3622 38.429 40.1783 37.2691 40.0688 36.0877L55.3212 50.5157C54.9727 50.962 54.6108 51.3973 54.2361 51.8211L40.6156 39.5626ZM47.4354 52.4273L50.5879 55.2646L50.5597 55.2868C49.4465 54.4139 48.402 53.4576 47.4354 52.4273Z" fill="#03DAC5"/>
</svg>
