<svg width="24" height="25" viewBox="0 0 24 25" fill="none" xmlns="http://www.w3.org/2000/svg">
<path d="M22.46 6.66895C21.69 7.01895 20.86 7.24895 20 7.35895C20.88 6.82895 21.56 5.98895 21.88 4.97895C21.05 5.47895 20.13 5.82895 19.16 6.02895C18.37 5.16895 17.26 4.66895 16 4.66895C13.65 4.66895 11.73 6.58895 11.73 8.95895C11.73 9.29895 11.77 9.62895 11.84 9.93895C8.27999 9.75895 5.10999 8.04895 2.99999 5.45895C2.62999 6.08895 2.41999 6.82895 2.41999 7.60895C2.41999 9.09895 3.16999 10.4189 4.32999 11.1689C3.61999 11.1689 2.95999 10.9689 2.37999 10.6689V10.6989C2.37999 12.7789 3.85999 14.5189 5.81999 14.9089C5.19072 15.0812 4.53009 15.1051 3.88999 14.9789C4.1616 15.8314 4.69353 16.5774 5.41101 17.1119C6.12849 17.6464 6.99544 17.9426 7.88999 17.9589C6.37362 19.1594 4.49399 19.8083 2.55999 19.7989C2.21999 19.7989 1.87999 19.7789 1.53999 19.7389C3.43999 20.9589 5.69999 21.6689 8.11999 21.6689C16 21.6689 20.33 15.1289 20.33 9.45895C20.33 9.26895 20.33 9.08894 20.32 8.89894C21.16 8.29894 21.88 7.53895 22.46 6.66895Z" fill="#94A3B8"/>
</svg>
