<svg width="24" height="25" viewBox="0 0 24 25" fill="none" xmlns="http://www.w3.org/2000/svg">
<path d="M18.335 19.0079H15.67V14.8309C15.67 13.8349 15.65 12.5529 14.28 12.5529C12.891 12.5529 12.679 13.6369 12.679 14.7579V19.0079H10.013V10.4189H12.573V11.5889H12.608C12.966 10.9149 13.836 10.2019 15.136 10.2019C17.836 10.2019 18.336 11.9799 18.336 14.2929V19.0079H18.335ZM7.003 9.24395C6.79956 9.24421 6.59806 9.20432 6.41006 9.12655C6.22207 9.04879 6.05127 8.93468 5.90746 8.79078C5.76365 8.64688 5.64965 8.476 5.57201 8.28796C5.49437 8.09991 5.4546 7.89839 5.455 7.69495C5.4552 7.38878 5.54618 7.08955 5.71644 6.83509C5.8867 6.58063 6.12859 6.38238 6.41153 6.2654C6.69447 6.14842 7.00574 6.11796 7.30598 6.17789C7.60622 6.23781 7.88196 6.38542 8.09831 6.60205C8.31466 6.81868 8.46191 7.09461 8.52145 7.39493C8.58099 7.69525 8.55013 8.00648 8.43278 8.28926C8.31543 8.57205 8.11687 8.81368 7.86219 8.98362C7.60751 9.15355 7.30817 9.24414 7.002 9.24395H7.003ZM8.339 19.0079H5.666V10.4189H8.34V19.0079H8.339ZM19.67 3.66895H4.329C3.593 3.66895 3 4.24895 3 4.96595V20.3719C3 21.0889 3.594 21.6689 4.328 21.6689H19.666C20.4 21.6689 21 21.0889 21 20.3719V4.96595C21 4.24895 20.4 3.66895 19.666 3.66895H19.669H19.67Z" fill="#94A3B8"/>
</svg>
