<svg width="381" height="510" viewBox="0 0 381 510" fill="none" xmlns="http://www.w3.org/2000/svg">
<g filter="url(#filter0_d_2189_18677)">
<rect x="239.219" y="332.794" width="124.904" height="43.137" rx="6.26555" fill="#FFDFA6" shape-rendering="crispEdges"/>
<path d="M265.389 360.363L261.506 348.679H263.012L264.937 354.571L266.226 358.957H266.31L267.632 354.571L269.574 348.679H271.031L267.097 360.363H265.389ZM275.535 360.564C274.944 360.564 274.408 360.458 273.928 360.246C273.46 360.034 273.052 359.732 272.706 359.342C272.371 358.94 272.109 358.466 271.92 357.919C271.741 357.361 271.652 356.736 271.652 356.044C271.652 355.363 271.741 354.744 271.92 354.186C272.109 353.628 272.371 353.154 272.706 352.763C273.052 352.361 273.46 352.054 273.928 351.842C274.408 351.63 274.944 351.524 275.535 351.524C276.116 351.524 276.635 351.63 277.092 351.842C277.55 352.054 277.94 352.35 278.264 352.73C278.587 353.098 278.833 353.539 279 354.052C279.179 354.565 279.268 355.129 279.268 355.743V356.379H273.058V356.781C273.058 357.149 273.114 357.495 273.225 357.818C273.348 358.131 273.515 358.404 273.727 358.639C273.951 358.873 274.218 359.057 274.531 359.191C274.855 359.325 275.217 359.392 275.619 359.392C276.166 359.392 276.64 359.264 277.042 359.007C277.455 358.75 277.773 358.382 277.996 357.902L278.95 358.589C278.671 359.18 278.236 359.66 277.644 360.028C277.053 360.385 276.35 360.564 275.535 360.564ZM275.535 352.646C275.167 352.646 274.832 352.713 274.531 352.847C274.23 352.97 273.967 353.148 273.744 353.382C273.532 353.617 273.365 353.896 273.242 354.219C273.119 354.532 273.058 354.878 273.058 355.257V355.374H277.829V355.19C277.829 354.42 277.617 353.807 277.193 353.349C276.78 352.88 276.227 352.646 275.535 352.646ZM281.475 360.363V351.725H282.814V353.316H282.898C283.054 352.903 283.333 352.534 283.735 352.211C284.137 351.887 284.689 351.725 285.392 351.725H285.911V353.064H285.124C284.399 353.064 283.83 353.204 283.417 353.483C283.015 353.751 282.814 354.091 282.814 354.504V360.363H281.475ZM290.216 360.564C289.413 360.564 288.738 360.413 288.191 360.112C287.655 359.799 287.192 359.386 286.801 358.873L287.756 358.103C288.09 358.527 288.464 358.856 288.877 359.091C289.29 359.314 289.77 359.426 290.317 359.426C290.886 359.426 291.327 359.303 291.639 359.057C291.963 358.812 292.125 358.466 292.125 358.019C292.125 357.685 292.013 357.4 291.79 357.166C291.578 356.92 291.187 356.753 290.618 356.663L289.932 356.563C289.53 356.507 289.162 356.424 288.827 356.312C288.492 356.189 288.196 356.033 287.94 355.843C287.694 355.642 287.499 355.397 287.354 355.107C287.22 354.817 287.153 354.471 287.153 354.069C287.153 353.645 287.231 353.276 287.387 352.964C287.544 352.64 287.756 352.373 288.023 352.16C288.302 351.948 288.632 351.792 289.011 351.692C289.39 351.58 289.798 351.524 290.233 351.524C290.936 351.524 291.522 351.647 291.991 351.893C292.471 352.138 292.889 352.479 293.246 352.914L292.359 353.717C292.169 353.449 291.89 353.209 291.522 352.997C291.154 352.774 290.691 352.663 290.133 352.663C289.575 352.663 289.151 352.785 288.86 353.031C288.581 353.265 288.442 353.589 288.442 354.002C288.442 354.426 288.581 354.733 288.86 354.923C289.151 355.112 289.563 355.252 290.099 355.341L290.769 355.441C291.728 355.587 292.409 355.866 292.811 356.278C293.213 356.68 293.414 357.21 293.414 357.869C293.414 358.706 293.129 359.364 292.56 359.844C291.991 360.324 291.21 360.564 290.216 360.564ZM296.449 349.7C296.158 349.7 295.946 349.633 295.812 349.499C295.69 349.354 295.628 349.17 295.628 348.946V348.729C295.628 348.506 295.69 348.327 295.812 348.193C295.946 348.048 296.158 347.976 296.449 347.976C296.739 347.976 296.945 348.048 297.068 348.193C297.202 348.327 297.269 348.506 297.269 348.729V348.946C297.269 349.17 297.202 349.354 297.068 349.499C296.945 349.633 296.739 349.7 296.449 349.7ZM295.779 351.725H297.118V360.363H295.779V351.725ZM303.228 360.564C302.648 360.564 302.118 360.458 301.638 360.246C301.158 360.034 300.745 359.732 300.399 359.342C300.064 358.94 299.802 358.466 299.612 357.919C299.423 357.361 299.328 356.736 299.328 356.044C299.328 355.363 299.423 354.744 299.612 354.186C299.802 353.628 300.064 353.154 300.399 352.763C300.745 352.361 301.158 352.054 301.638 351.842C302.118 351.63 302.648 351.524 303.228 351.524C303.808 351.524 304.333 351.63 304.802 351.842C305.282 352.054 305.694 352.361 306.04 352.763C306.386 353.154 306.654 353.628 306.844 354.186C307.034 354.744 307.129 355.363 307.129 356.044C307.129 356.736 307.034 357.361 306.844 357.919C306.654 358.466 306.386 358.94 306.04 359.342C305.694 359.732 305.282 360.034 304.802 360.246C304.333 360.458 303.808 360.564 303.228 360.564ZM303.228 359.375C303.954 359.375 304.545 359.152 305.003 358.706C305.46 358.259 305.689 357.579 305.689 356.663V355.425C305.689 354.51 305.46 353.829 305.003 353.382C304.545 352.936 303.954 352.713 303.228 352.713C302.503 352.713 301.911 352.936 301.454 353.382C300.996 353.829 300.767 354.51 300.767 355.425V356.663C300.767 357.579 300.996 358.259 301.454 358.706C301.911 359.152 302.503 359.375 303.228 359.375ZM309.331 360.363V351.725H310.67V353.131H310.737C310.949 352.64 311.245 352.25 311.624 351.96C312.015 351.669 312.534 351.524 313.181 351.524C314.074 351.524 314.777 351.815 315.29 352.395C315.815 352.964 316.077 353.773 316.077 354.822V360.363H314.738V355.056C314.738 353.505 314.085 352.73 312.779 352.73C312.512 352.73 312.249 352.763 311.993 352.83C311.747 352.897 311.524 352.997 311.323 353.131C311.122 353.265 310.96 353.438 310.838 353.65C310.726 353.851 310.67 354.091 310.67 354.37V360.363H309.331ZM326.4 360.564C325.005 360.564 323.984 360.034 323.337 358.974C322.701 357.913 322.383 356.429 322.383 354.521C322.383 352.612 322.701 351.128 323.337 350.068C323.984 349.008 325.005 348.478 326.4 348.478C327.795 348.478 328.811 349.008 329.447 350.068C330.094 351.128 330.418 352.612 330.418 354.521C330.418 356.429 330.094 357.913 329.447 358.974C328.811 360.034 327.795 360.564 326.4 360.564ZM326.4 359.342C326.858 359.342 327.248 359.247 327.572 359.057C327.896 358.868 328.158 358.6 328.359 358.254C328.56 357.908 328.705 357.5 328.794 357.032C328.894 356.563 328.945 356.044 328.945 355.475V353.567C328.945 352.997 328.894 352.479 328.794 352.01C328.705 351.541 328.56 351.134 328.359 350.788C328.158 350.442 327.896 350.174 327.572 349.984C327.248 349.795 326.858 349.7 326.4 349.7C325.943 349.7 325.552 349.795 325.228 349.984C324.905 350.174 324.643 350.442 324.442 350.788C324.241 351.134 324.09 351.541 323.99 352.01C323.9 352.479 323.856 352.997 323.856 353.567V355.475C323.856 356.044 323.9 356.563 323.99 357.032C324.09 357.5 324.241 357.908 324.442 358.254C324.643 358.6 324.905 358.868 325.228 359.057C325.552 359.247 325.943 359.342 326.4 359.342ZM340.338 360.363H332.671V358.923L336.488 355.408C337.035 354.906 337.492 354.376 337.86 353.818C338.229 353.249 338.413 352.679 338.413 352.11V351.909C338.413 351.262 338.234 350.738 337.877 350.336C337.52 349.934 336.979 349.733 336.253 349.733C335.896 349.733 335.584 349.783 335.316 349.884C335.048 349.984 334.814 350.124 334.613 350.302C334.423 350.481 334.261 350.693 334.127 350.938C334.005 351.173 333.904 351.429 333.826 351.708L332.571 351.223C332.682 350.877 332.833 350.542 333.023 350.219C333.224 349.884 333.469 349.588 333.759 349.331C334.061 349.075 334.418 348.868 334.831 348.712C335.255 348.556 335.751 348.478 336.32 348.478C336.89 348.478 337.397 348.561 337.844 348.729C338.29 348.896 338.664 349.131 338.965 349.432C339.267 349.733 339.495 350.09 339.652 350.503C339.819 350.916 339.903 351.374 339.903 351.876C339.903 352.333 339.836 352.758 339.702 353.148C339.579 353.539 339.406 353.913 339.183 354.27C338.96 354.616 338.686 354.956 338.363 355.291C338.05 355.626 337.71 355.96 337.341 356.295L334.194 359.124H340.338V360.363Z" fill="black"/>
</g>
<path d="M98.4248 197.589V249.096" stroke="#64748B" stroke-width="1.93151" stroke-dasharray="3.22 3.22"/>
<path d="M129.973 252.959H274.836C292.615 252.959 307.027 267.372 307.027 285.151V325.068" stroke="#64748B" stroke-width="1.93151" stroke-dasharray="3.22 3.22"/>
<path d="M98 275V431.996C98 449.775 112.413 464.188 130.192 464.188H250.808C268.587 464.188 283 478.601 283 496.38V509.5" stroke="#64748B" stroke-width="1.93151" stroke-dasharray="3.22 3.22"/>
<g filter="url(#filter1_d_2189_18677)">
<rect x="7" y="146.726" width="180.274" height="43.137" rx="6.26555" fill="#FFDFA6" shape-rendering="crispEdges"/>
<path d="M69.1935 162.61H73.1106C73.836 162.61 74.4944 162.733 75.0859 162.978C75.6774 163.224 76.1796 163.592 76.5925 164.083C77.0165 164.563 77.3402 165.171 77.5634 165.908C77.7866 166.633 77.8982 167.481 77.8982 168.452C77.8982 169.423 77.7866 170.277 77.5634 171.014C77.3402 171.739 77.0165 172.347 76.5925 172.838C76.1796 173.318 75.6774 173.681 75.0859 173.926C74.4944 174.172 73.836 174.294 73.1106 174.294H69.1935V162.61ZM73.1106 173.056C73.5905 173.056 74.0313 172.978 74.433 172.821C74.8348 172.654 75.1808 172.414 75.4709 172.102C75.7611 171.789 75.9843 171.41 76.1405 170.963C76.3079 170.506 76.3916 169.987 76.3916 169.406V167.498C76.3916 166.918 76.3079 166.405 76.1405 165.958C75.9843 165.501 75.7611 165.116 75.4709 164.803C75.1808 164.491 74.8348 164.256 74.433 164.1C74.0313 163.933 73.5905 163.849 73.1106 163.849H70.5997V173.056H73.1106ZM86.5676 174.294C86.0655 174.294 85.7028 174.161 85.4796 173.893C85.2675 173.625 85.1336 173.29 85.0778 172.888H84.9941C84.8044 173.424 84.4919 173.826 84.0567 174.094C83.6215 174.361 83.1025 174.495 82.4999 174.495C81.5848 174.495 80.8706 174.261 80.3572 173.792C79.855 173.324 79.6039 172.687 79.6039 171.884C79.6039 171.069 79.8997 170.444 80.4911 170.009C81.0938 169.574 82.0256 169.356 83.2867 169.356H84.9941V168.503C84.9941 167.889 84.8267 167.42 84.4919 167.096C84.1571 166.773 83.6438 166.611 82.9519 166.611C82.4274 166.611 81.9865 166.728 81.6294 166.962C81.2835 167.197 80.9933 167.509 80.759 167.9L79.9555 167.147C80.1898 166.678 80.5637 166.282 81.077 165.958C81.5904 165.623 82.2376 165.456 83.0188 165.456C84.0678 165.456 84.8825 165.713 85.4628 166.226C86.0431 166.739 86.3333 167.454 86.3333 168.369V173.123H87.3209V174.294H86.5676ZM82.7175 173.357C83.0523 173.357 83.3592 173.318 83.6382 173.24C83.9172 173.162 84.1571 173.05 84.358 172.905C84.5589 172.76 84.7151 172.593 84.8267 172.403C84.9383 172.213 84.9941 172.007 84.9941 171.784V170.361H83.2197C82.4497 170.361 81.8861 170.472 81.529 170.695C81.183 170.919 81.0101 171.242 81.0101 171.666V172.018C81.0101 172.442 81.1607 172.771 81.462 173.006C81.7745 173.24 82.193 173.357 82.7175 173.357ZM91.1406 174.294C90.6719 174.294 90.3148 174.166 90.0693 173.909C89.8349 173.642 89.7177 173.296 89.7177 172.872V166.829H88.2948V165.657H89.0984C89.3885 165.657 89.5838 165.601 89.6842 165.489C89.7958 165.367 89.8516 165.16 89.8516 164.87V163.263H91.0569V165.657H92.9485V166.829H91.0569V173.123H92.8146V174.294H91.1406ZM101.378 174.294C100.876 174.294 100.513 174.161 100.29 173.893C100.078 173.625 99.9443 173.29 99.8885 172.888H99.8048C99.6151 173.424 99.3027 173.826 98.8674 174.094C98.4322 174.361 97.9133 174.495 97.3106 174.495C96.3955 174.495 95.6813 174.261 95.1679 173.792C94.6658 173.324 94.4147 172.687 94.4147 171.884C94.4147 171.069 94.7104 170.444 95.3019 170.009C95.9045 169.574 96.8363 169.356 98.0974 169.356H99.8048V168.503C99.8048 167.889 99.6375 167.42 99.3027 167.096C98.9679 166.773 98.4545 166.611 97.7626 166.611C97.2381 166.611 96.7973 166.728 96.4402 166.962C96.0942 167.197 95.8041 167.509 95.5697 167.9L94.7662 167.147C95.0005 166.678 95.3744 166.282 95.8878 165.958C96.4011 165.623 97.0484 165.456 97.8296 165.456C98.8786 165.456 99.6932 165.713 100.274 166.226C100.854 166.739 101.144 167.454 101.144 168.369V173.123H102.132V174.294H101.378ZM97.5282 173.357C97.863 173.357 98.1699 173.318 98.4489 173.24C98.7279 173.162 98.9679 173.05 99.1687 172.905C99.3696 172.76 99.5259 172.593 99.6375 172.403C99.749 172.213 99.8048 172.007 99.8048 171.784V170.361H98.0304C97.2604 170.361 96.6968 170.472 96.3397 170.695C95.9938 170.919 95.8208 171.242 95.8208 171.666V172.018C95.8208 172.442 95.9715 172.771 96.2728 173.006C96.5852 173.24 97.0037 173.357 97.5282 173.357ZM106.638 174.495C105.834 174.495 105.159 174.345 104.612 174.043C104.076 173.731 103.613 173.318 103.223 172.805L104.177 172.035C104.512 172.459 104.886 172.788 105.298 173.022C105.711 173.245 106.191 173.357 106.738 173.357C107.307 173.357 107.748 173.234 108.061 172.989C108.384 172.743 108.546 172.397 108.546 171.951C108.546 171.616 108.434 171.332 108.211 171.097C107.999 170.852 107.609 170.684 107.039 170.595L106.353 170.495C105.951 170.439 105.583 170.355 105.248 170.243C104.913 170.121 104.618 169.964 104.361 169.775C104.116 169.574 103.92 169.328 103.775 169.038C103.641 168.748 103.574 168.402 103.574 168C103.574 167.576 103.652 167.208 103.809 166.896C103.965 166.572 104.177 166.304 104.445 166.092C104.724 165.88 105.053 165.724 105.432 165.623C105.812 165.512 106.219 165.456 106.654 165.456C107.357 165.456 107.943 165.579 108.412 165.824C108.892 166.07 109.31 166.41 109.668 166.845L108.78 167.649C108.591 167.381 108.312 167.141 107.943 166.929C107.575 166.706 107.112 166.594 106.554 166.594C105.996 166.594 105.572 166.717 105.282 166.962C105.003 167.197 104.863 167.52 104.863 167.933C104.863 168.357 105.003 168.664 105.282 168.854C105.572 169.044 105.985 169.183 106.52 169.273L107.19 169.373C108.15 169.518 108.831 169.797 109.232 170.21C109.634 170.612 109.835 171.142 109.835 171.8C109.835 172.637 109.55 173.296 108.981 173.776C108.412 174.255 107.631 174.495 106.638 174.495ZM115.448 174.495C114.856 174.495 114.321 174.389 113.841 174.177C113.372 173.965 112.965 173.664 112.619 173.273C112.284 172.872 112.022 172.397 111.832 171.85C111.654 171.293 111.564 170.668 111.564 169.976C111.564 169.295 111.654 168.676 111.832 168.118C112.022 167.56 112.284 167.085 112.619 166.695C112.965 166.293 113.372 165.986 113.841 165.774C114.321 165.562 114.856 165.456 115.448 165.456C116.028 165.456 116.547 165.562 117.005 165.774C117.462 165.986 117.853 166.282 118.176 166.661C118.5 167.029 118.746 167.47 118.913 167.984C119.092 168.497 119.181 169.061 119.181 169.674V170.31H112.97V170.712C112.97 171.08 113.026 171.426 113.138 171.75C113.261 172.063 113.428 172.336 113.64 172.57C113.863 172.805 114.131 172.989 114.443 173.123C114.767 173.257 115.13 173.324 115.532 173.324C116.078 173.324 116.553 173.195 116.954 172.939C117.367 172.682 117.685 172.314 117.909 171.834L118.863 172.52C118.584 173.112 118.149 173.591 117.557 173.96C116.966 174.317 116.263 174.495 115.448 174.495ZM115.448 166.577C115.08 166.577 114.745 166.644 114.443 166.778C114.142 166.901 113.88 167.08 113.657 167.314C113.445 167.548 113.277 167.827 113.155 168.151C113.032 168.463 112.97 168.809 112.97 169.189V169.306H117.741V169.122C117.741 168.352 117.529 167.738 117.105 167.281C116.692 166.812 116.14 166.577 115.448 166.577ZM123.296 174.294C122.827 174.294 122.47 174.166 122.225 173.909C121.99 173.642 121.873 173.296 121.873 172.872V166.829H120.45V165.657H121.254C121.544 165.657 121.739 165.601 121.84 165.489C121.951 165.367 122.007 165.16 122.007 164.87V163.263H123.212V165.657H125.104V166.829H123.212V173.123H124.97V174.294H123.296Z" fill="black"/>
</g>
<circle cx="146.121" cy="142.916" r="3.13278" fill="white" stroke="#64748B" stroke-width="1.56639"/>
<circle cx="98.4775" cy="195.71" r="3.13278" fill="white" stroke="#64748B" stroke-width="1.56639"/>
<circle cx="138.395" cy="253.012" r="3.13278" fill="white" stroke="#64748B" stroke-width="1.56639"/>
<circle cx="307.08" cy="328.984" r="3.13278" fill="white" stroke="#64748B" stroke-width="1.56639"/>
<g filter="url(#filter2_d_2189_18677)">
<rect x="7" y="232.356" width="124.904" height="43.137" rx="6.26555" fill="#FFDFA6" shape-rendering="crispEdges"/>
<path d="M44.0089 248.24H48.8132C49.7841 248.24 50.543 248.514 51.0898 249.061C51.6478 249.607 51.9268 250.338 51.9268 251.253C51.9268 251.689 51.8655 252.057 51.7427 252.358C51.6199 252.66 51.4637 252.911 51.274 253.112C51.0843 253.301 50.8778 253.446 50.6546 253.547C50.4314 253.636 50.225 253.697 50.0352 253.731V253.831C50.2473 253.843 50.4816 253.898 50.7383 253.999C51.0061 254.099 51.2572 254.261 51.4916 254.484C51.726 254.696 51.9213 254.975 52.0775 255.321C52.2449 255.656 52.3286 256.063 52.3286 256.543C52.3286 257.023 52.2505 257.469 52.0942 257.882C51.9492 258.295 51.7427 258.652 51.4749 258.954C51.207 259.255 50.889 259.495 50.5207 259.674C50.1524 259.841 49.7507 259.925 49.3154 259.925H44.0089V248.24ZM45.4151 258.686H48.8802C49.4828 258.686 49.9571 258.535 50.3031 258.234C50.649 257.921 50.822 257.469 50.822 256.878V256.309C50.822 255.717 50.649 255.271 50.3031 254.97C49.9571 254.657 49.4828 254.501 48.8802 254.501H45.4151V258.686ZM45.4151 253.296H48.6458C49.2038 253.296 49.6391 253.156 49.9515 252.877C50.264 252.598 50.4203 252.196 50.4203 251.672V251.103C50.4203 250.578 50.264 250.177 49.9515 249.898C49.6391 249.619 49.2038 249.479 48.6458 249.479H45.4151V253.296ZM54.8114 259.925V251.287H56.1506V252.877H56.2343C56.3905 252.464 56.6695 252.096 57.0713 251.772C57.473 251.449 58.0255 251.287 58.7285 251.287H59.2475V252.626H58.4607C57.7353 252.626 57.1661 252.766 56.7532 253.045C56.3515 253.312 56.1506 253.653 56.1506 254.066V259.925H54.8114ZM67.1701 259.925C66.6679 259.925 66.3052 259.791 66.082 259.523C65.8699 259.255 65.736 258.92 65.6802 258.519H65.5965C65.4068 259.054 65.0943 259.456 64.6591 259.724C64.2239 259.992 63.7049 260.126 63.1023 260.126C62.1872 260.126 61.473 259.891 60.9596 259.422C60.4574 258.954 60.2063 258.318 60.2063 257.514C60.2063 256.699 60.5021 256.075 61.0935 255.639C61.6962 255.204 62.628 254.986 63.8891 254.986H65.5965V254.133C65.5965 253.519 65.4291 253.05 65.0943 252.727C64.7595 252.403 64.2462 252.241 63.5543 252.241C63.0298 252.241 62.5889 252.358 62.2318 252.593C61.8859 252.827 61.5957 253.139 61.3614 253.53L60.5579 252.777C60.7922 252.308 61.1661 251.912 61.6794 251.588C62.1928 251.253 62.84 251.086 63.6212 251.086C64.6703 251.086 65.4849 251.343 66.0652 251.856C66.6455 252.369 66.9357 253.084 66.9357 253.999V258.753H67.9233V259.925H67.1701ZM63.3199 258.987C63.6547 258.987 63.9616 258.948 64.2406 258.87C64.5196 258.792 64.7595 258.68 64.9604 258.535C65.1613 258.39 65.3175 258.223 65.4291 258.033C65.5407 257.843 65.5965 257.637 65.5965 257.414V255.991H63.8221C63.0521 255.991 62.4885 256.102 62.1314 256.326C61.7854 256.549 61.6125 256.872 61.6125 257.297V257.648C61.6125 258.072 61.7631 258.401 62.0644 258.636C62.3769 258.87 62.7954 258.987 63.3199 258.987ZM69.8347 259.925V251.287H71.1739V252.693H71.2408C71.4529 252.202 71.7486 251.811 72.128 251.521C72.5186 251.231 73.0375 251.086 73.6848 251.086C74.5776 251.086 75.2807 251.376 75.794 251.957C76.3185 252.526 76.5808 253.335 76.5808 254.384V259.925H75.2416V254.618C75.2416 253.067 74.5888 252.291 73.2831 252.291C73.0152 252.291 72.753 252.325 72.4963 252.392C72.2508 252.459 72.0276 252.559 71.8267 252.693C71.6258 252.827 71.464 253 71.3413 253.212C71.2297 253.413 71.1739 253.653 71.1739 253.932V259.925H69.8347ZM82.5629 260.126C81.9603 260.126 81.419 260.02 80.9391 259.807C80.4593 259.595 80.0519 259.294 79.7171 258.904C79.3935 258.513 79.1424 258.039 78.9638 257.481C78.7964 256.923 78.7127 256.298 78.7127 255.606C78.7127 254.914 78.7964 254.289 78.9638 253.731C79.1424 253.173 79.3935 252.699 79.7171 252.308C80.0519 251.917 80.4593 251.616 80.9391 251.404C81.419 251.192 81.9603 251.086 82.5629 251.086C83.4222 251.086 84.1085 251.276 84.6219 251.655C85.1464 252.024 85.537 252.509 85.7937 253.112L84.6721 253.681C84.5159 253.234 84.2592 252.888 83.9021 252.643C83.5449 252.397 83.0986 252.275 82.5629 252.275C82.1611 252.275 81.8096 252.342 81.5083 252.475C81.207 252.598 80.9559 252.777 80.755 253.011C80.5541 253.234 80.4035 253.508 80.303 253.831C80.2026 254.144 80.1524 254.49 80.1524 254.869V256.342C80.1524 257.101 80.3532 257.726 80.755 258.217C81.1679 258.697 81.7705 258.937 82.5629 258.937C83.6454 258.937 84.4266 258.435 84.9064 257.43L85.8773 258.083C85.5984 258.708 85.1799 259.205 84.6219 259.573C84.075 259.941 83.3887 260.126 82.5629 260.126ZM87.7678 247.537H89.1069V252.693H89.1739C89.3859 252.202 89.6817 251.811 90.0611 251.521C90.4517 251.231 90.9706 251.086 91.6179 251.086C92.5107 251.086 93.2138 251.376 93.7271 251.957C94.2516 252.526 94.5139 253.335 94.5139 254.384V259.925H93.1747V254.618C93.1747 253.067 92.5218 252.291 91.2161 252.291C90.9483 252.291 90.6861 252.325 90.4294 252.392C90.1839 252.459 89.9607 252.559 89.7598 252.693C89.5589 252.827 89.3971 253 89.2743 253.212C89.1627 253.413 89.1069 253.653 89.1069 253.932V259.925H87.7678V247.537Z" fill="black"/>
</g>
<g filter="url(#filter3_d_2189_18677)">
<rect x="77.1777" y="332.795" width="124.904" height="43.137" rx="6.26555" fill="#FFDFA6" shape-rendering="crispEdges"/>
<path d="M103.348 360.363L99.4647 348.679H100.971L102.896 354.571L104.185 358.957H104.269L105.591 354.571L107.533 348.679H108.99L105.056 360.363H103.348ZM113.494 360.564C112.903 360.564 112.367 360.458 111.887 360.246C111.419 360.034 111.011 359.732 110.665 359.342C110.33 358.94 110.068 358.466 109.878 357.919C109.7 357.361 109.611 356.736 109.611 356.044C109.611 355.363 109.7 354.744 109.878 354.186C110.068 353.628 110.33 353.154 110.665 352.763C111.011 352.361 111.419 352.055 111.887 351.843C112.367 351.63 112.903 351.524 113.494 351.524C114.075 351.524 114.594 351.63 115.051 351.843C115.509 352.055 115.899 352.35 116.223 352.73C116.546 353.098 116.792 353.539 116.959 354.052C117.138 354.565 117.227 355.129 117.227 355.743V356.379H111.017V356.781C111.017 357.149 111.073 357.495 111.184 357.819C111.307 358.131 111.474 358.404 111.686 358.639C111.91 358.873 112.177 359.057 112.49 359.191C112.814 359.325 113.176 359.392 113.578 359.392C114.125 359.392 114.599 359.264 115.001 359.007C115.414 358.75 115.732 358.382 115.955 357.902L116.909 358.589C116.63 359.18 116.195 359.66 115.603 360.028C115.012 360.385 114.309 360.564 113.494 360.564ZM113.494 352.646C113.126 352.646 112.791 352.713 112.49 352.847C112.189 352.97 111.926 353.148 111.703 353.383C111.491 353.617 111.324 353.896 111.201 354.22C111.078 354.532 111.017 354.878 111.017 355.257V355.375H115.788V355.19C115.788 354.42 115.576 353.807 115.152 353.349C114.739 352.88 114.186 352.646 113.494 352.646ZM119.434 360.363V351.725H120.773V353.316H120.857C121.013 352.903 121.292 352.534 121.694 352.211C122.096 351.887 122.648 351.725 123.351 351.725H123.87V353.065H123.083C122.358 353.065 121.789 353.204 121.376 353.483C120.974 353.751 120.773 354.091 120.773 354.504V360.363H119.434ZM128.175 360.564C127.372 360.564 126.697 360.413 126.15 360.112C125.614 359.799 125.151 359.387 124.76 358.873L125.715 358.103C126.049 358.527 126.423 358.856 126.836 359.091C127.249 359.314 127.729 359.426 128.276 359.426C128.845 359.426 129.286 359.303 129.598 359.057C129.922 358.812 130.084 358.466 130.084 358.019C130.084 357.685 129.972 357.4 129.749 357.166C129.537 356.92 129.146 356.753 128.577 356.664L127.891 356.563C127.489 356.507 127.121 356.424 126.786 356.312C126.451 356.189 126.155 356.033 125.899 355.843C125.653 355.642 125.458 355.397 125.313 355.107C125.179 354.817 125.112 354.471 125.112 354.069C125.112 353.645 125.19 353.277 125.346 352.964C125.502 352.64 125.715 352.373 125.982 352.161C126.261 351.949 126.591 351.792 126.97 351.692C127.349 351.58 127.757 351.524 128.192 351.524C128.895 351.524 129.481 351.647 129.95 351.893C130.43 352.138 130.848 352.479 131.205 352.914L130.318 353.717C130.128 353.45 129.849 353.21 129.481 352.998C129.113 352.774 128.65 352.663 128.092 352.663C127.534 352.663 127.11 352.786 126.819 353.031C126.54 353.265 126.401 353.589 126.401 354.002C126.401 354.426 126.54 354.733 126.819 354.923C127.11 355.112 127.522 355.252 128.058 355.341L128.728 355.442C129.687 355.587 130.368 355.866 130.77 356.279C131.172 356.68 131.373 357.21 131.373 357.869C131.373 358.706 131.088 359.364 130.519 359.844C129.95 360.324 129.168 360.564 128.175 360.564ZM134.408 349.7C134.117 349.7 133.905 349.633 133.771 349.499C133.649 349.354 133.587 349.17 133.587 348.947V348.729C133.587 348.506 133.649 348.327 133.771 348.193C133.905 348.048 134.117 347.976 134.408 347.976C134.698 347.976 134.904 348.048 135.027 348.193C135.161 348.327 135.228 348.506 135.228 348.729V348.947C135.228 349.17 135.161 349.354 135.027 349.499C134.904 349.633 134.698 349.7 134.408 349.7ZM133.738 351.725H135.077V360.363H133.738V351.725ZM141.187 360.564C140.607 360.564 140.077 360.458 139.597 360.246C139.117 360.034 138.704 359.732 138.358 359.342C138.023 358.94 137.761 358.466 137.571 357.919C137.382 357.361 137.287 356.736 137.287 356.044C137.287 355.363 137.382 354.744 137.571 354.186C137.761 353.628 138.023 353.154 138.358 352.763C138.704 352.361 139.117 352.055 139.597 351.843C140.077 351.63 140.607 351.524 141.187 351.524C141.767 351.524 142.292 351.63 142.761 351.843C143.241 352.055 143.653 352.361 143.999 352.763C144.345 353.154 144.613 353.628 144.803 354.186C144.993 354.744 145.087 355.363 145.087 356.044C145.087 356.736 144.993 357.361 144.803 357.919C144.613 358.466 144.345 358.94 143.999 359.342C143.653 359.732 143.241 360.034 142.761 360.246C142.292 360.458 141.767 360.564 141.187 360.564ZM141.187 359.375C141.913 359.375 142.504 359.152 142.962 358.706C143.419 358.259 143.648 357.579 143.648 356.664V355.425C143.648 354.51 143.419 353.829 142.962 353.383C142.504 352.936 141.913 352.713 141.187 352.713C140.462 352.713 139.87 352.936 139.413 353.383C138.955 353.829 138.726 354.51 138.726 355.425V356.664C138.726 357.579 138.955 358.259 139.413 358.706C139.87 359.152 140.462 359.375 141.187 359.375ZM147.29 360.363V351.725H148.629V353.131H148.696C148.908 352.64 149.204 352.25 149.583 351.96C149.974 351.67 150.493 351.524 151.14 351.524C152.033 351.524 152.736 351.815 153.249 352.395C153.774 352.964 154.036 353.773 154.036 354.822V360.363H152.697V355.057C152.697 353.505 152.044 352.73 150.738 352.73C150.47 352.73 150.208 352.763 149.952 352.83C149.706 352.897 149.483 352.998 149.282 353.131C149.081 353.265 148.919 353.438 148.797 353.65C148.685 353.851 148.629 354.091 148.629 354.37V360.363H147.29ZM164.359 360.564C162.964 360.564 161.943 360.034 161.296 358.974C160.66 357.913 160.342 356.429 160.342 354.521C160.342 352.613 160.66 351.128 161.296 350.068C161.943 349.008 162.964 348.478 164.359 348.478C165.754 348.478 166.77 349.008 167.406 350.068C168.053 351.128 168.377 352.613 168.377 354.521C168.377 356.429 168.053 357.913 167.406 358.974C166.77 360.034 165.754 360.564 164.359 360.564ZM164.359 359.342C164.817 359.342 165.207 359.247 165.531 359.057C165.855 358.868 166.117 358.6 166.318 358.254C166.519 357.908 166.664 357.501 166.753 357.032C166.853 356.563 166.904 356.044 166.904 355.475V353.567C166.904 352.998 166.853 352.479 166.753 352.01C166.664 351.541 166.519 351.134 166.318 350.788C166.117 350.442 165.855 350.174 165.531 349.984C165.207 349.795 164.817 349.7 164.359 349.7C163.902 349.7 163.511 349.795 163.187 349.984C162.864 350.174 162.602 350.442 162.401 350.788C162.2 351.134 162.049 351.541 161.949 352.01C161.859 352.479 161.815 352.998 161.815 353.567V355.475C161.815 356.044 161.859 356.563 161.949 357.032C162.049 357.501 162.2 357.908 162.401 358.254C162.602 358.6 162.864 358.868 163.187 359.057C163.511 359.247 163.902 359.342 164.359 359.342ZM170.848 360.363V359.124H174.112V349.717H173.995L171.049 352.462L170.228 351.575L173.325 348.679H175.518V359.124H178.531V360.363H170.848Z" fill="black"/>
</g>
<path d="M146 139V126.581C146 112.39 157.504 100.886 171.695 100.886H312.305C326.496 100.886 338 89.3819 338 75.1908V0" stroke="#64748B" stroke-width="1.93" stroke-dasharray="2.57 2.57"/>
<defs>
<filter id="filter0_d_2189_18677" x="232.608" y="326.183" width="150.658" height="68.8904" filterUnits="userSpaceOnUse" color-interpolation-filters="sRGB">
<feFlood flood-opacity="0" result="BackgroundImageFix"/>
<feColorMatrix in="SourceAlpha" type="matrix" values="0 0 0 0 0 0 0 0 0 0 0 0 0 0 0 0 0 0 127 0" result="hardAlpha"/>
<feOffset dx="6.26555" dy="6.26555"/>
<feGaussianBlur stdDeviation="6.43836"/>
<feComposite in2="hardAlpha" operator="out"/>
<feColorMatrix type="matrix" values="0 0 0 0 0.904167 0 0 0 0 0.904167 0 0 0 0 0.904167 0 0 0 0.25 0"/>
<feBlend mode="normal" in2="BackgroundImageFix" result="effect1_dropShadow_2189_18677"/>
<feBlend mode="normal" in="SourceGraphic" in2="effect1_dropShadow_2189_18677" result="shape"/>
</filter>
<filter id="filter1_d_2189_18677" x="0.38884" y="140.115" width="206.028" height="68.8904" filterUnits="userSpaceOnUse" color-interpolation-filters="sRGB">
<feFlood flood-opacity="0" result="BackgroundImageFix"/>
<feColorMatrix in="SourceAlpha" type="matrix" values="0 0 0 0 0 0 0 0 0 0 0 0 0 0 0 0 0 0 127 0" result="hardAlpha"/>
<feOffset dx="6.26555" dy="6.26555"/>
<feGaussianBlur stdDeviation="6.43836"/>
<feComposite in2="hardAlpha" operator="out"/>
<feColorMatrix type="matrix" values="0 0 0 0 0.904167 0 0 0 0 0.904167 0 0 0 0 0.904167 0 0 0 0.25 0"/>
<feBlend mode="normal" in2="BackgroundImageFix" result="effect1_dropShadow_2189_18677"/>
<feBlend mode="normal" in="SourceGraphic" in2="effect1_dropShadow_2189_18677" result="shape"/>
</filter>
<filter id="filter2_d_2189_18677" x="0.38884" y="225.745" width="150.658" height="68.8904" filterUnits="userSpaceOnUse" color-interpolation-filters="sRGB">
<feFlood flood-opacity="0" result="BackgroundImageFix"/>
<feColorMatrix in="SourceAlpha" type="matrix" values="0 0 0 0 0 0 0 0 0 0 0 0 0 0 0 0 0 0 127 0" result="hardAlpha"/>
<feOffset dx="6.26555" dy="6.26555"/>
<feGaussianBlur stdDeviation="6.43836"/>
<feComposite in2="hardAlpha" operator="out"/>
<feColorMatrix type="matrix" values="0 0 0 0 0.904167 0 0 0 0 0.904167 0 0 0 0 0.904167 0 0 0 0.25 0"/>
<feBlend mode="normal" in2="BackgroundImageFix" result="effect1_dropShadow_2189_18677"/>
<feBlend mode="normal" in="SourceGraphic" in2="effect1_dropShadow_2189_18677" result="shape"/>
</filter>
<filter id="filter3_d_2189_18677" x="70.5666" y="326.183" width="150.658" height="68.8904" filterUnits="userSpaceOnUse" color-interpolation-filters="sRGB">
<feFlood flood-opacity="0" result="BackgroundImageFix"/>
<feColorMatrix in="SourceAlpha" type="matrix" values="0 0 0 0 0 0 0 0 0 0 0 0 0 0 0 0 0 0 127 0" result="hardAlpha"/>
<feOffset dx="6.26555" dy="6.26555"/>
<feGaussianBlur stdDeviation="6.43836"/>
<feComposite in2="hardAlpha" operator="out"/>
<feColorMatrix type="matrix" values="0 0 0 0 0.904167 0 0 0 0 0.904167 0 0 0 0 0.904167 0 0 0 0.25 0"/>
<feBlend mode="normal" in2="BackgroundImageFix" result="effect1_dropShadow_2189_18677"/>
<feBlend mode="normal" in="SourceGraphic" in2="effect1_dropShadow_2189_18677" result="shape"/>
</filter>
</defs>
</svg>
