<svg width="264" height="324" viewBox="0 0 264 324" fill="none" xmlns="http://www.w3.org/2000/svg">
<path d="M89.0316 13V11.8491H91.6145C92.3014 11.8491 92.9037 11.7019 93.4211 11.4075C93.9386 11.1041 94.3401 10.6893 94.6256 10.1629C94.92 9.63649 95.0672 9.02981 95.0672 8.34283C95.0672 7.66477 94.92 7.06255 94.6256 6.53617C94.3311 6.00978 93.9252 5.59938 93.4077 5.30496C92.8903 5.01054 92.2925 4.86333 91.6145 4.86333H89.045V3.71242H91.6412C92.3193 3.71242 92.9438 3.82841 93.5148 4.06037C94.0947 4.29234 94.5943 4.61798 95.0137 5.03731C95.4419 5.45663 95.772 5.94733 96.004 6.5094C96.2449 7.07147 96.3653 7.68708 96.3653 8.35621C96.3653 9.01642 96.2449 9.63203 96.004 10.203C95.772 10.7651 95.4464 11.2558 95.027 11.6751C94.6077 12.0944 94.1081 12.4201 93.5282 12.6521C92.9572 12.884 92.3371 13 91.668 13H89.0316ZM88.2019 13V3.71242H89.4598V13H88.2019ZM100.597 13.1338C100.017 13.1338 99.4911 12.9911 99.0182 12.7056C98.5454 12.4112 98.1706 12.0141 97.8941 11.5145C97.6264 11.0149 97.4926 10.4528 97.4926 9.82831C97.4926 9.20378 97.6264 8.64171 97.8941 8.14209C98.1706 7.64247 98.5409 7.24545 99.0048 6.95103C99.4777 6.65661 100.009 6.5094 100.597 6.5094C101.079 6.5094 101.507 6.612 101.882 6.8172C102.266 7.01348 102.574 7.29006 102.806 7.64693C103.037 7.99488 103.167 8.40082 103.194 8.86475V10.7785C103.167 11.2335 103.037 11.6394 102.806 11.9963C102.582 12.3532 102.279 12.6342 101.895 12.8394C101.521 13.0357 101.088 13.1338 100.597 13.1338ZM100.798 11.9963C101.396 11.9963 101.878 11.7956 102.243 11.3941C102.609 10.9837 102.792 10.4618 102.792 9.82831C102.792 9.39114 102.707 9.01196 102.538 8.69078C102.377 8.36067 102.145 8.1064 101.842 7.92797C101.539 7.74061 101.186 7.64693 100.785 7.64693C100.383 7.64693 100.026 7.74061 99.7141 7.92797C99.4108 8.11532 99.1699 8.37405 98.9914 8.70416C98.8219 9.02534 98.7372 9.3956 98.7372 9.81492C98.7372 10.2432 98.8219 10.6223 98.9914 10.9525C99.1699 11.2736 99.4152 11.5279 99.7275 11.7153C100.04 11.9026 100.397 11.9963 100.798 11.9963ZM102.712 13V11.287L102.939 9.73463L102.712 8.19562V6.64323H103.93V13H102.712ZM106.634 13V3.98008H107.838V13H106.634ZM105.068 7.74061V6.64323H109.404V7.74061H105.068ZM113.091 13.1338C112.511 13.1338 111.985 12.9911 111.512 12.7056C111.039 12.4112 110.665 12.0141 110.388 11.5145C110.12 11.0149 109.987 10.4528 109.987 9.82831C109.987 9.20378 110.12 8.64171 110.388 8.14209C110.665 7.64247 111.035 7.24545 111.499 6.95103C111.972 6.65661 112.503 6.5094 113.091 6.5094C113.573 6.5094 114.001 6.612 114.376 6.8172C114.76 7.01348 115.068 7.29006 115.299 7.64693C115.531 7.99488 115.661 8.40082 115.688 8.86475V10.7785C115.661 11.2335 115.531 11.6394 115.299 11.9963C115.076 12.3532 114.773 12.6342 114.389 12.8394C114.015 13.0357 113.582 13.1338 113.091 13.1338ZM113.292 11.9963C113.89 11.9963 114.372 11.7956 114.737 11.3941C115.103 10.9837 115.286 10.4618 115.286 9.82831C115.286 9.39114 115.201 9.01196 115.032 8.69078C114.871 8.36067 114.639 8.1064 114.336 7.92797C114.033 7.74061 113.68 7.64693 113.279 7.64693C112.877 7.64693 112.52 7.74061 112.208 7.92797C111.905 8.11532 111.664 8.37405 111.485 8.70416C111.316 9.02534 111.231 9.3956 111.231 9.81492C111.231 10.2432 111.316 10.6223 111.485 10.9525C111.664 11.2736 111.909 11.5279 112.221 11.7153C112.534 11.9026 112.891 11.9963 113.292 11.9963ZM115.206 13V11.287L115.433 9.73463L115.206 8.19562V6.64323H116.424V13H115.206ZM123.758 13.1338C123.026 13.1338 122.402 13 121.884 12.7323C121.367 12.4647 120.907 12.0766 120.506 11.5681L121.362 10.7116C121.657 11.122 121.996 11.4342 122.379 11.6483C122.763 11.8536 123.236 11.9562 123.798 11.9562C124.351 11.9562 124.793 11.8357 125.123 11.5948C125.462 11.3539 125.631 11.0238 125.631 10.6045C125.631 10.2566 125.551 9.97552 125.391 9.76139C125.23 9.54727 125.011 9.37329 124.735 9.23947C124.467 9.09672 124.173 8.97181 123.852 8.86475C123.53 8.74877 123.209 8.62833 122.888 8.50342C122.567 8.36959 122.272 8.209 122.005 8.02164C121.737 7.82536 121.518 7.57109 121.349 7.25883C121.188 6.94657 121.108 6.55401 121.108 6.08116C121.108 5.55477 121.233 5.10868 121.483 4.74289C121.742 4.36817 122.089 4.08268 122.527 3.8864C122.973 3.6812 123.472 3.5786 124.026 3.5786C124.632 3.5786 125.176 3.69904 125.658 3.93993C126.14 4.17189 126.533 4.4797 126.836 4.86333L125.979 5.71982C125.703 5.39864 125.404 5.15775 125.083 4.99716C124.77 4.83657 124.409 4.75627 123.999 4.75627C123.499 4.75627 123.102 4.86779 122.808 5.09084C122.513 5.30496 122.366 5.6083 122.366 6.00086C122.366 6.31312 122.446 6.56739 122.607 6.76367C122.776 6.95103 122.995 7.11162 123.263 7.24545C123.53 7.37928 123.825 7.50418 124.146 7.62016C124.476 7.72723 124.802 7.84767 125.123 7.9815C125.444 8.11532 125.739 8.28484 126.006 8.49004C126.274 8.69524 126.488 8.96289 126.649 9.293C126.818 9.61418 126.903 10.0201 126.903 10.5108C126.903 11.3316 126.617 11.974 126.046 12.4379C125.484 12.9019 124.721 13.1338 123.758 13.1338ZM131.197 13.1338C130.572 13.1338 130.01 12.9866 129.51 12.6922C129.011 12.3978 128.614 12.0008 128.319 11.5011C128.025 10.9926 127.878 10.4261 127.878 9.80154C127.878 9.18594 128.025 8.63279 128.319 8.14209C128.614 7.64247 129.011 7.24545 129.51 6.95103C130.01 6.65661 130.572 6.5094 131.197 6.5094C131.812 6.5094 132.37 6.65661 132.869 6.95103C133.378 7.23653 133.78 7.62909 134.074 8.12871C134.368 8.62833 134.516 9.18594 134.516 9.80154C134.516 10.4261 134.368 10.9926 134.074 11.5011C133.78 12.0008 133.378 12.3978 132.869 12.6922C132.37 12.9866 131.812 13.1338 131.197 13.1338ZM131.197 11.9695C131.598 11.9695 131.955 11.8759 132.267 11.6885C132.58 11.5011 132.825 11.2469 133.003 10.9257C133.182 10.5956 133.271 10.2209 133.271 9.80154C133.271 9.39114 133.177 9.02534 132.99 8.70416C132.811 8.38298 132.566 8.13317 132.254 7.95473C131.951 7.76737 131.598 7.67369 131.197 7.67369C130.795 7.67369 130.438 7.76737 130.126 7.95473C129.814 8.13317 129.568 8.38298 129.39 8.70416C129.212 9.02534 129.122 9.39114 129.122 9.80154C129.122 10.2209 129.212 10.5956 129.39 10.9257C129.568 11.2469 129.814 11.5011 130.126 11.6885C130.438 11.8759 130.795 11.9695 131.197 11.9695ZM138.429 13.1338C137.911 13.1338 137.443 13.0178 137.024 12.7859C136.613 12.545 136.292 12.2149 136.06 11.7956C135.828 11.3762 135.712 10.89 135.712 10.3368V6.64323H136.916V10.2833C136.916 10.6313 136.974 10.9346 137.09 11.1933C137.215 11.4431 137.394 11.635 137.626 11.7688C137.858 11.9026 138.13 11.9695 138.442 11.9695C138.915 11.9695 139.285 11.8223 139.553 11.5279C139.821 11.2246 139.954 10.8097 139.954 10.2833V6.64323H141.159V10.3368C141.159 10.89 141.043 11.3762 140.811 11.7956C140.579 12.2149 140.258 12.545 139.847 12.7859C139.446 13.0178 138.973 13.1338 138.429 13.1338ZM142.773 13V6.64323H143.978V13H142.773ZM143.978 9.37329L143.523 9.17255C143.523 8.36067 143.71 7.71384 144.085 7.23207C144.459 6.75029 144.999 6.5094 145.704 6.5094C146.025 6.5094 146.315 6.56739 146.574 6.68338C146.832 6.79044 147.073 6.97333 147.296 7.23207L146.507 8.04841C146.373 7.90566 146.226 7.80306 146.065 7.74061C145.905 7.67816 145.717 7.64693 145.503 7.64693C145.057 7.64693 144.691 7.78968 144.406 8.07517C144.12 8.36067 143.978 8.79338 143.978 9.37329ZM150.839 13.1338C150.215 13.1338 149.648 12.9866 149.14 12.6922C148.64 12.3978 148.243 12.0008 147.949 11.5011C147.663 10.9926 147.52 10.4305 147.52 9.81492C147.52 9.1904 147.663 8.62833 147.949 8.12871C148.243 7.62909 148.64 7.23653 149.14 6.95103C149.648 6.65661 150.215 6.5094 150.839 6.5094C151.33 6.5094 151.785 6.60308 152.204 6.79044C152.624 6.96887 152.985 7.23207 153.288 7.58002L152.485 8.38298C152.289 8.15101 152.048 7.97704 151.763 7.86105C151.486 7.73615 151.178 7.67369 150.839 7.67369C150.438 7.67369 150.081 7.76737 149.769 7.95473C149.457 8.13317 149.211 8.38298 149.033 8.70416C148.854 9.02534 148.765 9.3956 148.765 9.81492C148.765 10.2342 148.854 10.6045 149.033 10.9257C149.211 11.2469 149.457 11.5011 149.769 11.6885C150.081 11.8759 150.438 11.9695 150.839 11.9695C151.178 11.9695 151.486 11.9115 151.763 11.7956C152.048 11.6707 152.294 11.4922 152.499 11.2603L153.288 12.0632C152.994 12.4022 152.633 12.6654 152.204 12.8528C151.785 13.0401 151.33 13.1338 150.839 13.1338ZM157.296 13.1338C156.663 13.1338 156.092 12.9911 155.583 12.7056C155.075 12.4112 154.673 12.0141 154.379 11.5145C154.085 11.0149 153.937 10.4484 153.937 9.81492C153.937 9.1904 154.08 8.62833 154.366 8.12871C154.66 7.62909 155.053 7.23653 155.543 6.95103C156.043 6.65661 156.601 6.5094 157.216 6.5094C157.805 6.5094 158.322 6.64323 158.769 6.91088C159.224 7.17854 159.576 7.54879 159.826 8.02164C160.084 8.4945 160.214 9.02981 160.214 9.62757C160.214 9.71678 160.209 9.81492 160.2 9.92198C160.192 10.0201 160.174 10.1361 160.147 10.2699H154.78V9.26623H159.505L159.063 9.65433C159.063 9.22609 158.987 8.86475 158.835 8.57033C158.684 8.26699 158.47 8.03503 158.193 7.87443C157.916 7.70492 157.582 7.62016 157.189 7.62016C156.779 7.62016 156.418 7.70938 156.105 7.88782C155.793 8.06625 155.552 8.31606 155.383 8.63725C155.213 8.95843 155.128 9.33761 155.128 9.77477C155.128 10.2209 155.218 10.6134 155.396 10.9525C155.575 11.2826 155.829 11.5413 156.159 11.7286C156.489 11.9071 156.868 11.9963 157.296 11.9963C157.653 11.9963 157.979 11.9338 158.273 11.8089C158.577 11.684 158.835 11.4967 159.05 11.2469L159.826 12.0364C159.522 12.3933 159.148 12.6654 158.702 12.8528C158.264 13.0401 157.796 13.1338 157.296 13.1338ZM163.548 13.1338C163.191 13.1338 162.852 13.0892 162.531 13C162.219 12.9019 161.929 12.768 161.661 12.5985C161.393 12.4201 161.161 12.2104 160.965 11.9695L161.741 11.1933C161.973 11.4788 162.241 11.693 162.544 11.8357C162.848 11.9695 163.187 12.0364 163.561 12.0364C163.936 12.0364 164.226 11.974 164.431 11.8491C164.636 11.7153 164.739 11.5324 164.739 11.3004C164.739 11.0684 164.654 10.89 164.485 10.7651C164.324 10.6313 164.114 10.5242 163.856 10.4439C163.597 10.3547 163.32 10.2699 163.026 10.1896C162.74 10.1004 162.468 9.9889 162.21 9.85507C161.951 9.72124 161.737 9.53835 161.567 9.30638C161.407 9.07441 161.326 8.76661 161.326 8.38298C161.326 7.99934 161.42 7.66923 161.607 7.39266C161.795 7.10716 162.054 6.88858 162.384 6.73691C162.723 6.58524 163.129 6.5094 163.601 6.5094C164.101 6.5094 164.543 6.59862 164.926 6.77706C165.319 6.94657 165.64 7.2053 165.89 7.55325L165.114 8.32945C164.935 8.09748 164.712 7.91904 164.445 7.79414C164.186 7.66923 163.891 7.60678 163.561 7.60678C163.213 7.60678 162.946 7.66923 162.758 7.79414C162.58 7.91012 162.491 8.07517 162.491 8.2893C162.491 8.50342 162.571 8.66847 162.732 8.78446C162.892 8.90044 163.102 8.99858 163.361 9.07888C163.628 9.15917 163.905 9.24393 164.19 9.33315C164.476 9.41344 164.748 9.52496 165.007 9.66771C165.265 9.81046 165.475 10.0023 165.636 10.2432C165.805 10.4841 165.89 10.8008 165.89 11.1933C165.89 11.7911 165.676 12.264 165.248 12.6119C164.828 12.9599 164.262 13.1338 163.548 13.1338Z" fill="black"/>
<rect x="10.085" y="30.3827" width="61.8949" height="61.8949" rx="10.3158" fill="#F8FAFC"/>
<path d="M30.482 57.4057C30.482 58.0009 30.5465 58.4834 30.659 58.8372C30.8018 59.2353 30.9738 59.6223 31.1735 59.9951C31.254 60.1237 31.286 60.2523 31.286 60.365C31.286 60.5257 31.1896 60.6866 30.9806 60.8475L29.9675 61.5229C29.8227 61.6195 29.6779 61.6676 29.5491 61.6676C29.3884 61.6676 29.2275 61.5872 29.0667 61.4424C28.85 61.2096 28.6562 60.9565 28.4878 60.6866C28.3269 60.4134 28.166 60.1076 27.9892 59.7378C26.7348 61.2172 25.1586 61.9572 23.261 61.9572C21.9102 61.9572 20.8325 61.5711 20.0444 60.7993C19.2565 60.0271 18.8545 58.9979 18.8545 57.7114C18.8545 56.3444 19.337 55.2347 20.318 54.3984C21.2989 53.5622 22.6017 53.144 24.2582 53.144C24.8049 53.144 25.3678 53.1922 25.9628 53.2726C26.558 53.3531 27.1691 53.4817 27.8124 53.6265V52.4525C27.8124 51.2301 27.555 50.3779 27.0564 49.8793C26.5418 49.3807 25.6733 49.1394 24.435 49.1394C23.8721 49.1394 23.2932 49.2039 22.6981 49.3486C22.1031 49.4932 21.5241 49.6702 20.9612 49.8954C20.7039 50.0079 20.511 50.0722 20.3983 50.1045C20.2858 50.1367 20.2053 50.1527 20.141 50.1527C19.9158 50.1527 19.8033 49.9918 19.8033 49.6541V48.866C19.8033 48.6087 19.8355 48.4158 19.9158 48.3033C19.9962 48.1906 20.141 48.0781 20.3662 47.9655C20.9291 47.676 21.6045 47.4347 22.3924 47.2418C23.1807 47.0327 24.017 46.9363 24.9015 46.9363C26.8154 46.9363 28.2146 47.3704 29.1152 48.2389C29.9997 49.1073 30.4501 50.4261 30.4501 52.1952V57.4057H30.4824H30.482ZM23.9525 59.8503C24.4834 59.8503 25.0301 59.7539 25.609 59.5608C26.188 59.3678 26.7027 59.014 27.1368 58.5315C27.3943 58.2261 27.5872 57.8884 27.6836 57.5023C27.7802 57.1164 27.8445 56.6499 27.8445 56.1031V55.4277C27.3568 55.309 26.8628 55.2177 26.3648 55.1543C25.8634 55.0906 25.3585 55.0584 24.8531 55.0577C23.7755 55.0577 22.9876 55.2668 22.4569 55.7011C21.9261 56.1354 21.6688 56.7464 21.6688 57.5505C21.6688 58.3063 21.8618 58.8692 22.2638 59.2553C22.6499 59.6574 23.2128 59.8503 23.9525 59.8503ZM36.8667 61.5872C36.5772 61.5872 36.3842 61.539 36.2556 61.4263C36.127 61.3299 36.0143 61.1047 35.9179 60.7993L32.1386 48.3676C32.0419 48.0458 31.9937 47.8367 31.9937 47.7242C31.9937 47.467 32.1223 47.322 32.3798 47.322H33.9558C34.2612 47.322 34.4705 47.3704 34.583 47.4829C34.7116 47.5795 34.8082 47.8047 34.9046 48.1101L37.6064 58.7567L40.1153 48.1101C40.1957 47.7885 40.2923 47.5795 40.4208 47.4829C40.5496 47.3865 40.7748 47.3222 41.0643 47.3222H42.3508C42.6563 47.3222 42.8655 47.3704 42.994 47.4829C43.1228 47.5795 43.2353 47.8047 43.2996 48.1101L45.8407 58.8854L48.6228 48.1101C48.7192 47.7885 48.8319 47.5795 48.9444 47.4829C49.073 47.3865 49.2821 47.3222 49.5716 47.3222H51.0672C51.3246 47.3222 51.4694 47.4508 51.4694 47.7242C51.4694 47.8047 51.4533 47.8851 51.4372 47.9815C51.421 48.0781 51.389 48.2067 51.3246 48.3837L47.4486 60.8152C47.3522 61.137 47.2397 61.3461 47.1109 61.4424C46.9823 61.539 46.7732 61.6033 46.5 61.6033H45.1169C44.8113 61.6033 44.6022 61.5551 44.4734 61.4424C44.3448 61.3299 44.2323 61.1209 44.168 60.7993L41.675 50.4261L39.1984 60.783C39.1181 61.1047 39.0216 61.3138 38.8929 61.4263C38.7643 61.539 38.5391 61.5872 38.2498 61.5872H36.8665H36.8667ZM57.5325 62.0215C56.6962 62.0215 55.86 61.9249 55.0559 61.732C54.2517 61.539 53.6246 61.3298 53.2065 61.0888C52.949 60.9439 52.772 60.7832 52.7079 60.6384C52.6453 60.4964 52.6124 60.3432 52.6113 60.188V59.3678C52.6113 59.0301 52.74 58.8692 52.9813 58.8692C53.0798 58.8696 53.1776 58.886 53.2708 58.9176C53.3672 58.9499 53.512 59.014 53.6728 59.0783C54.2409 59.3282 54.8339 59.5169 55.4418 59.6412C56.0718 59.7691 56.7129 59.8337 57.3557 59.8342C58.3688 59.8342 59.1569 59.6574 59.7037 59.3035C60.2505 58.9497 60.54 58.4352 60.54 57.7757C60.54 57.3255 60.3953 56.9555 60.1057 56.6499C59.8162 56.3444 59.2694 56.071 58.4815 55.8136L56.1495 55.09C54.9755 54.72 54.1071 54.1732 53.5763 53.4495C53.0456 52.7418 52.7722 51.9539 52.7722 51.1176C52.7722 50.4422 52.917 49.847 53.2065 49.3323C53.4958 48.8178 53.8819 48.3676 54.3644 48.0137C54.8468 47.6438 55.3936 47.3704 56.037 47.1774C56.6801 46.9845 57.3555 46.9041 58.0632 46.9041C58.417 46.9041 58.787 46.9202 59.1408 46.9684C59.5108 47.0166 59.8485 47.0809 60.1862 47.1452C60.5078 47.2256 60.8134 47.3061 61.1029 47.4026C61.3924 47.499 61.6174 47.5956 61.7783 47.692C62.0035 47.8208 62.1642 47.9494 62.2608 48.0942C62.3574 48.2228 62.4055 48.3996 62.4055 48.6248V49.3807C62.4055 49.7184 62.2769 49.8954 62.0356 49.8954C61.907 49.8954 61.6979 49.8309 61.4247 49.7023C60.5078 49.2841 59.4785 49.075 58.3368 49.075C57.42 49.075 56.6962 49.2198 56.1977 49.5254C55.6993 49.8309 55.4418 50.2974 55.4418 50.9567C55.4418 51.4071 55.6027 51.793 55.9243 52.0986C56.246 52.4041 56.841 52.7097 57.6934 52.9831L59.9771 53.7069C61.135 54.0769 61.9713 54.5914 62.4699 55.2507C62.9685 55.9102 63.2098 56.666 63.2098 57.5023C63.2098 58.1938 63.0648 58.8211 62.7914 59.3678C62.5021 59.9146 62.116 60.3971 61.6174 60.7832C61.1189 61.1852 60.5239 61.4747 59.8323 61.6838C59.1086 61.909 58.3527 62.0215 57.5325 62.0215V62.0215Z" fill="#121214"/>
<path d="M60.5714 69.7737C55.2805 73.6817 47.5929 75.7563 40.9832 75.7563C31.7197 75.7563 23.373 72.3307 17.0688 66.6375C16.5702 66.1873 17.0204 65.5762 17.6153 65.9299C24.4343 69.8863 32.8455 72.2825 41.5461 72.2825C47.4161 72.2825 53.8651 71.0603 59.7996 68.5515C60.6841 68.1493 61.44 69.1305 60.5714 69.7737V69.7737ZM62.7749 67.2648C62.0995 66.3964 58.3039 66.8466 56.5831 67.0557C56.0684 67.1202 55.9879 66.6698 56.4545 66.3321C59.4779 64.2091 64.4475 64.8204 65.0263 65.5279C65.6053 66.2517 64.8654 71.221 62.0349 73.6013C61.6009 73.9713 61.1827 73.7783 61.3757 73.2958C62.0188 71.7035 63.4503 68.1172 62.7749 67.2648V67.2648Z" fill="#FF9900"/>
<g opacity="0.25">
<rect x="96.1572" y="30.3827" width="61.8949" height="61.8949" rx="10.3158" fill="#F8FAFC"/>
<g clip-path="url(#clip0_2209_17760)">
<path d="M121.062 44.2111H131.793L120.653 77.1763C120.538 77.515 120.32 77.8094 120.03 78.0179C119.739 78.2265 119.39 78.3387 119.032 78.3387H110.68C110.409 78.3387 110.142 78.2742 109.9 78.1505C109.659 78.0269 109.451 77.8477 109.292 77.6277C109.134 77.4077 109.031 77.1532 108.991 76.8854C108.95 76.6175 108.975 76.3439 109.061 76.0873L119.44 45.3735C119.555 45.0347 119.773 44.7402 120.064 44.5316C120.355 44.323 120.704 44.2107 121.062 44.2107V44.2111Z" fill="url(#paint0_linear_2209_17760)"/>
<path d="M136.656 66.322H119.638C119.48 66.3219 119.325 66.3693 119.194 66.4582C119.064 66.547 118.963 66.6731 118.905 66.8201C118.846 66.9671 118.834 67.1281 118.869 67.2822C118.904 67.4363 118.984 67.5763 119.1 67.6841L130.035 77.8775C130.354 78.174 130.773 78.3389 131.208 78.3388H140.844L136.656 66.322V66.322Z" fill="#0078D4"/>
<path d="M121.063 44.2112C120.701 44.2098 120.348 44.3241 120.055 44.5373C119.763 44.7505 119.546 45.0515 119.437 45.3963L109.075 76.0593C108.982 76.317 108.953 76.593 108.99 76.8642C109.027 77.1354 109.129 77.3937 109.287 77.6173C109.445 77.841 109.654 78.0233 109.898 78.1489C110.141 78.2745 110.412 78.3397 110.686 78.3389H119.253C119.572 78.282 119.87 78.1415 120.117 77.9318C120.364 77.7221 120.551 77.4506 120.658 77.1452L122.725 71.0627L130.106 77.9388C130.416 78.1944 130.804 78.3357 131.205 78.3389H140.805L136.595 66.322L124.321 66.3249L131.833 44.2112H121.063Z" fill="url(#paint1_linear_2209_17760)"/>
<path d="M134.768 45.3718C134.654 45.0335 134.436 44.7395 134.146 44.5312C133.856 44.323 133.507 44.211 133.15 44.2111H121.189C121.923 44.2111 122.574 44.6781 122.808 45.3718L133.188 76.0868C133.275 76.3435 133.299 76.6172 133.259 76.8852C133.219 77.1531 133.115 77.4077 132.957 77.6278C132.799 77.8479 132.59 78.0273 132.349 78.151C132.108 78.2747 131.84 78.3392 131.569 78.3392H143.529C143.801 78.3391 144.068 78.2746 144.309 78.1508C144.551 78.0271 144.759 77.8478 144.917 77.6277C145.075 77.4075 145.179 77.153 145.219 76.8851C145.259 76.6171 145.235 76.3435 145.148 76.0868L134.768 45.3718H134.768Z" fill="url(#paint2_linear_2209_17760)"/>
</g>
</g>
<g opacity="0.25">
<rect x="182.229" y="30.3827" width="61.8949" height="61.8949" rx="10.3158" fill="#F8FAFC"/>
<g clip-path="url(#clip1_2209_17760)">
<path d="M219.987 53.9019L223.574 50.3224L223.813 48.8152C217.277 42.8841 206.887 43.5566 200.994 50.2185C199.358 52.0688 198.144 54.3756 197.496 56.7576L198.781 56.577L205.954 55.3963L206.508 54.8313C209.699 51.334 215.094 50.8635 218.779 53.8391L219.987 53.9019V53.9019Z" fill="#EA4335"/>
<path d="M228.683 56.6522C227.859 53.6224 226.166 50.8987 223.813 48.8152L218.779 53.8389C219.828 54.6944 220.669 55.7765 221.238 57.0036C221.807 58.2306 222.089 59.5706 222.063 60.9224V61.8142C224.538 61.8142 226.544 63.816 226.544 66.2852C226.544 68.7546 224.538 70.7063 222.063 70.7063H213.09L212.209 71.6608V77.0236L213.09 77.865H222.063C228.499 77.915 233.758 72.7991 233.808 66.3763C233.823 64.4595 233.363 62.5688 232.469 60.8723C231.575 59.1758 230.274 57.7261 228.683 56.6522" fill="#4285F4"/>
<path d="M204.129 77.8653H213.09V70.7064H204.129C203.495 70.7063 202.868 70.5692 202.292 70.3046L201.02 70.6938L197.408 74.2733L197.094 75.4916C199.119 77.0179 201.591 77.8762 204.129 77.8653Z" fill="#34A853"/>
<path d="M204.129 54.6428C197.693 54.6812 192.507 59.9192 192.545 66.3422C192.556 68.1122 192.971 69.8564 193.759 71.4419C194.548 73.0274 195.688 74.4125 197.094 75.4915L202.292 70.3047C200.037 69.2878 199.035 66.6395 200.054 64.3892C201.072 62.1388 203.726 61.1386 205.981 62.1552C206.975 62.6032 207.771 63.3975 208.22 64.3892L213.417 59.202C212.326 57.7786 210.92 56.6265 209.309 55.8355C207.698 55.0446 205.925 54.6364 204.129 54.6428" fill="#FBBC05"/>
</g>
</g>
<path d="M29.4248 94.2363V206.874" stroke="#64748B" stroke-width="1.93" stroke-dasharray="2.79 2.79"/>
<path d="M125.334 97.582V110.965C125.334 126.363 112.851 138.845 97.4534 138.845H29.4248" stroke="#64748B" stroke-width="1.93" stroke-dasharray="2.79 2.79"/>
<path d="M208.975 94.7938V111.522C208.975 126.92 196.493 139.403 181.095 139.403H85.1855" stroke="#64748B" stroke-width="1.93" stroke-dasharray="2.79 2.79"/>
<path d="M264 139H85" stroke="#64748B" stroke-width="1.93" stroke-dasharray="2.79 2.79"/>
<path d="M87 245L87 324" stroke="#64748B" stroke-width="1.93" stroke-dasharray="2.79 2.79"/>
<circle cx="29.4706" cy="94.8398" r="2.71323" fill="white" stroke="#64748B" stroke-width="1.35661"/>
<circle cx="125.38" cy="98.1854" r="2.71323" fill="white" stroke="#64748B" stroke-width="1.35661"/>
<circle cx="209.021" cy="97.6279" r="2.71323" fill="white" stroke="#64748B" stroke-width="1.35661"/>
<circle cx="29.4706" cy="201.344" r="2.71323" fill="white" stroke="#64748B" stroke-width="1.35661"/>
<circle cx="87.4618" cy="248.183" r="2.71323" fill="white" stroke="#64748B" stroke-width="1.35661"/>
<g filter="url(#filter0_d_2209_17760)">
<rect x="6.5625" y="205.759" width="156.131" height="37.3069" rx="5.42645" fill="#CDBBFF" shape-rendering="crispEdges"/>
<path d="M43.9762 229.912V219.793H45.1941V228.839H49.4999V229.912H43.9762ZM53.8089 230.086C53.3063 230.086 52.8472 229.994 52.4316 229.811C52.016 229.627 51.6583 229.366 51.3587 229.028C51.0688 228.68 50.8416 228.269 50.6773 227.795C50.513 227.312 50.4309 226.771 50.4309 226.172C50.4309 225.582 50.513 225.046 50.6773 224.562C50.8416 224.079 51.0688 223.668 51.3587 223.33C51.6583 222.982 52.016 222.716 52.4316 222.533C52.8472 222.349 53.3063 222.257 53.8089 222.257C54.3115 222.257 54.7657 222.349 55.1717 222.533C55.5873 222.716 55.9449 222.982 56.2445 223.33C56.5441 223.668 56.7761 224.079 56.9404 224.562C57.1047 225.046 57.1869 225.582 57.1869 226.172C57.1869 226.771 57.1047 227.312 56.9404 227.795C56.7761 228.269 56.5441 228.68 56.2445 229.028C55.9449 229.366 55.5873 229.627 55.1717 229.811C54.7657 229.994 54.3115 230.086 53.8089 230.086ZM53.8089 229.057C54.4371 229.057 54.9494 228.863 55.3456 228.477C55.7419 228.09 55.9401 227.501 55.9401 226.708V225.635C55.9401 224.843 55.7419 224.253 55.3456 223.866C54.9494 223.48 54.4371 223.287 53.8089 223.287C53.1806 223.287 52.6684 223.48 52.2721 223.866C51.8758 224.253 51.6777 224.843 51.6777 225.635V226.708C51.6777 227.501 51.8758 228.09 52.2721 228.477C52.6684 228.863 53.1806 229.057 53.8089 229.057ZM64.5311 229.912C64.0961 229.912 63.782 229.796 63.5887 229.564C63.4051 229.332 63.2891 229.042 63.2408 228.694H63.1683C63.004 229.158 62.7333 229.506 62.3564 229.738C61.9795 229.97 61.53 230.086 61.0081 230.086C60.2155 230.086 59.597 229.883 59.1524 229.477C58.7174 229.071 58.5 228.52 58.5 227.824C58.5 227.119 58.7561 226.578 59.2683 226.201C59.7903 225.824 60.5973 225.635 61.6895 225.635H63.1683V224.896C63.1683 224.364 63.0233 223.958 62.7333 223.678C62.4434 223.398 61.9988 223.258 61.3995 223.258C60.9453 223.258 60.5635 223.359 60.2542 223.562C59.9546 223.765 59.7033 224.036 59.5003 224.374L58.8044 223.722C59.0074 223.316 59.3312 222.972 59.7758 222.692C60.2204 222.402 60.781 222.257 61.4575 222.257C62.3661 222.257 63.0716 222.48 63.5742 222.924C64.0768 223.369 64.3281 223.987 64.3281 224.78V228.897H65.1835V229.912H64.5311ZM61.1966 229.1C61.4865 229.1 61.7523 229.066 61.994 228.999C62.2356 228.931 62.4434 228.834 62.6174 228.709C62.7913 228.583 62.9266 228.438 63.0233 228.274C63.12 228.11 63.1683 227.931 63.1683 227.737V226.505H61.6315C60.9646 226.505 60.4765 226.602 60.1672 226.795C59.8676 226.988 59.7178 227.269 59.7178 227.636V227.94C59.7178 228.308 59.8483 228.593 60.1092 228.796C60.3799 228.999 60.7423 229.1 61.1966 229.1ZM71.6232 228.694H71.5652C71.1109 229.622 70.3812 230.086 69.376 230.086C68.9121 230.086 68.4916 229.994 68.1147 229.811C67.7377 229.627 67.4139 229.366 67.1433 229.028C66.8823 228.689 66.6794 228.279 66.5344 227.795C66.3991 227.312 66.3314 226.771 66.3314 226.172C66.3314 225.572 66.3991 225.031 66.5344 224.548C66.6794 224.065 66.8823 223.654 67.1433 223.316C67.4139 222.977 67.7377 222.716 68.1147 222.533C68.4916 222.349 68.9121 222.257 69.376 222.257C69.8979 222.257 70.3425 222.373 70.7098 222.605C71.0867 222.827 71.3719 223.175 71.5652 223.649H71.6232V219.184H72.783V229.912H71.6232V228.694ZM69.6949 229.042C69.9559 229.042 70.2024 229.008 70.4343 228.941C70.676 228.873 70.8838 228.776 71.0577 228.651C71.2317 228.515 71.367 228.356 71.4637 228.172C71.57 227.979 71.6232 227.762 71.6232 227.52V224.736C71.6232 224.533 71.57 224.345 71.4637 224.171C71.367 223.987 71.2317 223.833 71.0577 223.707C70.8838 223.581 70.676 223.485 70.4343 223.417C70.2024 223.34 69.9559 223.301 69.6949 223.301C69.0377 223.301 68.5206 223.509 68.1437 223.924C67.7667 224.33 67.5782 224.867 67.5782 225.534V226.81C67.5782 227.476 67.7667 228.018 68.1437 228.433C68.5206 228.839 69.0377 229.042 69.6949 229.042ZM83.4593 228.694H83.4013C82.9471 229.622 82.2173 230.086 81.2122 230.086C80.7482 230.086 80.3278 229.994 79.9508 229.811C79.5739 229.627 79.2501 229.366 78.9795 229.028C78.7185 228.689 78.5156 228.279 78.3706 227.795C78.2353 227.312 78.1676 226.771 78.1676 226.172C78.1676 225.572 78.2353 225.031 78.3706 224.548C78.5156 224.065 78.7185 223.654 78.9795 223.316C79.2501 222.977 79.5739 222.716 79.9508 222.533C80.3278 222.349 80.7482 222.257 81.2122 222.257C81.7341 222.257 82.1787 222.373 82.546 222.605C82.9229 222.827 83.208 223.175 83.4013 223.649H83.4593V219.184H84.6192V229.912H83.4593V228.694ZM81.5311 229.042C81.7921 229.042 82.0385 229.008 82.2705 228.941C82.5121 228.873 82.7199 228.776 82.8939 228.651C83.0679 228.515 83.2032 228.356 83.2999 228.172C83.4062 227.979 83.4593 227.762 83.4593 227.52V224.736C83.4593 224.533 83.4062 224.345 83.2999 224.171C83.2032 223.987 83.0679 223.833 82.8939 223.707C82.7199 223.581 82.5121 223.485 82.2705 223.417C82.0385 223.34 81.7921 223.301 81.5311 223.301C80.8739 223.301 80.3568 223.509 79.9798 223.924C79.6029 224.33 79.4144 224.867 79.4144 225.534V226.81C79.4144 227.476 79.6029 228.018 79.9798 228.433C80.3568 228.839 80.8739 229.042 81.5311 229.042ZM92.5217 229.912C92.0867 229.912 91.7726 229.796 91.5793 229.564C91.3957 229.332 91.2797 229.042 91.2313 228.694H91.1589C90.9945 229.158 90.7239 229.506 90.347 229.738C89.97 229.97 89.5206 230.086 88.9987 230.086C88.2061 230.086 87.5875 229.883 87.1429 229.477C86.708 229.071 86.4905 228.52 86.4905 227.824C86.4905 227.119 86.7467 226.578 87.2589 226.201C87.7808 225.824 88.5879 225.635 89.6801 225.635H91.1589V224.896C91.1589 224.364 91.0139 223.958 90.7239 223.678C90.434 223.398 89.9894 223.258 89.3901 223.258C88.9358 223.258 88.5541 223.359 88.2448 223.562C87.9452 223.765 87.6939 224.036 87.4909 224.374L86.795 223.722C86.998 223.316 87.3217 222.972 87.7663 222.692C88.2109 222.402 88.7715 222.257 89.4481 222.257C90.3566 222.257 91.0622 222.48 91.5648 222.924C92.0674 223.369 92.3187 223.987 92.3187 224.78V228.897H93.1741V229.912H92.5217ZM89.1871 229.1C89.4771 229.1 89.7429 229.066 89.9845 228.999C90.2262 228.931 90.434 228.834 90.6079 228.709C90.7819 228.583 90.9172 228.438 91.0139 228.274C91.1105 228.11 91.1589 227.931 91.1589 227.737V226.505H89.6221C88.9552 226.505 88.4671 226.602 88.1578 226.795C87.8582 226.988 87.7084 227.269 87.7084 227.636V227.94C87.7084 228.308 87.8388 228.593 88.0998 228.796C88.3704 228.999 88.7329 229.1 89.1871 229.1ZM96.4822 229.912C96.0762 229.912 95.767 229.801 95.5543 229.579C95.3513 229.347 95.2499 229.047 95.2499 228.68V223.446H94.0175V222.431H94.7134C94.9647 222.431 95.1339 222.383 95.2209 222.286C95.3175 222.18 95.3658 222.001 95.3658 221.75V220.358H96.4097V222.431H98.048V223.446H96.4097V228.897H97.932V229.912H96.4822ZM105.349 229.912C104.914 229.912 104.6 229.796 104.407 229.564C104.223 229.332 104.107 229.042 104.059 228.694H103.986C103.822 229.158 103.551 229.506 103.174 229.738C102.797 229.97 102.348 230.086 101.826 230.086C101.033 230.086 100.415 229.883 99.9702 229.477C99.5352 229.071 99.3178 228.52 99.3178 227.824C99.3178 227.119 99.5739 226.578 100.086 226.201C100.608 225.824 101.415 225.635 102.507 225.635H103.986V224.896C103.986 224.364 103.841 223.958 103.551 223.678C103.261 223.398 102.817 223.258 102.217 223.258C101.763 223.258 101.381 223.359 101.072 223.562C100.772 223.765 100.521 224.036 100.318 224.374L99.6222 223.722C99.8252 223.316 100.149 222.972 100.594 222.692C101.038 222.402 101.599 222.257 102.275 222.257C103.184 222.257 103.889 222.48 104.392 222.924C104.895 223.369 105.146 223.987 105.146 224.78V228.897H106.001V229.912H105.349ZM102.014 229.1C102.304 229.1 102.57 229.066 102.812 228.999C103.053 228.931 103.261 228.834 103.435 228.709C103.609 228.583 103.744 228.438 103.841 228.274C103.938 228.11 103.986 227.931 103.986 227.737V226.505H102.449C101.782 226.505 101.294 226.602 100.985 226.795C100.685 226.988 100.536 227.269 100.536 227.636V227.94C100.536 228.308 100.666 228.593 100.927 228.796C101.198 228.999 101.56 229.1 102.014 229.1ZM109.904 230.086C109.208 230.086 108.623 229.956 108.15 229.695C107.686 229.424 107.285 229.066 106.946 228.622L107.773 227.955C108.063 228.322 108.386 228.607 108.744 228.81C109.102 229.004 109.517 229.1 109.991 229.1C110.484 229.1 110.866 228.994 111.136 228.781C111.416 228.569 111.557 228.269 111.557 227.882C111.557 227.592 111.46 227.346 111.267 227.143C111.083 226.93 110.745 226.785 110.252 226.708L109.657 226.621C109.309 226.573 108.99 226.5 108.701 226.404C108.411 226.297 108.154 226.162 107.932 225.998C107.719 225.824 107.55 225.611 107.425 225.36C107.309 225.108 107.251 224.809 107.251 224.461C107.251 224.094 107.318 223.775 107.454 223.504C107.589 223.224 107.773 222.992 108.005 222.808C108.246 222.624 108.531 222.489 108.86 222.402C109.189 222.306 109.541 222.257 109.918 222.257C110.527 222.257 111.035 222.364 111.441 222.576C111.856 222.789 112.219 223.084 112.528 223.461L111.76 224.156C111.595 223.924 111.354 223.717 111.035 223.533C110.716 223.34 110.315 223.243 109.831 223.243C109.348 223.243 108.981 223.349 108.73 223.562C108.488 223.765 108.367 224.045 108.367 224.403C108.367 224.77 108.488 225.036 108.73 225.2C108.981 225.365 109.338 225.485 109.802 225.563L110.382 225.65C111.213 225.775 111.803 226.017 112.151 226.375C112.499 226.723 112.673 227.182 112.673 227.752C112.673 228.477 112.426 229.047 111.934 229.463C111.441 229.878 110.764 230.086 109.904 230.086ZM117.534 230.086C117.022 230.086 116.558 229.994 116.142 229.811C115.736 229.627 115.384 229.366 115.084 229.028C114.794 228.68 114.567 228.269 114.403 227.795C114.248 227.312 114.171 226.771 114.171 226.172C114.171 225.582 114.248 225.046 114.403 224.562C114.567 224.079 114.794 223.668 115.084 223.33C115.384 222.982 115.736 222.716 116.142 222.533C116.558 222.349 117.022 222.257 117.534 222.257C118.037 222.257 118.486 222.349 118.882 222.533C119.279 222.716 119.617 222.972 119.897 223.301C120.178 223.62 120.39 224.002 120.535 224.446C120.69 224.891 120.767 225.379 120.767 225.911V226.462H115.388V226.81C115.388 227.129 115.437 227.428 115.533 227.708C115.64 227.979 115.785 228.216 115.968 228.419C116.162 228.622 116.394 228.781 116.664 228.897C116.945 229.013 117.259 229.071 117.607 229.071C118.08 229.071 118.491 228.96 118.839 228.738C119.197 228.515 119.472 228.197 119.665 227.781L120.492 228.375C120.25 228.888 119.873 229.303 119.361 229.622C118.849 229.931 118.24 230.086 117.534 230.086ZM117.534 223.229C117.215 223.229 116.925 223.287 116.664 223.403C116.403 223.509 116.176 223.664 115.983 223.866C115.799 224.069 115.654 224.311 115.548 224.591C115.442 224.862 115.388 225.162 115.388 225.49V225.592H119.52V225.432C119.52 224.765 119.337 224.234 118.969 223.837C118.612 223.432 118.133 223.229 117.534 223.229ZM124.331 229.912C123.925 229.912 123.616 229.801 123.403 229.579C123.2 229.347 123.099 229.047 123.099 228.68V223.446H121.867V222.431H122.562C122.814 222.431 122.983 222.383 123.07 222.286C123.167 222.18 123.215 222.001 123.215 221.75V220.358H124.259V222.431H125.897V223.446H124.259V228.897H125.781V229.912H124.331Z" fill="black"/>
</g>
<defs>
<filter id="filter0_d_2209_17760" x="0.836724" y="200.033" width="178.435" height="59.6113" filterUnits="userSpaceOnUse" color-interpolation-filters="sRGB">
<feFlood flood-opacity="0" result="BackgroundImageFix"/>
<feColorMatrix in="SourceAlpha" type="matrix" values="0 0 0 0 0 0 0 0 0 0 0 0 0 0 0 0 0 0 127 0" result="hardAlpha"/>
<feOffset dx="5.42645" dy="5.42645"/>
<feGaussianBlur stdDeviation="5.57611"/>
<feComposite in2="hardAlpha" operator="out"/>
<feColorMatrix type="matrix" values="0 0 0 0 0.904167 0 0 0 0 0.904167 0 0 0 0 0.904167 0 0 0 0.25 0"/>
<feBlend mode="normal" in2="BackgroundImageFix" result="effect1_dropShadow_2209_17760"/>
<feBlend mode="normal" in="SourceGraphic" in2="effect1_dropShadow_2209_17760" result="shape"/>
</filter>
<linearGradient id="paint0_linear_2209_17760" x1="122.43" y1="46.7399" x2="111.944" y2="77.7582" gradientUnits="userSpaceOnUse">
<stop stop-color="#114A8B"/>
<stop offset="1" stop-color="#0669BC"/>
</linearGradient>
<linearGradient id="paint1_linear_2209_17760" x1="127.984" y1="62.0644" x2="125.712" y2="62.8334" gradientUnits="userSpaceOnUse">
<stop stop-opacity="0.3"/>
<stop offset="0.071" stop-opacity="0.2"/>
<stop offset="0.321" stop-opacity="0.1"/>
<stop offset="0.623" stop-opacity="0.05"/>
<stop offset="1" stop-opacity="0"/>
</linearGradient>
<linearGradient id="paint2_linear_2209_17760" x1="130.154" y1="45.781" x2="141.6" y2="76.3128" gradientUnits="userSpaceOnUse">
<stop stop-color="#3CCBF4"/>
<stop offset="1" stop-color="#2892DF"/>
</linearGradient>
<clipPath id="clip0_2209_17760">
<rect width="36.2662" height="34.2389" fill="white" transform="translate(108.972 44.2107)"/>
</clipPath>
<clipPath id="clip1_2209_17760">
<rect width="41.2632" height="33.1356" fill="white" transform="translate(192.545 44.7623)"/>
</clipPath>
</defs>
</svg>
