<svg width="24" height="25" viewBox="0 0 24 25" fill="none" xmlns="http://www.w3.org/2000/svg">
<path d="M19.2701 5.7529C17.9401 5.1329 16.5001 4.6829 15.0001 4.4229C14.987 4.42248 14.9739 4.42495 14.9618 4.43013C14.9497 4.43531 14.9389 4.44308 14.9301 4.4529C14.7501 4.7829 14.5401 5.2129 14.4001 5.5429C12.8091 5.3029 11.1911 5.3029 9.60012 5.5429C9.46012 5.2029 9.25012 4.7829 9.06012 4.4529C9.05012 4.4329 9.02012 4.4229 8.99012 4.4229C7.49012 4.6829 6.06012 5.1329 4.72012 5.7529C4.71012 5.7529 4.70012 5.7629 4.69012 5.7729C1.97012 9.8429 1.22012 13.8029 1.59012 17.7229C1.59012 17.7429 1.60012 17.7629 1.62012 17.7729C3.42012 19.0929 5.15012 19.8929 6.86012 20.4229C6.89012 20.4329 6.92012 20.4229 6.93012 20.4029C7.33012 19.8529 7.69012 19.2729 8.00012 18.6629C8.02012 18.6229 8.00012 18.5829 7.96012 18.5729C7.39012 18.3529 6.85012 18.0929 6.32012 17.7929C6.28012 17.7729 6.28012 17.7129 6.31012 17.6829C6.42012 17.6029 6.53012 17.5129 6.64012 17.4329C6.66012 17.4129 6.69012 17.4129 6.71012 17.4229C10.1501 18.9929 13.8601 18.9929 17.2601 17.4229C17.2801 17.4129 17.3101 17.4129 17.3301 17.4329C17.4401 17.5229 17.5501 17.6029 17.6601 17.6929C17.7001 17.7229 17.7001 17.7829 17.6501 17.8029C17.1301 18.1129 16.5801 18.3629 16.0101 18.5829C15.9701 18.5929 15.9601 18.6429 15.9701 18.6729C16.2901 19.2829 16.6501 19.8629 17.0401 20.4129C17.0701 20.4229 17.1001 20.4329 17.1301 20.4229C18.8501 19.8929 20.5801 19.0929 22.3801 17.7729C22.4001 17.7629 22.4101 17.7429 22.4101 17.7229C22.8501 13.1929 21.6801 9.2629 19.3101 5.7729C19.3001 5.7629 19.2901 5.7529 19.2701 5.7529ZM8.52012 15.3329C7.49012 15.3329 6.63012 14.3829 6.63012 13.2129C6.63012 12.0429 7.47012 11.0929 8.52012 11.0929C9.58012 11.0929 10.4201 12.0529 10.4101 13.2129C10.4101 14.3829 9.57012 15.3329 8.52012 15.3329ZM15.4901 15.3329C14.4601 15.3329 13.6001 14.3829 13.6001 13.2129C13.6001 12.0429 14.4401 11.0929 15.4901 11.0929C16.5501 11.0929 17.3901 12.0529 17.3801 13.2129C17.3801 14.3829 16.5501 15.3329 15.4901 15.3329Z" fill="#475569"/>
</svg>
