<svg width="21" height="20" viewBox="0 0 21 20" fill="none" xmlns="http://www.w3.org/2000/svg">
<path fill-rule="evenodd" clip-rule="evenodd" d="M19.084 3.75H17.834V2.5C17.834 1.8125 17.2715 1.25 16.584 1.25C15.8965 1.25 15.334 1.8125 15.334 2.5V3.75H14.084C13.3965 3.75 12.834 4.3125 12.834 5C12.834 5.6875 13.3965 6.25 14.084 6.25H15.334V7.5C15.334 8.1875 15.8965 8.75 16.584 8.75C17.2715 8.75 17.834 8.1875 17.834 7.5V6.25H19.084C19.7715 6.25 20.334 5.6875 20.334 5C20.334 4.3125 19.7715 3.75 19.084 3.75ZM14.709 11.25C13.1965 11.25 11.934 12.325 11.6465 13.75H6.52148C6.23398 12.325 4.97148 11.25 3.45898 11.25C1.73398 11.25 0.333984 12.65 0.333984 14.375C0.333984 16.1 1.73398 17.5 3.45898 17.5C4.97148 17.5 6.23398 16.425 6.52148 15H11.6465C11.934 16.425 13.1965 17.5 14.709 17.5C16.434 17.5 17.834 16.1 17.834 14.375C17.834 12.65 16.434 11.25 14.709 11.25Z" fill="#1E293B"/>
</svg>
