<svg width="24" height="25" viewBox="0 0 24 25" fill="none" xmlns="http://www.w3.org/2000/svg">
<path fill-rule="evenodd" clip-rule="evenodd" d="M11.9993 0.822754C5.59456 0.822754 0.400391 6.01624 0.400391 12.4231C0.400391 17.5475 3.72383 21.8957 8.33335 23.4303C8.91373 23.5364 9.12523 23.1782 9.12523 22.8706C9.12523 22.595 9.11526 21.8658 9.10956 20.898C5.88297 21.5987 5.20219 19.3428 5.20219 19.3428C4.67451 18.0026 3.91397 17.6458 3.91397 17.6458C2.86075 16.9265 3.99373 16.9408 3.99373 16.9408C5.15804 17.0227 5.77045 18.1364 5.77045 18.1364C6.80516 19.9089 8.48575 19.3969 9.14659 19.0999C9.25199 18.3508 9.55178 17.8395 9.88292 17.5496C7.3072 17.2562 4.59903 16.2614 4.59903 11.8164C4.59903 10.5496 5.05122 9.51486 5.79325 8.70376C5.67361 8.41037 5.27554 7.23108 5.90718 5.63381C5.90718 5.63381 6.88064 5.3219 9.09674 6.82232C10.0218 6.56525 11.0145 6.43707 12.0007 6.43209C12.9863 6.43707 13.9783 6.56525 14.9048 6.82232C17.1194 5.3219 18.0915 5.63381 18.0915 5.63381C18.7245 7.23108 18.3265 8.41037 18.2075 8.70376C18.951 9.51486 19.3996 10.5496 19.3996 11.8164C19.3996 16.2728 16.6872 17.2534 14.1036 17.5404C14.5195 17.8986 14.8905 18.6064 14.8905 19.6888C14.8905 21.2391 14.8763 22.4903 14.8763 22.8706C14.8763 23.1811 15.0856 23.5421 15.6738 23.4289C20.2798 21.8914 23.6004 17.5468 23.6004 12.4231C23.6004 6.01624 18.4062 0.822754 11.9993 0.822754" fill="#475569"/>
</svg>
