<svg width="21" height="20" viewBox="0 0 21 20" fill="none" xmlns="http://www.w3.org/2000/svg">
<path fill-rule="evenodd" clip-rule="evenodd" d="M8.8889 11.753C8.55949 11.753 8.26537 11.8824 8.05361 12.0941L4.18302 15.9647V14.0941C4.18302 13.4471 3.65361 12.9177 3.00655 12.9177C2.35949 12.9177 1.83008 13.4471 1.83008 14.0941V18.8C1.83008 19.4471 2.35949 19.9765 3.00655 19.9765H7.71243C8.35949 19.9765 8.8889 19.4471 8.8889 18.8C8.8889 18.153 8.35949 17.6236 7.71243 17.6236H5.85361L9.7242 13.7647C9.93596 13.553 10.0654 13.2589 10.0654 12.9294C10.0654 12.2824 9.53596 11.753 8.8889 11.753ZM19.4771 1.16473H14.7713C14.1242 1.16473 13.5948 1.69415 13.5948 2.3412C13.5948 2.98826 14.1242 3.51767 14.7713 3.51767H16.6418L12.7595 7.40003C12.5477 7.61179 12.4183 7.90591 12.4183 8.22356C12.4183 8.87062 12.9477 9.40003 13.5948 9.40003C13.9242 9.40003 14.2183 9.27062 14.4301 9.05885L18.3007 5.18826V7.05885C18.3007 7.70591 18.8301 8.23532 19.4771 8.23532C20.1242 8.23532 20.6536 7.70591 20.6536 7.05885V2.35297C20.6536 1.69415 20.1242 1.16473 19.4771 1.16473Z" fill="#1E293B"/>
</svg>
