<svg width="375" height="208" viewBox="0 0 375 208" fill="none" xmlns="http://www.w3.org/2000/svg">
<g clip-path="url(#clip0_3322_23231)">
<path d="M32.88 75V49.8H43.068C44.628 49.8 45.996 50.076 47.172 50.628C48.372 51.156 49.308 51.924 49.98 52.932C50.652 53.916 50.988 55.104 50.988 56.496V56.892C50.988 58.548 50.592 59.856 49.8 60.816C49.008 61.776 48.072 62.424 46.992 62.76V63.264C47.856 63.288 48.564 63.576 49.116 64.128C49.692 64.656 49.98 65.46 49.98 66.54V75H46.992V66.9C46.992 66.18 46.788 65.628 46.38 65.244C45.996 64.86 45.408 64.668 44.616 64.668H35.904V75H32.88ZM35.904 61.932H42.78C44.436 61.932 45.708 61.536 46.596 60.744C47.508 59.928 47.964 58.8 47.964 57.36V57.108C47.964 55.668 47.52 54.552 46.632 53.76C45.744 52.944 44.46 52.536 42.78 52.536H35.904V61.932ZM63.7629 75.504C61.9869 75.504 60.4269 75.132 59.0829 74.388C57.7389 73.62 56.6949 72.552 55.9509 71.184C55.2069 69.816 54.8349 68.232 54.8349 66.432V66C54.8349 64.176 55.2069 62.58 55.9509 61.212C56.6949 59.844 57.7269 58.788 59.0469 58.044C60.3669 57.276 61.8789 56.892 63.5829 56.892C65.2389 56.892 66.7029 57.252 67.9749 57.972C69.2469 58.668 70.2429 59.676 70.9629 60.996C71.6829 62.316 72.0429 63.864 72.0429 65.64V66.936H57.6789C57.7509 68.832 58.3629 70.32 59.5149 71.4C60.6669 72.456 62.1069 72.984 63.8349 72.984C65.3469 72.984 66.5109 72.636 67.3269 71.94C68.1429 71.244 68.7669 70.416 69.1989 69.456L71.6469 70.644C71.2869 71.388 70.7829 72.132 70.1349 72.876C69.5109 73.62 68.6829 74.244 67.6509 74.748C66.6429 75.252 65.3469 75.504 63.7629 75.504ZM57.7149 64.596H69.1629C69.0669 62.964 68.5029 61.692 67.4709 60.78C66.4629 59.868 65.1669 59.412 63.5829 59.412C61.9749 59.412 60.6549 59.868 59.6229 60.78C58.5909 61.692 57.9549 62.964 57.7149 64.596ZM84.0956 75.504C81.9116 75.504 80.0636 75 78.5516 73.992C77.0636 72.984 76.1636 71.388 75.8516 69.204L78.5516 68.592C78.7436 69.744 79.1036 70.656 79.6316 71.328C80.1596 71.976 80.8076 72.444 81.5756 72.732C82.3676 72.996 83.2076 73.128 84.0956 73.128C85.4156 73.128 86.4596 72.864 87.2276 72.336C87.9956 71.808 88.3796 71.1 88.3796 70.212C88.3796 69.3 88.0076 68.664 87.2636 68.304C86.5436 67.92 85.5476 67.608 84.2756 67.368L82.7996 67.116C81.6716 66.924 80.6396 66.624 79.7036 66.216C78.7676 65.808 78.0236 65.256 77.4716 64.56C76.9196 63.864 76.6436 62.988 76.6436 61.932C76.6436 60.348 77.2556 59.112 78.4796 58.224C79.7036 57.336 81.3236 56.892 83.3396 56.892C85.3316 56.892 86.9396 57.348 88.1636 58.26C89.4116 59.148 90.2156 60.408 90.5756 62.04L87.9116 62.724C87.6956 61.452 87.1796 60.564 86.3636 60.06C85.5476 59.532 84.5396 59.268 83.3396 59.268C82.1396 59.268 81.1916 59.496 80.4956 59.952C79.7996 60.384 79.4516 61.032 79.4516 61.896C79.4516 62.736 79.7756 63.36 80.4236 63.768C81.0956 64.152 81.9836 64.44 83.0876 64.632L84.5636 64.884C85.8116 65.1 86.9276 65.4 87.9116 65.784C88.9196 66.144 89.7116 66.672 90.2876 67.368C90.8876 68.064 91.1876 68.976 91.1876 70.104C91.1876 71.832 90.5396 73.164 89.2436 74.1C87.9716 75.036 86.2556 75.504 84.0956 75.504ZM104.052 75.504C102.276 75.504 100.716 75.132 99.372 74.388C98.028 73.62 96.984 72.552 96.24 71.184C95.496 69.816 95.124 68.232 95.124 66.432V66C95.124 64.176 95.496 62.58 96.24 61.212C96.984 59.844 98.016 58.788 99.336 58.044C100.656 57.276 102.168 56.892 103.872 56.892C105.528 56.892 106.992 57.252 108.264 57.972C109.536 58.668 110.532 59.676 111.252 60.996C111.972 62.316 112.332 63.864 112.332 65.64V66.936H97.968C98.04 68.832 98.652 70.32 99.804 71.4C100.956 72.456 102.396 72.984 104.124 72.984C105.636 72.984 106.8 72.636 107.616 71.94C108.432 71.244 109.056 70.416 109.488 69.456L111.936 70.644C111.576 71.388 111.072 72.132 110.424 72.876C109.8 73.62 108.972 74.244 107.94 74.748C106.932 75.252 105.636 75.504 104.052 75.504ZM98.004 64.596H109.452C109.356 62.964 108.792 61.692 107.76 60.78C106.752 59.868 105.456 59.412 103.872 59.412C102.264 59.412 100.944 59.868 99.912 60.78C98.88 61.692 98.244 62.964 98.004 64.596ZM122.693 75.504C121.469 75.504 120.353 75.288 119.345 74.856C118.337 74.424 117.545 73.8 116.969 72.984C116.393 72.168 116.105 71.172 116.105 69.996C116.105 68.796 116.393 67.812 116.969 67.044C117.545 66.252 118.337 65.664 119.345 65.28C120.353 64.872 121.481 64.668 122.729 64.668H128.669V63.372C128.669 62.124 128.297 61.14 127.553 60.42C126.833 59.7 125.753 59.34 124.313 59.34C122.897 59.34 121.793 59.688 121.001 60.384C120.209 61.056 119.669 61.968 119.381 63.12L116.717 62.256C117.005 61.272 117.461 60.384 118.085 59.592C118.709 58.776 119.537 58.128 120.569 57.648C121.625 57.144 122.885 56.892 124.349 56.892C126.605 56.892 128.357 57.48 129.605 58.656C130.853 59.808 131.477 61.44 131.477 63.552V71.508C131.477 72.228 131.813 72.588 132.485 72.588H134.105V75H131.621C130.829 75 130.193 74.784 129.713 74.352C129.233 73.896 128.993 73.296 128.993 72.552V72.372H128.561C128.297 72.828 127.937 73.308 127.481 73.812C127.049 74.292 126.449 74.688 125.681 75C124.913 75.336 123.917 75.504 122.693 75.504ZM123.017 73.056C124.697 73.056 126.053 72.564 127.085 71.58C128.141 70.572 128.669 69.168 128.669 67.368V66.972H122.837C121.709 66.972 120.773 67.224 120.029 67.728C119.309 68.208 118.949 68.94 118.949 69.924C118.949 70.908 119.321 71.676 120.065 72.228C120.833 72.78 121.817 73.056 123.017 73.056ZM138 75V57.396H140.772V59.556H141.276C141.588 58.788 142.068 58.224 142.716 57.864C143.364 57.504 144.216 57.324 145.272 57.324H147.36V59.916H145.092C143.82 59.916 142.788 60.276 141.996 60.996C141.228 61.692 140.844 62.784 140.844 64.272V75H138ZM159.037 75.504C157.333 75.504 155.797 75.144 154.429 74.424C153.085 73.68 152.017 72.624 151.225 71.256C150.457 69.888 150.073 68.268 150.073 66.396V66C150.073 64.104 150.457 62.484 151.225 61.14C152.017 59.772 153.085 58.728 154.429 58.008C155.797 57.264 157.333 56.892 159.037 56.892C160.717 56.892 162.145 57.204 163.321 57.828C164.521 58.452 165.457 59.28 166.129 60.312C166.825 61.344 167.269 62.448 167.461 63.624L164.689 64.2C164.569 63.336 164.281 62.544 163.825 61.824C163.393 61.104 162.781 60.528 161.989 60.096C161.197 59.664 160.225 59.448 159.073 59.448C157.897 59.448 156.841 59.712 155.905 60.24C154.993 60.768 154.261 61.524 153.709 62.508C153.181 63.492 152.917 64.668 152.917 66.036V66.36C152.917 67.728 153.181 68.904 153.709 69.888C154.261 70.872 154.993 71.628 155.905 72.156C156.841 72.684 157.897 72.948 159.073 72.948C160.825 72.948 162.157 72.492 163.069 71.58C164.005 70.668 164.581 69.54 164.797 68.196L167.605 68.808C167.341 69.96 166.861 71.052 166.165 72.084C165.469 73.116 164.521 73.944 163.321 74.568C162.145 75.192 160.717 75.504 159.037 75.504ZM172.453 75V49.8H175.297V60.204H175.801C176.041 59.676 176.401 59.184 176.881 58.728C177.385 58.248 178.021 57.852 178.789 57.54C179.581 57.228 180.577 57.072 181.777 57.072C183.097 57.072 184.273 57.36 185.305 57.936C186.361 58.488 187.201 59.304 187.825 60.384C188.449 61.44 188.761 62.76 188.761 64.344V75H185.917V64.56C185.917 62.808 185.473 61.536 184.585 60.744C183.721 59.952 182.545 59.556 181.057 59.556C179.353 59.556 177.961 60.108 176.881 61.212C175.825 62.316 175.297 63.96 175.297 66.144V75H172.453ZM203.669 75V49.8H219.185V52.536H206.693V60.96H218.177V63.696H206.693V72.264H219.365V75H203.669ZM224.062 75V57.396H226.834V59.556H227.338C227.65 58.788 228.13 58.224 228.778 57.864C229.426 57.504 230.278 57.324 231.334 57.324H233.422V59.916H231.154C229.882 59.916 228.85 60.276 228.058 60.996C227.29 61.692 226.906 62.784 226.906 64.272V75H224.062ZM242.435 75.504C241.211 75.504 240.095 75.288 239.087 74.856C238.079 74.424 237.287 73.8 236.711 72.984C236.135 72.168 235.847 71.172 235.847 69.996C235.847 68.796 236.135 67.812 236.711 67.044C237.287 66.252 238.079 65.664 239.087 65.28C240.095 64.872 241.223 64.668 242.471 64.668H248.411V63.372C248.411 62.124 248.039 61.14 247.295 60.42C246.575 59.7 245.495 59.34 244.055 59.34C242.639 59.34 241.535 59.688 240.743 60.384C239.951 61.056 239.411 61.968 239.123 63.12L236.459 62.256C236.747 61.272 237.203 60.384 237.827 59.592C238.451 58.776 239.279 58.128 240.311 57.648C241.367 57.144 242.627 56.892 244.091 56.892C246.347 56.892 248.099 57.48 249.347 58.656C250.595 59.808 251.219 61.44 251.219 63.552V71.508C251.219 72.228 251.555 72.588 252.227 72.588H253.847V75H251.363C250.571 75 249.935 74.784 249.455 74.352C248.975 73.896 248.735 73.296 248.735 72.552V72.372H248.303C248.039 72.828 247.679 73.308 247.223 73.812C246.791 74.292 246.191 74.688 245.423 75C244.655 75.336 243.659 75.504 242.435 75.504ZM242.759 73.056C244.439 73.056 245.795 72.564 246.827 71.58C247.883 70.572 248.411 69.168 248.411 67.368V66.972H242.579C241.451 66.972 240.515 67.224 239.771 67.728C239.051 68.208 238.691 68.94 238.691 69.924C238.691 70.908 239.063 71.676 239.807 72.228C240.575 72.78 241.559 73.056 242.759 73.056Z" fill="white"/>
<path d="M293 55.5L300 62.5M300 62.5L293 69.5M300 62.5L282 62.5" stroke="white" stroke-width="2" stroke-linecap="round" stroke-linejoin="round"/>
<path d="M32.88 136V110.8H42.528C44.04 110.8 45.384 111.1 46.56 111.7C47.76 112.276 48.708 113.104 49.404 114.184C50.1 115.264 50.448 116.572 50.448 118.108V118.576C50.448 120.088 50.088 121.396 49.368 122.5C48.672 123.58 47.724 124.408 46.524 124.984C45.324 125.56 43.992 125.848 42.528 125.848H35.904V136H32.88ZM35.904 123.112H42.204C43.812 123.112 45.084 122.716 46.02 121.924C46.956 121.108 47.424 119.968 47.424 118.504V118.144C47.424 116.68 46.956 115.552 46.02 114.76C45.108 113.944 43.836 113.536 42.204 113.536H35.904V123.112ZM54.6091 136V118.396H57.3811V120.556H57.8851C58.1971 119.788 58.6771 119.224 59.3251 118.864C59.9731 118.504 60.8251 118.324 61.8811 118.324H63.9691V120.916H61.7011C60.4291 120.916 59.3971 121.276 58.6051 121.996C57.8371 122.692 57.4531 123.784 57.4531 125.272V136H54.6091ZM75.6826 136.504C73.9066 136.504 72.3346 136.132 70.9666 135.388C69.6226 134.644 68.5666 133.6 67.7986 132.256C67.0546 130.888 66.6826 129.28 66.6826 127.432V126.964C66.6826 125.14 67.0546 123.544 67.7986 122.176C68.5666 120.808 69.6226 119.752 70.9666 119.008C72.3346 118.264 73.9066 117.892 75.6826 117.892C77.4586 117.892 79.0186 118.264 80.3626 119.008C81.7306 119.752 82.7866 120.808 83.5306 122.176C84.2986 123.544 84.6826 125.14 84.6826 126.964V127.432C84.6826 129.28 84.2986 130.888 83.5306 132.256C82.7866 133.6 81.7306 134.644 80.3626 135.388C79.0186 136.132 77.4586 136.504 75.6826 136.504ZM75.6826 133.948C77.5546 133.948 79.0426 133.36 80.1466 132.184C81.2746 130.984 81.8386 129.376 81.8386 127.36V127.036C81.8386 125.02 81.2746 123.424 80.1466 122.248C79.0426 121.048 77.5546 120.448 75.6826 120.448C73.8346 120.448 72.3466 121.048 71.2186 122.248C70.0906 123.424 69.5266 125.02 69.5266 127.036V127.36C69.5266 129.376 70.0906 130.984 71.2186 132.184C72.3466 133.36 73.8346 133.948 75.6826 133.948ZM97.2525 136.504C95.7405 136.504 94.3485 136.144 93.0765 135.424C91.8045 134.704 90.7965 133.66 90.0525 132.292C89.3085 130.924 88.9365 129.304 88.9365 127.432V126.964C88.9365 125.092 89.3085 123.484 90.0525 122.14C90.7965 120.772 91.7925 119.728 93.0405 119.008C94.3125 118.264 95.7165 117.892 97.2525 117.892C98.4765 117.892 99.5085 118.06 100.349 118.396C101.213 118.708 101.909 119.116 102.437 119.62C102.965 120.1 103.373 120.616 103.661 121.168H104.165V110.8H107.009V136H104.237V133.084H103.733C103.253 133.972 102.509 134.764 101.501 135.46C100.493 136.156 99.0765 136.504 97.2525 136.504ZM98.0085 133.984C99.8325 133.984 101.309 133.408 102.437 132.256C103.589 131.08 104.165 129.448 104.165 127.36V127.036C104.165 124.948 103.589 123.328 102.437 122.176C101.309 121 99.8325 120.412 98.0085 120.412C96.2085 120.412 94.7205 121 93.5445 122.176C92.3925 123.328 91.8165 124.948 91.8165 127.036V127.36C91.8165 129.448 92.3925 131.08 93.5445 132.256C94.7205 133.408 96.2085 133.984 98.0085 133.984ZM119.7 136.324C118.428 136.324 117.252 136.048 116.172 135.496C115.116 134.944 114.276 134.128 113.652 133.048C113.052 131.944 112.752 130.612 112.752 129.052V118.396H115.596V128.836C115.596 130.588 116.028 131.86 116.892 132.652C117.78 133.444 118.968 133.84 120.456 133.84C122.136 133.84 123.516 133.288 124.596 132.184C125.676 131.08 126.216 129.436 126.216 127.252V118.396H129.06V136H126.288V133.012H125.784C125.4 133.852 124.74 134.62 123.804 135.316C122.868 135.988 121.5 136.324 119.7 136.324ZM143.111 136.504C141.407 136.504 139.871 136.144 138.503 135.424C137.159 134.68 136.091 133.624 135.299 132.256C134.531 130.888 134.147 129.268 134.147 127.396V127C134.147 125.104 134.531 123.484 135.299 122.14C136.091 120.772 137.159 119.728 138.503 119.008C139.871 118.264 141.407 117.892 143.111 117.892C144.791 117.892 146.219 118.204 147.395 118.828C148.595 119.452 149.531 120.28 150.203 121.312C150.899 122.344 151.343 123.448 151.535 124.624L148.763 125.2C148.643 124.336 148.355 123.544 147.899 122.824C147.467 122.104 146.855 121.528 146.063 121.096C145.271 120.664 144.299 120.448 143.147 120.448C141.971 120.448 140.915 120.712 139.979 121.24C139.067 121.768 138.335 122.524 137.783 123.508C137.255 124.492 136.991 125.668 136.991 127.036V127.36C136.991 128.728 137.255 129.904 137.783 130.888C138.335 131.872 139.067 132.628 139.979 133.156C140.915 133.684 141.971 133.948 143.147 133.948C144.899 133.948 146.231 133.492 147.143 132.58C148.079 131.668 148.655 130.54 148.871 129.196L151.679 129.808C151.415 130.96 150.935 132.052 150.239 133.084C149.543 134.116 148.595 134.944 147.395 135.568C146.219 136.192 144.791 136.504 143.111 136.504ZM162.269 136C161.261 136 160.481 135.724 159.929 135.172C159.401 134.62 159.137 133.864 159.137 132.904V120.88H153.845V118.396H159.137V112.132H161.981V118.396H167.741V120.88H161.981V132.472C161.981 133.192 162.329 133.552 163.025 133.552H166.949V136H162.269ZM172.347 136V118.396H175.191V136H172.347ZM173.787 115.66C173.163 115.66 172.635 115.456 172.203 115.048C171.795 114.64 171.591 114.124 171.591 113.5C171.591 112.852 171.795 112.324 172.203 111.916C172.635 111.508 173.163 111.304 173.787 111.304C174.411 111.304 174.927 111.508 175.335 111.916C175.743 112.324 175.947 112.852 175.947 113.5C175.947 114.124 175.743 114.64 175.335 115.048C174.927 115.456 174.411 115.66 173.787 115.66ZM189.308 136.504C187.532 136.504 185.96 136.132 184.592 135.388C183.248 134.644 182.192 133.6 181.424 132.256C180.68 130.888 180.308 129.28 180.308 127.432V126.964C180.308 125.14 180.68 123.544 181.424 122.176C182.192 120.808 183.248 119.752 184.592 119.008C185.96 118.264 187.532 117.892 189.308 117.892C191.084 117.892 192.644 118.264 193.988 119.008C195.356 119.752 196.412 120.808 197.156 122.176C197.924 123.544 198.308 125.14 198.308 126.964V127.432C198.308 129.28 197.924 130.888 197.156 132.256C196.412 133.6 195.356 134.644 193.988 135.388C192.644 136.132 191.084 136.504 189.308 136.504ZM189.308 133.948C191.18 133.948 192.668 133.36 193.772 132.184C194.9 130.984 195.464 129.376 195.464 127.36V127.036C195.464 125.02 194.9 123.424 193.772 122.248C192.668 121.048 191.18 120.448 189.308 120.448C187.46 120.448 185.972 121.048 184.844 122.248C183.716 123.424 183.152 125.02 183.152 127.036V127.36C183.152 129.376 183.716 130.984 184.844 132.184C185.972 133.36 187.46 133.948 189.308 133.948ZM203.426 136V118.396H206.198V121.384H206.702C207.086 120.544 207.734 119.788 208.646 119.116C209.582 118.42 210.95 118.072 212.75 118.072C214.07 118.072 215.246 118.348 216.278 118.9C217.334 119.452 218.174 120.268 218.798 121.348C219.422 122.428 219.734 123.76 219.734 125.344V136H216.89V125.56C216.89 123.808 216.446 122.536 215.558 121.744C214.694 120.952 213.518 120.556 212.03 120.556C210.326 120.556 208.934 121.108 207.854 122.212C206.798 123.316 206.27 124.96 206.27 127.144V136H203.426ZM234.642 136V110.8H250.158V113.536H237.666V121.96H249.15V124.696H237.666V133.264H250.338V136H234.642ZM255.035 136V118.396H257.807V120.556H258.311C258.623 119.788 259.103 119.224 259.751 118.864C260.399 118.504 261.251 118.324 262.307 118.324H264.395V120.916H262.127C260.855 120.916 259.823 121.276 259.031 121.996C258.263 122.692 257.879 123.784 257.879 125.272V136H255.035ZM273.408 136.504C272.184 136.504 271.068 136.288 270.06 135.856C269.052 135.424 268.26 134.8 267.684 133.984C267.108 133.168 266.82 132.172 266.82 130.996C266.82 129.796 267.108 128.812 267.684 128.044C268.26 127.252 269.052 126.664 270.06 126.28C271.068 125.872 272.196 125.668 273.444 125.668H279.384V124.372C279.384 123.124 279.012 122.14 278.268 121.42C277.548 120.7 276.468 120.34 275.028 120.34C273.612 120.34 272.508 120.688 271.716 121.384C270.924 122.056 270.384 122.968 270.096 124.12L267.432 123.256C267.72 122.272 268.176 121.384 268.8 120.592C269.424 119.776 270.252 119.128 271.284 118.648C272.34 118.144 273.6 117.892 275.064 117.892C277.32 117.892 279.072 118.48 280.32 119.656C281.568 120.808 282.192 122.44 282.192 124.552V132.508C282.192 133.228 282.528 133.588 283.2 133.588H284.82V136H282.336C281.544 136 280.908 135.784 280.428 135.352C279.948 134.896 279.708 134.296 279.708 133.552V133.372H279.276C279.012 133.828 278.652 134.308 278.196 134.812C277.764 135.292 277.164 135.688 276.396 136C275.628 136.336 274.632 136.504 273.408 136.504ZM273.732 134.056C275.412 134.056 276.768 133.564 277.8 132.58C278.856 131.572 279.384 130.168 279.384 128.368V127.972H273.552C272.424 127.972 271.488 128.224 270.744 128.728C270.024 129.208 269.664 129.94 269.664 130.924C269.664 131.908 270.036 132.676 270.78 133.228C271.548 133.78 272.532 134.056 273.732 134.056Z" fill="white"/>
<g opacity="0.2">
<path d="M68.7981 -14.474C115.325 -14.0137 160.921 -4.68551 207.254 -0.665782C253.78 3.3386 299.532 -4.30194 345.722 -10.3929C381.431 16.9474 410.252 68.6361 451.855 78.4706C476.953 84.4082 484.475 114.802 498.239 137.723C514.058 164.051 537.541 183.781 558 204.923H-242C-190.2 168.357 -138.401 131.791 -86.601 95.2246C-60.9467 77.0131 -36.4039 60.612 -14.7302 35.7879C-4.32632 23.8822 5.09533 10.749 18.0453 2.58681C33.7997 -7.33976 51.8676 -8.19893 68.7981 -14.474Z" stroke="white" stroke-width="0.5" stroke-miterlimit="10"/>
<path d="M-209.797 182.201H536.038" stroke="white" stroke-width="0.5" stroke-miterlimit="10"/>
<path d="M-181.703 162.348H516.804" stroke="white" stroke-width="0.5" stroke-miterlimit="10"/>
<path d="M-156.945 144.873C-97.2878 144.873 -39.6852 147.68 19.5846 155.397C72.3665 162.271 119.682 155.72 171.481 144.029C221.652 132.691 272.509 134.823 323.378 132.445C382.308 129.521 441.34 132.21 499.908 140.485" stroke="white" stroke-width="0.5" stroke-miterlimit="10"/>
<path d="M-134.977 129.377C-107.035 129.377 -78.8602 127.581 -51.2674 133.703C-23.1833 139.932 3.77626 151.592 31.5889 159.156C87.395 174.33 124.733 152.897 174.956 126.047C219.389 102.312 263.524 104 311.149 98.845C373.366 92.1097 424.222 92.033 484.914 112.438" stroke="white" stroke-width="0.5" stroke-miterlimit="10"/>
<path d="M-115.344 115.507C-86.4843 115.507 -60.2743 116.504 -32.3583 126.6C-7.2985 135.683 16.8437 148.325 42.3687 155.612C96.1328 170.955 132.928 138.567 178.071 109.109C219.196 82.26 261.29 85.0831 306.679 78.9768C365.613 71.0601 414.349 66.2885 471.487 89.3176" stroke="white" stroke-width="0.5" stroke-miterlimit="10"/>
<path d="M-97.7031 103.064C-45.6062 103.387 1.1014 126.446 51.9964 135.053C100.022 143.154 137.618 117.287 180.862 97.0656C220.823 78.3938 260.423 79.8513 302.594 75.7549C356.307 70.5077 406.297 65.0151 459.441 79.5905" stroke="white" stroke-width="0.5" stroke-miterlimit="10"/>
<path d="M-81.7422 91.7878C-33.8068 93.3221 12.9525 106.655 60.7715 109.125C103.305 111.319 142.258 97.8021 183.408 87.6453C221.599 78.2864 260.138 80.0815 298.923 78.0563C348.94 75.4634 398.633 71.6125 448.558 77.9029" stroke="white" stroke-width="0.5" stroke-miterlimit="10"/>
<path d="M-67.2812 81.4007C17.7333 82.7202 100.732 86.0035 185.682 79.8665C269.274 73.9443 354.987 75.4325 438.657 77.3964" stroke="white" stroke-width="0.5" stroke-miterlimit="10"/>
<path d="M-54.0781 72.3191C107.163 72.2257 268.403 72.2257 429.644 72.3191" stroke="white" stroke-width="0.5" stroke-miterlimit="10"/>
<path d="M-41.9844 63.4041C35.2499 60.7959 112.445 59.86 189.705 58.6326C266.966 57.4052 344.07 63.7723 421.382 63.7723" stroke="white" stroke-width="0.5" stroke-miterlimit="10"/>
<path d="M-30.875 53.3857C43.167 46.3435 117.222 44.1802 191.419 41.2958C266.379 38.3808 339.089 55.9785 413.713 55.8865" stroke="white" stroke-width="0.5" stroke-miterlimit="10"/>
<path d="M-20.6016 42.5388C50.3257 31.1087 121.641 28.2857 193.098 23.6523C266.688 18.8808 333.97 47.2643 406.797 48.6452" stroke="white" stroke-width="0.5" stroke-miterlimit="10"/>
<path d="M-11.1328 31.5534C56.6281 16.8246 125.862 13.6181 194.58 7.83395C227.265 5.08765 257.597 5.53258 289.727 14.692C326.754 25.263 362.011 39.1172 400.292 41.9556" stroke="white" stroke-width="0.5" stroke-miterlimit="10"/>
<path d="M-2.32031 21.1513C62.4034 4.62744 130.009 1.80444 195.987 -4.77748C226.552 -7.84597 254.365 -7.92268 284.129 1.55897C321.195 13.3727 355.819 30.3414 394.294 35.5118" stroke="white" stroke-width="0.5" stroke-miterlimit="10"/>
<path d="M5.86719 12.0838C67.7347 -4.57807 133.983 -7.03287 197.286 -13.5227C224.917 -16.3611 251.567 -17.1129 278.707 -8.62848C316.006 3.06248 350.242 22.5014 388.73 29.3595" stroke="white" stroke-width="0.5" stroke-miterlimit="10"/>
<path d="M13.5 5.17929C73.4935 -9.50345 137.351 -11.4366 198.482 -17.3281C265.687 -23.8179 318.779 9.12229 383.464 23.0993" stroke="white" stroke-width="0.5" stroke-miterlimit="10"/>
<path d="M20.6484 0.331124C79.0911 -11.682 140.377 -12.8327 199.621 -17.3434C263.479 -22.1456 316.778 3.93662 378.581 17.3152" stroke="white" stroke-width="0.5" stroke-miterlimit="10"/>
<path d="M27.3438 -2.93651C84.313 -12.142 143.208 -12.142 200.681 -15.0571C261.218 -18.1255 314.827 1.05256 374.019 12.3446" stroke="white" stroke-width="0.5" stroke-miterlimit="10"/>
<path d="M33.6406 -5.06887C89.2141 -11.7122 145.873 -10.3467 201.654 -11.6201C259.101 -12.9242 312.93 -0.312715 369.666 8.15633" stroke="white" stroke-width="0.5" stroke-miterlimit="10"/>
<path d="M39.5547 -6.45C148.298 -15.1492 257.455 -6.14315 365.694 4.67329" stroke="white" stroke-width="0.5" stroke-miterlimit="10"/>
<path d="M45.1328 -7.4164C150.193 -12.3413 256.881 -3.31996 361.876 1.78908" stroke="white" stroke-width="0.5" stroke-miterlimit="10"/>
<path d="M55.3672 -9.21148C105.513 -9.28819 155.115 -2.81366 205.118 0.484967C255.122 3.7836 305.086 -0.911221 354.883 -3.18191" stroke="white" stroke-width="0.5" stroke-miterlimit="10"/>
<path d="M60.0781 -10.4846C108.996 -10.0857 157.164 -2.46051 205.875 1.31374C254.585 5.08799 303.18 -1.47859 351.671 -5.49832" stroke="white" stroke-width="0.5" stroke-miterlimit="10"/>
<path d="M64.5469 -12.2189C112.275 -11.6665 159.074 -3.12081 206.582 0.898915C254.091 4.91864 301.316 -2.58379 348.618 -7.89229" stroke="white" stroke-width="0.5" stroke-miterlimit="10"/>
<path d="M335.062 -9.10425C355.741 5.73192 370.216 22.6393 386.668 43.5358C392.872 51.4218 399.476 61.2256 406.895 67.5314C418.268 77.1971 417.725 73.1621 431.153 74.6196C455.424 77.2278 459.857 103.371 470.429 127.244C484.374 158.758 505.919 180.59 527.295 204.923" stroke="white" stroke-width="0.5" stroke-miterlimit="10"/>
<path d="M324.414 -7.64673C343.865 4.91875 354.863 15.9193 368.175 37.3834C374.017 46.7883 379.884 58.4486 387.458 66.1045C398.559 77.3198 398.572 70.3237 410.437 72.7478C421.991 75.0952 418.282 66.9483 428.789 79.299C438.818 91.0973 442.062 113.497 447.813 128.395C459.794 159.387 477.047 180.176 496.459 204.938" stroke="white" stroke-width="0.5" stroke-miterlimit="10"/>
<path d="M313.734 -6.17371C335.318 5.85479 341.909 12.4674 354.574 38.0893C359.613 49.5968 365.614 60.4731 372.487 70.554C377.821 78.665 383.559 79.2429 389.702 72.2876C396.104 64.7903 401.842 65.6955 406.917 75.0033C413.897 94.0538 419.896 113.59 424.881 133.504C434.251 162.087 449.553 181.572 465.721 204.923" stroke="white" stroke-width="0.5" stroke-miterlimit="10"/>
<path d="M303.109 -4.71619C309.546 -2.00638 316.178 0.00156211 322.922 1.28272C330.808 12.6366 336.827 25.6474 340.667 39.6389C344.679 52.2839 350.217 64.1704 357.106 74.9266C361.776 77.5655 365.748 76.8444 369.022 72.7633C372.262 68.8356 376.229 67.8742 380.925 69.8789C388.826 86.7416 394.377 105.01 397.365 123.976C405.882 156.487 418.547 177.598 434.922 204.847" stroke="white" stroke-width="0.5" stroke-miterlimit="10"/>
<path d="M292.461 -3.31995C298.376 -2.12191 304.395 -1.81776 310.374 -2.41475C317.765 11.541 323.155 26.8563 326.322 42.9069C328.829 50.6088 331.328 58.3107 333.818 66.0127C336.506 77.857 341.335 80.5215 348.306 74.0061C353.475 67.6032 357.09 68.2936 359.149 76.0773C366.455 86.9992 370.387 100.564 370.29 114.51C378.277 149.798 388.474 174.131 404.151 204.923" stroke="white" stroke-width="0.5" stroke-miterlimit="10"/>
<path d="M281.82 -2.04666C287.06 -1.82053 292.218 -3.64235 296.502 -7.23242C304.877 14.1703 305.549 46.098 315.72 65.3681C332.638 97.3111 323.139 59.3692 333.504 72.4103C348.276 90.99 345.743 127.444 352.011 150.012C357.31 169.114 365.904 186.988 373.387 204.923" stroke="white" stroke-width="0.5" stroke-miterlimit="10"/>
<path d="M271.164 -0.957424C275.896 -3.11859 280.112 -6.62131 283.442 -11.1602C287.616 5.71656 289.904 60.2744 299.429 72.2262C305.387 79.744 307.713 72.2261 311.862 77.7494C321.09 90.0234 322.382 131.601 324.786 143.584C328.986 164.757 336.056 184.686 342.647 204.954" stroke="white" stroke-width="0.5" stroke-miterlimit="10"/>
<path d="M260.516 -0.0827381C263.85 -4.68548 266.978 -9.2882 270.015 -14.2131C273.349 9.33755 270.273 47.5863 280.354 66.3194C278.683 73.7247 279.975 77.5501 284.231 77.7956C286.139 78.2992 288.081 78.597 290.034 78.6855C296.781 94.8871 295.837 118.576 298.034 135.928C301.058 159.801 306.422 181.772 311.837 204.969" stroke="white" stroke-width="0.5" stroke-miterlimit="10"/>
<path d="M249.867 0.515601C252.131 -5.30664 254.061 -11.3038 255.644 -17.4351C262.106 58.6636 270.236 128.717 281.079 204.923" stroke="white" stroke-width="0.5" stroke-miterlimit="10"/>
<path d="M239.195 0.868512C240.057 -5.72875 240.746 -12.3516 241.263 -19C243.512 55.9326 246.51 130.052 250.31 205" stroke="white" stroke-width="0.5" stroke-miterlimit="10"/>
<path d="M228.555 0.638181C227.857 -5.8568 227.301 -12.362 226.888 -18.8774C225.053 55.825 222.61 130.236 219.547 204.923" stroke="white" stroke-width="0.5" stroke-miterlimit="10"/>
<path d="M217.904 0.101527C215.735 -5.76727 213.933 -11.8184 212.515 -18.0026C206.544 56.8687 198.712 130.482 188.773 204.923" stroke="white" stroke-width="0.5" stroke-miterlimit="10"/>
<path d="M207.254 -0.666087C203.833 -5.67614 200.781 -11.0246 198.129 -16.653C187.948 57.9705 174.554 131.926 158 204.923" stroke="white" stroke-width="0.5" stroke-miterlimit="10"/>
<path d="M196.603 -1.77074C191.444 -4.96996 187.269 -10.0231 184.674 -16.208C173.831 28.1471 168.777 73.5148 157.094 117.778C149.236 147.558 136.519 175.542 127.227 204.923" stroke="white" stroke-width="0.5" stroke-miterlimit="10"/>
<path d="M185.952 -3.01312C182.933 -3.51782 180.058 -4.86032 177.559 -6.93161C175.059 -9.00291 173.007 -11.7446 171.567 -14.9342C153.474 28.2088 148.175 83.7179 135.38 130.098C126.747 161.381 127.561 140.562 117.286 157.193C108.537 171.339 102.759 189.274 96.375 204.923" stroke="white" stroke-width="0.5" stroke-miterlimit="10"/>
<path d="M175.307 -4.394C172.012 -4.39813 168.752 -5.20344 165.729 -6.76026C162.706 -8.31709 159.984 -10.5924 157.73 -13.446C134.958 32.0904 129.155 92.1408 113.413 141.712C100.761 181.603 108.761 149.982 91.2615 157.837C82.8867 161.596 69.4199 197.405 65.6719 204.923" stroke="white" stroke-width="0.5" stroke-miterlimit="10"/>
<path d="M164.646 -5.8669C161.204 -5.0903 157.659 -5.25599 154.279 -6.35136C150.9 -7.44674 147.775 -9.44292 145.143 -12.188C134.985 -2.12333 129.165 11.0712 127.683 27.3956C118.895 57.4975 108.297 86.2339 99.78 116.474C96.4369 131.049 92.5253 145.415 88.0449 159.571C83.0218 169.073 77.6324 169.467 71.8769 160.752C63.2608 155.249 57.4364 158.983 54.4036 171.952L34.9141 204.923" stroke="white" stroke-width="0.5" stroke-miterlimit="10"/>
<path d="M154.003 -7.3706C150.466 -6.04145 146.722 -5.68091 143.051 -6.316C139.38 -6.95108 135.878 -8.56532 132.808 -11.0375C122.02 -4.72661 115.662 5.94663 113.732 20.9822C102.1 53.4162 88.6589 84.899 79.0693 118.223C76.2633 134.834 70.4756 150.533 62.1 164.25C58.9425 164.724 55.7364 164.404 52.6902 163.309C49.644 162.215 46.8261 160.371 44.4198 157.898C27.0757 159.862 14.436 189.841 4.14844 204.892" stroke="white" stroke-width="0.5" stroke-miterlimit="10"/>
<path d="M143.345 -8.84338C132.153 -2.90585 125.419 -12.4335 115.403 -7.04834C104.56 -1.20286 100.269 16.5177 95.319 28.4848C82.8731 58.3566 69.4708 86.5254 58.3949 117.134C53.6906 130.083 49.9555 156.564 35.6873 159.786C29.8715 161.09 22.634 154.063 16.6373 155.352C0.727728 158.804 -16.3191 191.667 -26.5938 204.923" stroke="white" stroke-width="0.5" stroke-miterlimit="10"/>
<path d="M132.699 -10.2704C121.753 -3.76518 113.559 -11.2676 103.077 -7.20189C88.9772 -1.70929 82.9933 19.7549 76.5184 34.3455C64.2793 61.8392 49.5329 86.9241 37.6557 114.725C32.0596 127.843 26.1533 145.717 13.6686 150.657C7.03856 153.28 0.4085 150.657 -6.33786 152.805C-25.9566 159.172 -42.9 188.2 -57.375 204.969" stroke="white" stroke-width="0.5" stroke-miterlimit="10"/>
<path d="M122.041 -11.559C109.207 -3.50416 97.6531 -13.2927 85.0263 -5.71348C74.9197 0.423504 68.225 17.8065 62.8615 28.6076C48.7614 57.0065 32.3866 83.2575 16.9423 110.613C-0.324266 141.206 -10.1983 136.266 -34.418 151.163C-54.2564 163.33 -71.5359 187.571 -88.1562 204.862" stroke="white" stroke-width="0.5" stroke-miterlimit="10"/>
<path d="M111.398 -12.6792C98.4739 -5.26879 85.0975 -12.9401 72.7421 -6.3428C58.8875 1.05227 51.8568 20.9054 43.9731 34.8978C29.6403 60.2742 12.7873 83.1652 -3.75548 106.593C-19.4453 128.809 -36.9703 132.445 -57.0285 146.622C-78.9994 162.148 -98.98 185.929 -118.922 204.923" stroke="white" stroke-width="0.5" stroke-miterlimit="10"/>
<path d="M100.74 -13.569C87.6733 -8.76678 72.914 -12.0347 60.5845 -6.12787C46.6265 0.638161 39.1305 18.0825 30.5748 31.5532C14.0707 57.6354 -4.11346 80.1121 -24.4818 101.975C-42.4721 121.276 -65.5803 131.786 -85.3154 148.509C-107.002 166.92 -128.249 186.129 -149.703 204.923" stroke="white" stroke-width="0.5" stroke-miterlimit="10"/>
<path d="M90.1462 -14.1979C76.5501 -9.05815 61.7133 -11.1294 48.6212 -5.13047C32.311 2.43336 21.9847 23.2991 11.4774 38.4728C-4.5355 61.64 -24.4773 81.2783 -45.13 98.5232C-89.1882 135.345 -135.818 168.761 -180.406 204.923" stroke="white" stroke-width="0.5" stroke-miterlimit="10"/>
<path d="M79.4409 -14.474C65.47 -9.19619 50.155 -9.87128 36.6493 -3.61156C20.0419 4.13639 9.85769 21.7342 -1.74812 36.7238C-20.5526 60.9956 -42.5236 78.4093 -65.9032 95.915C-114.377 132.195 -162.821 168.531 -211.234 204.923" stroke="white" stroke-width="0.5" stroke-miterlimit="10"/>
</g>
</g>
<defs>
<clipPath id="clip0_3322_23231">
<rect width="375" height="208" fill="white"/>
</clipPath>
</defs>
</svg>
