<svg width="583" height="280" viewBox="0 0 583 280" fill="none" xmlns="http://www.w3.org/2000/svg">
<path d="M154.43 97.0942H181.084C193.164 97.0942 203.817 105.012 207.301 116.579L214.366 140.037C217.85 151.605 228.503 159.522 240.583 159.522H267.238" stroke="#FFDFA6" stroke-opacity="0.75" stroke-width="6.57133" stroke-linecap="round"/>
<path d="M154.43 224.14H180.982C193.111 224.14 203.795 216.161 207.237 204.53L214.43 180.227C217.872 168.597 228.556 160.617 240.685 160.617H267.238" stroke="#FFDFA6" stroke-opacity="0.75" stroke-width="6.57133" stroke-linecap="round"/>
<rect y="78.1631" width="145.664" height="35.1103" rx="3.05307" fill="#0E4DDD" fill-opacity="0.1"/>
<path d="M27.2188 101.194H34.5202" stroke="#0E4DDD" stroke-width="1.64283" stroke-linecap="round" stroke-linejoin="round"/>
<path d="M27.2188 96.0835H34.5202" stroke="#0E4DDD" stroke-width="1.64283" stroke-linecap="round" stroke-linejoin="round"/>
<path d="M27.2188 90.9722H34.5202" stroke="#0E4DDD" stroke-width="1.64283" stroke-linecap="round" stroke-linejoin="round"/>
<path d="M21.375 90.9725L22.1051 91.7027L24.2956 89.5122" stroke="#0E4DDD" stroke-width="1.64283" stroke-linecap="round" stroke-linejoin="round"/>
<path d="M21.375 96.0833L22.1051 96.8135L24.2956 94.623" stroke="#0E4DDD" stroke-width="1.64283" stroke-linecap="round" stroke-linejoin="round"/>
<path d="M21.375 101.194L22.1051 101.924L24.2956 99.7339" stroke="#0E4DDD" stroke-width="1.64283" stroke-linecap="round" stroke-linejoin="round"/>
<path d="M49.6526 101.718C49.1726 101.718 48.7886 101.574 48.5006 101.286C48.2232 100.998 48.0846 100.614 48.0846 100.134V95.2223H45.9086V93.8303H48.0846V91.2223H49.7326V93.8303H52.0846V95.2223H49.7326V99.8463C49.7326 100.166 49.8819 100.326 50.1806 100.326H51.8286V101.718H49.6526ZM56.4531 101.942C55.8877 101.942 55.3811 101.846 54.9331 101.654C54.4957 101.462 54.1437 101.18 53.8771 100.806C53.6211 100.433 53.4931 99.9796 53.4931 99.4463C53.4931 98.9023 53.6211 98.4543 53.8771 98.1023C54.1437 97.7396 54.5011 97.4676 54.9491 97.2863C55.4077 97.1049 55.9251 97.0143 56.5011 97.0143H58.9011V96.5023C58.9011 96.0436 58.7624 95.6756 58.4851 95.3983C58.2077 95.1209 57.7811 94.9823 57.2051 94.9823C56.6397 94.9823 56.2077 95.1156 55.9091 95.3823C55.6104 95.6489 55.4131 95.9956 55.3171 96.4223L53.7811 95.9263C53.9091 95.4996 54.1117 95.1156 54.3891 94.7743C54.6771 94.4223 55.0557 94.1396 55.5251 93.9263C55.9944 93.7129 56.5597 93.6063 57.2211 93.6063C58.2451 93.6063 59.0504 93.8676 59.6371 94.3903C60.2237 94.9129 60.5171 95.6543 60.5171 96.6143V99.8623C60.5171 100.182 60.6664 100.342 60.9651 100.342H61.6371V101.718H60.4051C60.0317 101.718 59.7277 101.622 59.4931 101.43C59.2584 101.238 59.1411 100.977 59.1411 100.646V100.598H58.9011C58.8157 100.758 58.6877 100.945 58.5171 101.158C58.3464 101.372 58.0957 101.558 57.7651 101.718C57.4344 101.868 56.9971 101.942 56.4531 101.942ZM56.6931 100.582C57.3544 100.582 57.8877 100.396 58.2931 100.022C58.6984 99.6383 58.9011 99.1156 58.9011 98.4543V98.2943H56.5971C56.1597 98.2943 55.8077 98.3903 55.5411 98.5823C55.2744 98.7636 55.1411 99.0356 55.1411 99.3983C55.1411 99.7609 55.2797 100.049 55.5571 100.262C55.8344 100.476 56.2131 100.582 56.6931 100.582ZM66.4089 101.942C65.4063 101.942 64.5743 101.718 63.9129 101.27C63.2516 100.822 62.8463 100.145 62.6969 99.2383L64.2329 98.8703C64.3183 99.3076 64.4623 99.6543 64.6649 99.9103C64.8676 100.166 65.1183 100.348 65.4169 100.454C65.7263 100.561 66.0569 100.614 66.4089 100.614C66.9316 100.614 67.3316 100.513 67.6089 100.31C67.8969 100.108 68.0409 99.8463 68.0409 99.5263C68.0409 99.2063 67.9076 98.9716 67.6409 98.8223C67.3743 98.6729 66.9796 98.5503 66.4569 98.4543L65.9129 98.3583C65.3796 98.2623 64.8943 98.1236 64.4569 97.9423C64.0196 97.7609 63.6729 97.5103 63.4169 97.1903C63.1609 96.8703 63.0329 96.4596 63.0329 95.9583C63.0329 95.2116 63.3103 94.6356 63.8649 94.2303C64.4196 93.8143 65.1556 93.6063 66.0729 93.6063C66.9583 93.6063 67.6836 93.8089 68.2489 94.2143C68.8249 94.6089 69.1983 95.1476 69.3689 95.8303L67.8329 96.2623C67.7369 95.7823 67.5343 95.4463 67.2249 95.2543C66.9156 95.0516 66.5316 94.9503 66.0729 94.9503C65.6249 94.9503 65.2729 95.0356 65.0169 95.2063C64.7609 95.3663 64.6329 95.5956 64.6329 95.8943C64.6329 96.2143 64.7556 96.4489 65.0009 96.5983C65.2569 96.7476 65.5983 96.8596 66.0249 96.9343L66.5849 97.0303C67.1503 97.1263 67.6676 97.2596 68.1369 97.4303C68.6063 97.6009 68.9743 97.8463 69.2409 98.1663C69.5183 98.4863 69.6569 98.9129 69.6569 99.4463C69.6569 100.236 69.3636 100.849 68.7769 101.286C68.1903 101.724 67.4009 101.942 66.4089 101.942ZM71.5832 101.718V90.5183H73.2312V96.9023H73.4872L76.5912 93.8303H78.7832L74.7992 97.6543L78.9112 101.718H76.7352L73.4872 98.4383H73.2312V101.718H71.5832ZM80.3157 103.99V102.502H87.9637V103.99H80.3157ZM93.2776 101.718C92.7976 101.718 92.4136 101.574 92.1256 101.286C91.8482 100.998 91.7096 100.614 91.7096 100.134V95.2223H89.5336V93.8303H91.7096V91.2223H93.3576V93.8303H95.7096V95.2223H93.3576V99.8463C93.3576 100.166 93.5069 100.326 93.8056 100.326H95.4536V101.718H93.2776ZM98.5577 104.918V103.478H102.958C103.256 103.478 103.406 103.318 103.406 102.998V100.566H103.15C103.054 100.78 102.904 100.988 102.702 101.19C102.51 101.382 102.248 101.542 101.918 101.67C101.587 101.798 101.171 101.862 100.67 101.862C100.072 101.862 99.539 101.729 99.0697 101.462C98.6004 101.196 98.2324 100.817 97.9657 100.326C97.699 99.8356 97.5657 99.2543 97.5657 98.5823V93.8303H99.2137V98.4543C99.2137 99.1369 99.3844 99.6436 99.7257 99.9743C100.067 100.294 100.542 100.454 101.15 100.454C101.822 100.454 102.36 100.23 102.766 99.7823C103.182 99.3343 103.39 98.6836 103.39 97.8303V93.8303H105.038V103.334C105.038 103.814 104.894 104.198 104.606 104.486C104.328 104.774 103.944 104.918 103.454 104.918H98.5577ZM107.474 104.918V93.8303H109.09V94.9663H109.346C109.548 94.6143 109.852 94.2996 110.258 94.0223C110.674 93.7449 111.266 93.6063 112.034 93.6063C112.695 93.6063 113.298 93.7663 113.842 94.0863C114.396 94.4063 114.839 94.8703 115.17 95.4783C115.511 96.0756 115.682 96.8009 115.682 97.6543V97.8943C115.682 98.7476 115.516 99.4783 115.186 100.086C114.855 100.684 114.412 101.142 113.858 101.462C113.303 101.782 112.695 101.942 112.034 101.942C111.522 101.942 111.09 101.878 110.738 101.75C110.386 101.622 110.103 101.462 109.89 101.27C109.676 101.068 109.506 100.86 109.378 100.646H109.122V104.918H107.474ZM111.554 100.502C112.279 100.502 112.871 100.273 113.33 99.8143C113.788 99.3556 114.018 98.6996 114.018 97.8463V97.7023C114.018 96.8596 113.783 96.2089 113.314 95.7503C112.855 95.2916 112.268 95.0623 111.554 95.0623C110.85 95.0623 110.263 95.2916 109.794 95.7503C109.335 96.2089 109.106 96.8596 109.106 97.7023V97.8463C109.106 98.6996 109.335 99.3556 109.794 99.8143C110.263 100.273 110.85 100.502 111.554 100.502ZM121.34 101.942C120.54 101.942 119.841 101.777 119.244 101.446C118.646 101.105 118.177 100.63 117.836 100.022C117.505 99.4036 117.34 98.6889 117.34 97.8783V97.6863C117.34 96.8649 117.505 96.1503 117.836 95.5423C118.166 94.9236 118.625 94.4489 119.212 94.1183C119.809 93.7769 120.497 93.6063 121.276 93.6063C122.033 93.6063 122.694 93.7769 123.26 94.1183C123.836 94.4489 124.284 94.9129 124.604 95.5103C124.924 96.1076 125.084 96.8063 125.084 97.6063V98.2303H119.02C119.041 98.9236 119.27 99.4783 119.708 99.8943C120.156 100.3 120.71 100.502 121.372 100.502C121.99 100.502 122.454 100.364 122.764 100.086C123.084 99.8089 123.329 99.4889 123.5 99.1263L124.86 99.8303C124.71 100.129 124.492 100.444 124.204 100.774C123.926 101.105 123.558 101.382 123.1 101.606C122.641 101.83 122.054 101.942 121.34 101.942ZM119.036 96.9663H123.404C123.361 96.3689 123.148 95.9049 122.764 95.5743C122.38 95.2329 121.878 95.0623 121.26 95.0623C120.641 95.0623 120.134 95.2329 119.74 95.5743C119.356 95.9049 119.121 96.3689 119.036 96.9663Z" fill="#475569"/>
<rect y="139.559" width="145.664" height="35.1103" rx="3.05307" fill="#0E4DDD" fill-opacity="0.1"/>
<path d="M16.0547 153.463V160.765C16.0547 162.378 18.6699 163.685 21.8959 163.685C25.1219 163.685 27.7371 162.378 27.7371 160.765V153.463M16.0547 153.463C16.0547 155.076 18.6699 156.384 21.8959 156.384C25.1219 156.384 27.7371 155.076 27.7371 153.463M16.0547 153.463C16.0547 151.85 18.6699 150.542 21.8959 150.542C25.1219 150.542 27.7371 151.85 27.7371 153.463M27.7371 157.114C27.7371 158.727 25.1219 160.034 21.8959 160.034C18.6699 160.034 16.0547 158.727 16.0547 157.114" stroke="#0E4DDD" stroke-width="1.09522"/>
<path d="M43.9097 163.338C43.259 163.338 42.6564 163.178 42.1017 162.858C41.547 162.538 41.099 162.079 40.7577 161.482C40.427 160.874 40.2617 160.143 40.2617 159.29V159.05C40.2617 158.207 40.427 157.482 40.7577 156.874C41.0884 156.266 41.531 155.802 42.0857 155.482C42.6404 155.162 43.2484 155.002 43.9097 155.002C44.4217 155.002 44.8484 155.066 45.1897 155.194C45.5417 155.322 45.8297 155.487 46.0537 155.69C46.2777 155.882 46.4484 156.084 46.5657 156.298H46.8217V151.914H48.4697V163.114H46.8537V161.994H46.5977C46.395 162.335 46.0857 162.644 45.6697 162.922C45.2644 163.199 44.6777 163.338 43.9097 163.338ZM44.3737 161.898C45.0884 161.898 45.675 161.668 46.1337 161.21C46.603 160.751 46.8377 160.095 46.8377 159.242V159.098C46.8377 158.255 46.6084 157.604 46.1497 157.146C45.691 156.687 45.099 156.458 44.3737 156.458C43.6697 156.458 43.083 156.687 42.6137 157.146C42.155 157.604 41.9257 158.255 41.9257 159.098V159.242C41.9257 160.095 42.155 160.751 42.6137 161.21C43.083 161.668 43.6697 161.898 44.3737 161.898ZM53.3437 163.338C52.7784 163.338 52.2717 163.242 51.8237 163.05C51.3864 162.858 51.0344 162.575 50.7677 162.202C50.5117 161.828 50.3837 161.375 50.3837 160.842C50.3837 160.298 50.5117 159.85 50.7677 159.498C51.0344 159.135 51.3917 158.863 51.8397 158.682C52.2984 158.5 52.8157 158.41 53.3917 158.41H55.7917V157.898C55.7917 157.439 55.653 157.071 55.3757 156.794C55.0984 156.516 54.6717 156.378 54.0957 156.378C53.5304 156.378 53.0984 156.511 52.7997 156.778C52.501 157.044 52.3037 157.391 52.2077 157.818L50.6717 157.322C50.7997 156.895 51.0024 156.511 51.2797 156.17C51.5677 155.818 51.9464 155.535 52.4157 155.322C52.885 155.108 53.4504 155.002 54.1117 155.002C55.1357 155.002 55.941 155.263 56.5277 155.786C57.1144 156.308 57.4077 157.05 57.4077 158.01V161.258C57.4077 161.578 57.557 161.738 57.8557 161.738H58.5277V163.114H57.2957C56.9224 163.114 56.6184 163.018 56.3837 162.826C56.149 162.634 56.0317 162.372 56.0317 162.042V161.994H55.7917C55.7064 162.154 55.5784 162.34 55.4077 162.554C55.237 162.767 54.9864 162.954 54.6557 163.114C54.325 163.263 53.8877 163.338 53.3437 163.338ZM53.5837 161.978C54.245 161.978 54.7784 161.791 55.1837 161.418C55.589 161.034 55.7917 160.511 55.7917 159.85V159.69H53.4877C53.0504 159.69 52.6984 159.786 52.4317 159.978C52.165 160.159 52.0317 160.431 52.0317 160.794C52.0317 161.156 52.1704 161.444 52.4477 161.658C52.725 161.871 53.1037 161.978 53.5837 161.978ZM62.5432 163.114C62.0632 163.114 61.6792 162.97 61.3912 162.682C61.1139 162.394 60.9752 162.01 60.9752 161.53V156.618H58.7992V155.226H60.9752V152.618H62.6232V155.226H64.9752V156.618H62.6232V161.242C62.6232 161.562 62.7725 161.722 63.0712 161.722H64.7192V163.114H62.5432ZM69.3437 163.338C68.7784 163.338 68.2717 163.242 67.8237 163.05C67.3864 162.858 67.0344 162.575 66.7677 162.202C66.5117 161.828 66.3837 161.375 66.3837 160.842C66.3837 160.298 66.5117 159.85 66.7677 159.498C67.0344 159.135 67.3917 158.863 67.8397 158.682C68.2984 158.5 68.8157 158.41 69.3917 158.41H71.7917V157.898C71.7917 157.439 71.653 157.071 71.3757 156.794C71.0984 156.516 70.6717 156.378 70.0957 156.378C69.5304 156.378 69.0984 156.511 68.7997 156.778C68.501 157.044 68.3037 157.391 68.2077 157.818L66.6717 157.322C66.7997 156.895 67.0024 156.511 67.2797 156.17C67.5677 155.818 67.9464 155.535 68.4157 155.322C68.885 155.108 69.4504 155.002 70.1117 155.002C71.1357 155.002 71.941 155.263 72.5277 155.786C73.1144 156.308 73.4077 157.05 73.4077 158.01V161.258C73.4077 161.578 73.557 161.738 73.8557 161.738H74.5277V163.114H73.2957C72.9224 163.114 72.6184 163.018 72.3837 162.826C72.149 162.634 72.0317 162.372 72.0317 162.042V161.994H71.7917C71.7064 162.154 71.5784 162.34 71.4077 162.554C71.237 162.767 70.9864 162.954 70.6557 163.114C70.325 163.263 69.8877 163.338 69.3437 163.338ZM69.5837 161.978C70.245 161.978 70.7784 161.791 71.1837 161.418C71.589 161.034 71.7917 160.511 71.7917 159.85V159.69H69.4877C69.0504 159.69 68.6984 159.786 68.4317 159.978C68.165 160.159 68.0317 160.431 68.0317 160.794C68.0317 161.156 68.1704 161.444 68.4477 161.658C68.725 161.871 69.1037 161.978 69.5837 161.978ZM79.2996 163.338C78.2969 163.338 77.4649 163.114 76.8036 162.666C76.1422 162.218 75.7369 161.54 75.5876 160.634L77.1236 160.266C77.2089 160.703 77.3529 161.05 77.5556 161.306C77.7582 161.562 78.0089 161.743 78.3076 161.85C78.6169 161.956 78.9476 162.01 79.2996 162.01C79.8222 162.01 80.2222 161.908 80.4996 161.706C80.7876 161.503 80.9316 161.242 80.9316 160.922C80.9316 160.602 80.7982 160.367 80.5316 160.218C80.2649 160.068 79.8702 159.946 79.3476 159.85L78.8036 159.754C78.2702 159.658 77.7849 159.519 77.3476 159.338C76.9102 159.156 76.5636 158.906 76.3076 158.586C76.0516 158.266 75.9236 157.855 75.9236 157.354C75.9236 156.607 76.2009 156.031 76.7556 155.626C77.3102 155.21 78.0462 155.002 78.9636 155.002C79.8489 155.002 80.5742 155.204 81.1396 155.61C81.7156 156.004 82.0889 156.543 82.2596 157.226L80.7236 157.658C80.6276 157.178 80.4249 156.842 80.1156 156.65C79.8062 156.447 79.4222 156.346 78.9636 156.346C78.5156 156.346 78.1636 156.431 77.9076 156.602C77.6516 156.762 77.5236 156.991 77.5236 157.29C77.5236 157.61 77.6462 157.844 77.8916 157.994C78.1476 158.143 78.4889 158.255 78.9156 158.33L79.4756 158.426C80.0409 158.522 80.5582 158.655 81.0276 158.826C81.4969 158.996 81.8649 159.242 82.1316 159.562C82.4089 159.882 82.5476 160.308 82.5476 160.842C82.5476 161.631 82.2542 162.244 81.6676 162.682C81.0809 163.119 80.2916 163.338 79.2996 163.338ZM88.0898 163.338C87.2898 163.338 86.5911 163.172 85.9938 162.842C85.3965 162.5 84.9271 162.026 84.5858 161.418C84.2551 160.799 84.0898 160.084 84.0898 159.274V159.082C84.0898 158.26 84.2551 157.546 84.5858 156.938C84.9165 156.319 85.3751 155.844 85.9618 155.514C86.5591 155.172 87.2471 155.002 88.0258 155.002C88.7831 155.002 89.4445 155.172 90.0098 155.514C90.5858 155.844 91.0338 156.308 91.3538 156.906C91.6738 157.503 91.8338 158.202 91.8338 159.002V159.626H85.7698C85.7911 160.319 86.0205 160.874 86.4578 161.29C86.9058 161.695 87.4605 161.898 88.1218 161.898C88.7405 161.898 89.2045 161.759 89.5138 161.482C89.8338 161.204 90.0791 160.884 90.2498 160.522L91.6098 161.226C91.4605 161.524 91.2418 161.839 90.9538 162.17C90.6765 162.5 90.3085 162.778 89.8498 163.002C89.3911 163.226 88.8045 163.338 88.0898 163.338ZM85.7858 158.362H90.1538C90.1111 157.764 89.8978 157.3 89.5138 156.97C89.1298 156.628 88.6285 156.458 88.0098 156.458C87.3911 156.458 86.8845 156.628 86.4898 156.97C86.1058 157.3 85.8711 157.764 85.7858 158.362ZM96.4807 163.114C96.0007 163.114 95.6167 162.97 95.3287 162.682C95.0514 162.394 94.9127 162.01 94.9127 161.53V156.618H92.7367V155.226H94.9127V152.618H96.5607V155.226H98.9127V156.618H96.5607V161.242C96.5607 161.562 96.71 161.722 97.0087 161.722H98.6567V163.114H96.4807Z" fill="#475569"/>
<rect y="200.954" width="145.664" height="35.1103" rx="3.05307" fill="#0E4DDD" fill-opacity="0.1"/>
<path fill-rule="evenodd" clip-rule="evenodd" d="M21.677 210.712C21.8238 210.644 21.9934 210.644 22.1402 210.712L29.1496 213.983C29.3424 214.073 29.4656 214.267 29.4656 214.479V222.54C29.4656 222.753 29.3424 222.946 29.1496 223.036L22.1402 226.307C21.9934 226.376 21.8238 226.376 21.677 226.307L14.6676 223.036C14.4748 222.946 14.3516 222.753 14.3516 222.54V214.479C14.3516 214.267 14.4748 214.073 14.6676 213.983L21.677 210.712ZM15.4468 215.307L21.361 217.821V224.951L15.4468 222.191V215.307ZM22.4562 224.951L28.3704 222.191V215.307L22.4562 217.821V224.951ZM21.9086 216.863L27.573 214.456L21.9086 211.813L16.2442 214.456L21.9086 216.863Z" fill="#0E4DDD"/>
<path d="M40.6457 224.509V216.621H42.2617V217.549H42.5177C42.667 217.272 42.907 217.027 43.2377 216.813C43.5684 216.6 44.0164 216.493 44.5817 216.493C45.1684 216.493 45.6377 216.616 45.9897 216.861C46.3524 217.096 46.6244 217.4 46.8057 217.773H47.0617C47.243 217.411 47.5044 217.107 47.8457 216.861C48.1977 216.616 48.6937 216.493 49.3337 216.493C49.8457 216.493 50.299 216.6 50.6937 216.813C51.0884 217.016 51.403 217.325 51.6377 217.741C51.8724 218.147 51.9897 218.653 51.9897 219.261V224.509H50.3417V219.389C50.3417 218.909 50.2084 218.541 49.9417 218.285C49.6857 218.019 49.3177 217.885 48.8377 217.885C48.3257 217.885 47.915 218.051 47.6057 218.381C47.2964 218.712 47.1417 219.187 47.1417 219.805V224.509H45.4937V219.389C45.4937 218.909 45.3604 218.541 45.0937 218.285C44.8377 218.019 44.4697 217.885 43.9897 217.885C43.4777 217.885 43.067 218.051 42.7577 218.381C42.4484 218.712 42.2937 219.187 42.2937 219.805V224.509H40.6457ZM58.0604 224.733C57.2711 224.733 56.5671 224.573 55.9484 224.253C55.3404 223.923 54.8604 223.453 54.5084 222.845C54.1564 222.237 53.9804 221.517 53.9804 220.685V220.445C53.9804 219.613 54.1564 218.899 54.5084 218.301C54.8604 217.693 55.3404 217.224 55.9484 216.893C56.5671 216.563 57.2711 216.397 58.0604 216.397C58.8498 216.397 59.5538 216.563 60.1724 216.893C60.7911 217.224 61.2764 217.693 61.6284 218.301C61.9804 218.899 62.1564 219.613 62.1564 220.445V220.685C62.1564 221.517 61.9804 222.237 61.6284 222.845C61.2764 223.453 60.7911 223.923 60.1724 224.253C59.5538 224.573 58.8498 224.733 58.0604 224.733ZM58.0604 223.261C58.7858 223.261 59.3724 223.032 59.8204 222.573C60.2791 222.104 60.5084 221.459 60.5084 220.637V220.493C60.5084 219.672 60.2844 219.032 59.8364 218.573C59.3884 218.104 58.7964 217.869 58.0604 217.869C57.3458 217.869 56.7591 218.104 56.3004 218.573C55.8524 219.032 55.6284 219.672 55.6284 220.493V220.637C55.6284 221.459 55.8524 222.104 56.3004 222.573C56.7591 223.032 57.3458 223.261 58.0604 223.261ZM67.4722 224.733C66.8215 224.733 66.2189 224.573 65.6642 224.253C65.1095 223.933 64.6615 223.475 64.3202 222.877C63.9895 222.269 63.8242 221.539 63.8242 220.685V220.445C63.8242 219.603 63.9895 218.877 64.3202 218.269C64.6509 217.661 65.0935 217.197 65.6482 216.877C66.2029 216.557 66.8109 216.397 67.4722 216.397C67.9842 216.397 68.4109 216.461 68.7522 216.589C69.1042 216.717 69.3922 216.883 69.6162 217.085C69.8402 217.277 70.0109 217.48 70.1282 217.693H70.3842V213.309H72.0322V224.509H70.4162V223.389H70.1602C69.9575 223.731 69.6482 224.04 69.2322 224.317C68.8269 224.595 68.2402 224.733 67.4722 224.733ZM67.9362 223.293C68.6509 223.293 69.2375 223.064 69.6962 222.605C70.1655 222.147 70.4002 221.491 70.4002 220.637V220.493C70.4002 219.651 70.1709 219 69.7122 218.541C69.2535 218.083 68.6615 217.853 67.9362 217.853C67.2322 217.853 66.6455 218.083 66.1762 218.541C65.7175 219 65.4882 219.651 65.4882 220.493V220.637C65.4882 221.491 65.7175 222.147 66.1762 222.605C66.6455 223.064 67.2322 223.293 67.9362 223.293ZM78.0742 224.733C77.2742 224.733 76.5755 224.568 75.9782 224.237C75.3809 223.896 74.9115 223.421 74.5702 222.813C74.2395 222.195 74.0742 221.48 74.0742 220.669V220.477C74.0742 219.656 74.2395 218.941 74.5702 218.333C74.9009 217.715 75.3595 217.24 75.9462 216.909C76.5435 216.568 77.2315 216.397 78.0102 216.397C78.7675 216.397 79.4289 216.568 79.9942 216.909C80.5702 217.24 81.0182 217.704 81.3382 218.301C81.6582 218.899 81.8182 219.597 81.8182 220.397V221.021H75.7542C75.7755 221.715 76.0049 222.269 76.4422 222.685C76.8902 223.091 77.4449 223.293 78.1062 223.293C78.7249 223.293 79.1889 223.155 79.4982 222.877C79.8182 222.6 80.0635 222.28 80.2342 221.917L81.5942 222.621C81.4449 222.92 81.2262 223.235 80.9382 223.565C80.6609 223.896 80.2929 224.173 79.8342 224.397C79.3755 224.621 78.7889 224.733 78.0742 224.733ZM75.7702 219.757H80.1382C80.0955 219.16 79.8822 218.696 79.4982 218.365C79.1142 218.024 78.6129 217.853 77.9942 217.853C77.3755 217.853 76.8689 218.024 76.4742 218.365C76.0902 218.696 75.8555 219.16 75.7702 219.757ZM83.8019 224.509V213.309H85.4499V224.509H83.8019Z" fill="#475569"/>
<rect x="462" y="34.3545" width="120.474" height="35.1103" rx="3.05307" fill="#191F4D" fill-opacity="0.05"/>
<path opacity="0.5" d="M485.57 57.9097L488.77 46.7097H491.81L494.994 57.9097H493.218L492.482 55.2697H488.098L487.362 57.9097H485.57ZM488.53 53.6697H492.05L490.418 47.7817H490.162L488.53 53.6697ZM500.224 58.1337C499.466 58.1337 498.778 57.9737 498.16 57.6537C497.552 57.3337 497.066 56.8697 496.704 56.2617C496.352 55.6537 496.176 54.923 496.176 54.0697V53.8617C496.176 53.0083 496.352 52.283 496.704 51.6857C497.066 51.0777 497.552 50.6137 498.16 50.2937C498.778 49.963 499.466 49.7977 500.224 49.7977C500.981 49.7977 501.626 49.9363 502.16 50.2137C502.693 50.491 503.12 50.859 503.44 51.3177C503.77 51.7763 503.984 52.283 504.08 52.8377L502.48 53.1737C502.426 52.8217 502.314 52.5017 502.144 52.2137C501.973 51.9257 501.733 51.6963 501.424 51.5257C501.114 51.355 500.725 51.2697 500.256 51.2697C499.797 51.2697 499.381 51.3763 499.008 51.5897C498.645 51.7923 498.357 52.091 498.144 52.4857C497.93 52.8697 497.824 53.339 497.824 53.8937V54.0377C497.824 54.5923 497.93 55.067 498.144 55.4617C498.357 55.8563 498.645 56.155 499.008 56.3577C499.381 56.5603 499.797 56.6617 500.256 56.6617C500.949 56.6617 501.477 56.4857 501.84 56.1337C502.202 55.771 502.432 55.3123 502.528 54.7577L504.128 55.1257C504 55.6697 503.77 56.171 503.44 56.6297C503.12 57.0883 502.693 57.4563 502.16 57.7337C501.626 58.0003 500.981 58.1337 500.224 58.1337ZM509.693 58.1337C508.935 58.1337 508.247 57.9737 507.629 57.6537C507.021 57.3337 506.535 56.8697 506.173 56.2617C505.821 55.6537 505.645 54.923 505.645 54.0697V53.8617C505.645 53.0083 505.821 52.283 506.173 51.6857C506.535 51.0777 507.021 50.6137 507.629 50.2937C508.247 49.963 508.935 49.7977 509.693 49.7977C510.45 49.7977 511.095 49.9363 511.629 50.2137C512.162 50.491 512.589 50.859 512.909 51.3177C513.239 51.7763 513.453 52.283 513.549 52.8377L511.949 53.1737C511.895 52.8217 511.783 52.5017 511.613 52.2137C511.442 51.9257 511.202 51.6963 510.893 51.5257C510.583 51.355 510.194 51.2697 509.725 51.2697C509.266 51.2697 508.85 51.3763 508.477 51.5897C508.114 51.7923 507.826 52.091 507.613 52.4857C507.399 52.8697 507.293 53.339 507.293 53.8937V54.0377C507.293 54.5923 507.399 55.067 507.613 55.4617C507.826 55.8563 508.114 56.155 508.477 56.3577C508.85 56.5603 509.266 56.6617 509.725 56.6617C510.418 56.6617 510.946 56.4857 511.309 56.1337C511.671 55.771 511.901 55.3123 511.997 54.7577L513.597 55.1257C513.469 55.6697 513.239 56.171 512.909 56.6297C512.589 57.0883 512.162 57.4563 511.629 57.7337C511.095 58.0003 510.45 58.1337 509.693 58.1337ZM518.521 58.0537C517.924 58.0537 517.391 57.9203 516.921 57.6537C516.452 57.387 516.084 57.0083 515.817 56.5177C515.551 56.027 515.417 55.4403 515.417 54.7577V50.0217H517.065V54.6457C517.065 55.3283 517.236 55.835 517.577 56.1657C517.919 56.4857 518.393 56.6457 519.001 56.6457C519.673 56.6457 520.212 56.4217 520.617 55.9737C521.033 55.515 521.241 54.859 521.241 54.0057V50.0217H522.889V57.9097H521.273V56.7257H521.017C520.868 57.0457 520.601 57.3497 520.217 57.6377C519.833 57.915 519.268 58.0537 518.521 58.0537ZM525.325 57.9097V50.0217H526.941V50.9497H527.197C527.325 50.619 527.528 50.379 527.805 50.2297C528.093 50.0697 528.445 49.9897 528.861 49.9897H529.805V51.4777H528.797C528.264 51.4777 527.827 51.627 527.485 51.9257C527.144 52.2137 526.973 52.6617 526.973 53.2697V57.9097H525.325ZM533.742 58.1337C533.177 58.1337 532.67 58.0377 532.222 57.8457C531.785 57.6537 531.433 57.371 531.166 56.9977C530.91 56.6243 530.782 56.171 530.782 55.6377C530.782 55.0937 530.91 54.6457 531.166 54.2937C531.433 53.931 531.79 53.659 532.238 53.4777C532.697 53.2963 533.214 53.2057 533.79 53.2057H536.19V52.6937C536.19 52.235 536.051 51.867 535.774 51.5897C535.497 51.3123 535.07 51.1737 534.494 51.1737C533.929 51.1737 533.497 51.307 533.198 51.5737C532.899 51.8403 532.702 52.187 532.606 52.6137L531.07 52.1177C531.198 51.691 531.401 51.307 531.678 50.9657C531.966 50.6137 532.345 50.331 532.814 50.1177C533.283 49.9043 533.849 49.7977 534.51 49.7977C535.534 49.7977 536.339 50.059 536.926 50.5817C537.513 51.1043 537.806 51.8457 537.806 52.8057V56.0537C537.806 56.3737 537.955 56.5337 538.254 56.5337H538.926V57.9097H537.694C537.321 57.9097 537.017 57.8137 536.782 57.6217C536.547 57.4297 536.43 57.1683 536.43 56.8377V56.7897H536.19C536.105 56.9497 535.977 57.1363 535.806 57.3497C535.635 57.563 535.385 57.7497 535.054 57.9097C534.723 58.059 534.286 58.1337 533.742 58.1337ZM533.982 56.7737C534.643 56.7737 535.177 56.587 535.582 56.2137C535.987 55.8297 536.19 55.307 536.19 54.6457V54.4857H533.886C533.449 54.4857 533.097 54.5817 532.83 54.7737C532.563 54.955 532.43 55.227 532.43 55.5897C532.43 55.9523 532.569 56.2403 532.846 56.4537C533.123 56.667 533.502 56.7737 533.982 56.7737ZM544.005 58.1337C543.248 58.1337 542.56 57.9737 541.941 57.6537C541.333 57.3337 540.848 56.8697 540.485 56.2617C540.133 55.6537 539.957 54.923 539.957 54.0697V53.8617C539.957 53.0083 540.133 52.283 540.485 51.6857C540.848 51.0777 541.333 50.6137 541.941 50.2937C542.56 49.963 543.248 49.7977 544.005 49.7977C544.762 49.7977 545.408 49.9363 545.941 50.2137C546.474 50.491 546.901 50.859 547.221 51.3177C547.552 51.7763 547.765 52.283 547.861 52.8377L546.261 53.1737C546.208 52.8217 546.096 52.5017 545.925 52.2137C545.754 51.9257 545.514 51.6963 545.205 51.5257C544.896 51.355 544.506 51.2697 544.037 51.2697C543.578 51.2697 543.162 51.3763 542.789 51.5897C542.426 51.7923 542.138 52.091 541.925 52.4857C541.712 52.8697 541.605 53.339 541.605 53.8937V54.0377C541.605 54.5923 541.712 55.067 541.925 55.4617C542.138 55.8563 542.426 56.155 542.789 56.3577C543.162 56.5603 543.578 56.6617 544.037 56.6617C544.73 56.6617 545.258 56.4857 545.621 56.1337C545.984 55.771 546.213 55.3123 546.309 54.7577L547.909 55.1257C547.781 55.6697 547.552 56.171 547.221 56.6297C546.901 57.0883 546.474 57.4563 545.941 57.7337C545.408 58.0003 544.762 58.1337 544.005 58.1337ZM550.722 61.1097V59.6697H555.122C555.42 59.6697 555.57 59.5097 555.57 59.1897V56.7577H555.314C555.218 56.971 555.068 57.179 554.866 57.3817C554.674 57.5737 554.412 57.7337 554.082 57.8617C553.751 57.9897 553.335 58.0537 552.834 58.0537C552.236 58.0537 551.703 57.9203 551.234 57.6537C550.764 57.387 550.396 57.0083 550.13 56.5177C549.863 56.027 549.73 55.4457 549.73 54.7737V50.0217H551.378V54.6457C551.378 55.3283 551.548 55.835 551.89 56.1657C552.231 56.4857 552.706 56.6457 553.314 56.6457C553.986 56.6457 554.524 56.4217 554.93 55.9737C555.346 55.5257 555.554 54.875 555.554 54.0217V50.0217H557.202V59.5257C557.202 60.0057 557.058 60.3897 556.77 60.6777C556.492 60.9657 556.108 61.1097 555.618 61.1097H550.722Z" fill="#1E293B"/>
<rect x="462" y="86.9883" width="120.474" height="35.1103" rx="3.05307" fill="#191F4D" fill-opacity="0.1"/>
<path opacity="0.75" d="M487.902 110.543V99.3435H492.35C493.033 99.3435 493.641 99.4821 494.174 99.7595C494.718 100.026 495.14 100.41 495.438 100.911C495.748 101.402 495.902 101.994 495.902 102.687V102.895C495.902 103.589 495.742 104.186 495.422 104.687C495.113 105.189 494.692 105.573 494.158 105.839C493.625 106.106 493.022 106.239 492.35 106.239H489.63V110.543H487.902ZM489.63 104.671H492.174C492.782 104.671 493.268 104.511 493.63 104.191C493.993 103.871 494.174 103.434 494.174 102.879V102.719C494.174 102.154 493.993 101.711 493.63 101.391C493.268 101.071 492.782 100.911 492.174 100.911H489.63V104.671ZM497.591 110.543V102.655H499.207V103.583H499.463C499.591 103.253 499.794 103.013 500.071 102.863C500.359 102.703 500.711 102.623 501.127 102.623H502.071V104.111H501.063C500.53 104.111 500.092 104.261 499.751 104.559C499.41 104.847 499.239 105.295 499.239 105.903V110.543H497.591ZM507.113 110.767C506.313 110.767 505.615 110.602 505.017 110.271C504.42 109.93 503.951 109.455 503.609 108.847C503.279 108.229 503.113 107.514 503.113 106.703V106.511C503.113 105.69 503.279 104.975 503.609 104.367C503.94 103.749 504.399 103.274 504.985 102.943C505.583 102.602 506.271 102.431 507.049 102.431C507.807 102.431 508.468 102.602 509.033 102.943C509.609 103.274 510.057 103.738 510.377 104.335C510.697 104.933 510.857 105.631 510.857 106.431V107.055H504.793C504.815 107.749 505.044 108.303 505.481 108.719C505.929 109.125 506.484 109.327 507.145 109.327C507.764 109.327 508.228 109.189 508.537 108.911C508.857 108.634 509.103 108.314 509.273 107.951L510.633 108.655C510.484 108.954 510.265 109.269 509.977 109.599C509.7 109.93 509.332 110.207 508.873 110.431C508.415 110.655 507.828 110.767 507.113 110.767ZM504.809 105.791H509.177C509.135 105.194 508.921 104.73 508.537 104.399C508.153 104.058 507.652 103.887 507.033 103.887C506.415 103.887 505.908 104.058 505.513 104.399C505.129 104.73 504.895 105.194 504.809 105.791ZM516.505 110.767C515.748 110.767 515.06 110.607 514.441 110.287C513.833 109.967 513.348 109.503 512.985 108.895C512.633 108.287 512.457 107.557 512.457 106.703V106.495C512.457 105.642 512.633 104.917 512.985 104.319C513.348 103.711 513.833 103.247 514.441 102.927C515.06 102.597 515.748 102.431 516.505 102.431C517.262 102.431 517.908 102.57 518.441 102.847C518.974 103.125 519.401 103.493 519.721 103.951C520.052 104.41 520.265 104.917 520.361 105.471L518.761 105.807C518.708 105.455 518.596 105.135 518.425 104.847C518.254 104.559 518.014 104.33 517.705 104.159C517.396 103.989 517.006 103.903 516.537 103.903C516.078 103.903 515.662 104.01 515.289 104.223C514.926 104.426 514.638 104.725 514.425 105.119C514.212 105.503 514.105 105.973 514.105 106.527V106.671C514.105 107.226 514.212 107.701 514.425 108.095C514.638 108.49 514.926 108.789 515.289 108.991C515.662 109.194 516.078 109.295 516.537 109.295C517.23 109.295 517.758 109.119 518.121 108.767C518.484 108.405 518.713 107.946 518.809 107.391L520.409 107.759C520.281 108.303 520.052 108.805 519.721 109.263C519.401 109.722 518.974 110.09 518.441 110.367C517.908 110.634 517.262 110.767 516.505 110.767ZM522.31 110.543V102.655H523.958V110.543H522.31ZM523.142 101.583C522.822 101.583 522.55 101.482 522.326 101.279C522.112 101.066 522.006 100.794 522.006 100.463C522.006 100.133 522.112 99.8661 522.326 99.6635C522.55 99.4501 522.822 99.3435 523.142 99.3435C523.472 99.3435 523.744 99.4501 523.958 99.6635C524.171 99.8661 524.278 100.133 524.278 100.463C524.278 100.794 524.171 101.066 523.958 101.279C523.744 101.482 523.472 101.583 523.142 101.583ZM529.636 110.767C528.633 110.767 527.801 110.543 527.14 110.095C526.478 109.647 526.073 108.97 525.924 108.063L527.46 107.695C527.545 108.133 527.689 108.479 527.892 108.735C528.094 108.991 528.345 109.173 528.644 109.279C528.953 109.386 529.284 109.439 529.636 109.439C530.158 109.439 530.558 109.338 530.836 109.135C531.124 108.933 531.268 108.671 531.268 108.351C531.268 108.031 531.134 107.797 530.868 107.647C530.601 107.498 530.206 107.375 529.684 107.279L529.14 107.183C528.606 107.087 528.121 106.949 527.684 106.767C527.246 106.586 526.9 106.335 526.644 106.015C526.388 105.695 526.26 105.285 526.26 104.783C526.26 104.037 526.537 103.461 527.092 103.055C527.646 102.639 528.382 102.431 529.299 102.431C530.185 102.431 530.91 102.634 531.476 103.039C532.052 103.434 532.425 103.973 532.596 104.655L531.06 105.087C530.964 104.607 530.761 104.271 530.452 104.079C530.142 103.877 529.758 103.775 529.299 103.775C528.852 103.775 528.5 103.861 528.244 104.031C527.988 104.191 527.86 104.421 527.86 104.719C527.86 105.039 527.982 105.274 528.228 105.423C528.484 105.573 528.825 105.685 529.252 105.759L529.812 105.855C530.377 105.951 530.894 106.085 531.364 106.255C531.833 106.426 532.201 106.671 532.468 106.991C532.745 107.311 532.884 107.738 532.884 108.271C532.884 109.061 532.59 109.674 532.004 110.111C531.417 110.549 530.628 110.767 529.636 110.767ZM534.81 110.543V102.655H536.458V110.543H534.81ZM535.642 101.583C535.322 101.583 535.05 101.482 534.826 101.279C534.612 101.066 534.506 100.794 534.506 100.463C534.506 100.133 534.612 99.8661 534.826 99.6635C535.05 99.4501 535.322 99.3435 535.642 99.3435C535.972 99.3435 536.244 99.4501 536.458 99.6635C536.671 99.8661 536.778 100.133 536.778 100.463C536.778 100.794 536.671 101.066 536.458 101.279C536.244 101.482 535.972 101.583 535.642 101.583ZM542.6 110.767C541.81 110.767 541.106 110.607 540.488 110.287C539.88 109.957 539.4 109.487 539.048 108.879C538.696 108.271 538.52 107.551 538.52 106.719V106.479C538.52 105.647 538.696 104.933 539.048 104.335C539.4 103.727 539.88 103.258 540.488 102.927C541.106 102.597 541.81 102.431 542.6 102.431C543.389 102.431 544.093 102.597 544.712 102.927C545.33 103.258 545.816 103.727 546.168 104.335C546.52 104.933 546.696 105.647 546.696 106.479V106.719C546.696 107.551 546.52 108.271 546.168 108.879C545.816 109.487 545.33 109.957 544.712 110.287C544.093 110.607 543.389 110.767 542.6 110.767ZM542.6 109.295C543.325 109.295 543.912 109.066 544.36 108.607C544.818 108.138 545.048 107.493 545.048 106.671V106.527C545.048 105.706 544.824 105.066 544.376 104.607C543.928 104.138 543.336 103.903 542.6 103.903C541.885 103.903 541.298 104.138 540.84 104.607C540.392 105.066 540.168 105.706 540.168 106.527V106.671C540.168 107.493 540.392 108.138 540.84 108.607C541.298 109.066 541.885 109.295 542.6 109.295ZM548.747 110.543V102.655H550.363V103.839H550.619C550.769 103.519 551.035 103.221 551.419 102.943C551.803 102.666 552.374 102.527 553.131 102.527C553.729 102.527 554.257 102.661 554.715 102.927C555.185 103.194 555.553 103.573 555.819 104.063C556.086 104.543 556.219 105.125 556.219 105.807V110.543H554.571V105.935C554.571 105.253 554.401 104.751 554.059 104.431C553.718 104.101 553.249 103.935 552.651 103.935C551.969 103.935 551.419 104.159 551.003 104.607C550.598 105.055 550.395 105.706 550.395 106.559V110.543H548.747Z" fill="#1E293B"/>
<rect x="462" y="139.622" width="120.474" height="35.1103" rx="3.05307" fill="#191F4D" fill-opacity="0.2"/>
<path d="M491.402 163.177V151.977H498.314V153.545H493.13V156.777H497.898V158.345H493.13V163.177H491.402ZM502.94 163.177V153.161H502.684L500.844 156.937H499.068L501.548 151.977H504.62V163.177H502.94ZM514.835 163.401C513.993 163.401 513.246 163.252 512.595 162.953C511.945 162.655 511.433 162.217 511.059 161.641C510.697 161.055 510.515 160.345 510.515 159.513V159.113H512.227V159.513C512.227 160.303 512.462 160.895 512.931 161.289C513.411 161.684 514.046 161.881 514.835 161.881C515.635 161.881 516.238 161.716 516.643 161.385C517.049 161.044 517.251 160.607 517.251 160.073C517.251 159.721 517.155 159.433 516.963 159.209C516.771 158.985 516.499 158.809 516.147 158.681C515.795 158.543 515.374 158.415 514.883 158.297L514.291 158.153C513.577 157.983 512.953 157.775 512.419 157.529C511.897 157.273 511.491 156.937 511.203 156.521C510.915 156.105 510.771 155.572 510.771 154.921C510.771 154.26 510.931 153.695 511.251 153.225C511.582 152.756 512.035 152.393 512.611 152.137C513.187 151.881 513.865 151.753 514.643 151.753C515.422 151.753 516.115 151.887 516.723 152.153C517.342 152.42 517.827 152.815 518.179 153.337C518.531 153.86 518.707 154.516 518.707 155.305V155.881H516.995V155.305C516.995 154.825 516.894 154.436 516.691 154.137C516.499 153.839 516.227 153.62 515.875 153.481C515.523 153.343 515.113 153.273 514.643 153.273C513.961 153.273 513.427 153.417 513.043 153.705C512.67 153.983 512.483 154.372 512.483 154.873C512.483 155.215 512.563 155.497 512.723 155.721C512.894 155.935 513.139 156.111 513.459 156.249C513.779 156.388 514.179 156.511 514.659 156.617L515.251 156.761C515.977 156.921 516.617 157.129 517.171 157.385C517.726 157.631 518.163 157.967 518.483 158.393C518.803 158.82 518.963 159.369 518.963 160.041C518.963 160.713 518.793 161.3 518.451 161.801C518.121 162.303 517.646 162.697 517.027 162.985C516.409 163.263 515.678 163.401 514.835 163.401ZM524.489 163.401C523.732 163.401 523.044 163.241 522.425 162.921C521.817 162.601 521.332 162.137 520.969 161.529C520.617 160.921 520.441 160.191 520.441 159.337V159.129C520.441 158.276 520.617 157.551 520.969 156.953C521.332 156.345 521.817 155.881 522.425 155.561C523.044 155.231 523.732 155.065 524.489 155.065C525.247 155.065 525.892 155.204 526.425 155.481C526.959 155.759 527.385 156.127 527.705 156.585C528.036 157.044 528.249 157.551 528.345 158.105L526.745 158.441C526.692 158.089 526.58 157.769 526.409 157.481C526.239 157.193 525.999 156.964 525.689 156.793C525.38 156.623 524.991 156.537 524.521 156.537C524.063 156.537 523.647 156.644 523.273 156.857C522.911 157.06 522.623 157.359 522.409 157.753C522.196 158.137 522.089 158.607 522.089 159.161V159.305C522.089 159.86 522.196 160.335 522.409 160.729C522.623 161.124 522.911 161.423 523.273 161.625C523.647 161.828 524.063 161.929 524.521 161.929C525.215 161.929 525.743 161.753 526.105 161.401C526.468 161.039 526.697 160.58 526.793 160.025L528.393 160.393C528.265 160.937 528.036 161.439 527.705 161.897C527.385 162.356 526.959 162.724 526.425 163.001C525.892 163.268 525.247 163.401 524.489 163.401ZM533.99 163.401C533.201 163.401 532.497 163.241 531.878 162.921C531.27 162.591 530.79 162.121 530.438 161.513C530.086 160.905 529.91 160.185 529.91 159.353V159.113C529.91 158.281 530.086 157.567 530.438 156.969C530.79 156.361 531.27 155.892 531.878 155.561C532.497 155.231 533.201 155.065 533.99 155.065C534.779 155.065 535.483 155.231 536.102 155.561C536.721 155.892 537.206 156.361 537.558 156.969C537.91 157.567 538.086 158.281 538.086 159.113V159.353C538.086 160.185 537.91 160.905 537.558 161.513C537.206 162.121 536.721 162.591 536.102 162.921C535.483 163.241 534.779 163.401 533.99 163.401ZM533.99 161.929C534.715 161.929 535.302 161.7 535.75 161.241C536.209 160.772 536.438 160.127 536.438 159.305V159.161C536.438 158.34 536.214 157.7 535.766 157.241C535.318 156.772 534.726 156.537 533.99 156.537C533.275 156.537 532.689 156.772 532.23 157.241C531.782 157.7 531.558 158.34 531.558 159.161V159.305C531.558 160.127 531.782 160.772 532.23 161.241C532.689 161.7 533.275 161.929 533.99 161.929ZM540.138 163.177V155.289H541.754V156.217H542.01C542.138 155.887 542.341 155.647 542.618 155.497C542.906 155.337 543.258 155.257 543.674 155.257H544.618V156.745H543.61C543.077 156.745 542.639 156.895 542.298 157.193C541.957 157.481 541.786 157.929 541.786 158.537V163.177H540.138ZM549.66 163.401C548.86 163.401 548.161 163.236 547.564 162.905C546.967 162.564 546.497 162.089 546.156 161.481C545.825 160.863 545.66 160.148 545.66 159.337V159.145C545.66 158.324 545.825 157.609 546.156 157.001C546.487 156.383 546.945 155.908 547.532 155.577C548.129 155.236 548.817 155.065 549.596 155.065C550.353 155.065 551.015 155.236 551.58 155.577C552.156 155.908 552.604 156.372 552.924 156.969C553.244 157.567 553.404 158.265 553.404 159.065V159.689H547.34C547.361 160.383 547.591 160.937 548.028 161.353C548.476 161.759 549.031 161.961 549.692 161.961C550.311 161.961 550.775 161.823 551.084 161.545C551.404 161.268 551.649 160.948 551.82 160.585L553.18 161.289C553.031 161.588 552.812 161.903 552.524 162.233C552.247 162.564 551.879 162.841 551.42 163.065C550.961 163.289 550.375 163.401 549.66 163.401ZM547.356 158.425H551.724C551.681 157.828 551.468 157.364 551.084 157.033C550.7 156.692 550.199 156.521 549.58 156.521C548.961 156.521 548.455 156.692 548.06 157.033C547.676 157.364 547.441 157.828 547.356 158.425Z" fill="#1E293B"/>
<rect x="462" y="192.256" width="120.474" height="35.1103" rx="3.05307" fill="#191F4D" fill-opacity="0.1"/>
<path opacity="0.75" d="M499.902 215.811V204.611H504.606C505.3 204.611 505.908 204.734 506.43 204.979C506.964 205.214 507.374 205.555 507.662 206.003C507.961 206.451 508.11 206.984 508.11 207.603V207.779C508.11 208.483 507.94 209.048 507.598 209.475C507.268 209.891 506.862 210.184 506.382 210.355V210.611C506.788 210.632 507.113 210.771 507.358 211.027C507.604 211.272 507.726 211.63 507.726 212.099V215.811H505.982V212.339C505.982 212.051 505.908 211.822 505.758 211.651C505.609 211.48 505.369 211.395 505.038 211.395H501.63V215.811H499.902ZM501.63 209.827H504.414C505.033 209.827 505.513 209.672 505.854 209.363C506.196 209.043 506.366 208.611 506.366 208.067V207.939C506.366 207.395 506.196 206.968 505.854 206.659C505.524 206.339 505.044 206.179 504.414 206.179H501.63V209.827ZM513.676 216.035C512.876 216.035 512.177 215.87 511.58 215.539C510.982 215.198 510.513 214.723 510.172 214.115C509.841 213.496 509.676 212.782 509.676 211.971V211.779C509.676 210.958 509.841 210.243 510.172 209.635C510.502 209.016 510.961 208.542 511.548 208.211C512.145 207.87 512.833 207.699 513.612 207.699C514.369 207.699 515.03 207.87 515.596 208.211C516.172 208.542 516.62 209.006 516.94 209.603C517.26 210.2 517.42 210.899 517.42 211.699V212.323H511.356C511.377 213.016 511.606 213.571 512.044 213.987C512.492 214.392 513.046 214.595 513.708 214.595C514.326 214.595 514.79 214.456 515.1 214.179C515.42 213.902 515.665 213.582 515.836 213.219L517.196 213.923C517.046 214.222 516.828 214.536 516.54 214.867C516.262 215.198 515.894 215.475 515.436 215.699C514.977 215.923 514.39 216.035 513.676 216.035ZM511.372 211.059H515.74C515.697 210.462 515.484 209.998 515.1 209.667C514.716 209.326 514.214 209.155 513.596 209.155C512.977 209.155 512.47 209.326 512.076 209.667C511.692 209.998 511.457 210.462 511.372 211.059ZM523.068 216.035C522.31 216.035 521.622 215.875 521.004 215.555C520.396 215.235 519.91 214.771 519.548 214.163C519.196 213.555 519.02 212.824 519.02 211.971V211.763C519.02 210.91 519.196 210.184 519.548 209.587C519.91 208.979 520.396 208.515 521.004 208.195C521.622 207.864 522.31 207.699 523.068 207.699C523.825 207.699 524.47 207.838 525.004 208.115C525.537 208.392 525.964 208.76 526.284 209.219C526.614 209.678 526.828 210.184 526.924 210.739L525.324 211.075C525.27 210.723 525.158 210.403 524.988 210.115C524.817 209.827 524.577 209.598 524.268 209.427C523.958 209.256 523.569 209.171 523.1 209.171C522.641 209.171 522.225 209.278 521.852 209.491C521.489 209.694 521.201 209.992 520.988 210.387C520.774 210.771 520.668 211.24 520.668 211.795V211.939C520.668 212.494 520.774 212.968 520.988 213.363C521.201 213.758 521.489 214.056 521.852 214.259C522.225 214.462 522.641 214.563 523.1 214.563C523.793 214.563 524.321 214.387 524.684 214.035C525.046 213.672 525.276 213.214 525.372 212.659L526.972 213.027C526.844 213.571 526.614 214.072 526.284 214.531C525.964 214.99 525.537 215.358 525.004 215.635C524.47 215.902 523.825 216.035 523.068 216.035ZM531.32 216.035C530.755 216.035 530.248 215.939 529.8 215.747C529.363 215.555 529.011 215.272 528.744 214.899C528.488 214.526 528.36 214.072 528.36 213.539C528.36 212.995 528.488 212.547 528.744 212.195C529.011 211.832 529.368 211.56 529.816 211.379C530.275 211.198 530.792 211.107 531.368 211.107H533.768V210.595C533.768 210.136 533.63 209.768 533.352 209.491C533.075 209.214 532.648 209.075 532.072 209.075C531.507 209.075 531.075 209.208 530.776 209.475C530.478 209.742 530.28 210.088 530.184 210.515L528.648 210.019C528.776 209.592 528.979 209.208 529.256 208.867C529.544 208.515 529.923 208.232 530.392 208.019C530.862 207.806 531.427 207.699 532.088 207.699C533.112 207.699 533.918 207.96 534.504 208.483C535.091 209.006 535.384 209.747 535.384 210.707V213.955C535.384 214.275 535.534 214.435 535.832 214.435H536.504V215.811H535.272C534.899 215.811 534.595 215.715 534.36 215.523C534.126 215.331 534.008 215.07 534.008 214.739V214.691H533.768C533.683 214.851 533.555 215.038 533.384 215.251C533.214 215.464 532.963 215.651 532.632 215.811C532.302 215.96 531.864 216.035 531.32 216.035ZM531.56 214.675C532.222 214.675 532.755 214.488 533.16 214.115C533.566 213.731 533.768 213.208 533.768 212.547V212.387H531.464C531.027 212.387 530.675 212.483 530.408 212.675C530.142 212.856 530.008 213.128 530.008 213.491C530.008 213.854 530.147 214.142 530.424 214.355C530.702 214.568 531.08 214.675 531.56 214.675ZM538.107 215.811V204.611H539.755V215.811H538.107ZM542.2 215.811V204.611H543.848V215.811H542.2Z" fill="#1E293B"/>
<rect x="462" y="244.89" width="120.474" height="35.1103" rx="3.05307" fill="#191F4D" fill-opacity="0.05"/>
<path opacity="0.5" d="M507.402 268.445V257.245H512.106C512.8 257.245 513.408 257.367 513.93 257.613C514.464 257.847 514.874 258.189 515.162 258.637C515.461 259.085 515.61 259.618 515.61 260.237V260.413C515.61 261.117 515.44 261.682 515.098 262.109C514.768 262.525 514.362 262.818 513.882 262.989V263.245C514.288 263.266 514.613 263.405 514.858 263.661C515.104 263.906 515.226 264.263 515.226 264.733V268.445H513.482V264.973C513.482 264.685 513.408 264.455 513.258 264.285C513.109 264.114 512.869 264.029 512.538 264.029H509.13V268.445H507.402ZM509.13 262.461H511.914C512.533 262.461 513.013 262.306 513.354 261.997C513.696 261.677 513.866 261.245 513.866 260.701V260.573C513.866 260.029 513.696 259.602 513.354 259.293C513.024 258.973 512.544 258.813 511.914 258.813H509.13V262.461ZM521.72 268.669C520.344 268.669 519.25 268.285 518.44 267.517C517.629 266.738 517.224 265.618 517.224 264.157V261.533C517.224 260.071 517.629 258.957 518.44 258.189C519.25 257.41 520.344 257.021 521.72 257.021C523.096 257.021 524.189 257.41 525 258.189C525.821 258.957 526.232 260.071 526.232 261.533V264.157C526.232 265.618 525.821 266.738 525 267.517C524.189 268.285 523.096 268.669 521.72 268.669ZM521.72 267.117C522.605 267.117 523.288 266.861 523.768 266.349C524.248 265.826 524.488 265.117 524.488 264.221V261.469C524.488 260.573 524.248 259.869 523.768 259.357C523.288 258.834 522.605 258.573 521.72 258.573C520.856 258.573 520.178 258.834 519.688 259.357C519.197 259.869 518.952 260.573 518.952 261.469V264.221C518.952 265.117 519.197 265.826 519.688 266.349C520.178 266.861 520.856 267.117 521.72 267.117ZM532.437 268.669C531.072 268.669 529.989 268.285 529.189 267.517C528.389 266.738 527.989 265.618 527.989 264.157V261.533C527.989 260.071 528.389 258.957 529.189 258.189C529.989 257.41 531.072 257.021 532.437 257.021C533.781 257.021 534.816 257.394 535.541 258.141C536.277 258.887 536.645 259.906 536.645 261.197V261.293H534.933V261.149C534.933 260.391 534.725 259.773 534.309 259.293C533.904 258.813 533.28 258.573 532.437 258.573C531.584 258.573 530.917 258.834 530.437 259.357C529.957 259.869 529.717 260.583 529.717 261.501V264.189C529.717 265.095 529.957 265.81 530.437 266.333C530.917 266.855 531.584 267.117 532.437 267.117C533.28 267.117 533.904 266.877 534.309 266.397C534.725 265.906 534.933 265.287 534.933 264.541V264.269H536.645V264.493C536.645 265.783 536.277 266.802 535.541 267.549C534.816 268.295 533.781 268.669 532.437 268.669Z" fill="#1E293B"/>
<g clip-path="url(#clip0_3361_23421)">
<rect x="275.992" y="108.83" width="97.4661" height="98.5749" rx="48.733" fill="#191F4D"/>
<path d="M384.741 158.957C336.686 166.817 318.415 200.826 315.286 216.824C310.265 215.359 305.65 213.139 303.93 212.005C321.35 170.889 365.094 159.334 384.741 158.957Z" fill="white"/>
<path d="M384.443 154.351C335.775 159.88 294.998 177.674 288.374 197.291C284.569 192.683 282.22 187.523 281.609 186.003C317.218 160.986 364.775 154.72 384.443 154.351Z" fill="white"/>
<line x1="320.498" y1="198.396" x2="320.498" y2="217.378" stroke="white" stroke-width="2.94865"/>
<line x1="329.732" y1="186.231" x2="329.732" y2="217.929" stroke="white" stroke-width="2.94865"/>
<line x1="338.943" y1="177.846" x2="338.943" y2="217.929" stroke="white" stroke-width="2.94865"/>
<line x1="348.154" y1="170.936" x2="348.154" y2="216.824" stroke="white" stroke-width="2.94865"/>
<line x1="357.381" y1="165.777" x2="357.381" y2="213.508" stroke="white" stroke-width="2.94865"/>
<line x1="366.584" y1="163.011" x2="366.584" y2="209.176" stroke="white" stroke-width="2.94865"/>
</g>
<path d="M154.43 159.522L267.238 159.522" stroke="#FFDFA6" stroke-opacity="0.75" stroke-width="6.57133" stroke-linecap="round"/>
<path d="M383.328 158.114L452.327 158.114" stroke="#FFDFA6" stroke-opacity="0.75" stroke-width="6.57133" stroke-linecap="round"/>
<path d="M38.69 60.9104C37.9153 60.9104 37.248 60.7704 36.688 60.4904C36.1373 60.2104 35.708 59.809 35.4 59.2864C35.1013 58.7544 34.952 58.1104 34.952 57.3544V50.9144H36.478V57.3964C36.478 58.087 36.6693 58.619 37.052 58.9924C37.4347 59.3657 37.9807 59.5524 38.69 59.5524C39.3993 59.5524 39.9453 59.3657 40.328 58.9924C40.7107 58.619 40.902 58.087 40.902 57.3964V50.9144H42.414V57.3544C42.414 58.1104 42.2647 58.7544 41.966 59.2864C41.6673 59.809 41.238 60.2104 40.678 60.4904C40.118 60.7704 39.4553 60.9104 38.69 60.9104ZM47.2572 60.9104C46.3799 60.9104 45.6519 60.7144 45.0732 60.3224C44.4946 59.9304 44.1399 59.3377 44.0092 58.5444L45.3532 58.2224C45.4279 58.605 45.5539 58.9084 45.7312 59.1324C45.9086 59.3564 46.1279 59.515 46.3892 59.6084C46.6599 59.7017 46.9492 59.7484 47.2572 59.7484C47.7146 59.7484 48.0646 59.6597 48.3072 59.4824C48.5592 59.305 48.6852 59.0764 48.6852 58.7964C48.6852 58.5164 48.5686 58.311 48.3352 58.1804C48.1019 58.0497 47.7566 57.9424 47.2992 57.8584L46.8232 57.7744C46.3566 57.6904 45.9319 57.569 45.5492 57.4104C45.1666 57.2517 44.8632 57.0324 44.6392 56.7524C44.4152 56.4724 44.3032 56.113 44.3032 55.6744C44.3032 55.021 44.5459 54.517 45.0312 54.1624C45.5166 53.7984 46.1606 53.6164 46.9632 53.6164C47.7379 53.6164 48.3726 53.7937 48.8672 54.1484C49.3712 54.4937 49.6979 54.965 49.8472 55.5624L48.5032 55.9404C48.4192 55.5204 48.2419 55.2264 47.9712 55.0584C47.7006 54.881 47.3646 54.7924 46.9632 54.7924C46.5712 54.7924 46.2632 54.867 46.0392 55.0164C45.8152 55.1564 45.7032 55.357 45.7032 55.6184C45.7032 55.8984 45.8106 56.1037 46.0252 56.2344C46.2492 56.365 46.5479 56.463 46.9212 56.5284L47.4112 56.6124C47.9059 56.6964 48.3586 56.813 48.7692 56.9624C49.1799 57.1117 49.5019 57.3264 49.7352 57.6064C49.9779 57.8864 50.0992 58.2597 50.0992 58.7264C50.0992 59.417 49.8426 59.9537 49.3292 60.3364C48.8159 60.719 48.1252 60.9104 47.2572 60.9104ZM54.9487 60.9104C54.2487 60.9104 53.6374 60.7657 53.1147 60.4764C52.592 60.1777 52.1814 59.7624 51.8827 59.2304C51.5934 58.689 51.4487 58.0637 51.4487 57.3544V57.1864C51.4487 56.4677 51.5934 55.8424 51.8827 55.3104C52.172 54.769 52.5734 54.3537 53.0867 54.0644C53.6094 53.7657 54.2114 53.6164 54.8927 53.6164C55.5554 53.6164 56.134 53.7657 56.6287 54.0644C57.1327 54.3537 57.5247 54.7597 57.8047 55.2824C58.0847 55.805 58.2247 56.4164 58.2247 57.1164V57.6624H52.9187C52.9374 58.269 53.138 58.7544 53.5207 59.1184C53.9127 59.473 54.398 59.6504 54.9767 59.6504C55.518 59.6504 55.924 59.529 56.1947 59.2864C56.4747 59.0437 56.6894 58.7637 56.8387 58.4464L58.0287 59.0624C57.898 59.3237 57.7067 59.599 57.4547 59.8884C57.212 60.1777 56.89 60.4204 56.4887 60.6164C56.0874 60.8124 55.574 60.9104 54.9487 60.9104ZM52.9327 56.5564H56.7547C56.7174 56.0337 56.5307 55.6277 56.1947 55.3384C55.8587 55.0397 55.42 54.8904 54.8787 54.8904C54.3374 54.8904 53.894 55.0397 53.5487 55.3384C53.2127 55.6277 53.0074 56.0337 52.9327 56.5564ZM59.9605 60.7144V53.8124H61.3745V54.6244H61.5985C61.7105 54.335 61.8878 54.125 62.1305 53.9944C62.3825 53.8544 62.6905 53.7844 63.0545 53.7844H63.8805V55.0864H62.9985C62.5318 55.0864 62.1492 55.217 61.8505 55.4784C61.5518 55.7304 61.4025 56.1224 61.4025 56.6544V60.7144H59.9605ZM68.9009 60.7144V50.9144H70.4129V60.7144H68.9009ZM72.4976 60.7144V53.8124H73.9116V54.8484H74.1356C74.2663 54.5684 74.4996 54.307 74.8356 54.0644C75.1716 53.8217 75.6709 53.7004 76.3336 53.7004C76.8563 53.7004 77.3183 53.817 77.7196 54.0504C78.1303 54.2837 78.4523 54.615 78.6856 55.0444C78.9189 55.4644 79.0356 55.973 79.0356 56.5704V60.7144H77.5936V56.6824C77.5936 56.085 77.4443 55.6464 77.1456 55.3664C76.8469 55.077 76.4363 54.9324 75.9136 54.9324C75.3163 54.9324 74.8356 55.1284 74.4716 55.5204C74.1169 55.9124 73.9396 56.4817 73.9396 57.2284V60.7144H72.4976ZM81.1109 63.5144V53.8124H82.5249V54.8064H82.7489C82.9262 54.4984 83.1922 54.223 83.5469 53.9804C83.9109 53.7377 84.4289 53.6164 85.1009 53.6164C85.6795 53.6164 86.2069 53.7564 86.6829 54.0364C87.1682 54.3164 87.5555 54.7224 87.8449 55.2544C88.1435 55.777 88.2929 56.4117 88.2929 57.1584V57.3684C88.2929 58.115 88.1482 58.7544 87.8589 59.2864C87.5695 59.809 87.1822 60.2104 86.6969 60.4904C86.2115 60.7704 85.6795 60.9104 85.1009 60.9104C84.6529 60.9104 84.2749 60.8544 83.9669 60.7424C83.6589 60.6304 83.4115 60.4904 83.2249 60.3224C83.0382 60.145 82.8889 59.963 82.7769 59.7764H82.5529V63.5144H81.1109ZM84.6809 59.6504C85.3155 59.6504 85.8335 59.4497 86.2349 59.0484C86.6362 58.647 86.8369 58.073 86.8369 57.3264V57.2004C86.8369 56.463 86.6315 55.8937 86.2209 55.4924C85.8195 55.091 85.3062 54.8904 84.6809 54.8904C84.0649 54.8904 83.5515 55.091 83.1409 55.4924C82.7395 55.8937 82.5389 56.463 82.5389 57.2004V57.3264C82.5389 58.073 82.7395 58.647 83.1409 59.0484C83.5515 59.4497 84.0649 59.6504 84.6809 59.6504ZM92.7256 60.8404C92.203 60.8404 91.7363 60.7237 91.3256 60.4904C90.915 60.257 90.593 59.9257 90.3596 59.4964C90.1263 59.067 90.0096 58.5537 90.0096 57.9564V53.8124H91.4516V57.8584C91.4516 58.4557 91.601 58.899 91.8996 59.1884C92.1983 59.4684 92.6136 59.6084 93.1456 59.6084C93.7336 59.6084 94.205 59.4124 94.5596 59.0204C94.9236 58.619 95.1056 58.045 95.1056 57.2984V53.8124H96.5476V60.7144H95.1336V59.6784H94.9096C94.779 59.9584 94.5456 60.2244 94.2096 60.4764C93.8736 60.719 93.379 60.8404 92.7256 60.8404ZM101.269 60.7144C100.849 60.7144 100.513 60.5884 100.261 60.3364C100.019 60.0844 99.8972 59.7484 99.8972 59.3284V55.0304H97.9932V53.8124H99.8972V51.5304H101.339V53.8124H103.397V55.0304H101.339V59.0764C101.339 59.3564 101.47 59.4964 101.731 59.4964H103.173V60.7144H101.269ZM107.919 60.9104C107.042 60.9104 106.314 60.7144 105.735 60.3224C105.157 59.9304 104.802 59.3377 104.671 58.5444L106.015 58.2224C106.09 58.605 106.216 58.9084 106.393 59.1324C106.571 59.3564 106.79 59.515 107.051 59.6084C107.322 59.7017 107.611 59.7484 107.919 59.7484C108.377 59.7484 108.727 59.6597 108.969 59.4824C109.221 59.305 109.347 59.0764 109.347 58.7964C109.347 58.5164 109.231 58.311 108.997 58.1804C108.764 58.0497 108.419 57.9424 107.961 57.8584L107.485 57.7744C107.019 57.6904 106.594 57.569 106.211 57.4104C105.829 57.2517 105.525 57.0324 105.301 56.7524C105.077 56.4724 104.965 56.113 104.965 55.6744C104.965 55.021 105.208 54.517 105.693 54.1624C106.179 53.7984 106.823 53.6164 107.625 53.6164C108.4 53.6164 109.035 53.7937 109.529 54.1484C110.033 54.4937 110.36 54.965 110.509 55.5624L109.165 55.9404C109.081 55.5204 108.904 55.2264 108.633 55.0584C108.363 54.881 108.027 54.7924 107.625 54.7924C107.233 54.7924 106.925 54.867 106.701 55.0164C106.477 55.1564 106.365 55.357 106.365 55.6184C106.365 55.8984 106.473 56.1037 106.687 56.2344C106.911 56.365 107.21 56.463 107.583 56.5284L108.073 56.6124C108.568 56.6964 109.021 56.813 109.431 56.9624C109.842 57.1117 110.164 57.3264 110.397 57.6064C110.64 57.8864 110.761 58.2597 110.761 58.7264C110.761 59.417 110.505 59.9537 109.991 60.3364C109.478 60.719 108.787 60.9104 107.919 60.9104Z" fill="#475569"/>
<path d="M468.704 14.9108C467.5 14.9108 466.543 14.5748 465.834 13.9028C465.125 13.2215 464.77 12.2415 464.77 10.9628V8.66684C464.77 7.38818 465.125 6.41284 465.834 5.74084C466.543 5.05951 467.5 4.71884 468.704 4.71884C469.908 4.71884 470.865 5.05951 471.574 5.74084C472.293 6.41284 472.652 7.38818 472.652 8.66684V10.9628C472.652 12.2415 472.293 13.2215 471.574 13.9028C470.865 14.5748 469.908 14.9108 468.704 14.9108ZM468.704 13.5528C469.479 13.5528 470.076 13.3288 470.496 12.8808C470.916 12.4235 471.126 11.8028 471.126 11.0188V8.61084C471.126 7.82684 470.916 7.21084 470.496 6.76284C470.076 6.30551 469.479 6.07684 468.704 6.07684C467.948 6.07684 467.355 6.30551 466.926 6.76284C466.497 7.21084 466.282 7.82684 466.282 8.61084V11.0188C466.282 11.8028 466.497 12.4235 466.926 12.8808C467.355 13.3288 467.948 13.5528 468.704 13.5528ZM477.13 14.8408C476.607 14.8408 476.141 14.7242 475.73 14.4908C475.319 14.2575 474.997 13.9262 474.764 13.4968C474.531 13.0675 474.414 12.5542 474.414 11.9568V7.81284H475.856V11.8588C475.856 12.4562 476.005 12.8995 476.304 13.1888C476.603 13.4688 477.018 13.6088 477.55 13.6088C478.138 13.6088 478.609 13.4128 478.964 13.0208C479.328 12.6195 479.51 12.0455 479.51 11.2988V7.81284H480.952V14.7148H479.538V13.6788H479.314C479.183 13.9588 478.95 14.2248 478.614 14.4768C478.278 14.7195 477.783 14.8408 477.13 14.8408ZM485.674 14.7148C485.254 14.7148 484.918 14.5888 484.666 14.3368C484.423 14.0848 484.302 13.7488 484.302 13.3288V9.03084H482.398V7.81284H484.302V5.53084H485.744V7.81284H487.802V9.03084H485.744V13.0768C485.744 13.3568 485.874 13.4968 486.136 13.4968H487.578V14.7148H485.674ZM492.456 14.9108C491.793 14.9108 491.191 14.7708 490.65 14.4908C490.118 14.2108 489.693 13.8048 489.376 13.2728C489.068 12.7408 488.914 12.1015 488.914 11.3548V11.1728C488.914 10.4262 489.068 9.79151 489.376 9.26884C489.693 8.73684 490.118 8.33084 490.65 8.05084C491.191 7.76151 491.793 7.61684 492.456 7.61684C493.118 7.61684 493.683 7.73818 494.15 7.98084C494.616 8.22351 494.99 8.54551 495.27 8.94684C495.559 9.34818 495.746 9.79151 495.83 10.2768L494.43 10.5708C494.383 10.2628 494.285 9.98284 494.136 9.73084C493.986 9.47884 493.776 9.27818 493.506 9.12884C493.235 8.97951 492.894 8.90484 492.484 8.90484C492.082 8.90484 491.718 8.99818 491.392 9.18484C491.074 9.36218 490.822 9.62351 490.636 9.96884C490.449 10.3048 490.356 10.7155 490.356 11.2008V11.3268C490.356 11.8122 490.449 12.2275 490.636 12.5728C490.822 12.9182 491.074 13.1795 491.392 13.3568C491.718 13.5342 492.082 13.6228 492.484 13.6228C493.09 13.6228 493.552 13.4688 493.87 13.1608C494.187 12.8435 494.388 12.4422 494.472 11.9568L495.872 12.2788C495.76 12.7548 495.559 13.1935 495.27 13.5948C494.99 13.9962 494.616 14.3182 494.15 14.5608C493.683 14.7942 493.118 14.9108 492.456 14.9108ZM500.769 14.9108C500.078 14.9108 499.462 14.7708 498.921 14.4908C498.389 14.2015 497.969 13.7908 497.661 13.2588C497.353 12.7268 497.199 12.0968 497.199 11.3688V11.1588C497.199 10.4308 497.353 9.80551 497.661 9.28284C497.969 8.75084 498.389 8.34018 498.921 8.05084C499.462 7.76151 500.078 7.61684 500.769 7.61684C501.459 7.61684 502.075 7.76151 502.617 8.05084C503.158 8.34018 503.583 8.75084 503.891 9.28284C504.199 9.80551 504.353 10.4308 504.353 11.1588V11.3688C504.353 12.0968 504.199 12.7268 503.891 13.2588C503.583 13.7908 503.158 14.2015 502.617 14.4908C502.075 14.7708 501.459 14.9108 500.769 14.9108ZM500.769 13.6228C501.403 13.6228 501.917 13.4222 502.309 13.0208C502.71 12.6102 502.911 12.0455 502.911 11.3268V11.2008C502.911 10.4822 502.715 9.92218 502.323 9.52084C501.931 9.11018 501.413 8.90484 500.769 8.90484C500.143 8.90484 499.63 9.11018 499.229 9.52084C498.837 9.92218 498.641 10.4822 498.641 11.2008V11.3268C498.641 12.0455 498.837 12.6102 499.229 13.0208C499.63 13.4222 500.143 13.6228 500.769 13.6228ZM506.148 14.7148V7.81284H507.562V8.62484H507.786C507.917 8.38218 508.127 8.16751 508.416 7.98084C508.705 7.79418 509.097 7.70084 509.592 7.70084C510.105 7.70084 510.516 7.80818 510.824 8.02284C511.141 8.22818 511.379 8.49418 511.538 8.82084H511.762C511.921 8.50351 512.149 8.23751 512.448 8.02284C512.756 7.80818 513.19 7.70084 513.75 7.70084C514.198 7.70084 514.595 7.79418 514.94 7.98084C515.285 8.15818 515.561 8.42884 515.766 8.79284C515.971 9.14751 516.074 9.59084 516.074 10.1228V14.7148H514.632V10.2348C514.632 9.81484 514.515 9.49284 514.282 9.26884C514.058 9.03551 513.736 8.91884 513.316 8.91884C512.868 8.91884 512.509 9.06351 512.238 9.35284C511.967 9.64218 511.832 10.0575 511.832 10.5988V14.7148H510.39V10.2348C510.39 9.81484 510.273 9.49284 510.04 9.26884C509.816 9.03551 509.494 8.91884 509.074 8.91884C508.626 8.91884 508.267 9.06351 507.996 9.35284C507.725 9.64218 507.59 10.0575 507.59 10.5988V14.7148H506.148ZM521.316 14.9108C520.616 14.9108 520.005 14.7662 519.482 14.4768C518.959 14.1782 518.549 13.7628 518.25 13.2308C517.961 12.6895 517.816 12.0642 517.816 11.3548V11.1868C517.816 10.4682 517.961 9.84284 518.25 9.31084C518.539 8.76951 518.941 8.35418 519.454 8.06484C519.977 7.76618 520.579 7.61684 521.26 7.61684C521.923 7.61684 522.501 7.76618 522.996 8.06484C523.5 8.35418 523.892 8.76018 524.172 9.28284C524.452 9.80551 524.592 10.4168 524.592 11.1168V11.6628H519.286C519.305 12.2695 519.505 12.7548 519.888 13.1188C520.28 13.4735 520.765 13.6508 521.344 13.6508C521.885 13.6508 522.291 13.5295 522.562 13.2868C522.842 13.0442 523.057 12.7642 523.206 12.4468L524.396 13.0628C524.265 13.3242 524.074 13.5995 523.822 13.8888C523.579 14.1782 523.257 14.4208 522.856 14.6168C522.455 14.8128 521.941 14.9108 521.316 14.9108ZM519.3 10.5568H523.122C523.085 10.0342 522.898 9.62818 522.562 9.33884C522.226 9.04018 521.787 8.89084 521.246 8.89084C520.705 8.89084 520.261 9.04018 519.916 9.33884C519.58 9.62818 519.375 10.0342 519.3 10.5568ZM529.854 14.7148V4.91484H532.696L534.838 13.7068H535.062L537.204 4.91484H540.046V14.7148H538.576V5.97884H538.352L536.224 14.7148H533.676L531.548 5.97884H531.324V14.7148H529.854ZM545.296 14.9108C544.596 14.9108 543.985 14.7662 543.462 14.4768C542.94 14.1782 542.529 13.7628 542.23 13.2308C541.941 12.6895 541.796 12.0642 541.796 11.3548V11.1868C541.796 10.4682 541.941 9.84284 542.23 9.31084C542.52 8.76951 542.921 8.35418 543.434 8.06484C543.957 7.76618 544.559 7.61684 545.24 7.61684C545.903 7.61684 546.482 7.76618 546.976 8.06484C547.48 8.35418 547.872 8.76018 548.152 9.28284C548.432 9.80551 548.572 10.4168 548.572 11.1168V11.6628H543.266C543.285 12.2695 543.486 12.7548 543.868 13.1188C544.26 13.4735 544.746 13.6508 545.324 13.6508C545.866 13.6508 546.272 13.5295 546.542 13.2868C546.822 13.0442 547.037 12.7642 547.186 12.4468L548.376 13.0628C548.246 13.3242 548.054 13.5995 547.802 13.8888C547.56 14.1782 547.238 14.4208 546.836 14.6168C546.435 14.8128 545.922 14.9108 545.296 14.9108ZM543.28 10.5568H547.102C547.065 10.0342 546.878 9.62818 546.542 9.33884C546.206 9.04018 545.768 8.89084 545.226 8.89084C544.685 8.89084 544.242 9.04018 543.896 9.33884C543.56 9.62818 543.355 10.0342 543.28 10.5568ZM552.638 14.7148C552.218 14.7148 551.882 14.5888 551.63 14.3368C551.388 14.0848 551.266 13.7488 551.266 13.3288V9.03084H549.362V7.81284H551.266V5.53084H552.708V7.81284H554.766V9.03084H552.708V13.0768C552.708 13.3568 552.839 13.4968 553.1 13.4968H554.542V14.7148H552.638ZM556.46 14.7148V7.81284H557.874V8.62484H558.098C558.21 8.33551 558.388 8.12551 558.63 7.99484C558.882 7.85484 559.19 7.78484 559.554 7.78484H560.38V9.08684H559.498C559.032 9.08684 558.649 9.21751 558.35 9.47884C558.052 9.73084 557.902 10.1228 557.902 10.6548V14.7148H556.46ZM561.875 14.7148V7.81284H563.317V14.7148H561.875ZM562.603 6.87484C562.323 6.87484 562.085 6.78618 561.889 6.60884C561.702 6.42218 561.609 6.18418 561.609 5.89484C561.609 5.60551 561.702 5.37218 561.889 5.19484C562.085 5.00818 562.323 4.91484 562.603 4.91484C562.892 4.91484 563.13 5.00818 563.317 5.19484C563.503 5.37218 563.597 5.60551 563.597 5.89484C563.597 6.18418 563.503 6.42218 563.317 6.60884C563.13 6.78618 562.892 6.87484 562.603 6.87484ZM568.663 14.9108C568 14.9108 567.398 14.7708 566.857 14.4908C566.325 14.2108 565.9 13.8048 565.583 13.2728C565.275 12.7408 565.121 12.1015 565.121 11.3548V11.1728C565.121 10.4262 565.275 9.79151 565.583 9.26884C565.9 8.73684 566.325 8.33084 566.857 8.05084C567.398 7.76151 568 7.61684 568.663 7.61684C569.325 7.61684 569.89 7.73818 570.357 7.98084C570.823 8.22351 571.197 8.54551 571.477 8.94684C571.766 9.34818 571.953 9.79151 572.037 10.2768L570.637 10.5708C570.59 10.2628 570.492 9.98284 570.343 9.73084C570.193 9.47884 569.983 9.27818 569.713 9.12884C569.442 8.97951 569.101 8.90484 568.691 8.90484C568.289 8.90484 567.925 8.99818 567.599 9.18484C567.281 9.36218 567.029 9.62351 566.843 9.96884C566.656 10.3048 566.563 10.7155 566.563 11.2008V11.3268C566.563 11.8122 566.656 12.2275 566.843 12.5728C567.029 12.9182 567.281 13.1795 567.599 13.3568C567.925 13.5342 568.289 13.6228 568.691 13.6228C569.297 13.6228 569.759 13.4688 570.077 13.1608C570.394 12.8435 570.595 12.4422 570.679 11.9568L572.079 12.2788C571.967 12.7548 571.766 13.1935 571.477 13.5948C571.197 13.9962 570.823 14.3182 570.357 14.5608C569.89 14.7942 569.325 14.9108 568.663 14.9108ZM576.57 14.9108C575.692 14.9108 574.964 14.7148 574.386 14.3228C573.807 13.9308 573.452 13.3382 573.322 12.5448L574.666 12.2228C574.74 12.6055 574.866 12.9088 575.044 13.1328C575.221 13.3568 575.44 13.5155 575.702 13.6088C575.972 13.7022 576.262 13.7488 576.57 13.7488C577.027 13.7488 577.377 13.6602 577.62 13.4828C577.872 13.3055 577.998 13.0768 577.998 12.7968C577.998 12.5168 577.881 12.3115 577.648 12.1808C577.414 12.0502 577.069 11.9428 576.612 11.8588L576.136 11.7748C575.669 11.6908 575.244 11.5695 574.862 11.4108C574.479 11.2522 574.176 11.0328 573.952 10.7528C573.728 10.4728 573.616 10.1135 573.616 9.67484C573.616 9.02151 573.858 8.51751 574.344 8.16284C574.829 7.79884 575.473 7.61684 576.276 7.61684C577.05 7.61684 577.685 7.79418 578.18 8.14884C578.684 8.49418 579.01 8.96551 579.16 9.56284L577.816 9.94084C577.732 9.52084 577.554 9.22684 577.284 9.05884C577.013 8.88151 576.677 8.79284 576.276 8.79284C575.884 8.79284 575.576 8.86751 575.352 9.01684C575.128 9.15684 575.016 9.35751 575.016 9.61884C575.016 9.89884 575.123 10.1042 575.338 10.2348C575.562 10.3655 575.86 10.4635 576.234 10.5288L576.724 10.6128C577.218 10.6968 577.671 10.8135 578.082 10.9628C578.492 11.1122 578.814 11.3268 579.048 11.6068C579.29 11.8868 579.412 12.2602 579.412 12.7268C579.412 13.4175 579.155 13.9542 578.642 14.3368C578.128 14.7195 577.438 14.9108 576.57 14.9108Z" fill="#475569"/>
<defs>
<clipPath id="clip0_3361_23421">
<rect x="275.992" y="108.83" width="97.4661" height="98.5749" rx="48.733" fill="white"/>
</clipPath>
</defs>
</svg>
