<svg width="584" height="394" viewBox="0 0 584 394" fill="none" xmlns="http://www.w3.org/2000/svg">
<path d="M221.489 352.357C221.715 352.131 221.715 351.765 221.489 351.54L217.812 347.862C217.586 347.636 217.22 347.636 216.995 347.862C216.769 348.088 216.769 348.454 216.995 348.679L220.264 351.948L216.995 355.217C216.769 355.443 216.769 355.809 216.995 356.034C217.22 356.26 217.586 356.26 217.812 356.034L221.489 352.357ZM91.7656 352.526L95.3577 352.526L95.3577 351.37L91.7656 351.37L91.7656 352.526ZM102.542 352.526L109.726 352.526L109.726 351.37L102.542 351.37L102.542 352.526ZM116.91 352.526L124.094 352.526L124.094 351.37L116.91 351.37L116.91 352.526ZM131.279 352.526L138.463 352.526L138.463 351.37L131.279 351.37L131.279 352.526ZM145.647 352.526L152.831 352.526L152.831 351.37L145.647 351.37L145.647 352.526ZM160.015 352.526L167.2 352.526L167.2 351.37L160.015 351.37L160.015 352.526ZM174.384 352.526L181.568 352.526L181.568 351.37L174.384 351.37L174.384 352.526ZM188.752 352.526L195.936 352.526L195.936 351.37L188.752 351.37L188.752 352.526ZM203.12 352.526L210.305 352.526L210.305 351.37L203.12 351.37L203.12 352.526ZM217.489 352.526L221.081 352.526L221.081 351.37L217.489 351.37L217.489 352.526ZM221.898 352.765C222.349 352.314 222.349 351.582 221.898 351.131L214.543 343.776C214.092 343.325 213.36 343.325 212.909 343.776C212.457 344.227 212.457 344.959 212.909 345.41L219.446 351.948L212.909 358.486C212.457 358.937 212.457 359.669 212.909 360.121C213.36 360.572 214.092 360.572 214.543 360.121L221.898 352.765ZM91.7656 353.104L95.3577 353.104L95.3577 350.793L91.7656 350.793L91.7656 353.104ZM102.542 353.104L109.726 353.104L109.726 350.793L102.542 350.793L102.542 353.104ZM116.91 353.104L124.094 353.104L124.094 350.793L116.91 350.793L116.91 353.104ZM131.279 353.104L138.463 353.104L138.463 350.793L131.279 350.793L131.279 353.104ZM145.647 353.104L152.831 353.104L152.831 350.793L145.647 350.793L145.647 353.104ZM160.015 353.104L167.2 353.104L167.2 350.793L160.015 350.793L160.015 353.104ZM174.384 353.104L181.568 353.104L181.568 350.793L174.384 350.793L174.384 353.104ZM188.752 353.104L195.936 353.104L195.936 350.793L188.752 350.793L188.752 353.104ZM203.12 353.104L210.305 353.104L210.305 350.793L203.12 350.793L203.12 353.104ZM217.489 353.104L221.081 353.104L221.081 350.793L217.489 350.793L217.489 353.104Z" fill="#475569"/>
<g clip-path="url(#clip0_3361_23265)">
<rect x="246.109" y="303.165" width="88.9921" height="90.0045" rx="44.4961" fill="#191F4D"/>
<path d="M345.403 348.934C301.526 356.111 284.843 387.162 281.987 401.77C277.402 400.433 273.188 398.405 271.617 397.37C287.523 359.829 327.463 349.279 345.403 348.934Z" fill="white"/>
<path d="M345.128 344.729C300.69 349.777 263.459 366.024 257.411 383.935C253.937 379.728 251.792 375.017 251.234 373.629C283.747 350.786 327.17 345.065 345.128 344.729Z" fill="white"/>
<line x1="286.745" y1="384.944" x2="286.745" y2="402.275" stroke="white" stroke-width="2.69228"/>
<line x1="295.174" y1="373.837" x2="295.174" y2="402.779" stroke="white" stroke-width="2.69228"/>
<line x1="303.581" y1="366.18" x2="303.581" y2="402.778" stroke="white" stroke-width="2.69228"/>
<line x1="311.995" y1="359.872" x2="311.995" y2="401.77" stroke="white" stroke-width="2.69228"/>
<line x1="320.416" y1="355.161" x2="320.416" y2="398.742" stroke="white" stroke-width="2.69228"/>
<line x1="328.823" y1="352.636" x2="328.823" y2="394.787" stroke="white" stroke-width="2.69228"/>
</g>
<ellipse cx="42.0016" cy="352.621" rx="39.8923" ry="40.3461" fill="#FCE4C0"/>
<path fill-rule="evenodd" clip-rule="evenodd" d="M41.3853 340.369C51.3586 340.369 59.4435 348.546 59.4435 358.633C59.4435 368.72 55.8731 379.94 45.8998 379.94C38.4177 379.94 29.4575 373.625 25.4481 366.211C25.2456 366.232 25.04 366.243 24.8319 366.243C21.5075 366.243 18.8125 363.517 18.8125 360.155C18.8125 357.121 21.0065 354.606 23.8772 354.143C25.8552 346.227 32.9438 340.369 41.3853 340.369ZM23.6174 359.055L24.2406 361.407L23.6174 359.055Z" fill="white"/>
<path d="M23.6174 359.055L24.2406 361.407M41.3853 340.369C51.3586 340.369 59.4435 348.546 59.4435 358.633C59.4435 368.72 55.8731 379.94 45.8998 379.94C38.4177 379.94 29.4575 373.625 25.4481 366.211C25.2456 366.232 25.04 366.243 24.8319 366.243C21.5075 366.243 18.8125 363.517 18.8125 360.155C18.8125 357.121 21.0065 354.606 23.8772 354.143C25.8552 346.227 32.9438 340.369 41.3853 340.369Z" stroke="#1E293B" stroke-width="2.19164" stroke-linecap="round" stroke-linejoin="round"/>
<path d="M48.8281 354.9C50.3877 358.881 51.2509 361.13 51.4177 361.649C51.5845 362.168 51.5398 362.717 51.2836 363.297" stroke="#1E293B" stroke-width="1.46109" stroke-linecap="round" stroke-linejoin="round"/>
<path d="M42.6797 369.288C44.6458 370.404 46.7526 370.962 49.0001 370.962C51.2476 370.962 52.7524 370.404 53.5146 369.288" stroke="#1E293B" stroke-width="1.46109" stroke-linecap="round" stroke-linejoin="round"/>
<path fill-rule="evenodd" clip-rule="evenodd" d="M44.2433 350.795C45.2407 350.795 46.0491 351.613 46.0491 352.622C46.0491 353.63 45.2407 354.448 44.2433 354.448C43.246 354.448 42.4375 353.63 42.4375 352.622C42.4375 351.613 43.246 350.795 44.2433 350.795ZM54.6268 350.795C55.6241 350.795 56.4326 351.613 56.4326 352.622C56.4326 353.63 55.6241 354.448 54.6268 354.448C53.6295 354.448 52.821 353.63 52.821 352.622C52.821 351.613 53.6295 350.795 54.6268 350.795ZM43.6414 351.556C43.392 351.556 43.1899 351.761 43.1899 352.013C43.1899 352.265 43.392 352.47 43.6414 352.47C43.8907 352.47 44.0928 352.265 44.0928 352.013C44.0928 351.761 43.8907 351.556 43.6414 351.556ZM54.0249 351.556C53.7755 351.556 53.5734 351.761 53.5734 352.013C53.5734 352.265 53.7755 352.47 54.0249 352.47C54.2742 352.47 54.4763 352.265 54.4763 352.013C54.4763 351.761 54.2742 351.556 54.0249 351.556Z" fill="#1E293B"/>
<path d="M41.1167 350.269C42.0969 349.867 42.9382 349.612 43.6405 349.505C44.3428 349.398 45.1968 349.395 46.2025 349.496" stroke="#1E293B" stroke-width="1.46109" stroke-linecap="round" stroke-linejoin="round"/>
<path d="M57.7973 350.269C56.8171 349.867 55.9759 349.612 55.2736 349.505C54.5713 349.398 53.7173 349.395 52.7116 349.496" stroke="#1E293B" stroke-width="1.46109" stroke-linecap="round" stroke-linejoin="round"/>
<path fill-rule="evenodd" clip-rule="evenodd" d="M22.9834 354.511H26.0661L28.9166 361.373C30.239 355.252 30.9003 351.745 30.9003 350.852C30.9003 349.96 30.5725 348.153 29.917 345.433C30.9851 344.437 31.8053 343.993 32.3777 344.099C33.5894 344.324 39.8358 346.366 42.8134 346.61C46.8521 346.942 51.9098 345.866 53.8971 345.361C58.0064 344.317 59.8411 340.806 59.4012 334.829C57.3854 335.653 55.4253 335.92 53.5209 335.631C50.6643 335.198 46.4217 332.921 43.115 332.241C38.4943 331.29 35.2001 331.175 33.5393 331.705C30.3725 332.717 28.1356 336.124 26.8287 341.927C24.3154 342.76 22.7572 343.98 22.154 345.586C21.5508 347.193 21.8272 350.168 22.9834 354.511Z" fill="#1E293B" stroke="#1E293B" stroke-width="1.09582" stroke-linecap="round" stroke-linejoin="round"/>
<rect x="98.7266" y="298.983" width="90.3816" height="32.0577" rx="2.78763" fill="#E2E8F0"/>
<path d="M111.096 320.559V308.851H116.013C116.738 308.851 117.374 308.979 117.92 309.235C118.478 309.481 118.907 309.837 119.208 310.306C119.52 310.774 119.676 311.332 119.676 311.978V312.162C119.676 312.898 119.498 313.489 119.141 313.935C118.795 314.37 118.372 314.677 117.87 314.855V315.123C118.294 315.145 118.634 315.29 118.89 315.558C119.147 315.814 119.275 316.188 119.275 316.678V320.559H117.452V316.929C117.452 316.628 117.374 316.388 117.218 316.21C117.061 316.031 116.811 315.942 116.465 315.942H112.902V320.559H111.096ZM112.902 314.303H115.813C116.459 314.303 116.961 314.141 117.318 313.818C117.675 313.484 117.853 313.032 117.853 312.463V312.33C117.853 311.761 117.675 311.315 117.318 310.991C116.972 310.657 116.471 310.49 115.813 310.49H112.902V314.303ZM125.494 320.793C124.658 320.793 123.927 320.62 123.303 320.274C122.679 319.917 122.188 319.421 121.831 318.786C121.486 318.139 121.313 317.392 121.313 316.544V316.344C121.313 315.485 121.486 314.738 121.831 314.102C122.177 313.456 122.656 312.96 123.27 312.614C123.894 312.257 124.613 312.079 125.427 312.079C126.219 312.079 126.91 312.257 127.501 312.614C128.103 312.96 128.572 313.445 128.906 314.069C129.241 314.693 129.408 315.424 129.408 316.26V316.912H123.069C123.091 317.637 123.331 318.217 123.788 318.652C124.256 319.076 124.836 319.287 125.528 319.287C126.174 319.287 126.659 319.142 126.983 318.853C127.317 318.563 127.574 318.228 127.752 317.849L129.174 318.585C129.018 318.897 128.789 319.226 128.488 319.572C128.198 319.917 127.813 320.207 127.334 320.442C126.854 320.676 126.241 320.793 125.494 320.793ZM123.086 315.591H127.652C127.607 314.967 127.384 314.482 126.983 314.136C126.581 313.779 126.057 313.601 125.41 313.601C124.764 313.601 124.234 313.779 123.822 314.136C123.42 314.482 123.175 314.967 123.086 315.591ZM131.08 316.478V316.227C131.08 315.357 131.253 314.615 131.599 314.002C131.956 313.389 132.424 312.915 133.004 312.58C133.584 312.246 134.219 312.079 134.91 312.079C135.713 312.079 136.327 312.229 136.75 312.53C137.185 312.831 137.503 313.155 137.704 313.5H137.971V312.313H139.644V322.248C139.644 322.75 139.493 323.151 139.192 323.452C138.902 323.753 138.501 323.904 137.988 323.904H132.435V322.398H137.453C137.776 322.398 137.938 322.231 137.938 321.897V319.271H137.67C137.548 319.471 137.375 319.678 137.152 319.89C136.929 320.101 136.633 320.274 136.265 320.408C135.908 320.542 135.457 320.609 134.91 320.609C134.219 320.609 133.578 320.447 132.987 320.124C132.407 319.789 131.944 319.315 131.599 318.702C131.253 318.078 131.08 317.336 131.08 316.478ZM135.379 319.103C136.126 319.103 136.739 318.869 137.219 318.401C137.709 317.921 137.955 317.264 137.955 316.427V316.277C137.955 315.418 137.715 314.76 137.235 314.303C136.756 313.835 136.137 313.601 135.379 313.601C134.643 313.601 134.03 313.835 133.539 314.303C133.059 314.76 132.82 315.418 132.82 316.277V316.427C132.82 317.264 133.059 317.921 133.539 318.401C134.03 318.869 134.643 319.103 135.379 319.103ZM142.18 320.559V312.313H143.903V320.559H142.18ZM143.05 311.192C142.715 311.192 142.431 311.086 142.197 310.874C141.974 310.651 141.862 310.367 141.862 310.021C141.862 309.676 141.974 309.397 142.197 309.185C142.431 308.962 142.715 308.851 143.05 308.851C143.396 308.851 143.68 308.962 143.903 309.185C144.126 309.397 144.238 309.676 144.238 310.021C144.238 310.367 144.126 310.651 143.903 310.874C143.68 311.086 143.396 311.192 143.05 311.192ZM149.838 320.793C148.79 320.793 147.92 320.559 147.229 320.09C146.538 319.622 146.114 318.914 145.958 317.966L147.564 317.581C147.653 318.039 147.803 318.401 148.015 318.669C148.227 318.936 148.489 319.126 148.801 319.237C149.125 319.349 149.47 319.405 149.838 319.405C150.385 319.405 150.803 319.299 151.093 319.087C151.394 318.875 151.544 318.602 151.544 318.267C151.544 317.933 151.405 317.687 151.126 317.531C150.847 317.375 150.435 317.247 149.888 317.147L149.32 317.046C148.762 316.946 148.255 316.801 147.798 316.611C147.341 316.422 146.978 316.16 146.711 315.825C146.443 315.491 146.309 315.061 146.309 314.537C146.309 313.757 146.599 313.155 147.179 312.731C147.759 312.296 148.528 312.079 149.487 312.079C150.413 312.079 151.171 312.29 151.762 312.714C152.364 313.127 152.754 313.69 152.933 314.404L151.327 314.855C151.227 314.353 151.015 314.002 150.691 313.801C150.368 313.59 149.967 313.484 149.487 313.484C149.019 313.484 148.651 313.573 148.383 313.751C148.116 313.918 147.982 314.158 147.982 314.47C147.982 314.805 148.11 315.05 148.366 315.206C148.634 315.362 148.991 315.48 149.437 315.558L150.022 315.658C150.613 315.758 151.154 315.898 151.645 316.076C152.135 316.254 152.52 316.511 152.799 316.845C153.089 317.18 153.234 317.626 153.234 318.184C153.234 319.009 152.927 319.65 152.314 320.107C151.7 320.564 150.875 320.793 149.838 320.793ZM158.162 320.559C157.66 320.559 157.259 320.408 156.958 320.107C156.668 319.806 156.523 319.405 156.523 318.903V313.768H154.248V312.313H156.523V309.586H158.245V312.313H160.704V313.768H158.245V318.602C158.245 318.936 158.402 319.103 158.714 319.103H160.437V320.559H158.162ZM166.214 320.793C165.378 320.793 164.647 320.62 164.023 320.274C163.399 319.917 162.908 319.421 162.551 318.786C162.206 318.139 162.033 317.392 162.033 316.544V316.344C162.033 315.485 162.206 314.738 162.551 314.102C162.897 313.456 163.376 312.96 163.99 312.614C164.614 312.257 165.333 312.079 166.147 312.079C166.939 312.079 167.63 312.257 168.221 312.614C168.823 312.96 169.292 313.445 169.626 314.069C169.961 314.693 170.128 315.424 170.128 316.26V316.912H163.789C163.811 317.637 164.051 318.217 164.508 318.652C164.976 319.076 165.556 319.287 166.248 319.287C166.894 319.287 167.379 319.142 167.703 318.853C168.037 318.563 168.294 318.228 168.472 317.849L169.894 318.585C169.738 318.897 169.509 319.226 169.208 319.572C168.918 319.917 168.533 320.207 168.054 320.442C167.574 320.676 166.961 320.793 166.214 320.793ZM163.806 315.591H168.372C168.327 314.967 168.104 314.482 167.703 314.136C167.301 313.779 166.777 313.601 166.131 313.601C165.484 313.601 164.954 313.779 164.542 314.136C164.14 314.482 163.895 314.967 163.806 315.591ZM172.202 320.559V312.313H173.891V313.283H174.159C174.292 312.937 174.504 312.686 174.794 312.53C175.095 312.363 175.463 312.279 175.898 312.279H176.885V313.835H175.831C175.274 313.835 174.816 313.991 174.46 314.303C174.103 314.604 173.924 315.073 173.924 315.708V320.559H172.202Z" fill="#475569"/>
<rect x="396.281" y="298.983" width="68.1338" height="32.0577" rx="2.78763" fill="#E2E8F0"/>
<path d="M408.651 320.559V308.851H415.876V310.49H410.457V313.868H415.441V315.507H410.457V320.559H408.651ZM421.383 320.793C420.546 320.793 419.816 320.62 419.192 320.274C418.567 319.917 418.077 319.421 417.72 318.786C417.374 318.139 417.201 317.392 417.201 316.544V316.344C417.201 315.485 417.374 314.738 417.72 314.102C418.065 313.456 418.545 312.96 419.158 312.614C419.783 312.257 420.502 312.079 421.316 312.079C422.108 312.079 422.799 312.257 423.39 312.614C423.992 312.96 424.46 313.445 424.795 314.069C425.129 314.693 425.297 315.424 425.297 316.26V316.912H418.958C418.98 317.637 419.22 318.217 419.677 318.652C420.145 319.076 420.725 319.287 421.416 319.287C422.063 319.287 422.548 319.142 422.871 318.853C423.206 318.563 423.462 318.228 423.641 317.849L425.062 318.585C424.906 318.897 424.678 319.226 424.377 319.572C424.087 319.917 423.702 320.207 423.223 320.442C422.743 320.676 422.13 320.793 421.383 320.793ZM418.974 315.591H423.54C423.496 314.967 423.273 314.482 422.871 314.136C422.47 313.779 421.946 313.601 421.299 313.601C420.652 313.601 420.123 313.779 419.71 314.136C419.309 314.482 419.063 314.967 418.974 315.591ZM430.154 320.559C429.652 320.559 429.251 320.408 428.95 320.107C428.66 319.806 428.515 319.405 428.515 318.903V313.768H426.24V312.313H428.515V309.586H430.238V312.313H432.697V313.768H430.238V318.602C430.238 318.936 430.394 319.103 430.706 319.103H432.429V320.559H430.154ZM438.257 320.793C437.465 320.793 436.746 320.625 436.099 320.291C435.463 319.956 434.956 319.471 434.577 318.836C434.209 318.2 434.025 317.436 434.025 316.544V316.327C434.025 315.435 434.209 314.677 434.577 314.052C434.956 313.417 435.463 312.932 436.099 312.597C436.746 312.251 437.465 312.079 438.257 312.079C439.048 312.079 439.723 312.224 440.281 312.514C440.838 312.803 441.284 313.188 441.619 313.668C441.964 314.147 442.187 314.677 442.288 315.257L440.615 315.608C440.559 315.24 440.442 314.905 440.264 314.604C440.085 314.303 439.834 314.063 439.511 313.885C439.188 313.707 438.781 313.617 438.29 313.617C437.811 313.617 437.376 313.729 436.986 313.952C436.606 314.164 436.305 314.476 436.082 314.889C435.859 315.29 435.748 315.781 435.748 316.36V316.511C435.748 317.091 435.859 317.587 436.082 318C436.305 318.412 436.606 318.724 436.986 318.936C437.376 319.148 437.811 319.254 438.29 319.254C439.015 319.254 439.567 319.07 439.946 318.702C440.325 318.323 440.565 317.843 440.665 317.264L442.338 317.648C442.204 318.217 441.964 318.741 441.619 319.221C441.284 319.7 440.838 320.085 440.281 320.375C439.723 320.653 439.048 320.793 438.257 320.793ZM444.325 320.559V308.851H446.047V313.484H446.315C446.427 313.272 446.583 313.065 446.783 312.865C446.995 312.664 447.268 312.502 447.603 312.38C447.949 312.246 448.384 312.179 448.908 312.179C449.532 312.179 450.084 312.318 450.563 312.597C451.054 312.876 451.439 313.272 451.718 313.785C451.996 314.286 452.136 314.894 452.136 315.608V320.559H450.413V315.742C450.413 315.028 450.235 314.504 449.878 314.169C449.521 313.824 449.03 313.651 448.406 313.651C447.692 313.651 447.118 313.885 446.683 314.353C446.259 314.822 446.047 315.502 446.047 316.394V320.559H444.325Z" fill="#475569"/>
<path d="M494.409 352.409C494.634 352.183 494.634 351.817 494.409 351.591L490.731 347.914C490.505 347.688 490.14 347.688 489.914 347.914C489.688 348.14 489.688 348.505 489.914 348.731L493.183 352L489.914 355.269C489.688 355.495 489.688 355.86 489.914 356.086C490.14 356.312 490.505 356.312 490.731 356.086L494.409 352.409ZM353 352.578L356.525 352.578L356.525 351.422L353 351.422L353 352.578ZM363.575 352.578L370.625 352.578L370.625 351.422L363.575 351.422L363.575 352.578ZM377.675 352.578L384.725 352.578L384.725 351.422L377.675 351.422L377.675 352.578ZM391.775 352.578L398.825 352.578L398.825 351.422L391.775 351.422L391.775 352.578ZM405.875 352.578L412.925 352.578L412.925 351.422L405.875 351.422L405.875 352.578ZM419.975 352.578L427.025 352.578L427.025 351.422L419.975 351.422L419.975 352.578ZM434.075 352.578L441.125 352.578L441.125 351.422L434.075 351.422L434.075 352.578ZM448.175 352.578L455.225 352.578L455.225 351.422L448.175 351.422L448.175 352.578ZM462.275 352.578L469.325 352.578L469.325 351.422L462.275 351.422L462.275 352.578ZM476.375 352.578L483.425 352.578L483.425 351.422L476.375 351.422L476.375 352.578ZM490.475 352.578L494 352.578L494 351.422L490.475 351.422L490.475 352.578ZM494.817 352.817C495.269 352.366 495.269 351.634 494.817 351.183L487.462 343.828C487.011 343.376 486.279 343.376 485.828 343.828C485.376 344.279 485.376 345.011 485.828 345.462L492.366 352L485.828 358.538C485.376 358.989 485.376 359.721 485.828 360.172C486.279 360.624 487.011 360.624 487.462 360.172L494.817 352.817ZM353 353.156L356.525 353.156L356.525 350.844L353 350.844L353 353.156ZM363.575 353.156L370.625 353.156L370.625 350.844L363.575 350.844L363.575 353.156ZM377.675 353.156L384.725 353.156L384.725 350.844L377.675 350.844L377.675 353.156ZM391.775 353.156L398.825 353.156L398.825 350.844L391.775 350.844L391.775 353.156ZM405.875 353.156L412.925 353.156L412.925 350.844L405.875 350.844L405.875 353.156ZM419.975 353.156L427.025 353.156L427.025 350.844L419.975 350.844L419.975 353.156ZM434.075 353.156L441.125 353.156L441.125 350.844L434.075 350.844L434.075 353.156ZM448.175 353.156L455.225 353.156L455.225 350.844L448.175 350.844L448.175 353.156ZM462.275 353.156L469.325 353.156L469.325 350.844L462.275 350.844L462.275 353.156ZM476.375 353.156L483.425 353.156L483.425 350.844L476.375 350.844L476.375 353.156ZM490.475 353.156L494 353.156L494 350.844L490.475 350.844L490.475 353.156Z" fill="#475569"/>
<ellipse cx="39.8923" cy="40.3461" rx="39.8923" ry="40.3461" transform="matrix(-1 0 0 1 583.273 312.275)" fill="#FCE4C0"/>
<path fill-rule="evenodd" clip-rule="evenodd" d="M543.99 340.369C534.016 340.369 525.931 348.546 525.931 358.632C525.931 368.719 529.502 379.94 539.475 379.94C546.957 379.94 555.917 373.625 559.927 366.211C560.129 366.232 560.335 366.242 560.543 366.242C563.868 366.242 566.562 363.517 566.562 360.154C566.562 357.121 564.369 354.605 561.498 354.143C559.52 346.227 552.431 340.369 543.99 340.369ZM561.758 359.054L561.134 361.406L561.758 359.054Z" fill="white"/>
<path d="M561.758 359.054L561.134 361.406M543.99 340.369C534.016 340.369 525.931 348.546 525.931 358.632C525.931 368.719 529.502 379.94 539.475 379.94C546.957 379.94 555.917 373.625 559.927 366.211C560.129 366.232 560.335 366.242 560.543 366.242C563.868 366.242 566.562 363.517 566.562 360.154C566.562 357.121 564.369 354.605 561.498 354.143C559.52 346.227 552.431 340.369 543.99 340.369Z" stroke="#1E293B" stroke-width="2.19164" stroke-linecap="round" stroke-linejoin="round"/>
<path d="M536.547 354.9C534.987 358.88 534.124 361.13 533.957 361.648C533.791 362.167 533.835 362.716 534.091 363.296" stroke="#1E293B" stroke-width="1.46109" stroke-linecap="round" stroke-linejoin="round"/>
<path d="M542.695 369.288C540.729 370.404 538.622 370.962 536.375 370.962C534.127 370.962 532.623 370.404 531.86 369.288" stroke="#1E293B" stroke-width="1.46109" stroke-linecap="round" stroke-linejoin="round"/>
<path fill-rule="evenodd" clip-rule="evenodd" d="M541.132 350.795C540.134 350.795 539.326 351.613 539.326 352.621C539.326 353.63 540.134 354.448 541.132 354.448C542.129 354.448 542.938 353.63 542.938 352.621C542.938 351.613 542.129 350.795 541.132 350.795ZM530.748 350.795C529.751 350.795 528.942 351.613 528.942 352.621C528.942 353.63 529.751 354.448 530.748 354.448C531.746 354.448 532.554 353.63 532.554 352.621C532.554 351.613 531.746 350.795 530.748 350.795ZM541.734 351.556C541.983 351.556 542.185 351.76 542.185 352.012C542.185 352.265 541.983 352.469 541.734 352.469C541.484 352.469 541.282 352.265 541.282 352.012C541.282 351.76 541.484 351.556 541.734 351.556ZM531.35 351.556C531.599 351.556 531.802 351.76 531.802 352.012C531.802 352.265 531.599 352.469 531.35 352.469C531.101 352.469 530.899 352.265 530.899 352.012C530.899 351.76 531.101 351.556 531.35 351.556Z" fill="#1E293B"/>
<path d="M544.258 350.269C543.278 349.866 542.437 349.611 541.735 349.504C541.032 349.398 540.178 349.394 539.173 349.495" stroke="#1E293B" stroke-width="1.46109" stroke-linecap="round" stroke-linejoin="round"/>
<path d="M527.578 350.269C528.558 349.866 529.399 349.611 530.101 349.504C530.804 349.398 531.658 349.394 532.663 349.495" stroke="#1E293B" stroke-width="1.46109" stroke-linecap="round" stroke-linejoin="round"/>
<path fill-rule="evenodd" clip-rule="evenodd" d="M562.392 354.511H559.309L556.458 361.373C555.136 355.251 554.475 351.744 554.475 350.852C554.475 349.959 554.802 348.153 555.458 345.432C554.39 344.437 553.57 343.992 552.997 344.099C551.786 344.324 545.539 346.365 542.562 346.61C538.523 346.941 533.465 345.865 531.478 345.36C527.369 344.316 525.534 340.806 525.974 334.829C527.99 335.652 529.95 335.919 531.854 335.631C534.711 335.198 538.953 332.921 542.26 332.24C546.881 331.29 550.175 331.174 551.836 331.705C555.003 332.716 557.239 336.124 558.546 341.926C561.06 342.759 562.618 343.979 563.221 345.586C563.824 347.192 563.548 350.167 562.392 354.511Z" fill="#1E293B" stroke="#1E293B" stroke-width="1.09582" stroke-linecap="round" stroke-linejoin="round"/>
<rect y="0.344727" width="582.614" height="238.342" rx="22.301" fill="#191F4D" fill-opacity="0.05"/>
<path d="M37.6963 41.4336V29.7256H39.1013V40.1624H45.0222V41.4336H37.6963ZM49.3859 41.6678C48.8173 41.6678 48.2988 41.5674 47.8304 41.3667C47.3621 41.166 46.9942 40.8761 46.7265 40.497C46.4589 40.1178 46.3251 39.6551 46.3251 39.1087C46.3251 38.5512 46.4589 38.094 46.7265 37.7372C46.9942 37.3692 47.3621 37.096 47.8304 36.9176C48.2988 36.7281 48.8228 36.6333 49.4027 36.6333H52.1624V36.0312C52.1624 35.4513 51.9896 34.9942 51.6439 34.6597C51.3094 34.3251 50.8076 34.1579 50.1386 34.1579C49.4807 34.1579 48.9678 34.3196 48.5998 34.6429C48.2319 34.9552 47.981 35.3789 47.8472 35.9141L46.6095 35.5127C46.7433 35.0555 46.9551 34.6429 47.245 34.275C47.535 33.8959 47.9196 33.5948 48.3991 33.3718C48.8897 33.1376 49.4751 33.0205 50.1553 33.0205C51.2035 33.0205 52.0175 33.2937 52.5973 33.8401C53.1771 34.3753 53.467 35.1336 53.467 36.1148V39.8112C53.467 40.1457 53.6231 40.313 53.9353 40.313H54.688V41.4336H53.5339C53.166 41.4336 52.8705 41.3332 52.6475 41.1325C52.4245 40.9207 52.3129 40.6419 52.3129 40.2962V40.2126H52.1122C51.9896 40.4245 51.8223 40.6475 51.6105 40.8816C51.4098 41.1047 51.131 41.2886 50.7742 41.4336C50.4174 41.5897 49.9546 41.6678 49.3859 41.6678ZM49.5365 40.5304C50.317 40.5304 50.947 40.3018 51.4265 39.8446C51.9171 39.3763 52.1624 38.724 52.1624 37.8877V37.7038H49.4528C48.9288 37.7038 48.4939 37.8208 48.1482 38.055C47.8137 38.278 47.6465 38.6181 47.6465 39.0753C47.6465 39.5324 47.8193 39.8892 48.165 40.1457C48.5218 40.4022 48.9789 40.5304 49.5365 40.5304ZM56.4977 41.4336V33.2547H57.7855V34.2582H58.0197C58.1647 33.9014 58.3877 33.6394 58.6887 33.4721C58.9898 33.3049 59.3856 33.2212 59.8763 33.2212H60.8463V34.4255H59.7926C59.2016 34.4255 58.7222 34.5928 58.3542 34.9273C57.9974 35.2506 57.819 35.758 57.819 36.4493V41.4336H56.4977ZM62.107 37.386V37.1518C62.107 36.2932 62.2799 35.5573 62.6255 34.944C62.9712 34.3307 63.4395 33.8568 64.0305 33.5223C64.6215 33.1878 65.2682 33.0205 65.9707 33.0205C66.8293 33.0205 67.4872 33.1878 67.9443 33.5223C68.4127 33.8457 68.7583 34.2081 68.9813 34.6095H69.2155V33.2547H70.4699V43.3403C70.4699 43.7863 70.3473 44.1376 70.102 44.3941C69.8566 44.6505 69.4998 44.7787 69.0315 44.7787H63.4786V43.6079H68.6803C69.0148 43.6079 69.182 43.4407 69.182 43.1062V39.9952H68.9479C68.8141 40.2405 68.6245 40.4802 68.3792 40.7144C68.1339 40.9485 67.8161 41.1437 67.4258 41.2998C67.0356 41.4447 66.5505 41.5172 65.9707 41.5172C65.2682 41.5172 64.6215 41.35 64.0305 41.0154C63.4395 40.6809 62.9712 40.207 62.6255 39.5938C62.2799 38.9693 62.107 38.2334 62.107 37.386ZM66.3219 40.3464C67.1694 40.3464 67.8551 40.0788 68.3792 39.5436C68.9144 39.0084 69.182 38.2724 69.182 37.3358V37.202C69.182 36.2542 68.9144 35.5183 68.3792 34.9942C67.8551 34.459 67.1694 34.1913 66.3219 34.1913C65.4857 34.1913 64.7943 34.459 64.2479 34.9942C63.7127 35.5183 63.4451 36.2542 63.4451 37.202V37.3358C63.4451 38.2724 63.7127 39.0084 64.2479 39.5436C64.7943 40.0788 65.4857 40.3464 66.3219 40.3464ZM76.9863 41.6678C76.1612 41.6678 75.4364 41.4949 74.812 41.1493C74.1875 40.7924 73.7025 40.2962 73.3568 39.6607C73.0112 39.0251 72.8383 38.2892 72.8383 37.4529V37.2522C72.8383 36.4047 73.0112 35.6632 73.3568 35.0276C73.7025 34.3921 74.182 33.9014 74.7952 33.5558C75.4085 33.1989 76.111 33.0205 76.9027 33.0205C77.6721 33.0205 78.3522 33.1878 78.9432 33.5223C79.5342 33.8457 79.9969 34.314 80.3315 34.9273C80.666 35.5406 80.8332 36.2598 80.8332 37.0849V37.687H74.1597C74.1931 38.5679 74.4774 39.2592 75.0127 39.761C75.5479 40.2516 76.2169 40.497 77.0198 40.497C77.7222 40.497 78.263 40.3353 78.6422 40.0119C79.0213 39.6885 79.3112 39.3038 79.5119 38.8578L80.6492 39.4098C80.482 39.7554 80.2478 40.1011 79.9468 40.4468C79.6569 40.7924 79.2722 41.0824 78.7927 41.3165C78.3244 41.5507 77.7222 41.6678 76.9863 41.6678ZM74.1764 36.5999H79.4952C79.4506 35.8416 79.1885 35.2506 78.7091 34.8269C78.2407 34.4032 77.6386 34.1913 76.9027 34.1913C76.1556 34.1913 75.5423 34.4032 75.0628 34.8269C74.5834 35.2506 74.2879 35.8416 74.1764 36.5999ZM87.3836 41.4336V29.7256H90.0597L93.1707 40.5471H93.3881L96.4991 29.7256H99.1752V41.4336H97.8205V30.6455H97.5863L94.492 41.4336H92.0668L88.9725 30.6455H88.7384V41.4336H87.3836ZM105.685 41.6678C104.86 41.6678 104.13 41.4949 103.494 41.1493C102.87 40.8036 102.379 40.3185 102.023 39.6941C101.677 39.0585 101.504 38.3115 101.504 37.4529V37.2354C101.504 36.388 101.677 35.6465 102.023 35.0109C102.379 34.3753 102.87 33.8847 103.494 33.539C104.13 33.1934 104.86 33.0205 105.685 33.0205C106.511 33.0205 107.235 33.1934 107.86 33.539C108.495 33.8847 108.986 34.3753 109.332 35.0109C109.689 35.6465 109.867 36.388 109.867 37.2354V37.4529C109.867 38.3115 109.689 39.0585 109.332 39.6941C108.986 40.3185 108.495 40.8036 107.86 41.1493C107.235 41.4949 106.511 41.6678 105.685 41.6678ZM105.685 40.4802C106.555 40.4802 107.247 40.207 107.759 39.6607C108.284 39.1031 108.546 38.3561 108.546 37.4194V37.2689C108.546 36.3322 108.284 35.5907 107.759 35.0444C107.247 34.4868 106.555 34.2081 105.685 34.2081C104.827 34.2081 104.136 34.4868 103.611 35.0444C103.087 35.5907 102.825 36.3322 102.825 37.2689V37.4194C102.825 38.3561 103.087 39.1031 103.611 39.6607C104.136 40.207 104.827 40.4802 105.685 40.4802ZM115.707 41.6678C115.004 41.6678 114.358 41.5005 113.767 41.166C113.176 40.8315 112.707 40.3464 112.362 39.7108C112.016 39.0753 111.843 38.3226 111.843 37.4529V37.2354C111.843 36.3657 112.016 35.6186 112.362 34.9942C112.707 34.3586 113.17 33.8736 113.75 33.539C114.341 33.1934 114.993 33.0205 115.707 33.0205C116.276 33.0205 116.755 33.0986 117.145 33.2547C117.547 33.3997 117.87 33.5892 118.115 33.8234C118.361 34.0464 118.55 34.2861 118.684 34.5426H118.918V29.7256H120.24V41.4336H118.952V40.0788H118.718C118.495 40.4914 118.149 40.8593 117.681 41.1827C117.212 41.5061 116.554 41.6678 115.707 41.6678ZM116.058 40.497C116.906 40.497 117.591 40.2293 118.115 39.6941C118.651 39.1477 118.918 38.3895 118.918 37.4194V37.2689C118.918 36.2988 118.651 35.5461 118.115 35.0109C117.591 34.4645 116.906 34.1913 116.058 34.1913C115.222 34.1913 114.531 34.4645 113.984 35.0109C113.449 35.5461 113.181 36.2988 113.181 37.2689V37.4194C113.181 38.3895 113.449 39.1477 113.984 39.6941C114.531 40.2293 115.222 40.497 116.058 40.497ZM126.755 41.6678C125.93 41.6678 125.205 41.4949 124.581 41.1493C123.956 40.7924 123.471 40.2962 123.126 39.6607C122.78 39.0251 122.607 38.2892 122.607 37.4529V37.2522C122.607 36.4047 122.78 35.6632 123.126 35.0276C123.471 34.3921 123.951 33.9014 124.564 33.5558C125.177 33.1989 125.88 33.0205 126.672 33.0205C127.441 33.0205 128.121 33.1878 128.712 33.5223C129.303 33.8457 129.766 34.314 130.1 34.9273C130.435 35.5406 130.602 36.2598 130.602 37.0849V37.687H123.929C123.962 38.5679 124.246 39.2592 124.782 39.761C125.317 40.2516 125.986 40.497 126.789 40.497C127.491 40.497 128.032 40.3353 128.411 40.0119C128.79 39.6885 129.08 39.3038 129.281 38.8578L130.418 39.4098C130.251 39.7554 130.017 40.1011 129.716 40.4468C129.426 40.7924 129.041 41.0824 128.562 41.3165C128.093 41.5507 127.491 41.6678 126.755 41.6678ZM123.945 36.5999H129.264C129.219 35.8416 128.957 35.2506 128.478 34.8269C128.01 34.4032 127.408 34.1913 126.672 34.1913C125.925 34.1913 125.311 34.4032 124.832 34.8269C124.352 35.2506 124.057 35.8416 123.945 36.5999ZM132.907 41.4336V29.7256H134.228V41.4336H132.907ZM135.618 44.7787L140.536 29.7256H141.857L136.94 44.7787H135.618ZM142.595 41.4336V40.1792H144.234V30.98H142.595V29.7256H147.161C148.7 29.7256 149.887 30.1158 150.724 30.8964C151.571 31.6769 151.995 32.8756 151.995 34.4924V36.6668C151.995 38.2947 151.571 39.499 150.724 40.2795C149.887 41.0489 148.7 41.4336 147.161 41.4336H142.595ZM145.639 40.1624H147.161C148.299 40.1624 149.157 39.8837 149.737 39.3261C150.317 38.7686 150.607 37.9045 150.607 36.7337V34.4422C150.607 33.2491 150.317 32.3794 149.737 31.833C149.157 31.2866 148.299 31.0134 147.161 31.0134H145.639V40.1624ZM156.797 41.6678C156.228 41.6678 155.709 41.5674 155.241 41.3667C154.773 41.166 154.405 40.8761 154.137 40.497C153.87 40.1178 153.736 39.6551 153.736 39.1087C153.736 38.5512 153.87 38.094 154.137 37.7372C154.405 37.3692 154.773 37.096 155.241 36.9176C155.709 36.7281 156.234 36.6333 156.813 36.6333H159.573V36.0312C159.573 35.4513 159.4 34.9942 159.055 34.6597C158.72 34.3251 158.218 34.1579 157.549 34.1579C156.891 34.1579 156.378 34.3196 156.011 34.6429C155.643 34.9552 155.392 35.3789 155.258 35.9141L154.02 35.5127C154.154 35.0555 154.366 34.6429 154.656 34.275C154.946 33.8959 155.33 33.5948 155.81 33.3718C156.3 33.1376 156.886 33.0205 157.566 33.0205C158.614 33.0205 159.428 33.2937 160.008 33.8401C160.588 34.3753 160.878 35.1336 160.878 36.1148V39.8112C160.878 40.1457 161.034 40.313 161.346 40.313H162.099V41.4336H160.945C160.577 41.4336 160.281 41.3332 160.058 41.1325C159.835 40.9207 159.724 40.6419 159.724 40.2962V40.2126H159.523C159.4 40.4245 159.233 40.6475 159.021 40.8816C158.82 41.1047 158.542 41.2886 158.185 41.4336C157.828 41.5897 157.365 41.6678 156.797 41.6678ZM156.947 40.5304C157.728 40.5304 158.358 40.3018 158.837 39.8446C159.328 39.3763 159.573 38.724 159.573 37.8877V37.7038H156.864C156.339 37.7038 155.905 37.8208 155.559 38.055C155.224 38.278 155.057 38.6181 155.057 39.0753C155.057 39.5324 155.23 39.8892 155.576 40.1457C155.932 40.4022 156.39 40.5304 156.947 40.5304ZM166.38 41.4336C165.912 41.4336 165.549 41.3054 165.293 41.0489C165.047 40.7924 164.925 40.4412 164.925 39.9952V34.4088H162.466V33.2547H164.925V30.3444H166.246V33.2547H168.922V34.4088H166.246V39.7945C166.246 40.129 166.408 40.2962 166.731 40.2962H168.554V41.4336H166.38ZM173.522 41.6678C172.954 41.6678 172.435 41.5674 171.967 41.3667C171.499 41.166 171.131 40.8761 170.863 40.497C170.595 40.1178 170.462 39.6551 170.462 39.1087C170.462 38.5512 170.595 38.094 170.863 37.7372C171.131 37.3692 171.499 37.096 171.967 36.9176C172.435 36.7281 172.959 36.6333 173.539 36.6333H176.299V36.0312C176.299 35.4513 176.126 34.9942 175.78 34.6597C175.446 34.3251 174.944 34.1579 174.275 34.1579C173.617 34.1579 173.104 34.3196 172.736 34.6429C172.368 34.9552 172.117 35.3789 171.984 35.9141L170.746 35.5127C170.88 35.0555 171.092 34.6429 171.381 34.275C171.671 33.8959 172.056 33.5948 172.536 33.3718C173.026 33.1376 173.612 33.0205 174.292 33.0205C175.34 33.0205 176.154 33.2937 176.734 33.8401C177.314 34.3753 177.603 35.1336 177.603 36.1148V39.8112C177.603 40.1457 177.76 40.313 178.072 40.313H178.824V41.4336H177.67C177.302 41.4336 177.007 41.3332 176.784 41.1325C176.561 40.9207 176.449 40.6419 176.449 40.2962V40.2126H176.249C176.126 40.4245 175.959 40.6475 175.747 40.8816C175.546 41.1047 175.267 41.2886 174.911 41.4336C174.554 41.5897 174.091 41.6678 173.522 41.6678ZM173.673 40.5304C174.453 40.5304 175.083 40.3018 175.563 39.8446C176.054 39.3763 176.299 38.724 176.299 37.8877V37.7038H173.589C173.065 37.7038 172.63 37.8208 172.285 38.055C171.95 38.278 171.783 38.6181 171.783 39.0753C171.783 39.5324 171.956 39.8892 172.301 40.1457C172.658 40.4022 173.115 40.5304 173.673 40.5304ZM183.864 41.6678C182.849 41.6678 181.99 41.4336 181.288 40.9653C180.597 40.497 180.178 39.7554 180.034 38.7407L181.288 38.4564C181.377 38.9916 181.544 39.4154 181.79 39.7276C182.035 40.0286 182.336 40.2461 182.693 40.3799C183.061 40.5025 183.451 40.5639 183.864 40.5639C184.477 40.5639 184.962 40.4412 185.319 40.1959C185.676 39.9506 185.854 39.6216 185.854 39.2091C185.854 38.7853 185.681 38.4899 185.336 38.3226C185.001 38.1442 184.538 37.9992 183.947 37.8877L183.262 37.7707C182.738 37.6814 182.258 37.5421 181.823 37.3525C181.388 37.163 181.043 36.9065 180.786 36.5831C180.53 36.2598 180.402 35.8528 180.402 35.3621C180.402 34.6262 180.686 34.052 181.255 33.6394C181.823 33.2268 182.576 33.0205 183.512 33.0205C184.438 33.0205 185.185 33.2324 185.754 33.6561C186.334 34.0687 186.707 34.6541 186.874 35.4123L185.637 35.7301C185.536 35.1391 185.297 34.7266 184.917 34.4924C184.538 34.2471 184.07 34.1244 183.512 34.1244C182.955 34.1244 182.515 34.2304 182.191 34.4422C181.868 34.6429 181.706 34.944 181.706 35.3454C181.706 35.7357 181.857 36.0256 182.158 36.2152C182.47 36.3936 182.882 36.5274 183.395 36.6166L184.081 36.7337C184.661 36.834 185.179 36.9734 185.637 37.1518C186.105 37.3191 186.473 37.5644 186.741 37.8877C187.019 38.2111 187.159 38.6348 187.159 39.1589C187.159 39.9617 186.858 40.5806 186.256 41.0154C185.665 41.4503 184.867 41.6678 183.864 41.6678ZM193.136 41.6678C192.31 41.6678 191.586 41.4949 190.961 41.1493C190.337 40.7924 189.852 40.2962 189.506 39.6607C189.16 39.0251 188.988 38.2892 188.988 37.4529V37.2522C188.988 36.4047 189.16 35.6632 189.506 35.0276C189.852 34.3921 190.331 33.9014 190.944 33.5558C191.558 33.1989 192.26 33.0205 193.052 33.0205C193.821 33.0205 194.501 33.1878 195.092 33.5223C195.683 33.8457 196.146 34.314 196.481 34.9273C196.815 35.5406 196.982 36.2598 196.982 37.0849V37.687H190.309C190.342 38.5679 190.627 39.2592 191.162 39.761C191.697 40.2516 192.366 40.497 193.169 40.497C193.871 40.497 194.412 40.3353 194.791 40.0119C195.171 39.6885 195.46 39.3038 195.661 38.8578L196.798 39.4098C196.631 39.7554 196.397 40.1011 196.096 40.4468C195.806 40.7924 195.421 41.0824 194.942 41.3165C194.474 41.5507 193.871 41.6678 193.136 41.6678ZM190.326 36.5999H195.644C195.6 35.8416 195.338 35.2506 194.858 34.8269C194.39 34.4032 193.788 34.1913 193.052 34.1913C192.305 34.1913 191.692 34.4032 191.212 34.8269C190.733 35.2506 190.437 35.8416 190.326 36.5999ZM201.955 41.4336C201.487 41.4336 201.124 41.3054 200.868 41.0489C200.622 40.7924 200.5 40.4412 200.5 39.9952V34.4088H198.041V33.2547H200.5V30.3444H201.821V33.2547H204.497V34.4088H201.821V39.7945C201.821 40.129 201.983 40.2962 202.306 40.2962H204.129V41.4336H201.955ZM210.883 41.4336V29.7256H217.958V30.9967H212.288V34.9273H217.506V36.1984H212.288V41.4336H210.883ZM219.966 41.4336V33.2547H221.287V41.4336H219.966ZM220.635 31.9835C220.345 31.9835 220.1 31.8888 219.899 31.6992C219.709 31.5096 219.615 31.2699 219.615 30.98C219.615 30.6789 219.709 30.4336 219.899 30.2441C220.1 30.0545 220.345 29.9597 220.635 29.9597C220.925 29.9597 221.164 30.0545 221.354 30.2441C221.544 30.4336 221.638 30.6789 221.638 30.98C221.638 31.2699 221.544 31.5096 221.354 31.6992C221.164 31.8888 220.925 31.9835 220.635 31.9835ZM224.066 41.4336V29.7256H225.387V41.4336H224.066ZM231.912 41.6678C231.087 41.6678 230.362 41.4949 229.738 41.1493C229.113 40.7924 228.628 40.2962 228.282 39.6607C227.937 39.0251 227.764 38.2892 227.764 37.4529V37.2522C227.764 36.4047 227.937 35.6632 228.282 35.0276C228.628 34.3921 229.108 33.9014 229.721 33.5558C230.334 33.1989 231.037 33.0205 231.828 33.0205C232.598 33.0205 233.278 33.1878 233.869 33.5223C234.46 33.8457 234.922 34.314 235.257 34.9273C235.592 35.5406 235.759 36.2598 235.759 37.0849V37.687H229.085C229.119 38.5679 229.403 39.2592 229.938 39.761C230.473 40.2516 231.142 40.497 231.945 40.497C232.648 40.497 233.189 40.3353 233.568 40.0119C233.947 39.6885 234.237 39.3038 234.437 38.8578L235.575 39.4098C235.408 39.7554 235.173 40.1011 234.872 40.4468C234.582 40.7924 234.198 41.0824 233.718 41.3165C233.25 41.5507 232.648 41.6678 231.912 41.6678ZM229.102 36.5999H234.421C234.376 35.8416 234.114 35.2506 233.635 34.8269C233.166 34.4032 232.564 34.1913 231.828 34.1913C231.081 34.1913 230.468 34.4032 229.988 34.8269C229.509 35.2506 229.213 35.8416 229.102 36.5999Z" fill="#475569"/>
<path d="M387.134 41.6678C386.286 41.6678 385.528 41.5172 384.859 41.2162C384.19 40.9151 383.66 40.4635 383.27 39.8614C382.891 39.2481 382.701 38.4843 382.701 37.5699V37.2187H384.09V37.5699C384.09 38.54 384.374 39.2648 384.943 39.7443C385.511 40.2126 386.242 40.4468 387.134 40.4468C388.048 40.4468 388.745 40.2405 389.224 39.8279C389.704 39.4154 389.944 38.8969 389.944 38.2724C389.944 37.8376 389.832 37.4919 389.609 37.2354C389.397 36.979 389.096 36.7727 388.706 36.6166C388.316 36.4493 387.858 36.3044 387.334 36.1817L386.465 35.9643C385.784 35.7859 385.182 35.5684 384.658 35.312C384.134 35.0555 383.722 34.721 383.42 34.3084C383.131 33.8847 382.986 33.3439 382.986 32.686C382.986 32.0281 383.147 31.4595 383.471 30.98C383.805 30.5005 384.268 30.1326 384.859 29.8761C385.461 29.6196 386.152 29.4914 386.933 29.4914C387.725 29.4914 388.433 29.6308 389.057 29.9095C389.693 30.1772 390.189 30.5786 390.546 31.1138C390.914 31.6379 391.098 32.3013 391.098 33.1042V33.8066H389.709V33.1042C389.709 32.5355 389.587 32.0783 389.341 31.7327C389.107 31.387 388.778 31.1305 388.355 30.9633C387.942 30.796 387.468 30.7124 386.933 30.7124C386.164 30.7124 385.545 30.8852 385.076 31.2309C384.608 31.5654 384.374 32.0449 384.374 32.6693C384.374 33.0819 384.474 33.4164 384.675 33.6728C384.876 33.9293 385.16 34.1412 385.528 34.3084C385.896 34.4645 386.336 34.6039 386.849 34.7266L387.719 34.944C388.399 35.089 389.007 35.2897 389.542 35.5461C390.088 35.7914 390.523 36.1315 390.847 36.5664C391.17 36.9901 391.332 37.5476 391.332 38.239C391.332 38.9303 391.159 39.5324 390.813 40.0454C390.468 40.5583 389.977 40.9597 389.341 41.2496C388.717 41.5284 387.981 41.6678 387.134 41.6678ZM397.291 41.6678C396.466 41.6678 395.741 41.4949 395.116 41.1493C394.492 40.7924 394.007 40.2962 393.661 39.6607C393.316 39.0251 393.143 38.2892 393.143 37.4529V37.2522C393.143 36.4047 393.316 35.6632 393.661 35.0276C394.007 34.3921 394.486 33.9014 395.1 33.5558C395.713 33.1989 396.416 33.0205 397.207 33.0205C397.977 33.0205 398.657 33.1878 399.248 33.5223C399.839 33.8457 400.301 34.314 400.636 34.9273C400.971 35.5406 401.138 36.2598 401.138 37.0849V37.687H394.464C394.498 38.5679 394.782 39.2592 395.317 39.761C395.852 40.2516 396.521 40.497 397.324 40.497C398.027 40.497 398.568 40.3353 398.947 40.0119C399.326 39.6885 399.616 39.3038 399.816 38.8578L400.954 39.4098C400.787 39.7554 400.552 40.1011 400.251 40.4468C399.961 40.7924 399.577 41.0824 399.097 41.3165C398.629 41.5507 398.027 41.6678 397.291 41.6678ZM394.481 36.5999H399.8C399.755 35.8416 399.493 35.2506 399.014 34.8269C398.545 34.4032 397.943 34.1913 397.207 34.1913C396.46 34.1913 395.847 34.4032 395.367 34.8269C394.888 35.2506 394.592 35.8416 394.481 36.5999ZM403.443 41.4336V33.2547H404.73V34.275H404.965C405.121 33.9851 405.377 33.7174 405.734 33.4721C406.091 33.2268 406.593 33.1042 407.239 33.1042C407.875 33.1042 408.388 33.2435 408.778 33.5223C409.179 33.8011 409.469 34.1412 409.648 34.5426H409.882C410.071 34.1412 410.356 33.8011 410.735 33.5223C411.125 33.2435 411.666 33.1042 412.357 33.1042C412.904 33.1042 413.383 33.2157 413.796 33.4387C414.208 33.6617 414.532 33.9851 414.766 34.4088C415.011 34.8213 415.134 35.3175 415.134 35.8974V41.4336H413.812V36.0144C413.812 35.4681 413.651 35.0388 413.327 34.7266C413.015 34.4032 412.575 34.2415 412.006 34.2415C411.404 34.2415 410.908 34.4367 410.518 34.8269C410.138 35.2172 409.949 35.7803 409.949 36.5162V41.4336H408.627V36.0144C408.627 35.4681 408.466 35.0388 408.142 34.7266C407.83 34.4032 407.39 34.2415 406.821 34.2415C406.219 34.2415 405.723 34.4367 405.333 34.8269C404.953 35.2172 404.764 35.7803 404.764 36.5162V41.4336H403.443ZM420.341 41.6678C419.773 41.6678 419.254 41.5674 418.786 41.3667C418.318 41.166 417.95 40.8761 417.682 40.497C417.414 40.1178 417.281 39.6551 417.281 39.1087C417.281 38.5512 417.414 38.094 417.682 37.7372C417.95 37.3692 418.318 37.096 418.786 36.9176C419.254 36.7281 419.778 36.6333 420.358 36.6333H423.118V36.0312C423.118 35.4513 422.945 34.9942 422.599 34.6597C422.265 34.3251 421.763 34.1579 421.094 34.1579C420.436 34.1579 419.923 34.3196 419.555 34.6429C419.187 34.9552 418.936 35.3789 418.803 35.9141L417.565 35.5127C417.699 35.0555 417.911 34.6429 418.201 34.275C418.49 33.8959 418.875 33.5948 419.355 33.3718C419.845 33.1376 420.431 33.0205 421.111 33.0205C422.159 33.0205 422.973 33.2937 423.553 33.8401C424.133 34.3753 424.422 35.1336 424.422 36.1148V39.8112C424.422 40.1457 424.579 40.313 424.891 40.313H425.643V41.4336H424.489C424.121 41.4336 423.826 41.3332 423.603 41.1325C423.38 40.9207 423.268 40.6419 423.268 40.2962V40.2126H423.068C422.945 40.4245 422.778 40.6475 422.566 40.8816C422.365 41.1047 422.086 41.2886 421.73 41.4336C421.373 41.5897 420.91 41.6678 420.341 41.6678ZM420.492 40.5304C421.272 40.5304 421.902 40.3018 422.382 39.8446C422.873 39.3763 423.118 38.724 423.118 37.8877V37.7038H420.408C419.884 37.7038 419.449 37.8208 419.104 38.055C418.769 38.278 418.602 38.6181 418.602 39.0753C418.602 39.5324 418.775 39.8892 419.12 40.1457C419.477 40.4022 419.934 40.5304 420.492 40.5304ZM427.453 41.4336V33.2547H428.741V34.6429H428.975C429.154 34.2527 429.455 33.9014 429.878 33.5892C430.313 33.2659 430.949 33.1042 431.785 33.1042C432.398 33.1042 432.945 33.2324 433.424 33.4889C433.915 33.7453 434.305 34.1244 434.595 34.6262C434.885 35.128 435.03 35.7468 435.03 36.4828V41.4336H433.709V36.5831C433.709 35.7691 433.502 35.1782 433.09 34.8102C432.688 34.4422 432.142 34.2582 431.451 34.2582C430.659 34.2582 430.012 34.5147 429.51 35.0276C429.02 35.5406 428.774 36.3044 428.774 37.3191V41.4336H427.453ZM440.493 41.4336C440.024 41.4336 439.662 41.3054 439.405 41.0489C439.16 40.7924 439.038 40.4412 439.038 39.9952V34.4088H436.579V33.2547H439.038V30.3444H440.359V33.2547H443.035V34.4088H440.359V39.7945C440.359 40.129 440.521 40.2962 440.844 40.2962H442.667V41.4336H440.493ZM445.175 41.4336V33.2547H446.497V41.4336H445.175ZM445.844 31.9835C445.554 31.9835 445.309 31.8888 445.108 31.6992C444.919 31.5096 444.824 31.2699 444.824 30.98C444.824 30.6789 444.919 30.4336 445.108 30.2441C445.309 30.0545 445.554 29.9597 445.844 29.9597C446.134 29.9597 446.374 30.0545 446.563 30.2441C446.753 30.4336 446.848 30.6789 446.848 30.98C446.848 31.2699 446.753 31.5096 446.563 31.6992C446.374 31.8888 446.134 31.9835 445.844 31.9835ZM453.038 41.6678C452.247 41.6678 451.533 41.5005 450.897 41.166C450.273 40.8203 449.777 40.3297 449.409 39.6941C449.052 39.0585 448.874 38.3059 448.874 37.4361V37.2522C448.874 36.3713 449.052 35.6186 449.409 34.9942C449.777 34.3586 450.273 33.8736 450.897 33.539C451.533 33.1934 452.247 33.0205 453.038 33.0205C453.819 33.0205 454.482 33.1655 455.029 33.4554C455.586 33.7453 456.021 34.13 456.333 34.6095C456.657 35.089 456.863 35.6019 456.952 36.1483L455.664 36.4159C455.608 36.0144 455.475 35.6465 455.263 35.312C455.062 34.9775 454.778 34.7098 454.41 34.5091C454.042 34.3084 453.59 34.2081 453.055 34.2081C452.509 34.2081 452.018 34.3307 451.583 34.576C451.159 34.8213 450.819 35.1726 450.563 35.6298C450.318 36.0869 450.195 36.6333 450.195 37.2689V37.4194C450.195 38.055 450.318 38.6014 450.563 39.0585C450.819 39.5157 451.159 39.8669 451.583 40.1123C452.018 40.3576 452.509 40.4802 453.055 40.4802C453.869 40.4802 454.488 40.2684 454.912 39.8446C455.346 39.4209 455.614 38.8969 455.714 38.2724L457.019 38.5568C456.896 39.092 456.673 39.5993 456.35 40.0788C456.027 40.5583 455.586 40.943 455.029 41.2329C454.482 41.5228 453.819 41.6678 453.038 41.6678ZM465.641 41.4336L462.714 33.2547H464.119L466.578 40.4468H466.812L469.271 33.2547H470.675L467.748 41.4336H465.641ZM475.987 41.6678C475.162 41.6678 474.437 41.4949 473.812 41.1493C473.188 40.7924 472.703 40.2962 472.357 39.6607C472.012 39.0251 471.839 38.2892 471.839 37.4529V37.2522C471.839 36.4047 472.012 35.6632 472.357 35.0276C472.703 34.3921 473.182 33.9014 473.796 33.5558C474.409 33.1989 475.111 33.0205 475.903 33.0205C476.673 33.0205 477.353 33.1878 477.944 33.5223C478.535 33.8457 478.997 34.314 479.332 34.9273C479.666 35.5406 479.834 36.2598 479.834 37.0849V37.687H473.16C473.194 38.5679 473.478 39.2592 474.013 39.761C474.548 40.2516 475.217 40.497 476.02 40.497C476.723 40.497 477.264 40.3353 477.643 40.0119C478.022 39.6885 478.312 39.3038 478.512 38.8578L479.65 39.4098C479.482 39.7554 479.248 40.1011 478.947 40.4468C478.657 40.7924 478.273 41.0824 477.793 41.3165C477.325 41.5507 476.723 41.6678 475.987 41.6678ZM473.177 36.5999H478.496C478.451 35.8416 478.189 35.2506 477.71 34.8269C477.241 34.4032 476.639 34.1913 475.903 34.1913C475.156 34.1913 474.543 34.4032 474.063 34.8269C473.584 35.2506 473.288 35.8416 473.177 36.5999ZM482.138 41.4336V33.2547H483.426V34.2582H483.661C483.805 33.9014 484.028 33.6394 484.33 33.4721C484.631 33.3049 485.026 33.2212 485.517 33.2212H486.487V34.4255H485.433C484.842 34.4255 484.363 34.5928 483.995 34.9273C483.638 35.2506 483.46 35.758 483.46 36.4493V41.4336H482.138ZM491.575 41.6678C490.56 41.6678 489.702 41.4336 488.999 40.9653C488.308 40.497 487.89 39.7554 487.745 38.7407L488.999 38.4564C489.088 38.9916 489.256 39.4154 489.501 39.7276C489.746 40.0286 490.047 40.2461 490.404 40.3799C490.772 40.5025 491.162 40.5639 491.575 40.5639C492.188 40.5639 492.673 40.4412 493.03 40.1959C493.387 39.9506 493.565 39.6216 493.565 39.2091C493.565 38.7853 493.392 38.4899 493.047 38.3226C492.712 38.1442 492.25 37.9992 491.659 37.8877L490.973 37.7707C490.449 37.6814 489.969 37.5421 489.534 37.3525C489.1 37.163 488.754 36.9065 488.497 36.5831C488.241 36.2598 488.113 35.8528 488.113 35.3621C488.113 34.6262 488.397 34.052 488.966 33.6394C489.534 33.2268 490.287 33.0205 491.224 33.0205C492.149 33.0205 492.896 33.2324 493.465 33.6561C494.045 34.0687 494.418 34.6541 494.586 35.4123L493.348 35.7301C493.248 35.1391 493.008 34.7266 492.629 34.4924C492.25 34.2471 491.781 34.1244 491.224 34.1244C490.666 34.1244 490.226 34.2304 489.902 34.4422C489.579 34.6429 489.417 34.944 489.417 35.3454C489.417 35.7357 489.568 36.0256 489.869 36.2152C490.181 36.3936 490.594 36.5274 491.107 36.6166L491.792 36.7337C492.372 36.834 492.891 36.9734 493.348 37.1518C493.816 37.3191 494.184 37.5644 494.452 37.8877C494.731 38.2111 494.87 38.6348 494.87 39.1589C494.87 39.9617 494.569 40.5806 493.967 41.0154C493.376 41.4503 492.578 41.6678 491.575 41.6678ZM497.1 41.4336V33.2547H498.422V41.4336H497.1ZM497.769 31.9835C497.479 31.9835 497.234 31.8888 497.033 31.6992C496.844 31.5096 496.749 31.2699 496.749 30.98C496.749 30.6789 496.844 30.4336 497.033 30.2441C497.234 30.0545 497.479 29.9597 497.769 29.9597C498.059 29.9597 498.299 30.0545 498.488 30.2441C498.678 30.4336 498.773 30.6789 498.773 30.98C498.773 31.2699 498.678 31.5096 498.488 31.6992C498.299 31.8888 498.059 31.9835 497.769 31.9835ZM504.98 41.6678C504.155 41.6678 503.425 41.4949 502.789 41.1493C502.164 40.8036 501.674 40.3185 501.317 39.6941C500.971 39.0585 500.799 38.3115 500.799 37.4529V37.2354C500.799 36.388 500.971 35.6465 501.317 35.0109C501.674 34.3753 502.164 33.8847 502.789 33.539C503.425 33.1934 504.155 33.0205 504.98 33.0205C505.805 33.0205 506.53 33.1934 507.154 33.539C507.79 33.8847 508.281 34.3753 508.626 35.0109C508.983 35.6465 509.161 36.388 509.161 37.2354V37.4529C509.161 38.3115 508.983 39.0585 508.626 39.6941C508.281 40.3185 507.79 40.8036 507.154 41.1493C506.53 41.4949 505.805 41.6678 504.98 41.6678ZM504.98 40.4802C505.85 40.4802 506.541 40.207 507.054 39.6607C507.578 39.1031 507.84 38.3561 507.84 37.4194V37.2689C507.84 36.3322 507.578 35.5907 507.054 35.0444C506.541 34.4868 505.85 34.2081 504.98 34.2081C504.121 34.2081 503.43 34.4868 502.906 35.0444C502.382 35.5907 502.12 36.3322 502.12 37.2689V37.4194C502.12 38.3561 502.382 39.1031 502.906 39.6607C503.43 40.207 504.121 40.4802 504.98 40.4802ZM511.539 41.4336V33.2547H512.827V34.6429H513.061C513.24 34.2527 513.541 33.9014 513.964 33.5892C514.399 33.2659 515.035 33.1042 515.871 33.1042C516.484 33.1042 517.031 33.2324 517.51 33.4889C518.001 33.7453 518.391 34.1244 518.681 34.6262C518.971 35.128 519.116 35.7468 519.116 36.4828V41.4336H517.795V36.5831C517.795 35.7691 517.588 35.1782 517.176 34.8102C516.774 34.4422 516.228 34.2582 515.537 34.2582C514.745 34.2582 514.098 34.5147 513.597 35.0276C513.106 35.5406 512.861 36.3044 512.861 37.3191V41.4336H511.539ZM521.797 41.4336V33.2547H523.118V41.4336H521.797ZM522.466 31.9835C522.176 31.9835 521.931 31.8888 521.73 31.6992C521.54 31.5096 521.446 31.2699 521.446 30.98C521.446 30.6789 521.54 30.4336 521.73 30.2441C521.931 30.0545 522.176 29.9597 522.466 29.9597C522.756 29.9597 522.996 30.0545 523.185 30.2441C523.375 30.4336 523.469 30.6789 523.469 30.98C523.469 31.2699 523.375 31.5096 523.185 31.6992C522.996 31.8888 522.756 31.9835 522.466 31.9835ZM525.897 41.4336V33.2547H527.184V34.6429H527.419C527.597 34.2527 527.898 33.9014 528.322 33.5892C528.757 33.2659 529.392 33.1042 530.229 33.1042C530.842 33.1042 531.388 33.2324 531.868 33.4889C532.358 33.7453 532.749 34.1244 533.038 34.6262C533.328 35.128 533.473 35.7468 533.473 36.4828V41.4336H532.152V36.5831C532.152 35.7691 531.946 35.1782 531.533 34.8102C531.132 34.4422 530.585 34.2582 529.894 34.2582C529.102 34.2582 528.456 34.5147 527.954 35.0276C527.463 35.5406 527.218 36.3044 527.218 37.3191V41.4336H525.897ZM535.753 37.386V37.1518C535.753 36.2932 535.926 35.5573 536.271 34.944C536.617 34.3307 537.085 33.8568 537.676 33.5223C538.267 33.1878 538.914 33.0205 539.616 33.0205C540.475 33.0205 541.133 33.1878 541.59 33.5223C542.058 33.8457 542.404 34.2081 542.627 34.6095H542.861V33.2547H544.116V43.3403C544.116 43.7863 543.993 44.1376 543.748 44.3941C543.502 44.6505 543.146 44.7787 542.677 44.7787H537.124V43.6079H542.326C542.661 43.6079 542.828 43.4407 542.828 43.1062V39.9952H542.594C542.46 40.2405 542.27 40.4802 542.025 40.7144C541.78 40.9485 541.462 41.1437 541.072 41.2998C540.681 41.4447 540.196 41.5172 539.616 41.5172C538.914 41.5172 538.267 41.35 537.676 41.0154C537.085 40.6809 536.617 40.207 536.271 39.5938C535.926 38.9693 535.753 38.2334 535.753 37.386ZM539.968 40.3464C540.815 40.3464 541.501 40.0788 542.025 39.5436C542.56 39.0084 542.828 38.2724 542.828 37.3358V37.202C542.828 36.2542 542.56 35.5183 542.025 34.9942C541.501 34.459 540.815 34.1913 539.968 34.1913C539.131 34.1913 538.44 34.459 537.894 34.9942C537.358 35.5183 537.091 36.2542 537.091 37.202V37.3358C537.091 38.2724 537.358 39.0084 537.894 39.5436C538.44 40.0788 539.131 40.3464 539.968 40.3464Z" fill="#475569"/>
<path d="M256.53 111.124V99.4155H259.206L262.317 110.237H262.534L265.645 99.4155H268.321V111.124H266.967V100.335H266.732L263.638 111.124H261.213L258.119 100.335H257.884V111.124H256.53ZM274.832 111.358C274.006 111.358 273.276 111.185 272.64 110.839C272.016 110.494 271.525 110.008 271.169 109.384C270.823 108.748 270.65 108.001 270.65 107.143V106.925C270.65 106.078 270.823 105.336 271.169 104.701C271.525 104.065 272.016 103.575 272.64 103.229C273.276 102.883 274.006 102.71 274.832 102.71C275.657 102.71 276.381 102.883 277.006 103.229C277.641 103.575 278.132 104.065 278.478 104.701C278.835 105.336 279.013 106.078 279.013 106.925V107.143C279.013 108.001 278.835 108.748 278.478 109.384C278.132 110.008 277.641 110.494 277.006 110.839C276.381 111.185 275.657 111.358 274.832 111.358ZM274.832 110.17C275.701 110.17 276.393 109.897 276.906 109.351C277.43 108.793 277.692 108.046 277.692 107.109V106.959C277.692 106.022 277.43 105.281 276.906 104.734C276.393 104.177 275.701 103.898 274.832 103.898C273.973 103.898 273.282 104.177 272.758 104.734C272.233 105.281 271.971 106.022 271.971 106.959V107.109C271.971 108.046 272.233 108.793 272.758 109.351C273.282 109.897 273.973 110.17 274.832 110.17ZM284.853 111.358C284.151 111.358 283.504 111.19 282.913 110.856C282.322 110.521 281.854 110.036 281.508 109.401C281.162 108.765 280.989 108.013 280.989 107.143V106.925C280.989 106.056 281.162 105.309 281.508 104.684C281.854 104.049 282.316 103.563 282.896 103.229C283.487 102.883 284.139 102.71 284.853 102.71C285.422 102.71 285.901 102.789 286.291 102.945C286.693 103.09 287.016 103.279 287.262 103.513C287.507 103.736 287.696 103.976 287.83 104.233H288.064V99.4155H289.386V111.124H288.098V109.769H287.864C287.641 110.181 287.295 110.549 286.827 110.873C286.358 111.196 285.7 111.358 284.853 111.358ZM285.204 110.187C286.052 110.187 286.737 109.919 287.262 109.384C287.797 108.838 288.064 108.079 288.064 107.109V106.959C288.064 105.989 287.797 105.236 287.262 104.701C286.737 104.154 286.052 103.881 285.204 103.881C284.368 103.881 283.677 104.154 283.13 104.701C282.595 105.236 282.327 105.989 282.327 106.959V107.109C282.327 108.079 282.595 108.838 283.13 109.384C283.677 109.919 284.368 110.187 285.204 110.187ZM295.901 111.358C295.076 111.358 294.351 111.185 293.727 110.839C293.103 110.482 292.617 109.986 292.272 109.351C291.926 108.715 291.753 107.979 291.753 107.143V106.942C291.753 106.095 291.926 105.353 292.272 104.718C292.617 104.082 293.097 103.591 293.71 103.246C294.323 102.889 295.026 102.71 295.818 102.71C296.587 102.71 297.267 102.878 297.858 103.212C298.449 103.536 298.912 104.004 299.246 104.617C299.581 105.23 299.748 105.95 299.748 106.775V107.377H293.075C293.108 108.258 293.392 108.949 293.928 109.451C294.463 109.942 295.132 110.187 295.935 110.187C296.637 110.187 297.178 110.025 297.557 109.702C297.936 109.378 298.226 108.994 298.427 108.548L299.564 109.1C299.397 109.445 299.163 109.791 298.862 110.137C298.572 110.482 298.187 110.772 297.708 111.006C297.239 111.241 296.637 111.358 295.901 111.358ZM293.091 106.29H298.41C298.366 105.532 298.104 104.941 297.624 104.517C297.156 104.093 296.554 103.881 295.818 103.881C295.071 103.881 294.457 104.093 293.978 104.517C293.498 104.941 293.203 105.532 293.091 106.29ZM302.053 111.124V99.4155H303.374V111.124H302.053ZM314.279 111.358C313.432 111.358 312.673 111.207 312.004 110.906C311.335 110.605 310.806 110.153 310.415 109.551C310.036 108.938 309.847 108.174 309.847 107.26V106.909H311.235V107.26C311.235 108.23 311.519 108.955 312.088 109.434C312.657 109.903 313.387 110.137 314.279 110.137C315.193 110.137 315.89 109.93 316.37 109.518C316.849 109.105 317.089 108.587 317.089 107.962C317.089 107.527 316.978 107.182 316.755 106.925C316.543 106.669 316.242 106.463 315.851 106.307C315.461 106.139 315.004 105.994 314.48 105.872L313.61 105.654C312.93 105.476 312.328 105.258 311.804 105.002C311.28 104.745 310.867 104.411 310.566 103.998C310.276 103.575 310.131 103.034 310.131 102.376C310.131 101.718 310.293 101.149 310.616 100.67C310.951 100.19 311.413 99.8225 312.004 99.566C312.607 99.3096 313.298 99.1813 314.078 99.1813C314.87 99.1813 315.578 99.3207 316.203 99.5995C316.838 99.8671 317.334 100.269 317.691 100.804C318.059 101.328 318.243 101.991 318.243 102.794V103.497H316.855V102.794C316.855 102.225 316.732 101.768 316.487 101.423C316.253 101.077 315.924 100.82 315.5 100.653C315.088 100.486 314.614 100.402 314.078 100.402C313.309 100.402 312.69 100.575 312.222 100.921C311.754 101.255 311.519 101.735 311.519 102.359C311.519 102.772 311.62 103.106 311.82 103.363C312.021 103.619 312.305 103.831 312.673 103.998C313.041 104.154 313.482 104.294 313.995 104.417L314.865 104.634C315.545 104.779 316.152 104.98 316.688 105.236C317.234 105.481 317.669 105.821 317.992 106.256C318.316 106.68 318.477 107.238 318.477 107.929C318.477 108.62 318.304 109.222 317.959 109.735C317.613 110.248 317.122 110.65 316.487 110.94C315.862 111.218 315.127 111.358 314.279 111.358ZM323.7 111.124C323.232 111.124 322.87 110.995 322.613 110.739C322.368 110.482 322.245 110.131 322.245 109.685V104.099H319.787V102.945H322.245V100.034H323.567V102.945H326.243V104.099H323.567V109.484C323.567 109.819 323.728 109.986 324.052 109.986H325.875V111.124H323.7ZM331.869 111.358C331.044 111.358 330.313 111.185 329.678 110.839C329.053 110.494 328.563 110.008 328.206 109.384C327.86 108.748 327.688 108.001 327.688 107.143V106.925C327.688 106.078 327.86 105.336 328.206 104.701C328.563 104.065 329.053 103.575 329.678 103.229C330.313 102.883 331.044 102.71 331.869 102.71C332.694 102.71 333.419 102.883 334.043 103.229C334.679 103.575 335.17 104.065 335.515 104.701C335.872 105.336 336.05 106.078 336.05 106.925V107.143C336.05 108.001 335.872 108.748 335.515 109.384C335.17 110.008 334.679 110.494 334.043 110.839C333.419 111.185 332.694 111.358 331.869 111.358ZM331.869 110.17C332.739 110.17 333.43 109.897 333.943 109.351C334.467 108.793 334.729 108.046 334.729 107.109V106.959C334.729 106.022 334.467 105.281 333.943 104.734C333.43 104.177 332.739 103.898 331.869 103.898C331.01 103.898 330.319 104.177 329.795 104.734C329.271 105.281 329.009 106.022 329.009 106.959V107.109C329.009 108.046 329.271 108.793 329.795 109.351C330.319 109.897 331.01 110.17 331.869 110.17ZM338.428 111.124V102.945H339.716V103.948H339.95C340.095 103.591 340.318 103.329 340.619 103.162C340.92 102.995 341.316 102.911 341.807 102.911H342.777V104.115H341.723C341.132 104.115 340.653 104.283 340.285 104.617C339.928 104.941 339.75 105.448 339.75 106.139V111.124H338.428ZM348.186 111.358C347.36 111.358 346.636 111.185 346.011 110.839C345.387 110.482 344.902 109.986 344.556 109.351C344.21 108.715 344.038 107.979 344.038 107.143V106.942C344.038 106.095 344.21 105.353 344.556 104.718C344.902 104.082 345.381 103.591 345.995 103.246C346.608 102.889 347.31 102.71 348.102 102.71C348.871 102.71 349.552 102.878 350.143 103.212C350.733 103.536 351.196 104.004 351.531 104.617C351.865 105.23 352.033 105.95 352.033 106.775V107.377H345.359C345.392 108.258 345.677 108.949 346.212 109.451C346.747 109.942 347.416 110.187 348.219 110.187C348.922 110.187 349.462 110.025 349.841 109.702C350.221 109.378 350.51 108.994 350.711 108.548L351.849 109.1C351.681 109.445 351.447 109.791 351.146 110.137C350.856 110.482 350.471 110.772 349.992 111.006C349.524 111.241 348.922 111.358 348.186 111.358ZM345.376 106.29H350.694C350.65 105.532 350.388 104.941 349.908 104.517C349.44 104.093 348.838 103.881 348.102 103.881C347.355 103.881 346.742 104.093 346.262 104.517C345.783 104.941 345.487 105.532 345.376 106.29Z" fill="#475569"/>
<path d="M412.981 133.165C413.207 132.94 413.207 132.574 412.981 132.348L409.304 128.671C409.078 128.445 408.712 128.445 408.486 128.671C408.261 128.896 408.261 129.262 408.486 129.488L411.755 132.757L408.486 136.026C408.261 136.251 408.261 136.617 408.486 136.843C408.712 137.069 409.078 137.069 409.304 136.843L412.981 133.165ZM189.563 133.335L193.047 133.335L193.047 132.179L189.562 132.179L189.563 133.335ZM200.016 133.335L206.985 133.335L206.985 132.179L200.016 132.179L200.016 133.335ZM213.954 133.335L220.923 133.335L220.923 132.179L213.954 132.179L213.954 133.335ZM227.892 133.335L234.861 133.335L234.861 132.179L227.892 132.179L227.892 133.335ZM241.83 133.335L248.8 133.335L248.8 132.179L241.83 132.179L241.83 133.335ZM255.769 133.335L262.738 133.335L262.738 132.179L255.769 132.179L255.769 133.335ZM269.707 133.335L276.676 133.335L276.676 132.179L269.707 132.179L269.707 133.335ZM283.645 133.335L290.614 133.335L290.614 132.179L283.645 132.179L283.645 133.335ZM297.583 133.335L304.552 133.335L304.552 132.179L297.583 132.179L297.583 133.335ZM311.521 133.335L318.49 133.335L318.49 132.179L311.521 132.179L311.521 133.335ZM325.459 133.335L332.428 133.335L332.428 132.179L325.459 132.179L325.459 133.335ZM339.397 133.335L346.366 133.335L346.366 132.179L339.397 132.179L339.397 133.335ZM353.336 133.335L360.305 133.335L360.305 132.179L353.336 132.179L353.336 133.335ZM367.274 133.335L374.243 133.335L374.243 132.179L367.274 132.179L367.274 133.335ZM381.212 133.335L388.181 133.335L388.181 132.179L381.212 132.179L381.212 133.335ZM395.15 133.335L402.119 133.335L402.119 132.179L395.15 132.179L395.15 133.335ZM409.088 133.335L412.573 133.335L412.573 132.179L409.088 132.179L409.088 133.335ZM413.39 133.574C413.841 133.123 413.841 132.391 413.39 131.94L406.035 124.585C405.583 124.133 404.852 124.133 404.4 124.585C403.949 125.036 403.949 125.768 404.4 126.219L410.938 132.757L404.4 139.295C403.949 139.746 403.949 140.478 404.4 140.929C404.852 141.38 405.583 141.38 406.035 140.929L413.39 133.574ZM189.563 133.913L193.047 133.913L193.047 131.601L189.562 131.601L189.563 133.913ZM200.016 133.913L206.985 133.913L206.985 131.601L200.016 131.601L200.016 133.913ZM213.954 133.913L220.923 133.913L220.923 131.601L213.954 131.601L213.954 133.913ZM227.892 133.913L234.861 133.913L234.861 131.601L227.892 131.601L227.892 133.913ZM241.83 133.913L248.8 133.913L248.8 131.601L241.83 131.601L241.83 133.913ZM255.769 133.913L262.738 133.913L262.738 131.601L255.769 131.601L255.769 133.913ZM269.707 133.913L276.676 133.913L276.676 131.601L269.707 131.601L269.707 133.913ZM283.645 133.913L290.614 133.913L290.614 131.601L283.645 131.601L283.645 133.913ZM297.583 133.913L304.552 133.913L304.552 131.601L297.583 131.601L297.583 133.913ZM311.521 133.913L318.49 133.913L318.49 131.601L311.521 131.601L311.521 133.913ZM325.459 133.913L332.428 133.913L332.428 131.601L325.459 131.601L325.459 133.913ZM339.397 133.913L346.366 133.913L346.366 131.601L339.397 131.601L339.397 133.913ZM353.336 133.913L360.305 133.913L360.305 131.601L353.336 131.601L353.336 133.913ZM367.274 133.913L374.243 133.913L374.243 131.601L367.274 131.601L367.274 133.913ZM381.212 133.913L388.181 133.913L388.181 131.601L381.212 131.601L381.212 133.913ZM395.15 133.913L402.119 133.913L402.119 131.601L395.15 131.601L395.15 133.913ZM409.088 133.913L412.573 133.913L412.573 131.601L409.088 131.601L409.088 133.913Z" fill="#475569"/>
<ellipse cx="133.87" cy="127.997" rx="43.456" ry="43.8455" fill="url(#paint0_radial_3361_23265)"/>
<ellipse cx="72.7373" cy="102.73" rx="43.456" ry="43.8455" fill="url(#paint1_radial_3361_23265)"/>
<ellipse cx="90.4092" cy="158.465" rx="43.456" ry="43.8455" fill="url(#paint2_radial_3361_23265)"/>
<path d="M506.714 82.3931L503.944 74.6534H505.273L507.6 81.4592H507.822L510.148 74.6534H511.478L508.708 82.3931H506.714ZM516.037 82.3931V72.1685H515.8L513.647 76.1095H512.254L514.898 71.3138H517.319V82.3931H516.037Z" fill="#475569"/>
<path d="M441.987 109.425L439.217 101.686H440.547L442.874 108.491H443.095L445.422 101.686H446.751L443.981 109.425H441.987ZM448.082 109.425V108.27C448.082 107.479 448.219 106.845 448.493 106.371C448.778 105.896 449.169 105.516 449.665 105.231C450.171 104.936 450.772 104.682 451.469 104.471L452.339 104.202C452.814 104.054 453.231 103.875 453.59 103.664C453.949 103.442 454.228 103.168 454.429 102.841C454.629 102.503 454.729 102.092 454.729 101.607V101.543C454.729 100.847 454.487 100.298 454.001 99.8971C453.516 99.4856 452.893 99.2799 452.134 99.2799C451.332 99.2799 450.678 99.4962 450.171 99.9288C449.665 100.351 449.411 100.995 449.411 101.86V102.081H448.145V101.876C448.145 101.074 448.319 100.393 448.667 99.8338C449.016 99.2746 449.49 98.8525 450.092 98.5676C450.693 98.2722 451.374 98.1245 452.134 98.1245C452.893 98.1245 453.563 98.2669 454.144 98.5518C454.735 98.8367 455.194 99.2324 455.521 99.7389C455.848 100.245 456.011 100.836 456.011 101.512V101.654C456.011 102.372 455.869 102.968 455.584 103.442C455.299 103.907 454.903 104.287 454.397 104.582C453.901 104.878 453.315 105.131 452.64 105.342L451.785 105.611C451.247 105.78 450.799 105.959 450.44 106.149C450.092 106.328 449.828 106.561 449.649 106.845C449.469 107.13 449.38 107.515 449.38 108.001V108.27H455.916V109.425H448.082Z" fill="#475569"/>
<path d="M511.604 182.785L508.835 175.045H510.164L512.491 181.851H512.712L515.039 175.045H516.368L513.599 182.785H511.604ZM521.656 183.006C520.875 183.006 520.173 182.859 519.551 182.563C518.939 182.268 518.453 181.84 518.095 181.281C517.746 180.722 517.572 180.047 517.572 179.255V178.954H518.854V179.239C518.854 180.052 519.113 180.69 519.63 181.154C520.147 181.619 520.822 181.851 521.656 181.851C522.5 181.851 523.154 181.635 523.618 181.202C524.093 180.759 524.331 180.205 524.331 179.54V179.413C524.331 178.928 524.215 178.538 523.983 178.242C523.75 177.936 523.434 177.715 523.033 177.577C522.642 177.43 522.21 177.356 521.735 177.356H519.931V175.757L524.157 173.051V172.861H517.841V171.705H525.518V173.494L521.387 176.153V176.343H522.178C522.801 176.343 523.371 176.459 523.888 176.691C524.415 176.913 524.832 177.25 525.138 177.704C525.454 178.147 525.613 178.706 525.613 179.382V179.556C525.613 180.252 525.449 180.859 525.122 181.376C524.795 181.893 524.336 182.294 523.745 182.579C523.154 182.864 522.458 183.006 521.656 183.006Z" fill="#475569"/>
<ellipse cx="448.523" cy="132.172" rx="15.6869" ry="15.8275" fill="url(#paint3_radial_3361_23265)"/>
<ellipse cx="492.632" cy="100.517" rx="15.6869" ry="15.8275" fill="url(#paint4_radial_3361_23265)"/>
<ellipse cx="492.632" cy="158.881" rx="15.6869" ry="15.8275" fill="url(#paint5_radial_3361_23265)"/>
<ellipse cx="518.14" cy="107.442" rx="15.6869" ry="15.8275" fill="url(#paint6_radial_3361_23265)"/>
<ellipse cx="479.898" cy="174.708" rx="15.6869" ry="15.8275" fill="url(#paint7_radial_3361_23265)"/>
<path d="M274.578 187.673L285.729 167.968V187.673H274.578Z" fill="#64748B"/>
<path d="M285.729 284.683V187.673M285.729 187.673V167.968L274.578 187.673H285.729Z" stroke="#64748B" stroke-width="2.78763"/>
<path d="M308.031 260.43L296.881 280.135V260.43H308.031Z" fill="#64748B"/>
<path d="M296.881 163.421V260.43M296.881 260.43V280.135L308.031 260.43H296.881Z" stroke="#64748B" stroke-width="2.78763"/>
<defs>
<radialGradient id="paint0_radial_3361_23265" cx="0" cy="0" r="1" gradientUnits="userSpaceOnUse" gradientTransform="translate(167.383 123.538) rotate(158.77) scale(73.8808 74.3701)">
<stop stop-color="#FFDFA6"/>
<stop offset="1" stop-color="#F4AC2C"/>
</radialGradient>
<radialGradient id="paint1_radial_3361_23265" cx="0" cy="0" r="1" gradientUnits="userSpaceOnUse" gradientTransform="translate(81.9441 95.6699) rotate(146.625) scale(53.3605 53.5506)">
<stop stop-color="#FFDFA6"/>
<stop offset="1" stop-color="#F4AC2C"/>
</radialGradient>
<radialGradient id="paint2_radial_3361_23265" cx="0" cy="0" r="1" gradientUnits="userSpaceOnUse" gradientTransform="translate(110.296 154.006) rotate(154.159) scale(61.3781 61.7201)">
<stop stop-color="#FFDFA6"/>
<stop offset="1" stop-color="#F4AC2C"/>
</radialGradient>
<radialGradient id="paint3_radial_3361_23265" cx="0" cy="0" r="1" gradientUnits="userSpaceOnUse" gradientTransform="translate(460.62 130.563) rotate(158.77) scale(26.6697 26.8463)">
<stop stop-color="#FFDFA6"/>
<stop offset="1" stop-color="#F4AC2C"/>
</radialGradient>
<radialGradient id="paint4_radial_3361_23265" cx="0" cy="0" r="1" gradientUnits="userSpaceOnUse" gradientTransform="translate(504.73 98.9079) rotate(158.77) scale(26.6697 26.8463)">
<stop stop-color="#FFDFA6"/>
<stop offset="1" stop-color="#F4AC2C"/>
</radialGradient>
<radialGradient id="paint5_radial_3361_23265" cx="0" cy="0" r="1" gradientUnits="userSpaceOnUse" gradientTransform="translate(504.73 157.271) rotate(158.77) scale(26.6697 26.8463)">
<stop stop-color="#FFDFA6"/>
<stop offset="1" stop-color="#F4AC2C"/>
</radialGradient>
<radialGradient id="paint6_radial_3361_23265" cx="0" cy="0" r="1" gradientUnits="userSpaceOnUse" gradientTransform="translate(530.238 105.832) rotate(158.77) scale(26.6697 26.8463)">
<stop stop-color="#FFDFA6"/>
<stop offset="1" stop-color="#F4AC2C"/>
</radialGradient>
<radialGradient id="paint7_radial_3361_23265" cx="0" cy="0" r="1" gradientUnits="userSpaceOnUse" gradientTransform="translate(491.995 173.099) rotate(158.77) scale(26.6697 26.8463)">
<stop stop-color="#FFDFA6"/>
<stop offset="1" stop-color="#F4AC2C"/>
</radialGradient>
<clipPath id="clip0_3361_23265">
<rect x="246.109" y="303.165" width="88.9921" height="90.0045" rx="44.4961" fill="white"/>
</clipPath>
</defs>
</svg>
