<svg width="1440" height="341" viewBox="0 0 1440 341" fill="none" xmlns="http://www.w3.org/2000/svg">
<g clip-path="url(#clip0_3322_23178)">
<path d="M242.12 193V148.2H260.232C263.005 148.2 265.437 148.691 267.528 149.672C269.661 150.611 271.325 151.976 272.52 153.768C273.715 155.517 274.312 157.629 274.312 160.104V160.808C274.312 163.752 273.608 166.077 272.2 167.784C270.792 169.491 269.128 170.643 267.208 171.24V172.136C268.744 172.179 270.003 172.691 270.984 173.672C272.008 174.611 272.52 176.04 272.52 177.96V193H267.208V178.6C267.208 177.32 266.845 176.339 266.12 175.656C265.437 174.973 264.392 174.632 262.984 174.632H247.496V193H242.12ZM247.496 169.768H259.72C262.664 169.768 264.925 169.064 266.504 167.656C268.125 166.205 268.936 164.2 268.936 161.64V161.192C268.936 158.632 268.147 156.648 266.568 155.24C264.989 153.789 262.707 153.064 259.72 153.064H247.496V169.768ZM297.023 193.896C293.866 193.896 291.092 193.235 288.703 191.912C286.314 190.547 284.458 188.648 283.135 186.216C281.812 183.784 281.151 180.968 281.151 177.768V177C281.151 173.757 281.812 170.92 283.135 168.488C284.458 166.056 286.292 164.179 288.639 162.856C290.986 161.491 293.674 160.808 296.703 160.808C299.647 160.808 302.25 161.448 304.511 162.728C306.772 163.965 308.543 165.757 309.823 168.104C311.103 170.451 311.743 173.203 311.743 176.36V178.664H286.207C286.335 182.035 287.423 184.68 289.471 186.6C291.519 188.477 294.079 189.416 297.151 189.416C299.839 189.416 301.908 188.797 303.359 187.56C304.81 186.323 305.919 184.851 306.687 183.144L311.039 185.256C310.399 186.579 309.503 187.901 308.351 189.224C307.242 190.547 305.77 191.656 303.935 192.552C302.143 193.448 299.839 193.896 297.023 193.896ZM286.271 174.504H306.623C306.452 171.603 305.45 169.341 303.615 167.72C301.823 166.099 299.519 165.288 296.703 165.288C293.844 165.288 291.498 166.099 289.663 167.72C287.828 169.341 286.698 171.603 286.271 174.504ZM333.17 193.896C329.287 193.896 326.002 193 323.314 191.208C320.669 189.416 319.069 186.579 318.514 182.696L323.314 181.608C323.655 183.656 324.295 185.277 325.234 186.472C326.173 187.624 327.325 188.456 328.69 188.968C330.098 189.437 331.591 189.672 333.17 189.672C335.517 189.672 337.373 189.203 338.738 188.264C340.103 187.325 340.786 186.067 340.786 184.488C340.786 182.867 340.125 181.736 338.802 181.096C337.522 180.413 335.751 179.859 333.49 179.432L330.866 178.984C328.861 178.643 327.026 178.109 325.362 177.384C323.698 176.659 322.375 175.677 321.394 174.44C320.413 173.203 319.922 171.645 319.922 169.768C319.922 166.952 321.01 164.755 323.186 163.176C325.362 161.597 328.242 160.808 331.826 160.808C335.367 160.808 338.226 161.619 340.402 163.24C342.621 164.819 344.05 167.059 344.69 169.96L339.954 171.176C339.57 168.915 338.653 167.336 337.202 166.44C335.751 165.501 333.959 165.032 331.826 165.032C329.693 165.032 328.007 165.437 326.77 166.248C325.533 167.016 324.914 168.168 324.914 169.704C324.914 171.197 325.49 172.307 326.642 173.032C327.837 173.715 329.415 174.227 331.378 174.568L334.002 175.016C336.221 175.4 338.205 175.933 339.954 176.616C341.746 177.256 343.154 178.195 344.178 179.432C345.245 180.669 345.778 182.291 345.778 184.296C345.778 187.368 344.626 189.736 342.322 191.4C340.061 193.064 337.01 193.896 333.17 193.896ZM368.648 193.896C365.491 193.896 362.717 193.235 360.328 191.912C357.939 190.547 356.083 188.648 354.76 186.216C353.437 183.784 352.776 180.968 352.776 177.768V177C352.776 173.757 353.437 170.92 354.76 168.488C356.083 166.056 357.917 164.179 360.264 162.856C362.611 161.491 365.299 160.808 368.328 160.808C371.272 160.808 373.875 161.448 376.136 162.728C378.397 163.965 380.168 165.757 381.448 168.104C382.728 170.451 383.368 173.203 383.368 176.36V178.664H357.832C357.96 182.035 359.048 184.68 361.096 186.6C363.144 188.477 365.704 189.416 368.776 189.416C371.464 189.416 373.533 188.797 374.984 187.56C376.435 186.323 377.544 184.851 378.312 183.144L382.664 185.256C382.024 186.579 381.128 187.901 379.976 189.224C378.867 190.547 377.395 191.656 375.56 192.552C373.768 193.448 371.464 193.896 368.648 193.896ZM357.896 174.504H378.248C378.077 171.603 377.075 169.341 375.24 167.72C373.448 166.099 371.144 165.288 368.328 165.288C365.469 165.288 363.123 166.099 361.288 167.72C359.453 169.341 358.323 171.603 357.896 174.504ZM401.787 193.896C399.611 193.896 397.627 193.512 395.835 192.744C394.043 191.976 392.635 190.867 391.611 189.416C390.587 187.965 390.075 186.195 390.075 184.104C390.075 181.971 390.587 180.221 391.611 178.856C392.635 177.448 394.043 176.403 395.835 175.72C397.627 174.995 399.632 174.632 401.851 174.632H412.411V172.328C412.411 170.109 411.75 168.36 410.427 167.08C409.147 165.8 407.227 165.16 404.667 165.16C402.15 165.16 400.187 165.779 398.779 167.016C397.371 168.211 396.411 169.832 395.899 171.88L391.163 170.344C391.675 168.595 392.486 167.016 393.595 165.608C394.704 164.157 396.176 163.005 398.011 162.152C399.888 161.256 402.128 160.808 404.731 160.808C408.742 160.808 411.856 161.853 414.075 163.944C416.294 165.992 417.403 168.893 417.403 172.648V186.792C417.403 188.072 418 188.712 419.195 188.712H422.075V193H417.659C416.251 193 415.12 192.616 414.267 191.848C413.414 191.037 412.987 189.971 412.987 188.648V188.328H412.219C411.75 189.139 411.11 189.992 410.299 190.888C409.531 191.741 408.464 192.445 407.099 193C405.734 193.597 403.963 193.896 401.787 193.896ZM402.363 189.544C405.35 189.544 407.76 188.669 409.595 186.92C411.472 185.128 412.411 182.632 412.411 179.432V178.728H402.043C400.038 178.728 398.374 179.176 397.051 180.072C395.771 180.925 395.131 182.227 395.131 183.976C395.131 185.725 395.792 187.091 397.115 188.072C398.48 189.053 400.23 189.544 402.363 189.544ZM429 193V161.704H433.928V165.544H434.824C435.378 164.179 436.232 163.176 437.384 162.536C438.536 161.896 440.05 161.576 441.928 161.576H445.64V166.184H441.608C439.346 166.184 437.512 166.824 436.104 168.104C434.738 169.341 434.056 171.283 434.056 173.928V193H429ZM466.4 193.896C463.37 193.896 460.64 193.256 458.208 191.976C455.818 190.653 453.92 188.776 452.512 186.344C451.146 183.912 450.464 181.032 450.464 177.704V177C450.464 173.629 451.146 170.749 452.512 168.36C453.92 165.928 455.818 164.072 458.208 162.792C460.64 161.469 463.37 160.808 466.4 160.808C469.386 160.808 471.925 161.363 474.016 162.472C476.149 163.581 477.813 165.053 479.007 166.888C480.245 168.723 481.034 170.685 481.376 172.776L476.448 173.8C476.234 172.264 475.722 170.856 474.912 169.576C474.144 168.296 473.056 167.272 471.648 166.504C470.24 165.736 468.512 165.352 466.464 165.352C464.373 165.352 462.496 165.821 460.832 166.76C459.21 167.699 457.909 169.043 456.928 170.792C455.989 172.541 455.52 174.632 455.52 177.064V177.64C455.52 180.072 455.989 182.163 456.928 183.912C457.909 185.661 459.21 187.005 460.832 187.944C462.496 188.883 464.373 189.352 466.464 189.352C469.578 189.352 471.946 188.541 473.568 186.92C475.232 185.299 476.256 183.293 476.64 180.904L481.632 181.992C481.162 184.04 480.309 185.981 479.072 187.816C477.834 189.651 476.149 191.123 474.016 192.232C471.925 193.341 469.386 193.896 466.4 193.896ZM490.25 193V148.2H495.306V166.696H496.202C496.628 165.757 497.268 164.883 498.122 164.072C499.018 163.219 500.148 162.515 501.514 161.96C502.922 161.405 504.692 161.128 506.826 161.128C509.172 161.128 511.263 161.64 513.098 162.664C514.975 163.645 516.468 165.096 517.578 167.016C518.687 168.893 519.242 171.24 519.242 174.056V193H514.186V174.44C514.186 171.325 513.396 169.064 511.818 167.656C510.282 166.248 508.191 165.544 505.546 165.544C502.516 165.544 500.042 166.525 498.122 168.488C496.244 170.451 495.306 173.373 495.306 177.256V193H490.25ZM545.745 193V148.2H573.329V153.064H551.121V168.04H571.537V172.904H551.121V188.136H573.649V193H545.745ZM582 193V161.704H586.928V165.544H587.824C588.378 164.179 589.232 163.176 590.384 162.536C591.536 161.896 593.05 161.576 594.928 161.576H598.64V166.184H594.608C592.346 166.184 590.512 166.824 589.104 168.104C587.738 169.341 587.056 171.283 587.056 173.928V193H582ZM614.662 193.896C612.486 193.896 610.502 193.512 608.71 192.744C606.918 191.976 605.51 190.867 604.486 189.416C603.462 187.965 602.95 186.195 602.95 184.104C602.95 181.971 603.462 180.221 604.486 178.856C605.51 177.448 606.918 176.403 608.71 175.72C610.502 174.995 612.507 174.632 614.726 174.632H625.286V172.328C625.286 170.109 624.625 168.36 623.302 167.08C622.022 165.8 620.102 165.16 617.542 165.16C615.025 165.16 613.062 165.779 611.654 167.016C610.246 168.211 609.286 169.832 608.774 171.88L604.038 170.344C604.55 168.595 605.361 167.016 606.47 165.608C607.579 164.157 609.051 163.005 610.886 162.152C612.763 161.256 615.003 160.808 617.606 160.808C621.617 160.808 624.731 161.853 626.95 163.944C629.169 165.992 630.278 168.893 630.278 172.648V186.792C630.278 188.072 630.875 188.712 632.07 188.712H634.95V193H630.534C629.126 193 627.995 192.616 627.142 191.848C626.289 191.037 625.862 189.971 625.862 188.648V188.328H625.094C624.625 189.139 623.985 189.992 623.174 190.888C622.406 191.741 621.339 192.445 619.974 193C618.609 193.597 616.838 193.896 614.662 193.896ZM615.238 189.544C618.225 189.544 620.635 188.669 622.47 186.92C624.347 185.128 625.286 182.632 625.286 179.432V178.728H614.918C612.913 178.728 611.249 179.176 609.926 180.072C608.646 180.925 608.006 182.227 608.006 183.976C608.006 185.725 608.667 187.091 609.99 188.072C611.355 189.053 613.105 189.544 615.238 189.544Z" fill="white"/>
<path d="M698.333 152.333L717 171M717 171L698.333 189.667M717 171L669 171" stroke="white" stroke-width="4" stroke-linecap="round" stroke-linejoin="round"/>
<path d="M754.12 193V148.2H771.272C773.96 148.2 776.349 148.733 778.44 149.8C780.573 150.824 782.259 152.296 783.496 154.216C784.733 156.136 785.352 158.461 785.352 161.192V162.024C785.352 164.712 784.712 167.037 783.432 169C782.195 170.92 780.509 172.392 778.376 173.416C776.243 174.44 773.875 174.952 771.272 174.952H759.496V193H754.12ZM759.496 170.088H770.696C773.555 170.088 775.816 169.384 777.48 167.976C779.144 166.525 779.976 164.499 779.976 161.896V161.256C779.976 158.653 779.144 156.648 777.48 155.24C775.859 153.789 773.597 153.064 770.696 153.064H759.496V170.088ZM792.75 193V161.704H797.678V165.544H798.574C799.128 164.179 799.982 163.176 801.134 162.536C802.286 161.896 803.8 161.576 805.678 161.576H809.39V166.184H805.358C803.096 166.184 801.262 166.824 799.854 168.104C798.488 169.341 797.806 171.283 797.806 173.928V193H792.75ZM830.214 193.896C827.056 193.896 824.262 193.235 821.83 191.912C819.44 190.589 817.563 188.733 816.198 186.344C814.875 183.912 814.214 181.053 814.214 177.768V176.936C814.214 173.693 814.875 170.856 816.198 168.424C817.563 165.992 819.44 164.115 821.83 162.792C824.262 161.469 827.056 160.808 830.214 160.808C833.371 160.808 836.144 161.469 838.534 162.792C840.966 164.115 842.843 165.992 844.166 168.424C845.531 170.856 846.214 173.693 846.214 176.936V177.768C846.214 181.053 845.531 183.912 844.166 186.344C842.843 188.733 840.966 190.589 838.534 191.912C836.144 193.235 833.371 193.896 830.214 193.896ZM830.214 189.352C833.542 189.352 836.187 188.307 838.15 186.216C840.155 184.083 841.158 181.224 841.158 177.64V177.064C841.158 173.48 840.155 170.643 838.15 168.552C836.187 166.419 833.542 165.352 830.214 165.352C826.928 165.352 824.283 166.419 822.278 168.552C820.272 170.643 819.27 173.48 819.27 177.064V177.64C819.27 181.224 820.272 184.083 822.278 186.216C824.283 188.307 826.928 189.352 830.214 189.352ZM868.56 193.896C865.872 193.896 863.397 193.256 861.136 191.976C858.875 190.696 857.083 188.84 855.76 186.408C854.437 183.976 853.776 181.096 853.776 177.768V176.936C853.776 173.608 854.437 170.749 855.76 168.36C857.083 165.928 858.853 164.072 861.072 162.792C863.333 161.469 865.829 160.808 868.56 160.808C870.736 160.808 872.571 161.107 874.064 161.704C875.6 162.259 876.837 162.984 877.776 163.88C878.715 164.733 879.44 165.651 879.952 166.632H880.848V148.2H885.904V193H880.976V187.816H880.08C879.227 189.395 877.904 190.803 876.112 192.04C874.32 193.277 871.803 193.896 868.56 193.896ZM869.904 189.416C873.147 189.416 875.771 188.392 877.776 186.344C879.824 184.253 880.848 181.352 880.848 177.64V177.064C880.848 173.352 879.824 170.472 877.776 168.424C875.771 166.333 873.147 165.288 869.904 165.288C866.704 165.288 864.059 166.333 861.968 168.424C859.92 170.472 858.896 173.352 858.896 177.064V177.64C858.896 181.352 859.92 184.253 861.968 186.344C864.059 188.392 866.704 189.416 869.904 189.416ZM908.468 193.576C906.206 193.576 904.116 193.085 902.196 192.104C900.318 191.123 898.825 189.672 897.716 187.752C896.649 185.789 896.116 183.421 896.116 180.648V161.704H901.172V180.264C901.172 183.379 901.94 185.64 903.476 187.048C905.054 188.456 907.166 189.16 909.812 189.16C912.798 189.16 915.252 188.179 917.172 186.216C919.092 184.253 920.052 181.331 920.052 177.448V161.704H925.108V193H920.18V187.688H919.284C918.601 189.181 917.428 190.547 915.764 191.784C914.1 192.979 911.668 193.576 908.468 193.576ZM950.087 193.896C947.058 193.896 944.327 193.256 941.895 191.976C939.506 190.653 937.607 188.776 936.199 186.344C934.834 183.912 934.151 181.032 934.151 177.704V177C934.151 173.629 934.834 170.749 936.199 168.36C937.607 165.928 939.506 164.072 941.895 162.792C944.327 161.469 947.058 160.808 950.087 160.808C953.074 160.808 955.612 161.363 957.703 162.472C959.836 163.581 961.5 165.053 962.695 166.888C963.932 168.723 964.722 170.685 965.063 172.776L960.135 173.8C959.922 172.264 959.41 170.856 958.599 169.576C957.831 168.296 956.743 167.272 955.335 166.504C953.927 165.736 952.199 165.352 950.151 165.352C948.06 165.352 946.183 165.821 944.519 166.76C942.898 167.699 941.596 169.043 940.615 170.792C939.676 172.541 939.207 174.632 939.207 177.064V177.64C939.207 180.072 939.676 182.163 940.615 183.912C941.596 185.661 942.898 187.005 944.519 187.944C946.183 188.883 948.06 189.352 950.151 189.352C953.266 189.352 955.634 188.541 957.255 186.92C958.919 185.299 959.943 183.293 960.327 180.904L965.319 181.992C964.85 184.04 963.996 185.981 962.759 187.816C961.522 189.651 959.836 191.123 957.703 192.232C955.612 193.341 953.074 193.896 950.087 193.896ZM984.145 193C982.353 193 980.966 192.509 979.985 191.528C979.046 190.547 978.577 189.203 978.577 187.496V166.12H969.169V161.704H978.577V150.568H983.633V161.704H993.873V166.12H983.633V186.728C983.633 188.008 984.251 188.648 985.489 188.648H992.465V193H984.145ZM1002.06 193V161.704H1007.12V193H1002.06ZM1004.62 156.84C1003.51 156.84 1002.57 156.477 1001.81 155.752C1001.08 155.027 1000.72 154.109 1000.72 153C1000.72 151.848 1001.08 150.909 1001.81 150.184C1002.57 149.459 1003.51 149.096 1004.62 149.096C1005.73 149.096 1006.65 149.459 1007.37 150.184C1008.1 150.909 1008.46 151.848 1008.46 153C1008.46 154.109 1008.1 155.027 1007.37 155.752C1006.65 156.477 1005.73 156.84 1004.62 156.84ZM1032.21 193.896C1029.06 193.896 1026.26 193.235 1023.83 191.912C1021.44 190.589 1019.56 188.733 1018.2 186.344C1016.87 183.912 1016.21 181.053 1016.21 177.768V176.936C1016.21 173.693 1016.87 170.856 1018.2 168.424C1019.56 165.992 1021.44 164.115 1023.83 162.792C1026.26 161.469 1029.06 160.808 1032.21 160.808C1035.37 160.808 1038.14 161.469 1040.53 162.792C1042.97 164.115 1044.84 165.992 1046.17 168.424C1047.53 170.856 1048.21 173.693 1048.21 176.936V177.768C1048.21 181.053 1047.53 183.912 1046.17 186.344C1044.84 188.733 1042.97 190.589 1040.53 191.912C1038.14 193.235 1035.37 193.896 1032.21 193.896ZM1032.21 189.352C1035.54 189.352 1038.19 188.307 1040.15 186.216C1042.15 184.083 1043.16 181.224 1043.16 177.64V177.064C1043.16 173.48 1042.15 170.643 1040.15 168.552C1038.19 166.419 1035.54 165.352 1032.21 165.352C1028.93 165.352 1026.28 166.419 1024.28 168.552C1022.27 170.643 1021.27 173.48 1021.27 177.064V177.64C1021.27 181.224 1022.27 184.083 1024.28 186.216C1026.28 188.307 1028.93 189.352 1032.21 189.352ZM1057.31 193V161.704H1062.24V167.016H1063.14C1063.82 165.523 1064.97 164.179 1066.59 162.984C1068.26 161.747 1070.69 161.128 1073.89 161.128C1076.23 161.128 1078.33 161.619 1080.16 162.6C1082.04 163.581 1083.53 165.032 1084.64 166.952C1085.75 168.872 1086.3 171.24 1086.3 174.056V193H1081.25V174.44C1081.25 171.325 1080.46 169.064 1078.88 167.656C1077.34 166.248 1075.25 165.544 1072.61 165.544C1069.58 165.544 1067.1 166.525 1065.18 168.488C1063.31 170.451 1062.37 173.373 1062.37 177.256V193H1057.31ZM1112.81 193V148.2H1140.39V153.064H1118.18V168.04H1138.6V172.904H1118.18V188.136H1140.71V193H1112.81ZM1149.06 193V161.704H1153.99V165.544H1154.89C1155.44 164.179 1156.29 163.176 1157.45 162.536C1158.6 161.896 1160.11 161.576 1161.99 161.576H1165.7V166.184H1161.67C1159.41 166.184 1157.57 166.824 1156.17 168.104C1154.8 169.341 1154.12 171.283 1154.12 173.928V193H1149.06ZM1181.72 193.896C1179.55 193.896 1177.56 193.512 1175.77 192.744C1173.98 191.976 1172.57 190.867 1171.55 189.416C1170.52 187.965 1170.01 186.195 1170.01 184.104C1170.01 181.971 1170.52 180.221 1171.55 178.856C1172.57 177.448 1173.98 176.403 1175.77 175.72C1177.56 174.995 1179.57 174.632 1181.79 174.632H1192.35V172.328C1192.35 170.109 1191.69 168.36 1190.36 167.08C1189.08 165.8 1187.16 165.16 1184.6 165.16C1182.09 165.16 1180.12 165.779 1178.72 167.016C1177.31 168.211 1176.35 169.832 1175.84 171.88L1171.1 170.344C1171.61 168.595 1172.42 167.016 1173.53 165.608C1174.64 164.157 1176.11 163.005 1177.95 162.152C1179.83 161.256 1182.07 160.808 1184.67 160.808C1188.68 160.808 1191.79 161.853 1194.01 163.944C1196.23 165.992 1197.34 168.893 1197.34 172.648V186.792C1197.34 188.072 1197.94 188.712 1199.13 188.712H1202.01V193H1197.6C1196.19 193 1195.06 192.616 1194.2 191.848C1193.35 191.037 1192.92 189.971 1192.92 188.648V188.328H1192.16C1191.69 189.139 1191.05 189.992 1190.24 190.888C1189.47 191.741 1188.4 192.445 1187.04 193C1185.67 193.597 1183.9 193.896 1181.72 193.896ZM1182.3 189.544C1185.29 189.544 1187.7 188.669 1189.53 186.92C1191.41 185.128 1192.35 182.632 1192.35 179.432V178.728H1181.98C1179.98 178.728 1178.31 179.176 1176.99 180.072C1175.71 180.925 1175.07 182.227 1175.07 183.976C1175.07 185.725 1175.73 187.091 1177.05 188.072C1178.42 189.053 1180.17 189.544 1182.3 189.544Z" fill="white"/>
<g opacity="0.4">
<path d="M469.685 11.2053C582.512 12.393 693.083 36.4633 805.44 46.8357C918.267 57.1685 1029.21 37.453 1141.23 21.7361C1227.82 92.2842 1297.71 225.66 1398.6 251.037C1459.46 266.358 1477.7 344.785 1511.08 403.931C1549.44 471.866 1606.39 522.778 1656 577.332H-284C-158.386 482.978 -32.7715 388.623 92.8427 294.269C155.054 247.276 214.571 204.955 267.129 140.9C292.359 110.179 315.206 76.2901 346.61 55.2286C384.814 29.6143 428.629 27.3973 469.685 11.2053Z" stroke="white" stroke-width="0.5" stroke-miterlimit="10"/>
<path d="M-24.4688 382.394C43.2902 382.394 111.613 377.762 178.526 393.558C246.63 409.631 312.007 439.719 379.452 459.236C514.782 498.39 605.326 443.084 727.117 373.803C834.867 312.558 941.896 316.913 1057.39 303.611C1208.26 286.231 1331.59 286.033 1478.76 338.687" stroke="white" stroke-width="0.5" stroke-miterlimit="10"/>
<path d="M23.1406 346.605C93.1248 346.605 156.684 349.178 224.38 375.228C285.15 398.665 343.695 431.287 405.593 450.091C535.971 489.681 625.199 406.108 734.672 330.096C834.399 260.815 936.476 268.1 1046.55 252.343C1189.46 231.915 1307.65 219.603 1446.2 279.026" stroke="white" stroke-width="0.5" stroke-miterlimit="10"/>
<path d="M65.9219 314.498C192.257 315.329 305.523 374.832 428.943 397.042C545.406 417.945 636.576 351.197 741.443 299.019C838.349 250.839 934.377 254.6 1036.64 244.029C1166.9 230.49 1288.12 216.317 1417 253.926" stroke="white" stroke-width="0.5" stroke-miterlimit="10"/>
<path d="M104.633 285.4C220.876 289.359 334.267 323.762 450.229 330.136C553.371 335.797 647.833 300.919 747.622 274.711C840.234 250.562 933.693 255.193 1027.75 249.968C1149.04 243.277 1269.54 233.34 1390.61 249.572" stroke="white" stroke-width="0.5" stroke-miterlimit="10"/>
<path d="M139.695 258.598C345.856 262.003 547.127 270.475 753.13 254.639C955.843 239.358 1163.7 243.198 1366.6 248.265" stroke="white" stroke-width="0.5" stroke-miterlimit="10"/>
<path d="M171.695 235.163C562.704 234.923 953.713 234.923 1344.72 235.163" stroke="white" stroke-width="0.5" stroke-miterlimit="10"/>
<path d="M201.031 212.16C388.324 205.43 575.523 203.015 762.879 199.848C950.235 196.681 1137.21 213.11 1324.7 213.11" stroke="white" stroke-width="0.5" stroke-miterlimit="10"/>
<path d="M227.992 186.308C407.544 168.137 587.127 162.555 767.055 155.112C948.832 147.59 1125.16 192.999 1306.12 192.761" stroke="white" stroke-width="0.5" stroke-miterlimit="10"/>
<path d="M252.867 158.319C424.866 128.825 597.805 121.541 771.088 109.585C949.543 97.2725 1112.7 170.513 1289.31 174.076" stroke="white" stroke-width="0.5" stroke-miterlimit="10"/>
<path d="M275.875 129.973C440.195 91.967 608.088 83.6929 774.728 68.7678C853.989 61.6813 927.546 62.8294 1005.46 86.4642C1095.25 113.741 1180.75 149.49 1273.58 156.814" stroke="white" stroke-width="0.5" stroke-miterlimit="10"/>
<path d="M297.219 103.132C454.174 60.494 618.118 53.2096 778.113 36.2258C852.234 28.3079 919.68 28.11 991.858 52.5762C1081.74 83.0599 1165.71 126.846 1259.01 140.187" stroke="white" stroke-width="0.5" stroke-miterlimit="10"/>
<path d="M317.078 79.734C467.107 36.74 627.76 30.4057 781.268 13.6595C848.275 6.33545 912.899 4.39558 978.715 26.2885C1069.16 56.4555 1152.19 106.615 1245.52 124.312" stroke="white" stroke-width="0.5" stroke-miterlimit="10"/>
<path d="M335.602 61.9185C481.086 24.0316 635.941 19.0434 784.183 3.84112C947.156 -12.9051 1075.9 72.0929 1232.77 108.159" stroke="white" stroke-width="0.5" stroke-miterlimit="10"/>
<path d="M352.938 49.4084C494.661 18.41 643.279 15.4409 786.946 3.80163C941.801 -8.58981 1071.05 58.712 1220.92 93.2338" stroke="white" stroke-width="0.5" stroke-miterlimit="10"/>
<path d="M369.172 40.9762C507.322 17.2226 650.143 17.2227 789.516 9.70069C936.316 1.78284 1066.32 51.2695 1209.86 80.4072" stroke="white" stroke-width="0.5" stroke-miterlimit="10"/>
<path d="M384.43 35.4736C519.195 18.3315 656.594 21.8549 791.861 18.5689C931.171 15.2039 1061.71 47.7463 1199.29 69.5996" stroke="white" stroke-width="0.5" stroke-miterlimit="10"/>
<path d="M398.758 31.9101C662.46 9.46301 927.165 32.7019 1189.64 60.6124" stroke="white" stroke-width="0.5" stroke-miterlimit="10"/>
<path d="M412.297 29.4162C667.067 16.708 925.786 39.9865 1180.4 53.1698" stroke="white" stroke-width="0.5" stroke-miterlimit="10"/>
<path d="M425.055 27.2385C673.462 21.9335 922.842 46.7165 1171.69 46.3998" stroke="white" stroke-width="0.5" stroke-miterlimit="10"/>
<path d="M437.117 24.7842C558.72 24.5863 679.006 41.293 800.264 49.8047C921.522 58.3164 1042.69 46.202 1163.44 40.3428" stroke="white" stroke-width="0.5" stroke-miterlimit="10"/>
<path d="M448.531 21.4989C567.156 22.5282 683.964 42.2041 802.088 51.9431C920.211 61.682 1038.05 44.7378 1155.64 34.3654" stroke="white" stroke-width="0.5" stroke-miterlimit="10"/>
<path d="M459.367 17.0245C575.109 18.4498 688.594 40.5009 803.803 50.8733C919.012 61.2457 1033.53 41.8866 1148.24 28.1887" stroke="white" stroke-width="0.5" stroke-miterlimit="10"/>
<path d="M1115.38 25.0609C1165.52 63.3437 1200.62 106.971 1240.52 160.892C1255.56 181.241 1271.58 206.538 1289.57 222.809C1317.15 247.751 1315.83 237.339 1348.39 241.1C1407.25 247.83 1418 315.29 1443.64 376.891C1477.46 458.207 1529.7 514.543 1581.54 577.331" stroke="white" stroke-width="0.5" stroke-miterlimit="10"/>
<path d="M1089.55 28.822C1136.71 61.2456 1163.39 89.6311 1195.67 145.016C1209.83 169.285 1224.06 199.373 1242.43 219.128C1269.35 248.067 1269.38 230.015 1298.15 236.27C1326.17 242.327 1317.18 221.305 1342.66 253.174C1366.98 283.619 1374.84 341.419 1388.79 379.86C1417.84 459.83 1459.68 513.474 1506.76 577.371" stroke="white" stroke-width="0.5" stroke-miterlimit="10"/>
<path d="M1063.66 32.623C1116 63.661 1131.98 80.724 1162.69 146.838C1174.91 176.532 1189.46 204.597 1206.13 230.609C1219.07 251.539 1232.98 253.03 1247.88 235.083C1263.4 215.737 1277.32 218.072 1289.62 242.09C1306.55 291.248 1321.1 341.658 1333.19 393.044C1355.91 466.799 1393.02 517.077 1432.22 577.332" stroke="white" stroke-width="0.5" stroke-miterlimit="10"/>
<path d="M1037.9 36.384C1053.51 43.3763 1069.59 48.5576 1085.94 51.8635C1105.07 81.1606 1119.66 114.734 1128.98 150.837C1138.71 183.465 1152.13 214.137 1168.84 241.892C1180.17 248.701 1189.8 246.841 1197.74 236.31C1205.59 226.175 1215.21 223.694 1226.6 228.867C1245.76 272.379 1259.22 319.518 1266.47 368.459C1287.12 452.349 1317.84 506.824 1357.54 577.134" stroke="white" stroke-width="0.5" stroke-miterlimit="10"/>
<path d="M1012.07 39.9867C1026.41 43.0781 1041.01 43.8629 1055.51 42.3224C1073.43 78.3336 1086.5 117.853 1094.18 159.269C1100.26 179.143 1106.32 199.017 1112.36 218.891C1118.88 249.454 1130.59 256.329 1147.49 239.517C1160.03 222.995 1168.8 224.776 1173.79 244.861C1191.51 273.044 1201.04 308.046 1200.81 344.032C1220.17 435.088 1244.9 497.876 1282.92 577.332" stroke="white" stroke-width="0.5" stroke-miterlimit="10"/>
<path d="M986.25 43.2723C998.957 43.8558 1011.47 39.1548 1021.85 29.8911C1042.16 85.1182 1043.79 167.503 1068.46 217.228C1109.48 299.652 1086.45 201.748 1111.58 235.399C1147.4 283.342 1141.26 377.406 1156.46 435.642C1169.31 484.93 1190.15 531.052 1208.3 577.332" stroke="white" stroke-width="0.5" stroke-miterlimit="10"/>
<path d="M960.422 46.0828C971.898 40.5062 982.12 31.4679 990.196 19.756C1000.32 63.3042 1005.87 204.084 1028.96 234.924C1043.41 254.322 1049.05 234.924 1059.11 249.176C1081.49 280.847 1084.63 388.134 1090.46 419.053C1100.64 473.687 1117.78 525.113 1133.77 577.411" stroke="white" stroke-width="0.5" stroke-miterlimit="10"/>
<path d="M934.594 48.3397C942.68 36.463 950.264 24.5862 957.629 11.8781C965.715 72.6476 958.256 171.344 982.702 219.682C978.649 238.791 981.783 248.662 992.104 249.295C996.731 250.594 1001.44 251.363 1006.18 251.591C1022.54 293.397 1020.25 354.523 1025.58 399.299C1032.91 460.9 1045.92 517.592 1059.05 577.451" stroke="white" stroke-width="0.5" stroke-miterlimit="10"/>
<path d="M908.773 49.8837C914.264 34.8602 918.944 19.3852 922.783 3.56433C938.453 199.927 958.167 380.692 984.462 577.332" stroke="white" stroke-width="0.5" stroke-miterlimit="10"/>
<path d="M882.914 50.7945C885.003 33.7711 886.675 16.6817 887.929 -0.473633C893.382 192.88 900.653 384.136 909.867 577.53" stroke="white" stroke-width="0.5" stroke-miterlimit="10"/>
<path d="M857.095 50.2004C855.402 33.4409 854.055 16.655 853.052 -0.157227C848.601 192.603 842.678 384.611 835.25 577.332" stroke="white" stroke-width="0.5" stroke-miterlimit="10"/>
<path d="M831.267 48.8152C826.006 33.6715 821.637 18.0572 818.198 2.09985C803.719 195.296 784.726 385.245 760.625 577.332" stroke="white" stroke-width="0.5" stroke-miterlimit="10"/>
<path d="M805.44 46.8351C797.146 33.9073 789.743 20.1061 783.313 5.58301C758.624 198.139 726.143 388.972 686 577.331" stroke="white" stroke-width="0.5" stroke-miterlimit="10"/>
<path d="M779.613 43.9846C767.102 35.7294 756.978 22.6906 750.685 6.73108C724.39 121.184 712.136 238.249 683.804 352.464C664.748 429.307 633.909 501.518 611.375 577.331" stroke="white" stroke-width="0.5" stroke-miterlimit="10"/>
<path d="M753.786 40.7787C746.467 39.4763 739.493 36.0122 733.433 30.6675C727.372 25.3228 722.394 18.2482 718.904 10.0178C675.026 121.343 662.177 264.577 631.149 384.255C610.214 464.978 612.188 411.255 587.272 454.17C566.054 490.671 552.045 536.951 536.562 577.332" stroke="white" stroke-width="0.5" stroke-miterlimit="10"/>
<path d="M727.958 37.2154C719.968 37.2048 712.063 35.1268 704.733 31.1096C697.402 27.0924 690.8 21.2212 685.335 13.8578C630.112 131.359 616.04 286.311 577.867 414.224C547.184 517.156 566.584 435.563 524.149 455.832C503.84 465.532 471.183 557.933 462.094 577.332" stroke="white" stroke-width="0.5" stroke-miterlimit="10"/>
<path d="M702.131 33.4143C693.785 35.4182 685.187 34.9907 676.992 32.1642C668.796 29.3377 661.219 24.1868 654.838 17.1035C630.204 43.0741 616.09 77.1209 612.496 119.244C591.184 196.918 565.485 271.069 544.831 349.099C536.724 386.709 527.238 423.778 516.374 460.306C504.192 484.824 491.123 485.841 477.166 463.354C456.272 449.155 442.148 458.788 434.793 492.254L387.531 577.331" stroke="white" stroke-width="0.5" stroke-miterlimit="10"/>
<path d="M676.312 29.5348C667.735 32.9645 658.654 33.8948 649.752 32.2561C640.85 30.6173 632.358 26.452 624.912 20.0729C598.753 36.3573 583.334 63.8982 578.653 102.696C550.447 186.387 517.852 267.625 494.597 353.613C487.793 396.476 473.757 436.984 453.446 472.38C445.79 473.603 438.015 472.776 430.628 469.952C423.241 467.128 416.407 462.371 410.572 455.991C368.513 461.058 337.861 538.415 312.914 577.252" stroke="white" stroke-width="0.5" stroke-miterlimit="10"/>
<path d="M650.453 25.7341C623.311 41.0552 606.983 16.4702 582.694 30.366C556.399 45.4495 545.994 91.1752 533.99 122.055C503.809 199.135 471.308 271.821 444.449 350.802C433.041 384.215 423.984 452.546 389.383 460.86C375.28 464.225 357.729 446.093 343.187 449.419C304.606 458.326 263.268 543.126 238.352 577.331" stroke="white" stroke-width="0.5" stroke-miterlimit="10"/>
<path d="M624.641 22.0526C598.095 38.8385 578.225 19.4793 552.808 29.9705C518.615 44.1434 504.104 99.5289 488.402 137.178C458.723 208.122 422.963 272.851 394.16 344.586C380.59 378.435 366.267 424.557 335.992 437.305C319.914 444.074 303.836 437.305 287.476 442.847C239.901 459.277 198.813 534.18 163.711 577.451" stroke="white" stroke-width="0.5" stroke-miterlimit="10"/>
<path d="M598.814 18.7269C567.692 39.5113 539.674 14.2533 509.054 33.8104C484.545 49.6461 468.311 94.5008 455.304 122.372C421.111 195.651 381.402 263.389 343.95 333.976C302.079 412.917 278.134 400.17 219.401 438.611C171.293 470.005 129.39 532.556 89.0859 577.173" stroke="white" stroke-width="0.5" stroke-miterlimit="10"/>
<path d="M572.994 15.8365C541.654 34.9582 509.216 15.1634 479.254 32.1868C445.656 51.2689 428.607 102.497 409.489 138.603C374.732 204.084 333.864 263.151 293.747 323.604C255.699 380.929 213.201 390.312 164.56 426.892C111.281 466.956 62.8277 528.32 14.4688 577.331" stroke="white" stroke-width="0.5" stroke-miterlimit="10"/>
<path d="M547.159 13.5404C515.474 25.9319 479.683 17.4994 449.783 32.7412C415.935 50.2001 397.757 95.2131 377.01 129.972C336.987 197.274 292.891 255.273 243.498 311.687C199.871 361.491 143.834 388.609 95.9762 431.762C43.3862 479.269 -8.13821 528.835 -60.1641 577.331" stroke="white" stroke-width="0.5" stroke-miterlimit="10"/>
<path d="M521.465 11.9175C488.494 25.1799 452.515 19.8353 420.767 35.3148C381.214 54.8323 356.173 108.674 330.693 147.828C291.862 207.607 243.503 258.282 193.42 302.78C86.5789 397.794 -26.499 484.02 -134.625 577.332" stroke="white" stroke-width="0.5" stroke-miterlimit="10"/>
<path d="M495.513 11.2053C461.633 24.824 424.494 23.0821 391.743 39.2345C351.47 59.2271 326.773 104.636 298.629 143.315C253.028 205.945 199.749 250.879 143.053 296.05C25.5039 389.666 -91.9721 483.426 -209.375 577.332" stroke="white" stroke-width="0.5" stroke-miterlimit="10"/>
</g>
</g>
<defs>
<clipPath id="clip0_3322_23178">
<rect width="1440" height="341" fill="white"/>
</clipPath>
</defs>
</svg>
