<svg width="24" height="25" viewBox="0 0 24 25" fill="none" xmlns="http://www.w3.org/2000/svg">
<path d="M4 20.6689C3.45 20.6689 2.97933 20.4733 2.588 20.0819C2.196 19.6899 2 19.2189 2 18.6689V6.66895C2 6.11895 2.196 5.64828 2.588 5.25695C2.97933 4.86495 3.45 4.66895 4 4.66895H20C20.55 4.66895 21.021 4.86495 21.413 5.25695C21.8043 5.64828 22 6.11895 22 6.66895V18.6689C22 19.2189 21.8043 19.6899 21.413 20.0819C21.021 20.4733 20.55 20.6689 20 20.6689H4ZM12 13.4939C12.0833 13.4939 12.1707 13.4813 12.262 13.4559C12.354 13.4313 12.4417 13.3939 12.525 13.3439L19.6 8.91895C19.7333 8.83561 19.8333 8.73161 19.9 8.60695C19.9667 8.48161 20 8.34395 20 8.19395C20 7.86061 19.8583 7.61061 19.575 7.44395C19.2917 7.27728 19 7.28561 18.7 7.46895L12 11.6689L5.3 7.46895C5 7.28561 4.70833 7.28128 4.425 7.45595C4.14167 7.63128 4 7.87728 4 8.19395C4 8.36061 4.03333 8.50628 4.1 8.63095C4.16667 8.75628 4.26667 8.85228 4.4 8.91895L11.475 13.3439C11.5583 13.3939 11.646 13.4313 11.738 13.4559C11.8293 13.4813 11.9167 13.4939 12 13.4939Z" fill="#94A3B8"/>
</svg>
