<svg width="378" height="450" viewBox="0 0 378 450" fill="none" xmlns="http://www.w3.org/2000/svg">
<g filter="url(#filter0_d_2189_18727)">
<rect x="6" y="280.784" width="111.364" height="38.4607" rx="5.58633" fill="#FFDDF3" shape-rendering="crispEdges"/>
<path d="M29.4428 305.515L25.9801 295.097H27.3234L29.0398 300.351L30.189 304.261H30.2636L31.4427 300.351L33.174 295.097H34.4725L30.9651 305.515H29.4428ZM38.4888 305.694C37.9615 305.694 37.4839 305.599 37.056 305.41C36.6381 305.221 36.275 304.952 35.9665 304.604C35.668 304.246 35.4342 303.823 35.265 303.336C35.1058 302.838 35.0262 302.281 35.0262 301.664C35.0262 301.057 35.1058 300.505 35.265 300.007C35.4342 299.51 35.668 299.087 35.9665 298.739C36.275 298.38 36.6381 298.107 37.056 297.918C37.4839 297.729 37.9615 297.634 38.4888 297.634C39.0062 297.634 39.4689 297.729 39.8769 297.918C40.2848 298.107 40.6331 298.37 40.9216 298.709C41.2102 299.037 41.4291 299.43 41.5783 299.888C41.7375 300.346 41.8171 300.848 41.8171 301.395V301.962H36.2799V302.321C36.2799 302.649 36.3297 302.957 36.4292 303.246C36.5386 303.525 36.6879 303.768 36.8769 303.977C37.0759 304.186 37.3147 304.35 37.5933 304.47C37.8819 304.589 38.2053 304.649 38.5635 304.649C39.051 304.649 39.4739 304.535 39.8321 304.306C40.2002 304.077 40.4838 303.748 40.6828 303.321L41.5336 303.933C41.2848 304.46 40.8968 304.888 40.3694 305.216C39.842 305.534 39.2152 305.694 38.4888 305.694ZM38.4888 298.634C38.1605 298.634 37.862 298.694 37.5933 298.813C37.3247 298.923 37.0909 299.082 36.8919 299.291C36.7028 299.5 36.5536 299.749 36.4441 300.037C36.3347 300.316 36.2799 300.624 36.2799 300.962V301.067H40.5336V300.903C40.5336 300.216 40.3445 299.669 39.9664 299.261C39.5983 298.843 39.1057 298.634 38.4888 298.634ZM43.7847 305.515V297.813H44.9787V299.231H45.0533C45.1926 298.863 45.4413 298.535 45.7996 298.246C46.1578 297.958 46.6503 297.813 47.2771 297.813H47.7398V299.007H47.0383C46.3916 299.007 45.8841 299.132 45.516 299.38C45.1578 299.619 44.9787 299.923 44.9787 300.291V305.515H43.7847ZM51.5783 305.694C50.8619 305.694 50.26 305.559 49.7724 305.291C49.2948 305.012 48.8819 304.644 48.5336 304.186L49.3844 303.5C49.6829 303.878 50.0162 304.171 50.3843 304.38C50.7525 304.579 51.1803 304.679 51.6679 304.679C52.1753 304.679 52.5684 304.569 52.847 304.35C53.1355 304.132 53.2798 303.823 53.2798 303.425C53.2798 303.127 53.1803 302.873 52.9813 302.664C52.7922 302.445 52.444 302.296 51.9365 302.216L51.3246 302.127C50.9664 302.077 50.6381 302.002 50.3396 301.903C50.0411 301.793 49.7774 301.654 49.5485 301.485C49.3296 301.306 49.1555 301.087 49.0262 300.828C48.9068 300.569 48.8471 300.261 48.8471 299.903C48.8471 299.525 48.9167 299.196 49.056 298.918C49.1953 298.629 49.3844 298.39 49.6232 298.201C49.8719 298.012 50.1654 297.873 50.5037 297.783C50.842 297.684 51.2052 297.634 51.5933 297.634C52.2201 297.634 52.7425 297.744 53.1604 297.963C53.5882 298.181 53.9614 298.485 54.2798 298.873L53.4887 299.589C53.3196 299.351 53.0708 299.137 52.7425 298.948C52.4141 298.749 52.0012 298.649 51.5037 298.649C51.0062 298.649 50.6281 298.759 50.3694 298.977C50.1207 299.186 49.9963 299.475 49.9963 299.843C49.9963 300.221 50.1207 300.495 50.3694 300.664C50.6281 300.833 50.9963 300.957 51.4739 301.037L52.0709 301.127C52.9266 301.256 53.5335 301.505 53.8917 301.873C54.2499 302.231 54.429 302.704 54.429 303.291C54.429 304.037 54.1753 304.624 53.6678 305.052C53.1604 305.48 52.4639 305.694 51.5783 305.694ZM57.135 296.007C56.8763 296.007 56.6873 295.948 56.5679 295.828C56.4584 295.699 56.4037 295.535 56.4037 295.336V295.142C56.4037 294.943 56.4584 294.783 56.5679 294.664C56.6873 294.535 56.8763 294.47 57.135 294.47C57.3937 294.47 57.5778 294.535 57.6872 294.664C57.8066 294.783 57.8663 294.943 57.8663 295.142V295.336C57.8663 295.535 57.8066 295.699 57.6872 295.828C57.5778 295.948 57.3937 296.007 57.135 296.007ZM56.538 297.813H57.732V305.515H56.538V297.813ZM63.1796 305.694C62.6622 305.694 62.1896 305.599 61.7618 305.41C61.3339 305.221 60.9658 304.952 60.6573 304.604C60.3588 304.246 60.125 303.823 59.9558 303.336C59.7867 302.838 59.7021 302.281 59.7021 301.664C59.7021 301.057 59.7867 300.505 59.9558 300.007C60.125 299.51 60.3588 299.087 60.6573 298.739C60.9658 298.38 61.3339 298.107 61.7618 297.918C62.1896 297.729 62.6622 297.634 63.1796 297.634C63.6971 297.634 64.1647 297.729 64.5826 297.918C65.0105 298.107 65.3786 298.38 65.6871 298.739C65.9955 299.087 66.2343 299.51 66.4035 300.007C66.5726 300.505 66.6572 301.057 66.6572 301.664C66.6572 302.281 66.5726 302.838 66.4035 303.336C66.2343 303.823 65.9955 304.246 65.6871 304.604C65.3786 304.952 65.0105 305.221 64.5826 305.41C64.1647 305.599 63.6971 305.694 63.1796 305.694ZM63.1796 304.634C63.8264 304.634 64.3538 304.435 64.7617 304.037C65.1697 303.639 65.3736 303.032 65.3736 302.216V301.112C65.3736 300.296 65.1697 299.689 64.7617 299.291C64.3538 298.893 63.8264 298.694 63.1796 298.694C62.5329 298.694 62.0055 298.893 61.5976 299.291C61.1896 299.689 60.9857 300.296 60.9857 301.112V302.216C60.9857 303.032 61.1896 303.639 61.5976 304.037C62.0055 304.435 62.5329 304.634 63.1796 304.634ZM68.6209 305.515V297.813H69.8149V299.067H69.8746C70.0636 298.629 70.3273 298.281 70.6656 298.022C71.0139 297.764 71.4765 297.634 72.0536 297.634C72.8496 297.634 73.4765 297.893 73.9342 298.41C74.4018 298.918 74.6357 299.639 74.6357 300.574V305.515H73.4417V300.783C73.4417 299.4 72.8596 298.709 71.6954 298.709C71.4566 298.709 71.2228 298.739 70.994 298.798C70.7751 298.858 70.5761 298.948 70.397 299.067C70.2179 299.186 70.0736 299.341 69.9641 299.53C69.8646 299.709 69.8149 299.923 69.8149 300.171V305.515H68.6209ZM83.8398 305.694C82.596 305.694 81.6856 305.221 81.1085 304.276C80.5413 303.331 80.2577 302.007 80.2577 300.306C80.2577 298.604 80.5413 297.281 81.1085 296.336C81.6856 295.39 82.596 294.918 83.8398 294.918C85.0835 294.918 85.989 295.39 86.5561 296.336C87.1332 297.281 87.4218 298.604 87.4218 300.306C87.4218 302.007 87.1332 303.331 86.5561 304.276C85.989 305.221 85.0835 305.694 83.8398 305.694ZM83.8398 304.604C84.2477 304.604 84.596 304.52 84.8845 304.35C85.1731 304.181 85.4069 303.942 85.586 303.634C85.7651 303.326 85.8944 302.962 85.974 302.545C86.0636 302.127 86.1084 301.664 86.1084 301.156V299.455C86.1084 298.948 86.0636 298.485 85.974 298.067C85.8944 297.649 85.7651 297.286 85.586 296.977C85.4069 296.669 85.1731 296.43 84.8845 296.261C84.596 296.092 84.2477 296.007 83.8398 296.007C83.4318 296.007 83.0836 296.092 82.795 296.261C82.5065 296.43 82.2726 296.669 82.0935 296.977C81.9144 297.286 81.7801 297.649 81.6906 298.067C81.611 298.485 81.5712 298.948 81.5712 299.455V301.156C81.5712 301.664 81.611 302.127 81.6906 302.545C81.7801 302.962 81.9144 303.326 82.0935 303.634C82.2726 303.942 82.5065 304.181 82.795 304.35C83.0836 304.52 83.4318 304.604 83.8398 304.604ZM89.6248 305.515V304.41H92.5352V296.022H92.4308L89.8039 298.47L89.0726 297.679L91.8338 295.097H93.7889V304.41H96.4754V305.515H89.6248Z" fill="black"/>
</g>
<g filter="url(#filter1_d_2189_18727)">
<rect x="160.991" y="280.784" width="111.364" height="38.4607" rx="5.58633" fill="#FFDDF3" shape-rendering="crispEdges"/>
<path d="M184.434 305.515L180.971 295.097H182.315L184.031 300.351L185.18 304.261H185.255L186.434 300.351L188.165 295.097H189.464L185.956 305.515H184.434ZM193.48 305.694C192.953 305.694 192.475 305.599 192.047 305.41C191.629 305.221 191.266 304.952 190.958 304.604C190.659 304.246 190.425 303.823 190.256 303.336C190.097 302.838 190.017 302.281 190.017 301.664C190.017 301.057 190.097 300.505 190.256 300.007C190.425 299.51 190.659 299.087 190.958 298.739C191.266 298.38 191.629 298.107 192.047 297.918C192.475 297.729 192.953 297.634 193.48 297.634C193.997 297.634 194.46 297.729 194.868 297.918C195.276 298.107 195.624 298.37 195.913 298.709C196.201 299.037 196.42 299.43 196.57 299.888C196.729 300.346 196.808 300.848 196.808 301.395V301.962H191.271V302.321C191.271 302.649 191.321 302.957 191.42 303.246C191.53 303.525 191.679 303.768 191.868 303.977C192.067 304.186 192.306 304.35 192.585 304.47C192.873 304.589 193.196 304.649 193.555 304.649C194.042 304.649 194.465 304.535 194.823 304.306C195.191 304.077 195.475 303.748 195.674 303.321L196.525 303.933C196.276 304.46 195.888 304.888 195.361 305.216C194.833 305.534 194.206 305.694 193.48 305.694ZM193.48 298.634C193.152 298.634 192.853 298.694 192.585 298.813C192.316 298.923 192.082 299.082 191.883 299.291C191.694 299.5 191.545 299.749 191.435 300.037C191.326 300.316 191.271 300.624 191.271 300.962V301.067H195.525V300.903C195.525 300.216 195.336 299.669 194.958 299.261C194.589 298.843 194.097 298.634 193.48 298.634ZM198.776 305.515V297.813H199.97V299.231H200.045C200.184 298.863 200.433 298.535 200.791 298.246C201.149 297.958 201.641 297.813 202.268 297.813H202.731V299.007H202.03C201.383 299.007 200.875 299.132 200.507 299.38C200.149 299.619 199.97 299.923 199.97 300.291V305.515H198.776ZM206.57 305.694C205.853 305.694 205.251 305.559 204.764 305.291C204.286 305.012 203.873 304.644 203.525 304.186L204.376 303.5C204.674 303.878 205.007 304.171 205.376 304.38C205.744 304.579 206.172 304.679 206.659 304.679C207.167 304.679 207.56 304.569 207.838 304.35C208.127 304.132 208.271 303.823 208.271 303.425C208.271 303.127 208.172 302.873 207.973 302.664C207.783 302.445 207.435 302.296 206.928 302.216L206.316 302.127C205.958 302.077 205.629 302.002 205.331 301.903C205.032 301.793 204.769 301.654 204.54 301.485C204.321 301.306 204.147 301.087 204.017 300.828C203.898 300.569 203.838 300.261 203.838 299.903C203.838 299.525 203.908 299.196 204.047 298.918C204.187 298.629 204.376 298.39 204.614 298.201C204.863 298.012 205.157 297.873 205.495 297.783C205.833 297.684 206.196 297.634 206.584 297.634C207.211 297.634 207.734 297.744 208.152 297.963C208.579 298.181 208.953 298.485 209.271 298.873L208.48 299.589C208.311 299.351 208.062 299.137 207.734 298.948C207.405 298.749 206.992 298.649 206.495 298.649C205.997 298.649 205.619 298.759 205.361 298.977C205.112 299.186 204.987 299.475 204.987 299.843C204.987 300.221 205.112 300.495 205.361 300.664C205.619 300.833 205.987 300.957 206.465 301.037L207.062 301.127C207.918 301.256 208.525 301.505 208.883 301.873C209.241 302.231 209.42 302.704 209.42 303.291C209.42 304.037 209.167 304.624 208.659 305.052C208.152 305.48 207.455 305.694 206.57 305.694ZM212.126 296.007C211.868 296.007 211.678 295.948 211.559 295.828C211.45 295.699 211.395 295.535 211.395 295.336V295.142C211.395 294.943 211.45 294.783 211.559 294.664C211.678 294.535 211.868 294.47 212.126 294.47C212.385 294.47 212.569 294.535 212.678 294.664C212.798 294.783 212.858 294.943 212.858 295.142V295.336C212.858 295.535 212.798 295.699 212.678 295.828C212.569 295.948 212.385 296.007 212.126 296.007ZM211.529 297.813H212.723V305.515H211.529V297.813ZM218.171 305.694C217.653 305.694 217.181 305.599 216.753 305.41C216.325 305.221 215.957 304.952 215.649 304.604C215.35 304.246 215.116 303.823 214.947 303.336C214.778 302.838 214.693 302.281 214.693 301.664C214.693 301.057 214.778 300.505 214.947 300.007C215.116 299.51 215.35 299.087 215.649 298.739C215.957 298.38 216.325 298.107 216.753 297.918C217.181 297.729 217.653 297.634 218.171 297.634C218.688 297.634 219.156 297.729 219.574 297.918C220.002 298.107 220.37 298.38 220.678 298.739C220.987 299.087 221.226 299.51 221.395 300.007C221.564 300.505 221.648 301.057 221.648 301.664C221.648 302.281 221.564 302.838 221.395 303.336C221.226 303.823 220.987 304.246 220.678 304.604C220.37 304.952 220.002 305.221 219.574 305.41C219.156 305.599 218.688 305.694 218.171 305.694ZM218.171 304.634C218.818 304.634 219.345 304.435 219.753 304.037C220.161 303.639 220.365 303.032 220.365 302.216V301.112C220.365 300.296 220.161 299.689 219.753 299.291C219.345 298.893 218.818 298.694 218.171 298.694C217.524 298.694 216.997 298.893 216.589 299.291C216.181 299.689 215.977 300.296 215.977 301.112V302.216C215.977 303.032 216.181 303.639 216.589 304.037C216.997 304.435 217.524 304.634 218.171 304.634ZM223.612 305.515V297.813H224.806V299.067H224.866C225.055 298.629 225.319 298.281 225.657 298.022C226.005 297.764 226.468 297.634 227.045 297.634C227.841 297.634 228.468 297.893 228.925 298.41C229.393 298.918 229.627 299.639 229.627 300.574V305.515H228.433V300.783C228.433 299.4 227.851 298.709 226.687 298.709C226.448 298.709 226.214 298.739 225.985 298.798C225.766 298.858 225.567 298.948 225.388 299.067C225.209 299.186 225.065 299.341 224.955 299.53C224.856 299.709 224.806 299.923 224.806 300.171V305.515H223.612ZM238.831 305.694C237.587 305.694 236.677 305.221 236.1 304.276C235.533 303.331 235.249 302.007 235.249 300.306C235.249 298.604 235.533 297.281 236.1 296.336C236.677 295.39 237.587 294.918 238.831 294.918C240.075 294.918 240.98 295.39 241.547 296.336C242.124 297.281 242.413 298.604 242.413 300.306C242.413 302.007 242.124 303.331 241.547 304.276C240.98 305.221 240.075 305.694 238.831 305.694ZM238.831 304.604C239.239 304.604 239.587 304.52 239.876 304.35C240.164 304.181 240.398 303.942 240.577 303.634C240.756 303.326 240.886 302.962 240.965 302.545C241.055 302.127 241.1 301.664 241.1 301.156V299.455C241.1 298.948 241.055 298.485 240.965 298.067C240.886 297.649 240.756 297.286 240.577 296.977C240.398 296.669 240.164 296.43 239.876 296.261C239.587 296.092 239.239 296.007 238.831 296.007C238.423 296.007 238.075 296.092 237.786 296.261C237.498 296.43 237.264 296.669 237.085 296.977C236.906 297.286 236.771 297.649 236.682 298.067C236.602 298.485 236.562 298.948 236.562 299.455V301.156C236.562 301.664 236.602 302.127 236.682 302.545C236.771 302.962 236.906 303.326 237.085 303.634C237.264 303.942 237.498 304.181 237.786 304.35C238.075 304.52 238.423 304.604 238.831 304.604ZM251.258 305.515H244.422V304.231L247.825 301.097C248.312 300.649 248.72 300.176 249.049 299.679C249.377 299.171 249.541 298.664 249.541 298.157V297.977C249.541 297.4 249.382 296.933 249.064 296.574C248.745 296.216 248.263 296.037 247.616 296.037C247.298 296.037 247.019 296.082 246.78 296.172C246.541 296.261 246.332 296.385 246.153 296.545C245.984 296.704 245.84 296.893 245.721 297.112C245.611 297.321 245.522 297.55 245.452 297.798L244.332 297.366C244.432 297.057 244.566 296.759 244.735 296.47C244.915 296.172 245.133 295.908 245.392 295.679C245.661 295.45 245.979 295.266 246.347 295.127C246.725 294.987 247.168 294.918 247.676 294.918C248.183 294.918 248.636 294.992 249.034 295.142C249.432 295.291 249.765 295.5 250.034 295.769C250.302 296.037 250.506 296.356 250.646 296.724C250.795 297.092 250.87 297.5 250.87 297.948C250.87 298.356 250.81 298.734 250.691 299.082C250.581 299.43 250.427 299.763 250.228 300.082C250.029 300.39 249.785 300.694 249.497 300.992C249.218 301.291 248.914 301.589 248.586 301.888L245.78 304.41H251.258V305.515Z" fill="black"/>
</g>
<g filter="url(#filter2_d_2189_18727)">
<rect x="229.302" y="179.179" width="128.011" height="38.4607" rx="5.58633" fill="#FFDDF3" shape-rendering="crispEdges"/>
<path d="M270.696 193.492H274.979C275.845 193.492 276.521 193.736 277.009 194.223C277.506 194.711 277.755 195.362 277.755 196.178C277.755 196.566 277.7 196.895 277.591 197.163C277.482 197.432 277.342 197.656 277.173 197.835C277.004 198.004 276.82 198.134 276.621 198.223C276.422 198.303 276.238 198.357 276.069 198.387V198.477C276.258 198.487 276.467 198.537 276.696 198.626C276.934 198.716 277.158 198.86 277.367 199.059C277.576 199.248 277.75 199.497 277.89 199.805C278.039 200.104 278.113 200.467 278.113 200.895C278.113 201.323 278.044 201.721 277.904 202.089C277.775 202.457 277.591 202.775 277.352 203.044C277.113 203.313 276.83 203.526 276.501 203.686C276.173 203.835 275.815 203.91 275.427 203.91H270.696V193.492ZM271.949 202.805H275.039C275.576 202.805 275.999 202.671 276.307 202.402C276.616 202.124 276.77 201.721 276.77 201.193V200.686C276.77 200.158 276.616 199.76 276.307 199.492C275.999 199.213 275.576 199.074 275.039 199.074H271.949V202.805ZM271.949 197.999H274.83C275.327 197.999 275.715 197.875 275.994 197.626C276.273 197.377 276.412 197.019 276.412 196.551V196.044C276.412 195.576 276.273 195.218 275.994 194.969C275.715 194.721 275.327 194.596 274.83 194.596H271.949V197.999ZM280.327 203.91V196.208H281.521V197.626H281.596C281.735 197.258 281.984 196.93 282.342 196.641C282.7 196.352 283.193 196.208 283.82 196.208H284.282V197.402H283.581C282.934 197.402 282.427 197.527 282.058 197.775C281.7 198.014 281.521 198.318 281.521 198.686V203.91H280.327ZM291.346 203.91C290.898 203.91 290.575 203.79 290.376 203.551C290.187 203.313 290.067 203.014 290.018 202.656H289.943C289.774 203.133 289.495 203.492 289.107 203.73C288.719 203.969 288.256 204.089 287.719 204.089C286.903 204.089 286.266 203.88 285.809 203.462C285.361 203.044 285.137 202.477 285.137 201.76C285.137 201.034 285.401 200.477 285.928 200.089C286.465 199.701 287.296 199.507 288.421 199.507H289.943V198.745C289.943 198.198 289.794 197.78 289.495 197.492C289.197 197.203 288.739 197.059 288.122 197.059C287.654 197.059 287.261 197.163 286.943 197.372C286.635 197.581 286.376 197.86 286.167 198.208L285.451 197.537C285.66 197.119 285.993 196.765 286.451 196.477C286.908 196.178 287.485 196.029 288.182 196.029C289.117 196.029 289.844 196.258 290.361 196.716C290.878 197.173 291.137 197.81 291.137 198.626V202.865H292.018V203.91H291.346ZM287.913 203.074C288.212 203.074 288.485 203.039 288.734 202.969C288.983 202.9 289.197 202.8 289.376 202.671C289.555 202.541 289.694 202.392 289.794 202.223C289.893 202.054 289.943 201.87 289.943 201.671V200.402H288.361C287.674 200.402 287.172 200.502 286.854 200.701C286.545 200.9 286.391 201.188 286.391 201.566V201.88C286.391 202.258 286.525 202.551 286.794 202.76C287.072 202.969 287.446 203.074 287.913 203.074ZM293.722 203.91V196.208H294.916V197.462H294.975C295.164 197.024 295.428 196.676 295.766 196.417C296.115 196.158 296.577 196.029 297.154 196.029C297.95 196.029 298.577 196.288 299.035 196.805C299.503 197.313 299.737 198.034 299.737 198.969V203.91H298.543V199.178C298.543 197.795 297.96 197.104 296.796 197.104C296.557 197.104 296.324 197.134 296.095 197.193C295.876 197.253 295.677 197.343 295.498 197.462C295.319 197.581 295.174 197.736 295.065 197.925C294.965 198.104 294.916 198.318 294.916 198.566V203.91H293.722ZM305.07 204.089C304.533 204.089 304.05 203.994 303.622 203.805C303.195 203.616 302.831 203.347 302.533 202.999C302.244 202.651 302.02 202.228 301.861 201.73C301.712 201.233 301.637 200.676 301.637 200.059C301.637 199.442 301.712 198.885 301.861 198.387C302.02 197.89 302.244 197.467 302.533 197.119C302.831 196.77 303.195 196.502 303.622 196.313C304.05 196.124 304.533 196.029 305.07 196.029C305.836 196.029 306.448 196.198 306.906 196.537C307.374 196.865 307.722 197.298 307.951 197.835L306.951 198.343C306.811 197.945 306.583 197.636 306.264 197.417C305.946 197.198 305.548 197.089 305.07 197.089C304.712 197.089 304.398 197.149 304.13 197.268C303.861 197.377 303.637 197.537 303.458 197.746C303.279 197.945 303.145 198.188 303.055 198.477C302.966 198.755 302.921 199.064 302.921 199.402V200.716C302.921 201.392 303.1 201.949 303.458 202.387C303.826 202.815 304.364 203.029 305.07 203.029C306.035 203.029 306.732 202.581 307.16 201.686L308.025 202.268C307.777 202.825 307.403 203.268 306.906 203.596C306.418 203.924 305.806 204.089 305.07 204.089ZM309.711 192.865H310.905V197.462H310.964C311.154 197.024 311.417 196.676 311.755 196.417C312.104 196.158 312.566 196.029 313.144 196.029C313.94 196.029 314.566 196.288 315.024 196.805C315.492 197.313 315.726 198.034 315.726 198.969V203.91H314.532V199.178C314.532 197.795 313.949 197.104 312.785 197.104C312.547 197.104 312.313 197.134 312.084 197.193C311.865 197.253 311.666 197.343 311.487 197.462C311.308 197.581 311.163 197.736 311.054 197.925C310.955 198.104 310.905 198.318 310.905 198.566V203.91H309.711V192.865Z" fill="black"/>
</g>
<path d="M328.036 120.053V177.457" stroke="#64748B" stroke-width="1.93" stroke-dasharray="2.87 2.87"/>
<path d="M229 198H91.702C75.8503 198 63 210.85 63 226.702V276.5M63 326V450" stroke="#64748B" stroke-width="1.93" stroke-dasharray="2.87 2.87"/>
<circle cx="328.083" cy="120.1" r="2.79316" fill="white" stroke="#64748B" stroke-width="1.39658"/>
<circle cx="280.491" cy="73.4915" r="2.79316" fill="white" stroke="#64748B" stroke-width="1.39658"/>
<circle cx="175.389" cy="136.747" r="2.79316" fill="white" stroke="#64748B" stroke-width="1.39658"/>
<circle cx="260.347" cy="174.634" r="2.79316" fill="white" stroke="#64748B" stroke-width="1.39658"/>
<circle cx="328.083" cy="174.06" r="2.79316" fill="white" stroke="#64748B" stroke-width="1.39658"/>
<circle cx="62.8772" cy="277.387" r="2.79316" fill="white" stroke="#64748B" stroke-width="1.39658"/>
<circle cx="189.166" cy="277.387" r="2.79316" fill="white" stroke="#64748B" stroke-width="1.39658"/>
<circle cx="62.8772" cy="322.736" r="2.79316" fill="white" stroke="#64748B" stroke-width="1.39658"/>
<path d="M188.545 199.271V280.21" stroke="#64748B" stroke-width="1.93" stroke-dasharray="2.87 2.87"/>
<g filter="url(#filter3_d_2189_18727)">
<rect x="199.451" y="77" width="160.731" height="38.4607" rx="5.58633" fill="#FFDDF3" shape-rendering="crispEdges"/>
<path d="M268.324 92.9544H268.249L267.368 94.7007L264.876 99.2379L262.383 94.7007L261.503 92.9544H261.428V101.73H260.204V91.3127H261.876L264.861 96.9245H264.936L267.936 91.3127H269.548V101.73H268.324V92.9544ZM275.107 101.909C274.59 101.909 274.117 101.815 273.69 101.626C273.262 101.437 272.894 101.168 272.585 100.82C272.287 100.462 272.053 100.039 271.884 99.5513C271.714 99.0538 271.63 98.4966 271.63 97.8797C271.63 97.2727 271.714 96.7205 271.884 96.223C272.053 95.7255 272.287 95.3026 272.585 94.9544C272.894 94.5962 273.262 94.3225 273.69 94.1335C274.117 93.9444 274.59 93.8499 275.107 93.8499C275.625 93.8499 276.092 93.9444 276.51 94.1335C276.938 94.3225 277.306 94.5962 277.615 94.9544C277.923 95.3026 278.162 95.7255 278.331 96.223C278.5 96.7205 278.585 97.2727 278.585 97.8797C278.585 98.4966 278.5 99.0538 278.331 99.5513C278.162 100.039 277.923 100.462 277.615 100.82C277.306 101.168 276.938 101.437 276.51 101.626C276.092 101.815 275.625 101.909 275.107 101.909ZM275.107 100.85C275.754 100.85 276.282 100.651 276.689 100.253C277.097 99.8548 277.301 99.2478 277.301 98.4319V97.3275C277.301 96.5116 277.097 95.9046 276.689 95.5066C276.282 95.1086 275.754 94.9096 275.107 94.9096C274.461 94.9096 273.933 95.1086 273.525 95.5066C273.117 95.9046 272.913 96.5116 272.913 97.3275V98.4319C272.913 99.2478 273.117 99.8548 273.525 100.253C273.933 100.651 274.461 100.85 275.107 100.85ZM285.474 100.477H285.414C284.947 101.432 284.195 101.909 283.161 101.909C282.683 101.909 282.25 101.815 281.862 101.626C281.474 101.437 281.141 101.168 280.862 100.82C280.593 100.472 280.384 100.049 280.235 99.5513C280.096 99.0538 280.026 98.4966 280.026 97.8797C280.026 97.2628 280.096 96.7056 280.235 96.2081C280.384 95.7106 280.593 95.2877 280.862 94.9395C281.141 94.5912 281.474 94.3225 281.862 94.1335C282.25 93.9444 282.683 93.8499 283.161 93.8499C283.698 93.8499 284.156 93.9693 284.534 94.2081C284.922 94.437 285.215 94.7952 285.414 95.2827H285.474V90.6858H286.668V101.73H285.474V100.477ZM283.489 100.835C283.758 100.835 284.011 100.8 284.25 100.73C284.499 100.661 284.713 100.561 284.892 100.432C285.071 100.293 285.21 100.128 285.31 99.9393C285.419 99.7403 285.474 99.5165 285.474 99.2677V96.4021C285.474 96.1932 285.419 95.9991 285.31 95.82C285.21 95.631 285.071 95.4718 284.892 95.3424C284.713 95.2131 284.499 95.1136 284.25 95.0439C284.011 94.9643 283.758 94.9245 283.489 94.9245C282.812 94.9245 282.28 95.1385 281.892 95.5663C281.504 95.9842 281.31 96.5364 281.31 97.223V98.5364C281.31 99.2229 281.504 99.7801 281.892 100.208C282.28 100.626 282.812 100.835 283.489 100.835ZM292.102 101.909C291.574 101.909 291.097 101.815 290.669 101.626C290.251 101.437 289.888 101.168 289.579 100.82C289.281 100.462 289.047 100.039 288.878 99.5513C288.719 99.0538 288.639 98.4966 288.639 97.8797C288.639 97.2727 288.719 96.7205 288.878 96.223C289.047 95.7255 289.281 95.3026 289.579 94.9544C289.888 94.5962 290.251 94.3225 290.669 94.1335C291.097 93.9444 291.574 93.8499 292.102 93.8499C292.619 93.8499 293.082 93.9444 293.49 94.1335C293.898 94.3225 294.246 94.5862 294.535 94.9245C294.823 95.2529 295.042 95.6459 295.191 96.1036C295.351 96.5613 295.43 97.0638 295.43 97.611V98.1782H289.893V98.5364C289.893 98.8647 289.943 99.1732 290.042 99.4617C290.152 99.7403 290.301 99.9841 290.49 100.193C290.689 100.402 290.928 100.566 291.206 100.686C291.495 100.805 291.818 100.865 292.176 100.865C292.664 100.865 293.087 100.75 293.445 100.521C293.813 100.293 294.097 99.9642 294.296 99.5364L295.147 100.148C294.898 100.676 294.51 101.103 293.982 101.432C293.455 101.75 292.828 101.909 292.102 101.909ZM292.102 94.8499C291.773 94.8499 291.475 94.9096 291.206 95.029C290.938 95.1385 290.704 95.2977 290.505 95.5066C290.316 95.7156 290.167 95.9643 290.057 96.2529C289.948 96.5315 289.893 96.8399 289.893 97.1782V97.2827H294.147V97.1185C294.147 96.432 293.958 95.8847 293.579 95.4768C293.211 95.0589 292.719 94.8499 292.102 94.8499ZM298.666 101.73C298.248 101.73 297.93 101.616 297.711 101.387C297.502 101.148 297.398 100.85 297.398 100.492V90.6858H298.592V100.686H299.726V101.73H298.666Z" fill="black"/>
</g>
<path d="M177.063 136.126H231.597C247.449 136.126 260.299 148.977 260.299 164.828V178.031" stroke="#64748B" stroke-width="1.93" stroke-dasharray="2.87 2.87"/>
<g filter="url(#filter4_d_2189_18727)">
<rect x="43.8867" y="114.887" width="128.011" height="38.4607" rx="5.58633" fill="#FFDDF3" shape-rendering="crispEdges"/>
<path d="M53.2806 139.617V129.199H59.6387V130.304H54.5343V133.796H59.3402V134.901H54.5343V138.513H59.6387V139.617H53.2806ZM60.9074 139.617L63.7581 135.736L61.0268 131.916H62.4298L64.385 134.781H64.4297L66.4595 131.916H67.7879L65.0715 135.647L67.8476 139.617H66.4446L64.4447 136.602H64.3999L62.2358 139.617H60.9074ZM69.4272 131.916H70.6212V133.169H70.6809C70.8799 132.682 71.1684 132.324 71.5465 132.095C71.9346 131.856 72.3973 131.737 72.9346 131.737C73.4122 131.737 73.845 131.831 74.233 132.02C74.6211 132.209 74.9494 132.478 75.2181 132.826C75.4967 133.174 75.7056 133.597 75.8449 134.095C75.9942 134.592 76.0688 135.149 76.0688 135.766C76.0688 136.383 75.9942 136.94 75.8449 137.438C75.7056 137.935 75.4967 138.358 75.2181 138.707C74.9494 139.055 74.6211 139.323 74.233 139.513C73.845 139.702 73.4122 139.796 72.9346 139.796C71.8898 139.796 71.1386 139.319 70.6809 138.363H70.6212V142.602H69.4272V131.916ZM72.6062 138.722C73.2828 138.722 73.8151 138.513 74.2032 138.095C74.5912 137.667 74.7853 137.11 74.7853 136.423V135.11C74.7853 134.423 74.5912 133.871 74.2032 133.453C73.8151 133.025 73.2828 132.811 72.6062 132.811C72.3376 132.811 72.0789 132.851 71.8301 132.931C71.5913 133 71.3824 133.1 71.2033 133.229C71.0242 133.358 70.8799 133.518 70.7704 133.707C70.6709 133.886 70.6212 134.08 70.6212 134.289V137.154C70.6212 137.403 70.6709 137.627 70.7704 137.826C70.8799 138.015 71.0242 138.179 71.2033 138.319C71.3824 138.448 71.5913 138.547 71.8301 138.617C72.0789 138.687 72.3376 138.722 72.6062 138.722ZM80.9803 139.796C80.453 139.796 79.9754 139.702 79.5475 139.513C79.1296 139.323 78.7664 139.055 78.458 138.707C78.1595 138.348 77.9257 137.925 77.7565 137.438C77.5973 136.94 77.5177 136.383 77.5177 135.766C77.5177 135.159 77.5973 134.607 77.7565 134.11C77.9257 133.612 78.1595 133.189 78.458 132.841C78.7664 132.483 79.1296 132.209 79.5475 132.02C79.9754 131.831 80.453 131.737 80.9803 131.737C81.4977 131.737 81.9604 131.831 82.3684 132.02C82.7763 132.209 83.1246 132.473 83.4131 132.811C83.7017 133.14 83.9206 133.533 84.0698 133.99C84.229 134.448 84.3086 134.95 84.3086 135.498V136.065H78.7714V136.423C78.7714 136.751 78.8212 137.06 78.9207 137.348C79.0301 137.627 79.1794 137.871 79.3684 138.08C79.5674 138.289 79.8062 138.453 80.0848 138.572C80.3734 138.692 80.6967 138.751 81.0549 138.751C81.5425 138.751 81.9654 138.637 82.3236 138.408C82.6917 138.179 82.9753 137.851 83.1743 137.423L84.025 138.035C83.7763 138.562 83.3882 138.99 82.8609 139.319C82.3335 139.637 81.7067 139.796 80.9803 139.796ZM80.9803 132.737C80.652 132.737 80.3535 132.796 80.0848 132.916C79.8162 133.025 79.5823 133.184 79.3833 133.393C79.1943 133.602 79.045 133.851 78.9356 134.14C78.8261 134.418 78.7714 134.727 78.7714 135.065V135.169H83.0251V135.005C83.0251 134.319 82.836 133.771 82.4579 133.363C82.0898 132.946 81.5972 132.737 80.9803 132.737ZM86.2761 139.617V131.916H87.4702V133.334H87.5448C87.6841 132.965 87.9328 132.637 88.291 132.349C88.6492 132.06 89.1418 131.916 89.7686 131.916H90.2313V133.11H89.5298C88.8831 133.11 88.3756 133.234 88.0075 133.483C87.6493 133.722 87.4702 134.025 87.4702 134.393V139.617H86.2761ZM92.3534 130.11C92.0947 130.11 91.9057 130.05 91.7863 129.931C91.6768 129.801 91.6221 129.637 91.6221 129.438V129.244C91.6221 129.045 91.6768 128.886 91.7863 128.766C91.9057 128.637 92.0947 128.572 92.3534 128.572C92.6121 128.572 92.7962 128.637 92.9057 128.766C93.0251 128.886 93.0848 129.045 93.0848 129.244V129.438C93.0848 129.637 93.0251 129.801 92.9057 129.931C92.7962 130.05 92.6121 130.11 92.3534 130.11ZM91.7564 131.916H92.9504V139.617H91.7564V131.916ZM95.4877 139.617V131.916H96.6817V133.169H96.7414C96.831 132.97 96.9305 132.786 97.0399 132.617C97.1593 132.438 97.2986 132.284 97.4578 132.154C97.627 132.025 97.821 131.926 98.0399 131.856C98.2588 131.776 98.5175 131.737 98.816 131.737C99.3234 131.737 99.7911 131.861 100.219 132.11C100.647 132.349 100.965 132.747 101.174 133.304H101.204C101.343 132.886 101.602 132.523 101.98 132.214C102.368 131.896 102.891 131.737 103.547 131.737C104.333 131.737 104.945 131.995 105.383 132.513C105.831 133.02 106.055 133.742 106.055 134.677V139.617H104.861V134.886C104.861 134.199 104.726 133.682 104.458 133.334C104.189 132.985 103.761 132.811 103.174 132.811C102.935 132.811 102.706 132.841 102.488 132.901C102.279 132.96 102.09 133.05 101.92 133.169C101.751 133.289 101.617 133.443 101.517 133.632C101.418 133.811 101.368 134.025 101.368 134.274V139.617H100.174V134.886C100.174 134.199 100.04 133.682 99.7712 133.334C99.5025 132.985 99.0846 132.811 98.5175 132.811C98.2787 132.811 98.0498 132.841 97.8309 132.901C97.612 132.96 97.418 133.05 97.2489 133.169C97.0797 133.289 96.9404 133.443 96.831 133.632C96.7315 133.811 96.6817 134.025 96.6817 134.274V139.617H95.4877ZM111.413 139.796C110.886 139.796 110.408 139.702 109.981 139.513C109.563 139.323 109.2 139.055 108.891 138.707C108.593 138.348 108.359 137.925 108.19 137.438C108.03 136.94 107.951 136.383 107.951 135.766C107.951 135.159 108.03 134.607 108.19 134.11C108.359 133.612 108.593 133.189 108.891 132.841C109.2 132.483 109.563 132.209 109.981 132.02C110.408 131.831 110.886 131.737 111.413 131.737C111.931 131.737 112.393 131.831 112.801 132.02C113.209 132.209 113.558 132.473 113.846 132.811C114.135 133.14 114.354 133.533 114.503 133.99C114.662 134.448 114.742 134.95 114.742 135.498V136.065H109.205V136.423C109.205 136.751 109.254 137.06 109.354 137.348C109.463 137.627 109.612 137.871 109.802 138.08C110.001 138.289 110.239 138.453 110.518 138.572C110.806 138.692 111.13 138.751 111.488 138.751C111.976 138.751 112.398 138.637 112.757 138.408C113.125 138.179 113.408 137.851 113.607 137.423L114.458 138.035C114.209 138.562 113.821 138.99 113.294 139.319C112.767 139.637 112.14 139.796 111.413 139.796ZM111.413 132.737C111.085 132.737 110.787 132.796 110.518 132.916C110.249 133.025 110.015 133.184 109.816 133.393C109.627 133.602 109.478 133.851 109.369 134.14C109.259 134.418 109.205 134.727 109.205 135.065V135.169H113.458V135.005C113.458 134.319 113.269 133.771 112.891 133.363C112.523 132.946 112.03 132.737 111.413 132.737ZM116.709 139.617V131.916H117.903V133.169H117.963C118.152 132.732 118.416 132.383 118.754 132.125C119.102 131.866 119.565 131.737 120.142 131.737C120.938 131.737 121.565 131.995 122.023 132.513C122.49 133.02 122.724 133.742 122.724 134.677V139.617H121.53V134.886C121.53 133.503 120.948 132.811 119.784 132.811C119.545 132.811 119.311 132.841 119.082 132.901C118.863 132.96 118.664 133.05 118.485 133.169C118.306 133.289 118.162 133.443 118.052 133.632C117.953 133.811 117.903 134.025 117.903 134.274V139.617H116.709ZM126.893 139.617C126.476 139.617 126.157 139.503 125.938 139.274C125.729 139.035 125.625 138.726 125.625 138.348V132.96H124.356V131.916H125.073C125.331 131.916 125.505 131.866 125.595 131.766C125.695 131.657 125.744 131.473 125.744 131.214V129.781H126.819V131.916H128.505V132.96H126.819V138.572H128.386V139.617H126.893ZM136.021 139.617C135.574 139.617 135.25 139.498 135.051 139.259C134.862 139.02 134.743 138.722 134.693 138.363H134.618C134.449 138.841 134.171 139.199 133.783 139.438C133.395 139.677 132.932 139.796 132.395 139.796C131.579 139.796 130.942 139.587 130.484 139.169C130.036 138.751 129.813 138.184 129.813 137.468C129.813 136.741 130.076 136.184 130.604 135.796C131.141 135.408 131.972 135.214 133.096 135.214H134.618V134.453C134.618 133.906 134.469 133.488 134.171 133.199C133.872 132.911 133.415 132.766 132.798 132.766C132.33 132.766 131.937 132.871 131.619 133.08C131.31 133.289 131.051 133.567 130.842 133.916L130.126 133.244C130.335 132.826 130.668 132.473 131.126 132.184C131.584 131.886 132.161 131.737 132.857 131.737C133.793 131.737 134.519 131.965 135.036 132.423C135.554 132.881 135.812 133.518 135.812 134.334V138.572H136.693V139.617H136.021ZM132.589 138.781C132.887 138.781 133.161 138.746 133.41 138.677C133.658 138.607 133.872 138.508 134.051 138.378C134.23 138.249 134.37 138.1 134.469 137.93C134.569 137.761 134.618 137.577 134.618 137.378V136.11H133.036C132.35 136.11 131.847 136.209 131.529 136.408C131.221 136.607 131.066 136.896 131.066 137.274V137.587C131.066 137.965 131.201 138.259 131.469 138.468C131.748 138.677 132.121 138.781 132.589 138.781ZM140.099 139.617C139.681 139.617 139.362 139.503 139.143 139.274C138.935 139.035 138.83 138.726 138.83 138.348V132.96H137.561V131.916H138.278C138.536 131.916 138.711 131.866 138.8 131.766C138.9 131.657 138.949 131.473 138.949 131.214V129.781H140.024V131.916H141.711V132.96H140.024V138.572H141.591V139.617H140.099ZM144.227 130.11C143.968 130.11 143.779 130.05 143.66 129.931C143.55 129.801 143.495 129.637 143.495 129.438V129.244C143.495 129.045 143.55 128.886 143.66 128.766C143.779 128.637 143.968 128.572 144.227 128.572C144.485 128.572 144.669 128.637 144.779 128.766C144.898 128.886 144.958 129.045 144.958 129.244V129.438C144.958 129.637 144.898 129.801 144.779 129.931C144.669 130.05 144.485 130.11 144.227 130.11ZM143.63 131.916H144.824V139.617H143.63V131.916ZM150.271 139.796C149.754 139.796 149.281 139.702 148.853 139.513C148.426 139.323 148.057 139.055 147.749 138.707C147.451 138.348 147.217 137.925 147.048 137.438C146.878 136.94 146.794 136.383 146.794 135.766C146.794 135.159 146.878 134.607 147.048 134.11C147.217 133.612 147.451 133.189 147.749 132.841C148.057 132.483 148.426 132.209 148.853 132.02C149.281 131.831 149.754 131.737 150.271 131.737C150.789 131.737 151.256 131.831 151.674 132.02C152.102 132.209 152.47 132.483 152.779 132.841C153.087 133.189 153.326 133.612 153.495 134.11C153.664 134.607 153.749 135.159 153.749 135.766C153.749 136.383 153.664 136.94 153.495 137.438C153.326 137.925 153.087 138.348 152.779 138.707C152.47 139.055 152.102 139.323 151.674 139.513C151.256 139.702 150.789 139.796 150.271 139.796ZM150.271 138.736C150.918 138.736 151.445 138.537 151.853 138.139C152.261 137.741 152.465 137.134 152.465 136.319V135.214C152.465 134.398 152.261 133.791 151.853 133.393C151.445 132.995 150.918 132.796 150.271 132.796C149.625 132.796 149.097 132.995 148.689 133.393C148.281 133.791 148.077 134.398 148.077 135.214V136.319C148.077 137.134 148.281 137.741 148.689 138.139C149.097 138.537 149.625 138.736 150.271 138.736ZM155.713 139.617V131.916H156.907V133.169H156.966C157.155 132.732 157.419 132.383 157.757 132.125C158.106 131.866 158.568 131.737 159.145 131.737C159.941 131.737 160.568 131.995 161.026 132.513C161.494 133.02 161.727 133.742 161.727 134.677V139.617H160.533V134.886C160.533 133.503 159.951 132.811 158.787 132.811C158.548 132.811 158.315 132.841 158.086 132.901C157.867 132.96 157.668 133.05 157.489 133.169C157.31 133.289 157.165 133.443 157.056 133.632C156.956 133.811 156.907 134.025 156.907 134.274V139.617H155.713Z" fill="black"/>
</g>
<path d="M119.389 343.716C118.701 343.716 118.062 343.592 117.474 343.344C116.887 343.086 116.372 342.733 115.931 342.283C115.5 341.833 115.164 341.309 114.926 340.712C114.687 340.115 114.567 339.477 114.567 338.797C114.567 338.108 114.687 337.465 114.926 336.868C115.164 336.271 115.5 335.752 115.931 335.312C116.372 334.862 116.882 334.513 117.461 334.265C118.048 334.007 118.687 333.879 119.376 333.879C120.129 333.879 120.79 334.007 121.359 334.265C121.929 334.522 122.434 334.871 122.875 335.312L121.979 336.207C121.676 335.867 121.304 335.601 120.864 335.408C120.432 335.215 119.936 335.119 119.376 335.119C118.87 335.119 118.407 335.211 117.984 335.394C117.562 335.569 117.194 335.821 116.882 336.152C116.57 336.483 116.326 336.873 116.152 337.323C115.986 337.773 115.904 338.264 115.904 338.797C115.904 339.33 115.986 339.821 116.152 340.271C116.326 340.721 116.57 341.112 116.882 341.442C117.194 341.773 117.562 342.03 117.984 342.214C118.407 342.388 118.87 342.476 119.376 342.476C119.973 342.476 120.492 342.379 120.932 342.186C121.373 341.984 121.745 341.713 122.048 341.373L122.944 342.255C122.503 342.714 121.984 343.073 121.387 343.33C120.799 343.587 120.133 343.716 119.389 343.716ZM127.075 343.716C126.432 343.716 125.854 343.564 125.339 343.261C124.825 342.958 124.416 342.549 124.113 342.035C123.81 341.511 123.659 340.928 123.659 340.285C123.659 339.651 123.81 339.082 124.113 338.577C124.416 338.062 124.825 337.654 125.339 337.351C125.854 337.047 126.432 336.896 127.075 336.896C127.709 336.896 128.283 337.047 128.797 337.351C129.321 337.644 129.734 338.049 130.037 338.563C130.34 339.077 130.492 339.651 130.492 340.285C130.492 340.928 130.34 341.511 130.037 342.035C129.734 342.549 129.321 342.958 128.797 343.261C128.283 343.564 127.709 343.716 127.075 343.716ZM127.075 342.517C127.489 342.517 127.856 342.42 128.177 342.228C128.499 342.035 128.751 341.773 128.935 341.442C129.119 341.102 129.211 340.717 129.211 340.285C129.211 339.863 129.114 339.486 128.921 339.155C128.738 338.825 128.485 338.568 128.164 338.384C127.851 338.191 127.489 338.095 127.075 338.095C126.662 338.095 126.295 338.191 125.973 338.384C125.652 338.568 125.399 338.825 125.215 339.155C125.032 339.486 124.94 339.863 124.94 340.285C124.94 340.717 125.032 341.102 125.215 341.442C125.399 341.773 125.652 342.035 125.973 342.228C126.295 342.42 126.662 342.517 127.075 342.517ZM131.889 343.578V337.034H133.129V343.578H131.889ZM136.311 343.578V339.624C136.311 339.137 136.16 338.756 135.857 338.48C135.563 338.196 135.191 338.053 134.741 338.053C134.438 338.053 134.167 338.117 133.928 338.246C133.689 338.375 133.496 338.554 133.349 338.783C133.202 339.013 133.129 339.289 133.129 339.61L132.619 339.362C132.619 338.866 132.725 338.434 132.936 338.067C133.156 337.7 133.455 337.415 133.832 337.213C134.208 337.002 134.631 336.896 135.099 336.896C135.558 336.896 135.972 336.997 136.339 337.199C136.715 337.401 137.009 337.686 137.221 338.053C137.441 338.421 137.551 338.857 137.551 339.362V343.578H136.311ZM140.734 343.578V339.624C140.734 339.137 140.582 338.756 140.279 338.48C139.985 338.196 139.618 338.053 139.177 338.053C138.874 338.053 138.598 338.117 138.35 338.246C138.112 338.375 137.919 338.554 137.772 338.783C137.625 339.013 137.551 339.289 137.551 339.61L136.849 339.362C136.876 338.857 137.009 338.425 137.248 338.067C137.496 337.7 137.813 337.415 138.199 337.213C138.585 337.002 139.007 336.896 139.466 336.896C139.944 336.896 140.371 336.997 140.748 337.199C141.124 337.401 141.423 337.686 141.643 338.053C141.873 338.421 141.987 338.861 141.987 339.376V343.578H140.734ZM147.119 343.716C146.623 343.716 146.173 343.614 145.769 343.412C145.374 343.201 145.057 342.912 144.818 342.544C144.579 342.177 144.446 341.759 144.419 341.291V339.321C144.446 338.843 144.579 338.425 144.818 338.067C145.066 337.7 145.388 337.415 145.783 337.213C146.187 337.002 146.632 336.896 147.119 336.896C147.716 336.896 148.253 337.047 148.731 337.351C149.218 337.654 149.599 338.062 149.874 338.577C150.15 339.091 150.288 339.67 150.288 340.313C150.288 340.956 150.15 341.534 149.874 342.049C149.599 342.563 149.218 342.972 148.731 343.275C148.253 343.569 147.716 343.716 147.119 343.716ZM146.912 342.544C147.326 342.544 147.688 342.448 148.001 342.255C148.313 342.062 148.561 341.801 148.745 341.47C148.928 341.13 149.02 340.74 149.02 340.299C149.02 339.867 148.928 339.481 148.745 339.142C148.561 338.802 148.313 338.54 148.001 338.356C147.688 338.163 147.33 338.067 146.926 338.067C146.513 338.067 146.15 338.163 145.838 338.356C145.525 338.54 145.282 338.802 145.108 339.142C144.933 339.481 144.846 339.872 144.846 340.313C144.846 340.744 144.928 341.13 145.094 341.47C145.268 341.801 145.512 342.062 145.824 342.255C146.145 342.448 146.508 342.544 146.912 342.544ZM143.675 346.319V337.034H144.915V338.756L144.68 340.34L144.915 341.938V346.319H143.675ZM154.476 343.716C153.879 343.716 153.337 343.569 152.851 343.275C152.364 342.972 151.978 342.563 151.693 342.049C151.418 341.534 151.28 340.956 151.28 340.313C151.28 339.67 151.418 339.091 151.693 338.577C151.978 338.062 152.359 337.654 152.837 337.351C153.324 337.047 153.87 336.896 154.476 336.896C154.972 336.896 155.413 337.002 155.799 337.213C156.194 337.415 156.511 337.7 156.749 338.067C156.988 338.425 157.121 338.843 157.149 339.321V341.291C157.121 341.759 156.988 342.177 156.749 342.544C156.52 342.912 156.208 343.201 155.813 343.412C155.427 343.614 154.981 343.716 154.476 343.716ZM154.683 342.544C155.298 342.544 155.794 342.338 156.171 341.925C156.547 341.502 156.736 340.965 156.736 340.313C156.736 339.863 156.648 339.472 156.474 339.142C156.309 338.802 156.07 338.54 155.758 338.356C155.445 338.163 155.082 338.067 154.669 338.067C154.256 338.067 153.888 338.163 153.567 338.356C153.255 338.549 153.007 338.816 152.823 339.155C152.649 339.486 152.561 339.867 152.561 340.299C152.561 340.74 152.649 341.13 152.823 341.47C153.007 341.801 153.259 342.062 153.581 342.255C153.902 342.448 154.27 342.544 154.683 342.544ZM156.653 343.578V341.814L156.887 340.216L156.653 338.632V337.034H157.907V343.578H156.653ZM159.712 343.578V337.034H160.952V343.578H159.712ZM160.952 339.844L160.483 339.638C160.483 338.802 160.676 338.136 161.062 337.64C161.448 337.144 162.004 336.896 162.729 336.896C163.06 336.896 163.358 336.956 163.625 337.075C163.891 337.185 164.139 337.374 164.369 337.64L163.556 338.48C163.418 338.333 163.266 338.228 163.101 338.163C162.936 338.099 162.743 338.067 162.522 338.067C162.063 338.067 161.687 338.214 161.393 338.508C161.099 338.802 160.952 339.247 160.952 339.844ZM168.057 343.716C167.405 343.716 166.817 343.569 166.294 343.275C165.77 342.972 165.357 342.563 165.054 342.049C164.751 341.534 164.599 340.951 164.599 340.299C164.599 339.656 164.746 339.077 165.04 338.563C165.343 338.049 165.747 337.644 166.252 337.351C166.767 337.047 167.341 336.896 167.975 336.896C168.581 336.896 169.113 337.034 169.573 337.309C170.041 337.585 170.404 337.966 170.661 338.453C170.927 338.94 171.061 339.491 171.061 340.106C171.061 340.198 171.056 340.299 171.047 340.409C171.038 340.51 171.019 340.629 170.992 340.767H165.467V339.734H170.33L169.876 340.134C169.876 339.693 169.798 339.321 169.642 339.018C169.485 338.705 169.265 338.467 168.98 338.301C168.696 338.127 168.351 338.039 167.947 338.039C167.525 338.039 167.153 338.131 166.831 338.315C166.51 338.499 166.262 338.756 166.087 339.086C165.913 339.417 165.825 339.807 165.825 340.258C165.825 340.717 165.917 341.121 166.101 341.47C166.285 341.81 166.546 342.076 166.886 342.269C167.226 342.453 167.616 342.544 168.057 342.544C168.425 342.544 168.76 342.48 169.063 342.352C169.375 342.223 169.642 342.03 169.862 341.773L170.661 342.586C170.349 342.953 169.963 343.233 169.504 343.426C169.054 343.619 168.572 343.716 168.057 343.716Z" fill="black"/>
<path d="M280 0V68" stroke="#64748B" stroke-width="1.93151" stroke-dasharray="3.22 3.22"/>
<defs>
<filter id="filter0_d_2189_18727" x="0.105527" y="274.89" width="134.326" height="61.4223" filterUnits="userSpaceOnUse" color-interpolation-filters="sRGB">
<feFlood flood-opacity="0" result="BackgroundImageFix"/>
<feColorMatrix in="SourceAlpha" type="matrix" values="0 0 0 0 0 0 0 0 0 0 0 0 0 0 0 0 0 0 127 0" result="hardAlpha"/>
<feOffset dx="5.58633" dy="5.58633"/>
<feGaussianBlur stdDeviation="5.7404"/>
<feComposite in2="hardAlpha" operator="out"/>
<feColorMatrix type="matrix" values="0 0 0 0 0.904167 0 0 0 0 0.904167 0 0 0 0 0.904167 0 0 0 0.25 0"/>
<feBlend mode="normal" in2="BackgroundImageFix" result="effect1_dropShadow_2189_18727"/>
<feBlend mode="normal" in="SourceGraphic" in2="effect1_dropShadow_2189_18727" result="shape"/>
</filter>
<filter id="filter1_d_2189_18727" x="155.097" y="274.89" width="134.326" height="61.4223" filterUnits="userSpaceOnUse" color-interpolation-filters="sRGB">
<feFlood flood-opacity="0" result="BackgroundImageFix"/>
<feColorMatrix in="SourceAlpha" type="matrix" values="0 0 0 0 0 0 0 0 0 0 0 0 0 0 0 0 0 0 127 0" result="hardAlpha"/>
<feOffset dx="5.58633" dy="5.58633"/>
<feGaussianBlur stdDeviation="5.7404"/>
<feComposite in2="hardAlpha" operator="out"/>
<feColorMatrix type="matrix" values="0 0 0 0 0.904167 0 0 0 0 0.904167 0 0 0 0 0.904167 0 0 0 0.25 0"/>
<feBlend mode="normal" in2="BackgroundImageFix" result="effect1_dropShadow_2189_18727"/>
<feBlend mode="normal" in="SourceGraphic" in2="effect1_dropShadow_2189_18727" result="shape"/>
</filter>
<filter id="filter2_d_2189_18727" x="223.407" y="173.285" width="150.972" height="61.4223" filterUnits="userSpaceOnUse" color-interpolation-filters="sRGB">
<feFlood flood-opacity="0" result="BackgroundImageFix"/>
<feColorMatrix in="SourceAlpha" type="matrix" values="0 0 0 0 0 0 0 0 0 0 0 0 0 0 0 0 0 0 127 0" result="hardAlpha"/>
<feOffset dx="5.58633" dy="5.58633"/>
<feGaussianBlur stdDeviation="5.7404"/>
<feComposite in2="hardAlpha" operator="out"/>
<feColorMatrix type="matrix" values="0 0 0 0 0.904167 0 0 0 0 0.904167 0 0 0 0 0.904167 0 0 0 0.25 0"/>
<feBlend mode="normal" in2="BackgroundImageFix" result="effect1_dropShadow_2189_18727"/>
<feBlend mode="normal" in="SourceGraphic" in2="effect1_dropShadow_2189_18727" result="shape"/>
</filter>
<filter id="filter3_d_2189_18727" x="193.557" y="71.1055" width="183.693" height="61.4223" filterUnits="userSpaceOnUse" color-interpolation-filters="sRGB">
<feFlood flood-opacity="0" result="BackgroundImageFix"/>
<feColorMatrix in="SourceAlpha" type="matrix" values="0 0 0 0 0 0 0 0 0 0 0 0 0 0 0 0 0 0 127 0" result="hardAlpha"/>
<feOffset dx="5.58633" dy="5.58633"/>
<feGaussianBlur stdDeviation="5.7404"/>
<feComposite in2="hardAlpha" operator="out"/>
<feColorMatrix type="matrix" values="0 0 0 0 0.904167 0 0 0 0 0.904167 0 0 0 0 0.904167 0 0 0 0.25 0"/>
<feBlend mode="normal" in2="BackgroundImageFix" result="effect1_dropShadow_2189_18727"/>
<feBlend mode="normal" in="SourceGraphic" in2="effect1_dropShadow_2189_18727" result="shape"/>
</filter>
<filter id="filter4_d_2189_18727" x="37.9922" y="108.992" width="150.972" height="61.4223" filterUnits="userSpaceOnUse" color-interpolation-filters="sRGB">
<feFlood flood-opacity="0" result="BackgroundImageFix"/>
<feColorMatrix in="SourceAlpha" type="matrix" values="0 0 0 0 0 0 0 0 0 0 0 0 0 0 0 0 0 0 127 0" result="hardAlpha"/>
<feOffset dx="5.58633" dy="5.58633"/>
<feGaussianBlur stdDeviation="5.7404"/>
<feComposite in2="hardAlpha" operator="out"/>
<feColorMatrix type="matrix" values="0 0 0 0 0.904167 0 0 0 0 0.904167 0 0 0 0 0.904167 0 0 0 0.25 0"/>
<feBlend mode="normal" in2="BackgroundImageFix" result="effect1_dropShadow_2189_18727"/>
<feBlend mode="normal" in="SourceGraphic" in2="effect1_dropShadow_2189_18727" result="shape"/>
</filter>
</defs>
</svg>
