<svg width="314" height="502" viewBox="0 0 314 502" fill="none" xmlns="http://www.w3.org/2000/svg">
<path d="M134 0L134 61" stroke="#64748B" stroke-width="1.93" stroke-dasharray="2.79 2.79"/>
<circle cx="134.392" cy="64.3915" r="2.71323" fill="white" stroke="#64748B" stroke-width="1.35661"/>
<g filter="url(#filter0_d_2211_17760)">
<rect x="75.377" y="67" width="133.101" height="34.3826" rx="5.0011" fill="#D6E0FF" shape-rendering="crispEdges"/>
<path d="M86.5635 89.6913V82.7968H87.6324V84.0661H87.6992C87.8239 83.7365 88.0466 83.4426 88.3673 83.1842C88.6879 82.9259 89.1289 82.7968 89.69 82.7968H90.1043V83.8657H89.4763C88.8973 83.8657 88.443 83.977 88.1134 84.1997C87.7927 84.4135 87.6324 84.6852 87.6324 85.0148V89.6913H86.5635ZM93.9965 89.8516C93.5244 89.8516 93.0968 89.767 92.7138 89.5978C92.3397 89.4285 92.0146 89.188 91.7384 88.8762C91.4712 88.5556 91.2619 88.177 91.1104 87.7405C90.9679 87.2951 90.8967 86.7963 90.8967 86.244C90.8967 85.7007 90.9679 85.2063 91.1104 84.7609C91.2619 84.3155 91.4712 83.9369 91.7384 83.6252C92.0146 83.3045 92.3397 83.0595 92.7138 82.8903C93.0968 82.721 93.5244 82.6364 93.9965 82.6364C94.4597 82.6364 94.8739 82.721 95.2391 82.8903C95.6043 83.0595 95.9161 83.2956 96.1744 83.5984C96.4328 83.8924 96.6287 84.2443 96.7623 84.654C96.9049 85.0638 96.9761 85.5136 96.9761 86.0035V86.5113H92.019V86.8319C92.019 87.1259 92.0636 87.402 92.1526 87.6603C92.2506 87.9098 92.3842 88.128 92.5535 88.3151C92.7316 88.5021 92.9454 88.6491 93.1948 88.756C93.4531 88.8629 93.7426 88.9163 94.0633 88.9163C94.4998 88.9163 94.8784 88.8139 95.1991 88.609C95.5286 88.4041 95.7825 88.1102 95.9607 87.7271L96.7223 88.275C96.4996 88.7471 96.1522 89.1301 95.6801 89.4241C95.208 89.7091 94.6468 89.8516 93.9965 89.8516ZM93.9965 83.5316C93.7026 83.5316 93.4353 83.5851 93.1948 83.692C92.9543 83.79 92.745 83.9325 92.5668 84.1195C92.3976 84.3066 92.264 84.5293 92.166 84.7876C92.068 85.037 92.019 85.3132 92.019 85.616V85.7096H95.827V85.5626C95.827 84.948 95.6578 84.458 95.3193 84.0928C94.9897 83.7187 94.5488 83.5316 93.9965 83.5316ZM98.7375 89.6913V82.7968H99.8065V83.9191H99.8599C99.9401 83.741 100.029 83.5762 100.127 83.4247C100.234 83.2644 100.359 83.1263 100.501 83.0105C100.653 82.8947 100.826 82.8057 101.022 82.7433C101.218 82.6721 101.45 82.6364 101.717 82.6364C102.171 82.6364 102.59 82.7478 102.973 82.9705C103.356 83.1842 103.641 83.5405 103.828 84.0394H103.855C103.98 83.6653 104.211 83.3401 104.55 83.064C104.897 82.7789 105.365 82.6364 105.953 82.6364C106.656 82.6364 107.204 82.868 107.596 83.3312C107.997 83.7855 108.197 84.4313 108.197 85.2686V89.6913H107.129V85.4557C107.129 84.8411 107.008 84.3779 106.768 84.0661C106.527 83.7543 106.144 83.5984 105.619 83.5984C105.405 83.5984 105.2 83.6252 105.004 83.6786C104.817 83.7321 104.648 83.8122 104.496 83.9191C104.345 84.026 104.225 84.1641 104.136 84.3333C104.047 84.4937 104.002 84.6852 104.002 84.9079V89.6913H102.933V85.4557C102.933 84.8411 102.813 84.3779 102.572 84.0661C102.332 83.7543 101.958 83.5984 101.45 83.5984C101.236 83.5984 101.031 83.6252 100.835 83.6786C100.639 83.7321 100.466 83.8122 100.314 83.9191C100.163 84.026 100.038 84.1641 99.9401 84.3333C99.851 84.4937 99.8065 84.6852 99.8065 84.9079V89.6913H98.7375ZM113.008 89.8516C112.545 89.8516 112.122 89.767 111.739 89.5978C111.356 89.4285 111.026 89.188 110.75 88.8762C110.483 88.5556 110.274 88.177 110.122 87.7405C109.971 87.2951 109.895 86.7963 109.895 86.244C109.895 85.7007 109.971 85.2063 110.122 84.7609C110.274 84.3155 110.483 83.9369 110.75 83.6252C111.026 83.3045 111.356 83.0595 111.739 82.8903C112.122 82.721 112.545 82.6364 113.008 82.6364C113.471 82.6364 113.89 82.721 114.264 82.8903C114.647 83.0595 114.977 83.3045 115.253 83.6252C115.529 83.9369 115.743 84.3155 115.894 84.7609C116.046 85.2063 116.121 85.7007 116.121 86.244C116.121 86.7963 116.046 87.2951 115.894 87.7405C115.743 88.177 115.529 88.5556 115.253 88.8762C114.977 89.188 114.647 89.4285 114.264 89.5978C113.89 89.767 113.471 89.8516 113.008 89.8516ZM113.008 88.903C113.587 88.903 114.059 88.7248 114.425 88.3685C114.79 88.0122 114.972 87.4688 114.972 86.7384V85.7496C114.972 85.0192 114.79 84.4759 114.425 84.1195C114.059 83.7632 113.587 83.5851 113.008 83.5851C112.429 83.5851 111.957 83.7632 111.592 84.1195C111.227 84.4759 111.044 85.0192 111.044 85.7496V86.7384C111.044 87.4688 111.227 88.0122 111.592 88.3685C111.957 88.7248 112.429 88.903 113.008 88.903ZM119.298 89.6913L116.88 82.7968H117.949L119.151 86.2173L119.9 88.5689H119.966L120.715 86.2173L121.944 82.7968H122.973L120.541 89.6913H119.298ZM126.839 89.8516C126.367 89.8516 125.939 89.767 125.556 89.5978C125.182 89.4285 124.857 89.188 124.581 88.8762C124.314 88.5556 124.104 88.177 123.953 87.7405C123.811 87.2951 123.739 86.7963 123.739 86.244C123.739 85.7007 123.811 85.2063 123.953 84.7609C124.104 84.3155 124.314 83.9369 124.581 83.6252C124.857 83.3045 125.182 83.0595 125.556 82.8903C125.939 82.721 126.367 82.6364 126.839 82.6364C127.302 82.6364 127.717 82.721 128.082 82.8903C128.447 83.0595 128.759 83.2956 129.017 83.5984C129.275 83.8924 129.471 84.2443 129.605 84.654C129.747 85.0638 129.819 85.5136 129.819 86.0035V86.5113H124.862V86.8319C124.862 87.1259 124.906 87.402 124.995 87.6603C125.093 87.9098 125.227 88.128 125.396 88.3151C125.574 88.5021 125.788 88.6491 126.037 88.756C126.296 88.8629 126.585 88.9163 126.906 88.9163C127.342 88.9163 127.721 88.8139 128.042 88.609C128.371 88.4041 128.625 88.1102 128.803 87.7271L129.565 88.275C129.342 88.7471 128.995 89.1301 128.523 89.4241C128.051 89.7091 127.489 89.8516 126.839 89.8516ZM126.839 83.5316C126.545 83.5316 126.278 83.5851 126.037 83.692C125.797 83.79 125.588 83.9325 125.409 84.1195C125.24 84.3066 125.107 84.5293 125.009 84.7876C124.911 85.037 124.862 85.3132 124.862 85.616V85.7096H128.67V85.5626C128.67 84.948 128.5 84.458 128.162 84.0928C127.832 83.7187 127.391 83.5316 126.839 83.5316ZM134.738 89.6913V82.7968H135.807V83.9191H135.86C136.029 83.5272 136.266 83.2154 136.568 82.9838C136.88 82.7522 137.294 82.6364 137.811 82.6364C138.524 82.6364 139.085 82.868 139.495 83.3312C139.913 83.7855 140.123 84.4313 140.123 85.2686V89.6913H139.054V85.4557C139.054 84.2175 138.533 83.5984 137.49 83.5984C137.277 83.5984 137.067 83.6252 136.862 83.6786C136.666 83.7321 136.488 83.8122 136.328 83.9191C136.168 84.026 136.038 84.1641 135.94 84.3333C135.851 84.4937 135.807 84.6852 135.807 84.9079V89.6913H134.738ZM146.581 88.5689H146.528C146.456 88.7293 146.367 88.8896 146.26 89.0499C146.162 89.2014 146.038 89.3394 145.886 89.4641C145.735 89.5799 145.552 89.6735 145.338 89.7447C145.125 89.816 144.875 89.8516 144.59 89.8516C143.877 89.8516 143.312 89.6245 142.893 89.1702C142.475 88.707 142.265 88.0567 142.265 87.2194V82.7968H143.334V87.0323C143.334 88.2705 143.86 88.8896 144.911 88.8896C145.125 88.8896 145.329 88.8629 145.525 88.8094C145.73 88.756 145.908 88.6758 146.06 88.5689C146.22 88.462 146.345 88.3284 146.434 88.1681C146.532 87.9988 146.581 87.7984 146.581 87.5668V82.7968H147.65V89.6913H146.581V88.5689ZM151.062 89.6913C150.688 89.6913 150.403 89.5888 150.207 89.384C150.02 89.1702 149.926 88.903 149.926 88.5823V79.8038H150.995V88.756H152.011V89.6913H151.062ZM154.637 89.6913C154.263 89.6913 153.978 89.5888 153.782 89.384C153.595 89.1702 153.501 88.903 153.501 88.5823V79.8038H154.57V88.756H155.586V89.6913H154.637ZM161.823 89.6913L159.404 82.7968H160.473L161.676 86.2173L162.424 88.5689H162.491L163.239 86.2173L164.468 82.7968H165.497L163.065 89.6913H161.823ZM171.769 89.6913C171.368 89.6913 171.079 89.5844 170.901 89.3706C170.731 89.1568 170.624 88.8896 170.58 88.5689H170.513C170.362 88.9965 170.112 89.3172 169.765 89.5309C169.417 89.7447 169.003 89.8516 168.522 89.8516C167.792 89.8516 167.222 89.6646 166.812 89.2904C166.411 88.9163 166.211 88.4086 166.211 87.7672C166.211 87.117 166.447 86.6181 166.919 86.2707C167.4 85.9233 168.144 85.7496 169.15 85.7496H170.513V85.0682C170.513 84.5783 170.379 84.2042 170.112 83.9458C169.845 83.6875 169.435 83.5584 168.883 83.5584C168.464 83.5584 168.112 83.6519 167.827 83.839C167.551 84.026 167.32 84.2754 167.133 84.5872L166.491 83.9859C166.678 83.6118 166.977 83.2956 167.386 83.0373C167.796 82.77 168.313 82.6364 168.936 82.6364C169.774 82.6364 170.424 82.8413 170.887 83.251C171.35 83.6608 171.582 84.2309 171.582 84.9613V88.756H172.37V89.6913H171.769ZM168.696 88.943C168.963 88.943 169.208 88.9119 169.431 88.8495C169.653 88.7872 169.845 88.6981 170.005 88.5823C170.166 88.4665 170.29 88.3329 170.379 88.1814C170.468 88.03 170.513 87.8652 170.513 87.6871V86.5513H169.097C168.482 86.5513 168.032 86.6404 167.747 86.8186C167.471 86.9967 167.333 87.255 167.333 87.5935V87.8741C167.333 88.2126 167.453 88.4754 167.694 88.6624C167.943 88.8495 168.277 88.943 168.696 88.943ZM175.032 89.6913C174.657 89.6913 174.372 89.5888 174.176 89.384C173.989 89.1702 173.896 88.903 173.896 88.5823V79.8038H174.965V88.756H175.98V89.6913H175.032ZM181.785 88.5689H181.732C181.661 88.7293 181.572 88.8896 181.465 89.0499C181.367 89.2014 181.242 89.3394 181.091 89.4641C180.939 89.5799 180.756 89.6735 180.543 89.7447C180.329 89.816 180.08 89.8516 179.794 89.8516C179.082 89.8516 178.516 89.6245 178.098 89.1702C177.679 88.707 177.47 88.0567 177.47 87.2194V82.7968H178.538V87.0323C178.538 88.2705 179.064 88.8896 180.115 88.8896C180.329 88.8896 180.534 88.8629 180.73 88.8094C180.935 88.756 181.113 88.6758 181.264 88.5689C181.425 88.462 181.549 88.3284 181.638 88.1681C181.736 87.9988 181.785 87.7984 181.785 87.5668V82.7968H182.854V89.6913H181.785V88.5689ZM187.723 89.8516C187.251 89.8516 186.823 89.767 186.44 89.5978C186.066 89.4285 185.741 89.188 185.465 88.8762C185.197 88.5556 184.988 88.177 184.837 87.7405C184.694 87.2951 184.623 86.7963 184.623 86.244C184.623 85.7007 184.694 85.2063 184.837 84.7609C184.988 84.3155 185.197 83.9369 185.465 83.6252C185.741 83.3045 186.066 83.0595 186.44 82.8903C186.823 82.721 187.251 82.6364 187.723 82.6364C188.186 82.6364 188.6 82.721 188.965 82.8903C189.33 83.0595 189.642 83.2956 189.901 83.5984C190.159 83.8924 190.355 84.2443 190.488 84.654C190.631 85.0638 190.702 85.5136 190.702 86.0035V86.5113H185.745V86.8319C185.745 87.1259 185.79 87.402 185.879 87.6603C185.977 87.9098 186.11 88.128 186.28 88.3151C186.458 88.5021 186.672 88.6491 186.921 88.756C187.179 88.8629 187.469 88.9163 187.789 88.9163C188.226 88.9163 188.604 88.8139 188.925 88.609C189.255 88.4041 189.509 88.1102 189.687 87.7271L190.448 88.275C190.226 88.7471 189.878 89.1301 189.406 89.4241C188.934 89.7091 188.373 89.8516 187.723 89.8516ZM187.723 83.5316C187.429 83.5316 187.161 83.5851 186.921 83.692C186.68 83.79 186.471 83.9325 186.293 84.1195C186.124 84.3066 185.99 84.5293 185.892 84.7876C185.794 85.037 185.745 85.3132 185.745 85.616V85.7096H189.553V85.5626C189.553 84.948 189.384 84.458 189.045 84.0928C188.716 83.7187 188.275 83.5316 187.723 83.5316ZM194.535 89.8516C193.893 89.8516 193.354 89.7314 192.918 89.4909C192.49 89.2414 192.121 88.9119 191.809 88.5021L192.571 87.8875C192.838 88.226 193.136 88.4888 193.466 88.6758C193.795 88.854 194.178 88.943 194.615 88.943C195.069 88.943 195.421 88.8451 195.67 88.6491C195.929 88.4531 196.058 88.177 196.058 87.8207C196.058 87.5534 195.969 87.3263 195.791 87.1392C195.621 86.9433 195.31 86.8097 194.855 86.7384L194.308 86.6582C193.987 86.6137 193.693 86.5469 193.426 86.4578C193.158 86.3598 192.922 86.2351 192.718 86.0837C192.522 85.9233 192.366 85.7274 192.25 85.4958C192.143 85.2642 192.09 84.988 192.09 84.6674C192.09 84.3289 192.152 84.0349 192.277 83.7855C192.401 83.5272 192.571 83.3134 192.784 83.1442C193.007 82.9749 193.27 82.8502 193.573 82.77C193.876 82.681 194.201 82.6364 194.548 82.6364C195.109 82.6364 195.577 82.7344 195.951 82.9304C196.334 83.1263 196.668 83.398 196.953 83.7454L196.245 84.3868C196.094 84.173 195.871 83.9815 195.577 83.8122C195.283 83.6341 194.913 83.545 194.468 83.545C194.022 83.545 193.684 83.643 193.452 83.839C193.23 84.026 193.118 84.2843 193.118 84.6139C193.118 84.9524 193.23 85.1974 193.452 85.3488C193.684 85.5002 194.014 85.6116 194.441 85.6828L194.976 85.763C195.742 85.8788 196.285 86.1015 196.606 86.4311C196.926 86.7518 197.087 87.1749 197.087 87.7004C197.087 88.3685 196.86 88.894 196.405 89.2771C195.951 89.6601 195.327 89.8516 194.535 89.8516Z" fill="black"/>
</g>
<g filter="url(#filter1_d_2211_17760)">
<rect x="152.977" y="387.676" width="145.435" height="34.3826" rx="5.0011" fill="#D6E0FF" shape-rendering="crispEdges"/>
<path d="M165.466 410.367C165.092 410.367 164.807 410.264 164.611 410.06C164.424 409.846 164.33 409.579 164.33 409.258V400.479H165.399V409.432H166.414V410.367H165.466ZM170.576 410.527C170.113 410.527 169.69 410.443 169.307 410.273C168.924 410.104 168.594 409.864 168.318 409.552C168.051 409.231 167.841 408.853 167.69 408.416C167.539 407.971 167.463 407.472 167.463 406.92C167.463 406.376 167.539 405.882 167.69 405.436C167.841 404.991 168.051 404.613 168.318 404.301C168.594 403.98 168.924 403.735 169.307 403.566C169.69 403.397 170.113 403.312 170.576 403.312C171.039 403.312 171.458 403.397 171.832 403.566C172.215 403.735 172.545 403.98 172.821 404.301C173.097 404.613 173.311 404.991 173.462 405.436C173.614 405.882 173.689 406.376 173.689 406.92C173.689 407.472 173.614 407.971 173.462 408.416C173.311 408.853 173.097 409.231 172.821 409.552C172.545 409.864 172.215 410.104 171.832 410.273C171.458 410.443 171.039 410.527 170.576 410.527ZM170.576 409.579C171.155 409.579 171.627 409.4 171.992 409.044C172.358 408.688 172.54 408.144 172.54 407.414V406.425C172.54 405.695 172.358 405.151 171.992 404.795C171.627 404.439 171.155 404.261 170.576 404.261C169.997 404.261 169.525 404.439 169.16 404.795C168.795 405.151 168.612 405.695 168.612 406.425V407.414C168.612 408.144 168.795 408.688 169.16 409.044C169.525 409.4 169.997 409.579 170.576 409.579ZM174.66 403.472H175.703L176.438 406.452L177.172 409.472H177.199L178.041 406.452L178.909 403.472H179.858L180.753 406.452L181.608 409.472H181.635L182.343 406.452L183.092 403.472H184.094L182.263 410.367H180.94L179.978 407.053L179.377 404.955H179.35L178.762 407.053L177.8 410.367H176.504L174.66 403.472ZM188.165 410.527C187.693 410.527 187.265 410.443 186.882 410.273C186.508 410.104 186.183 409.864 185.907 409.552C185.64 409.231 185.43 408.853 185.279 408.416C185.136 407.971 185.065 407.472 185.065 406.92C185.065 406.376 185.136 405.882 185.279 405.436C185.43 404.991 185.64 404.613 185.907 404.301C186.183 403.98 186.508 403.735 186.882 403.566C187.265 403.397 187.693 403.312 188.165 403.312C188.628 403.312 189.042 403.397 189.407 403.566C189.773 403.735 190.084 403.971 190.343 404.274C190.601 404.568 190.797 404.92 190.931 405.33C191.073 405.739 191.144 406.189 191.144 406.679V407.187H186.187V407.508C186.187 407.801 186.232 408.078 186.321 408.336C186.419 408.585 186.553 408.804 186.722 408.991C186.9 409.178 187.114 409.325 187.363 409.432C187.621 409.538 187.911 409.592 188.232 409.592C188.668 409.592 189.047 409.489 189.367 409.285C189.697 409.08 189.951 408.786 190.129 408.403L190.891 408.951C190.668 409.423 190.321 409.806 189.848 410.1C189.376 410.385 188.815 410.527 188.165 410.527ZM188.165 404.207C187.871 404.207 187.604 404.261 187.363 404.368C187.123 404.466 186.913 404.608 186.735 404.795C186.566 404.982 186.432 405.205 186.334 405.463C186.236 405.713 186.187 405.989 186.187 406.292V406.385H189.995V406.238C189.995 405.624 189.826 405.134 189.488 404.768C189.158 404.394 188.717 404.207 188.165 404.207ZM192.906 410.367V403.472H193.975V404.742H194.042C194.166 404.412 194.389 404.118 194.71 403.86C195.03 403.602 195.471 403.472 196.032 403.472H196.447V404.541H195.819C195.24 404.541 194.785 404.653 194.456 404.875C194.135 405.089 193.975 405.361 193.975 405.69V410.367H192.906ZM203.535 410.527C203.054 410.527 202.622 410.443 202.239 410.273C201.856 410.104 201.531 409.864 201.264 409.552C201.005 409.24 200.805 408.861 200.662 408.416C200.529 407.971 200.462 407.472 200.462 406.92C200.462 406.367 200.529 405.869 200.662 405.423C200.805 404.978 201.005 404.599 201.264 404.287C201.531 403.976 201.856 403.735 202.239 403.566C202.622 403.397 203.054 403.312 203.535 403.312C204.221 403.312 204.769 403.463 205.179 403.766C205.597 404.06 205.909 404.448 206.114 404.929L205.219 405.383C205.094 405.027 204.889 404.751 204.604 404.555C204.319 404.359 203.963 404.261 203.535 404.261C203.214 404.261 202.934 404.314 202.693 404.421C202.453 404.519 202.252 404.662 202.092 404.849C201.932 405.027 201.812 405.245 201.731 405.503C201.651 405.753 201.611 406.029 201.611 406.332V407.508C201.611 408.113 201.771 408.612 202.092 409.004C202.422 409.387 202.903 409.579 203.535 409.579C204.399 409.579 205.023 409.178 205.406 408.376L206.181 408.897C205.958 409.396 205.624 409.792 205.179 410.086C204.742 410.38 204.194 410.527 203.535 410.527ZM210.217 410.527C209.754 410.527 209.331 410.443 208.947 410.273C208.564 410.104 208.235 409.864 207.959 409.552C207.692 409.231 207.482 408.853 207.331 408.416C207.179 407.971 207.104 407.472 207.104 406.92C207.104 406.376 207.179 405.882 207.331 405.436C207.482 404.991 207.692 404.613 207.959 404.301C208.235 403.98 208.564 403.735 208.947 403.566C209.331 403.397 209.754 403.312 210.217 403.312C210.68 403.312 211.099 403.397 211.473 403.566C211.856 403.735 212.185 403.98 212.462 404.301C212.738 404.613 212.951 404.991 213.103 405.436C213.254 405.882 213.33 406.376 213.33 406.92C213.33 407.472 213.254 407.971 213.103 408.416C212.951 408.853 212.738 409.231 212.462 409.552C212.185 409.864 211.856 410.104 211.473 410.273C211.099 410.443 210.68 410.527 210.217 410.527ZM210.217 409.579C210.796 409.579 211.268 409.4 211.633 409.044C211.998 408.688 212.181 408.144 212.181 407.414V406.425C212.181 405.695 211.998 405.151 211.633 404.795C211.268 404.439 210.796 404.261 210.217 404.261C209.638 404.261 209.166 404.439 208.801 404.795C208.435 405.151 208.253 405.695 208.253 406.425V407.414C208.253 408.144 208.435 408.688 208.801 409.044C209.166 409.4 209.638 409.579 210.217 409.579ZM216.224 410.367C215.85 410.367 215.565 410.264 215.369 410.06C215.182 409.846 215.088 409.579 215.088 409.258V400.479H216.157V409.432H217.172V410.367H216.224ZM222.977 409.245H222.924C222.853 409.405 222.764 409.565 222.657 409.726C222.559 409.877 222.434 410.015 222.283 410.14C222.131 410.256 221.949 410.349 221.735 410.42C221.521 410.492 221.272 410.527 220.987 410.527C220.274 410.527 219.708 410.3 219.29 409.846C218.871 409.383 218.662 408.732 218.662 407.895V403.472H219.731V407.708C219.731 408.946 220.256 409.565 221.307 409.565C221.521 409.565 221.726 409.538 221.922 409.485C222.127 409.432 222.305 409.351 222.456 409.245C222.617 409.138 222.741 409.004 222.83 408.844C222.928 408.674 222.977 408.474 222.977 408.242V403.472H224.046V410.367H222.977V409.245ZM226.323 410.367V403.472H227.392V404.595H227.445C227.525 404.417 227.614 404.252 227.712 404.1C227.819 403.94 227.944 403.802 228.086 403.686C228.238 403.57 228.411 403.481 228.607 403.419C228.803 403.348 229.035 403.312 229.302 403.312C229.757 403.312 230.175 403.423 230.558 403.646C230.941 403.86 231.226 404.216 231.413 404.715H231.44C231.565 404.341 231.796 404.016 232.135 403.74C232.482 403.455 232.95 403.312 233.538 403.312C234.242 403.312 234.789 403.544 235.181 404.007C235.582 404.461 235.783 405.107 235.783 405.944V410.367H234.714V406.131C234.714 405.517 234.593 405.053 234.353 404.742C234.112 404.43 233.729 404.274 233.204 404.274C232.99 404.274 232.785 404.301 232.589 404.354C232.402 404.408 232.233 404.488 232.081 404.595C231.93 404.702 231.81 404.84 231.721 405.009C231.632 405.169 231.587 405.361 231.587 405.583V410.367H230.518V406.131C230.518 405.517 230.398 405.053 230.157 404.742C229.917 404.43 229.543 404.274 229.035 404.274C228.821 404.274 228.616 404.301 228.42 404.354C228.224 404.408 228.051 404.488 227.899 404.595C227.748 404.702 227.623 404.84 227.525 405.009C227.436 405.169 227.392 405.361 227.392 405.583V410.367H226.323ZM237.988 410.367V403.472H239.057V404.595H239.11C239.279 404.203 239.516 403.891 239.818 403.659C240.13 403.428 240.544 403.312 241.061 403.312C241.774 403.312 242.335 403.544 242.745 404.007C243.163 404.461 243.373 405.107 243.373 405.944V410.367H242.304V406.131C242.304 404.893 241.783 404.274 240.74 404.274C240.527 404.274 240.317 404.301 240.112 404.354C239.916 404.408 239.738 404.488 239.578 404.595C239.418 404.702 239.288 404.84 239.19 405.009C239.101 405.169 239.057 405.361 239.057 405.583V410.367H237.988ZM248.74 410.367V403.472H249.809V404.595H249.862C250.031 404.203 250.267 403.891 250.57 403.659C250.882 403.428 251.296 403.312 251.813 403.312C252.525 403.312 253.087 403.544 253.496 404.007C253.915 404.461 254.124 405.107 254.124 405.944V410.367H253.055V406.131C253.055 404.893 252.534 404.274 251.492 404.274C251.278 404.274 251.069 404.301 250.864 404.354C250.668 404.408 250.49 404.488 250.33 404.595C250.169 404.702 250.04 404.84 249.942 405.009C249.853 405.169 249.809 405.361 249.809 405.583V410.367H248.74ZM261.344 410.367C260.944 410.367 260.654 410.26 260.476 410.046C260.307 409.832 260.2 409.565 260.155 409.245H260.088C259.937 409.672 259.688 409.993 259.34 410.207C258.993 410.42 258.579 410.527 258.098 410.527C257.367 410.527 256.797 410.34 256.387 409.966C255.986 409.592 255.786 409.084 255.786 408.443C255.786 407.793 256.022 407.294 256.494 406.946C256.975 406.599 257.719 406.425 258.725 406.425H260.088V405.744C260.088 405.254 259.955 404.88 259.688 404.621C259.42 404.363 259.011 404.234 258.458 404.234C258.04 404.234 257.688 404.327 257.403 404.515C257.127 404.702 256.895 404.951 256.708 405.263L256.067 404.662C256.254 404.287 256.552 403.971 256.962 403.713C257.372 403.446 257.888 403.312 258.512 403.312C259.349 403.312 259.999 403.517 260.462 403.927C260.926 404.336 261.157 404.906 261.157 405.637V409.432H261.946V410.367H261.344ZM258.271 409.619C258.538 409.619 258.783 409.587 259.006 409.525C259.229 409.463 259.42 409.374 259.581 409.258C259.741 409.142 259.866 409.008 259.955 408.857C260.044 408.706 260.088 408.541 260.088 408.363V407.227H258.672C258.057 407.227 257.608 407.316 257.323 407.494C257.046 407.672 256.908 407.931 256.908 408.269V408.55C256.908 408.888 257.029 409.151 257.269 409.338C257.519 409.525 257.853 409.619 258.271 409.619ZM263.471 410.367V403.472H264.54V404.595H264.594C264.674 404.417 264.763 404.252 264.861 404.1C264.968 403.94 265.092 403.802 265.235 403.686C265.386 403.57 265.56 403.481 265.756 403.419C265.952 403.348 266.184 403.312 266.451 403.312C266.905 403.312 267.324 403.423 267.707 403.646C268.09 403.86 268.375 404.216 268.562 404.715H268.589C268.713 404.341 268.945 404.016 269.283 403.74C269.631 403.455 270.099 403.312 270.686 403.312C271.39 403.312 271.938 403.544 272.33 404.007C272.731 404.461 272.931 405.107 272.931 405.944V410.367H271.862V406.131C271.862 405.517 271.742 405.053 271.501 404.742C271.261 404.43 270.878 404.274 270.352 404.274C270.139 404.274 269.934 404.301 269.738 404.354C269.551 404.408 269.381 404.488 269.23 404.595C269.079 404.702 268.958 404.84 268.869 405.009C268.78 405.169 268.736 405.361 268.736 405.583V410.367H267.667V406.131C267.667 405.517 267.546 405.053 267.306 404.742C267.065 404.43 266.691 404.274 266.184 404.274C265.97 404.274 265.765 404.301 265.569 404.354C265.373 404.408 265.199 404.488 265.048 404.595C264.896 404.702 264.772 404.84 264.674 405.009C264.585 405.169 264.54 405.361 264.54 405.583V410.367H263.471ZM277.729 410.527C277.256 410.527 276.829 410.443 276.446 410.273C276.072 410.104 275.747 409.864 275.47 409.552C275.203 409.231 274.994 408.853 274.842 408.416C274.7 407.971 274.629 407.472 274.629 406.92C274.629 406.376 274.7 405.882 274.842 405.436C274.994 404.991 275.203 404.613 275.47 404.301C275.747 403.98 276.072 403.735 276.446 403.566C276.829 403.397 277.256 403.312 277.729 403.312C278.192 403.312 278.606 403.397 278.971 403.566C279.336 403.735 279.648 403.971 279.906 404.274C280.165 404.568 280.361 404.92 280.494 405.33C280.637 405.739 280.708 406.189 280.708 406.679V407.187H275.751V407.508C275.751 407.801 275.796 408.078 275.885 408.336C275.983 408.585 276.116 408.804 276.286 408.991C276.464 409.178 276.677 409.325 276.927 409.432C277.185 409.538 277.475 409.592 277.795 409.592C278.232 409.592 278.61 409.489 278.931 409.285C279.261 409.08 279.515 408.786 279.693 408.403L280.454 408.951C280.232 409.423 279.884 409.806 279.412 410.1C278.94 410.385 278.379 410.527 277.729 410.527ZM277.729 404.207C277.435 404.207 277.167 404.261 276.927 404.368C276.686 404.466 276.477 404.608 276.299 404.795C276.13 404.982 275.996 405.205 275.898 405.463C275.8 405.713 275.751 405.989 275.751 406.292V406.385H279.559V406.238C279.559 405.624 279.39 405.134 279.051 404.768C278.722 404.394 278.281 404.207 277.729 404.207ZM284.541 410.527C283.899 410.527 283.36 410.407 282.924 410.166C282.496 409.917 282.127 409.587 281.815 409.178L282.576 408.563C282.844 408.902 283.142 409.164 283.472 409.351C283.801 409.53 284.184 409.619 284.621 409.619C285.075 409.619 285.427 409.521 285.676 409.325C285.935 409.129 286.064 408.853 286.064 408.496C286.064 408.229 285.975 408.002 285.797 407.815C285.627 407.619 285.316 407.485 284.861 407.414L284.313 407.334C283.993 407.289 283.699 407.222 283.432 407.133C283.164 407.035 282.928 406.911 282.723 406.759C282.527 406.599 282.372 406.403 282.256 406.171C282.149 405.94 282.095 405.664 282.095 405.343C282.095 405.004 282.158 404.711 282.283 404.461C282.407 404.203 282.576 403.989 282.79 403.82C283.013 403.651 283.276 403.526 283.579 403.446C283.881 403.357 284.207 403.312 284.554 403.312C285.115 403.312 285.583 403.41 285.957 403.606C286.34 403.802 286.674 404.074 286.959 404.421L286.251 405.062C286.099 404.849 285.877 404.657 285.583 404.488C285.289 404.31 284.919 404.221 284.474 404.221C284.028 404.221 283.69 404.319 283.458 404.515C283.236 404.702 283.124 404.96 283.124 405.29C283.124 405.628 283.236 405.873 283.458 406.024C283.69 406.176 284.02 406.287 284.447 406.358L284.982 406.439C285.748 406.554 286.291 406.777 286.612 407.107C286.932 407.427 287.093 407.85 287.093 408.376C287.093 409.044 286.866 409.57 286.411 409.953C285.957 410.336 285.333 410.527 284.541 410.527Z" fill="black"/>
</g>
<g filter="url(#filter2_d_2211_17760)">
<rect x="162.74" y="183.142" width="110.489" height="34.3826" rx="5.0011" fill="#D6E0FF" shape-rendering="crispEdges"/>
<path d="M176.712 205.994C176.24 205.994 175.813 205.909 175.43 205.74C175.055 205.571 174.73 205.33 174.454 205.018C174.187 204.698 173.978 204.319 173.826 203.883C173.684 203.437 173.612 202.938 173.612 202.386C173.612 201.843 173.684 201.348 173.826 200.903C173.978 200.458 174.187 200.079 174.454 199.767C174.73 199.447 175.055 199.202 175.43 199.032C175.813 198.863 176.24 198.779 176.712 198.779C177.175 198.779 177.59 198.863 177.955 199.032C178.32 199.202 178.632 199.438 178.89 199.741C179.148 200.034 179.344 200.386 179.478 200.796C179.621 201.206 179.692 201.656 179.692 202.146V202.653H174.735V202.974C174.735 203.268 174.779 203.544 174.868 203.802C174.966 204.052 175.1 204.27 175.269 204.457C175.447 204.644 175.661 204.791 175.911 204.898C176.169 205.005 176.458 205.058 176.779 205.058C177.216 205.058 177.594 204.956 177.915 204.751C178.244 204.546 178.498 204.252 178.676 203.869L179.438 204.417C179.215 204.889 178.868 205.272 178.396 205.566C177.924 205.851 177.362 205.994 176.712 205.994ZM176.712 199.674C176.418 199.674 176.151 199.727 175.911 199.834C175.67 199.932 175.461 200.075 175.283 200.262C175.113 200.449 174.98 200.671 174.882 200.93C174.784 201.179 174.735 201.455 174.735 201.758V201.852H178.543V201.705C178.543 201.09 178.374 200.6 178.035 200.235C177.705 199.861 177.265 199.674 176.712 199.674ZM181.453 205.833V198.939H182.522V200.061H182.576C182.745 199.669 182.981 199.358 183.284 199.126C183.596 198.894 184.01 198.779 184.526 198.779C185.239 198.779 185.8 199.01 186.21 199.473C186.629 199.928 186.838 200.573 186.838 201.411V205.833H185.769V201.598C185.769 200.36 185.248 199.741 184.206 199.741C183.992 199.741 183.783 199.767 183.578 199.821C183.382 199.874 183.204 199.954 183.043 200.061C182.883 200.168 182.754 200.306 182.656 200.475C182.567 200.636 182.522 200.827 182.522 201.05V205.833H181.453ZM191.613 205.994C191.132 205.994 190.7 205.909 190.317 205.74C189.934 205.571 189.609 205.33 189.341 205.018C189.083 204.707 188.883 204.328 188.74 203.883C188.606 203.437 188.54 202.938 188.54 202.386C188.54 201.834 188.606 201.335 188.74 200.89C188.883 200.444 189.083 200.066 189.341 199.754C189.609 199.442 189.934 199.202 190.317 199.032C190.7 198.863 191.132 198.779 191.613 198.779C192.299 198.779 192.846 198.93 193.256 199.233C193.675 199.527 193.987 199.914 194.192 200.395L193.296 200.85C193.172 200.493 192.967 200.217 192.682 200.021C192.397 199.825 192.04 199.727 191.613 199.727C191.292 199.727 191.012 199.781 190.771 199.888C190.531 199.985 190.33 200.128 190.17 200.315C190.009 200.493 189.889 200.711 189.809 200.97C189.729 201.219 189.689 201.495 189.689 201.798V202.974C189.689 203.58 189.849 204.079 190.17 204.471C190.499 204.854 190.98 205.045 191.613 205.045C192.477 205.045 193.1 204.644 193.483 203.843L194.258 204.364C194.036 204.862 193.702 205.259 193.256 205.553C192.82 205.847 192.272 205.994 191.613 205.994ZM198.294 205.994C197.831 205.994 197.408 205.909 197.025 205.74C196.642 205.571 196.313 205.33 196.036 205.018C195.769 204.698 195.56 204.319 195.408 203.883C195.257 203.437 195.181 202.938 195.181 202.386C195.181 201.843 195.257 201.348 195.408 200.903C195.56 200.458 195.769 200.079 196.036 199.767C196.313 199.447 196.642 199.202 197.025 199.032C197.408 198.863 197.831 198.779 198.294 198.779C198.758 198.779 199.176 198.863 199.55 199.032C199.933 199.202 200.263 199.447 200.539 199.767C200.815 200.079 201.029 200.458 201.181 200.903C201.332 201.348 201.408 201.843 201.408 202.386C201.408 202.938 201.332 203.437 201.181 203.883C201.029 204.319 200.815 204.698 200.539 205.018C200.263 205.33 199.933 205.571 199.55 205.74C199.176 205.909 198.758 205.994 198.294 205.994ZM198.294 205.045C198.873 205.045 199.346 204.867 199.711 204.511C200.076 204.154 200.259 203.611 200.259 202.88V201.892C200.259 201.161 200.076 200.618 199.711 200.262C199.346 199.905 198.873 199.727 198.294 199.727C197.715 199.727 197.243 199.905 196.878 200.262C196.513 200.618 196.33 201.161 196.33 201.892V202.88C196.33 203.611 196.513 204.154 196.878 204.511C197.243 204.867 197.715 205.045 198.294 205.045ZM207.575 204.711H207.522C207.103 205.566 206.43 205.994 205.504 205.994C205.076 205.994 204.689 205.909 204.341 205.74C203.994 205.571 203.696 205.33 203.446 205.018C203.206 204.707 203.019 204.328 202.885 203.883C202.76 203.437 202.698 202.938 202.698 202.386C202.698 201.834 202.76 201.335 202.885 200.89C203.019 200.444 203.206 200.066 203.446 199.754C203.696 199.442 203.994 199.202 204.341 199.032C204.689 198.863 205.076 198.779 205.504 198.779C205.985 198.779 206.395 198.885 206.733 199.099C207.081 199.304 207.343 199.625 207.522 200.061H207.575V195.946H208.644V205.833H207.575V204.711ZM205.798 205.032C206.038 205.032 206.266 205.001 206.479 204.938C206.702 204.876 206.894 204.787 207.054 204.671C207.214 204.546 207.339 204.399 207.428 204.23C207.526 204.052 207.575 203.851 207.575 203.629V201.063C207.575 200.876 207.526 200.703 207.428 200.542C207.339 200.373 207.214 200.23 207.054 200.115C206.894 199.999 206.702 199.91 206.479 199.847C206.266 199.776 206.038 199.741 205.798 199.741C205.192 199.741 204.716 199.932 204.368 200.315C204.021 200.689 203.847 201.184 203.847 201.798V202.974C203.847 203.589 204.021 204.087 204.368 204.471C204.716 204.845 205.192 205.032 205.798 205.032ZM213.509 205.994C213.036 205.994 212.609 205.909 212.226 205.74C211.852 205.571 211.527 205.33 211.25 205.018C210.983 204.698 210.774 204.319 210.622 203.883C210.48 203.437 210.409 202.938 210.409 202.386C210.409 201.843 210.48 201.348 210.622 200.903C210.774 200.458 210.983 200.079 211.25 199.767C211.527 199.447 211.852 199.202 212.226 199.032C212.609 198.863 213.036 198.779 213.509 198.779C213.972 198.779 214.386 198.863 214.751 199.032C215.116 199.202 215.428 199.438 215.686 199.741C215.945 200.034 216.141 200.386 216.274 200.796C216.417 201.206 216.488 201.656 216.488 202.146V202.653H211.531V202.974C211.531 203.268 211.576 203.544 211.665 203.802C211.763 204.052 211.896 204.27 212.065 204.457C212.244 204.644 212.457 204.791 212.707 204.898C212.965 205.005 213.255 205.058 213.575 205.058C214.012 205.058 214.39 204.956 214.711 204.751C215.041 204.546 215.294 204.252 215.473 203.869L216.234 204.417C216.012 204.889 215.664 205.272 215.192 205.566C214.72 205.851 214.159 205.994 213.509 205.994ZM213.509 199.674C213.215 199.674 212.947 199.727 212.707 199.834C212.466 199.932 212.257 200.075 212.079 200.262C211.91 200.449 211.776 200.671 211.678 200.93C211.58 201.179 211.531 201.455 211.531 201.758V201.852H215.339V201.705C215.339 201.09 215.17 200.6 214.831 200.235C214.502 199.861 214.061 199.674 213.509 199.674ZM224.013 205.994C223.55 205.994 223.126 205.909 222.743 205.74C222.36 205.571 222.031 205.33 221.755 205.018C221.487 204.698 221.278 204.319 221.127 203.883C220.975 203.437 220.899 202.938 220.899 202.386C220.899 201.843 220.975 201.348 221.127 200.903C221.278 200.458 221.487 200.079 221.755 199.767C222.031 199.447 222.36 199.202 222.743 199.032C223.126 198.863 223.55 198.779 224.013 198.779C224.476 198.779 224.895 198.863 225.269 199.032C225.652 199.202 225.981 199.447 226.257 199.767C226.534 200.079 226.747 200.458 226.899 200.903C227.05 201.348 227.126 201.843 227.126 202.386C227.126 202.938 227.05 203.437 226.899 203.883C226.747 204.319 226.534 204.698 226.257 205.018C225.981 205.33 225.652 205.571 225.269 205.74C224.895 205.909 224.476 205.994 224.013 205.994ZM224.013 205.045C224.592 205.045 225.064 204.867 225.429 204.511C225.794 204.154 225.977 203.611 225.977 202.88V201.892C225.977 201.161 225.794 200.618 225.429 200.262C225.064 199.905 224.592 199.727 224.013 199.727C223.434 199.727 222.962 199.905 222.596 200.262C222.231 200.618 222.049 201.161 222.049 201.892V202.88C222.049 203.611 222.231 204.154 222.596 204.511C222.962 204.867 223.434 205.045 224.013 205.045ZM228.884 205.833V198.939H229.953V200.061H230.006C230.176 199.669 230.412 199.358 230.714 199.126C231.026 198.894 231.44 198.779 231.957 198.779C232.67 198.779 233.231 199.01 233.641 199.473C234.059 199.928 234.269 200.573 234.269 201.411V205.833H233.2V201.598C233.2 200.36 232.679 199.741 231.636 199.741C231.423 199.741 231.213 199.767 231.008 199.821C230.812 199.874 230.634 199.954 230.474 200.061C230.314 200.168 230.184 200.306 230.086 200.475C229.997 200.636 229.953 200.827 229.953 201.05V205.833H228.884ZM239.07 205.994C238.598 205.994 238.17 205.909 237.787 205.74C237.413 205.571 237.088 205.33 236.812 205.018C236.545 204.698 236.336 204.319 236.184 203.883C236.042 203.437 235.97 202.938 235.97 202.386C235.97 201.843 236.042 201.348 236.184 200.903C236.336 200.458 236.545 200.079 236.812 199.767C237.088 199.447 237.413 199.202 237.787 199.032C238.17 198.863 238.598 198.779 239.07 198.779C239.533 198.779 239.948 198.863 240.313 199.032C240.678 199.202 240.99 199.438 241.248 199.741C241.506 200.034 241.702 200.386 241.836 200.796C241.979 201.206 242.05 201.656 242.05 202.146V202.653H237.093V202.974C237.093 203.268 237.137 203.544 237.226 203.802C237.324 204.052 237.458 204.27 237.627 204.457C237.805 204.644 238.019 204.791 238.268 204.898C238.527 205.005 238.816 205.058 239.137 205.058C239.573 205.058 239.952 204.956 240.273 204.751C240.602 204.546 240.856 204.252 241.034 203.869L241.796 204.417C241.573 204.889 241.226 205.272 240.754 205.566C240.282 205.851 239.72 205.994 239.07 205.994ZM239.07 199.674C238.776 199.674 238.509 199.727 238.268 199.834C238.028 199.932 237.819 200.075 237.64 200.262C237.471 200.449 237.338 200.671 237.24 200.93C237.142 201.179 237.093 201.455 237.093 201.758V201.852H240.901V201.705C240.901 201.09 240.731 200.6 240.393 200.235C240.063 199.861 239.622 199.674 239.07 199.674ZM243.811 195.946H244.88V200.061H244.934C245.103 199.669 245.339 199.358 245.642 199.126C245.953 198.894 246.368 198.779 246.884 198.779C247.597 198.779 248.158 199.01 248.568 199.473C248.987 199.928 249.196 200.573 249.196 201.411V205.833H248.127V201.598C248.127 200.36 247.606 199.741 246.564 199.741C246.35 199.741 246.141 199.767 245.936 199.821C245.74 199.874 245.562 199.954 245.401 200.061C245.241 200.168 245.112 200.306 245.014 200.475C244.925 200.636 244.88 200.827 244.88 201.05V205.833H243.811V195.946ZM254.011 205.994C253.548 205.994 253.124 205.909 252.741 205.74C252.358 205.571 252.029 205.33 251.753 205.018C251.485 204.698 251.276 204.319 251.125 203.883C250.973 203.437 250.898 202.938 250.898 202.386C250.898 201.843 250.973 201.348 251.125 200.903C251.276 200.458 251.485 200.079 251.753 199.767C252.029 199.447 252.358 199.202 252.741 199.032C253.124 198.863 253.548 198.779 254.011 198.779C254.474 198.779 254.893 198.863 255.267 199.032C255.65 199.202 255.979 199.447 256.256 199.767C256.532 200.079 256.745 200.458 256.897 200.903C257.048 201.348 257.124 201.843 257.124 202.386C257.124 202.938 257.048 203.437 256.897 203.883C256.745 204.319 256.532 204.698 256.256 205.018C255.979 205.33 255.65 205.571 255.267 205.74C254.893 205.909 254.474 205.994 254.011 205.994ZM254.011 205.045C254.59 205.045 255.062 204.867 255.427 204.511C255.792 204.154 255.975 203.611 255.975 202.88V201.892C255.975 201.161 255.792 200.618 255.427 200.262C255.062 199.905 254.59 199.727 254.011 199.727C253.432 199.727 252.96 199.905 252.594 200.262C252.229 200.618 252.047 201.161 252.047 201.892V202.88C252.047 203.611 252.229 204.154 252.594 204.511C252.96 204.867 253.432 205.045 254.011 205.045ZM260.405 205.833C260.031 205.833 259.746 205.731 259.55 205.526C259.363 205.312 259.269 205.036 259.269 204.698V199.874H258.134V198.939H258.775C259.007 198.939 259.163 198.894 259.243 198.805C259.332 198.707 259.376 198.542 259.376 198.311V197.028H260.338V198.939H261.848V199.874H260.338V204.898H261.741V205.833H260.405Z" fill="black"/>
</g>
<g filter="url(#filter3_d_2211_17760)">
<rect x="6" y="247.894" width="109.975" height="34.3826" rx="5.0011" fill="#D6E0FF" shape-rendering="crispEdges"/>
<path d="M19.7152 270.746C19.2431 270.746 18.8155 270.661 18.4325 270.492C18.0583 270.322 17.7332 270.082 17.4571 269.77C17.1898 269.449 16.9805 269.071 16.8291 268.634C16.6866 268.189 16.6153 267.69 16.6153 267.138C16.6153 266.595 16.6866 266.1 16.8291 265.655C16.9805 265.209 17.1898 264.831 17.4571 264.519C17.7332 264.198 18.0583 263.953 18.4325 263.784C18.8155 263.615 19.2431 263.53 19.7152 263.53C20.1784 263.53 20.5926 263.615 20.9578 263.784C21.323 263.953 21.6348 264.19 21.8931 264.492C22.1514 264.786 22.3474 265.138 22.481 265.548C22.6235 265.958 22.6948 266.408 22.6948 266.897V267.405H17.7377V267.726C17.7377 268.02 17.7822 268.296 17.8713 268.554C17.9693 268.804 18.1029 269.022 18.2721 269.209C18.4503 269.396 18.6641 269.543 18.9135 269.65C19.1718 269.757 19.4613 269.81 19.782 269.81C20.2184 269.81 20.597 269.708 20.9177 269.503C21.2473 269.298 21.5011 269.004 21.6793 268.621L22.4409 269.169C22.2182 269.641 21.8708 270.024 21.3987 270.318C20.9266 270.603 20.3654 270.746 19.7152 270.746ZM19.7152 264.426C19.4212 264.426 19.154 264.479 18.9135 264.586C18.673 264.684 18.4636 264.826 18.2855 265.013C18.1162 265.201 17.9826 265.423 17.8846 265.682C17.7867 265.931 17.7377 266.207 17.7377 266.51V266.603H21.5457V266.457C21.5457 265.842 21.3764 265.352 21.0379 264.987C20.7084 264.613 20.2674 264.426 19.7152 264.426ZM24.4562 270.585V263.691H25.5251V264.813H25.5786C25.7478 264.421 25.9839 264.109 26.2867 263.878C26.5985 263.646 27.0127 263.53 27.5293 263.53C28.2419 263.53 28.8031 263.762 29.2129 264.225C29.6315 264.679 29.8409 265.325 29.8409 266.163V270.585H28.7719V266.35C28.7719 265.111 28.2509 264.492 27.2087 264.492C26.9949 264.492 26.7855 264.519 26.5807 264.573C26.3847 264.626 26.2065 264.706 26.0462 264.813C25.8859 264.92 25.7567 265.058 25.6587 265.227C25.5696 265.388 25.5251 265.579 25.5251 265.802V270.585H24.4562ZM34.6157 270.746C34.1347 270.746 33.7027 270.661 33.3197 270.492C32.9366 270.322 32.6115 270.082 32.3443 269.77C32.0859 269.458 31.8855 269.08 31.743 268.634C31.6094 268.189 31.5426 267.69 31.5426 267.138C31.5426 266.586 31.6094 266.087 31.743 265.641C31.8855 265.196 32.0859 264.817 32.3443 264.506C32.6115 264.194 32.9366 263.953 33.3197 263.784C33.7027 263.615 34.1347 263.53 34.6157 263.53C35.3016 263.53 35.8494 263.682 36.2592 263.985C36.6778 264.279 36.9896 264.666 37.1945 265.147L36.2993 265.601C36.1746 265.245 35.9697 264.969 35.6846 264.773C35.3996 264.577 35.0433 264.479 34.6157 264.479C34.295 264.479 34.0145 264.532 33.7739 264.639C33.5334 264.737 33.333 264.88 33.1727 265.067C33.0123 265.245 32.8921 265.463 32.8119 265.722C32.7317 265.971 32.6917 266.247 32.6917 266.55V267.726C32.6917 268.332 32.852 268.83 33.1727 269.222C33.5023 269.605 33.9833 269.797 34.6157 269.797C35.4798 269.797 36.1033 269.396 36.4863 268.594L37.2613 269.115C37.0386 269.614 36.7046 270.011 36.2592 270.305C35.8227 270.599 35.2749 270.746 34.6157 270.746ZM41.2974 270.746C40.8342 270.746 40.4111 270.661 40.0281 270.492C39.645 270.322 39.3154 270.082 39.0393 269.77C38.7721 269.449 38.5627 269.071 38.4113 268.634C38.2599 268.189 38.1842 267.69 38.1842 267.138C38.1842 266.595 38.2599 266.1 38.4113 265.655C38.5627 265.209 38.7721 264.831 39.0393 264.519C39.3154 264.198 39.645 263.953 40.0281 263.784C40.4111 263.615 40.8342 263.53 41.2974 263.53C41.7606 263.53 42.1793 263.615 42.5534 263.784C42.9364 263.953 43.266 264.198 43.5421 264.519C43.8183 264.831 44.032 265.209 44.1835 265.655C44.3349 266.1 44.4106 266.595 44.4106 267.138C44.4106 267.69 44.3349 268.189 44.1835 268.634C44.032 269.071 43.8183 269.449 43.5421 269.77C43.266 270.082 42.9364 270.322 42.5534 270.492C42.1793 270.661 41.7606 270.746 41.2974 270.746ZM41.2974 269.797C41.8764 269.797 42.3485 269.619 42.7137 269.262C43.0789 268.906 43.2615 268.363 43.2615 267.632V266.644C43.2615 265.913 43.0789 265.37 42.7137 265.013C42.3485 264.657 41.8764 264.479 41.2974 264.479C40.7184 264.479 40.2463 264.657 39.8811 265.013C39.5159 265.37 39.3333 265.913 39.3333 266.644V267.632C39.3333 268.363 39.5159 268.906 39.8811 269.262C40.2463 269.619 40.7184 269.797 41.2974 269.797ZM50.5779 269.463H50.5244C50.1058 270.318 49.4333 270.746 48.5069 270.746C48.0793 270.746 47.6918 270.661 47.3444 270.492C46.997 270.322 46.6986 270.082 46.4492 269.77C46.2087 269.458 46.0216 269.08 45.888 268.634C45.7633 268.189 45.7009 267.69 45.7009 267.138C45.7009 266.586 45.7633 266.087 45.888 265.641C46.0216 265.196 46.2087 264.817 46.4492 264.506C46.6986 264.194 46.997 263.953 47.3444 263.784C47.6918 263.615 48.0793 263.53 48.5069 263.53C48.9879 263.53 49.3976 263.637 49.7361 263.851C50.0835 264.056 50.3463 264.377 50.5244 264.813H50.5779V260.698H51.6468V270.585H50.5779V269.463ZM48.8008 269.784C49.0413 269.784 49.2685 269.752 49.4822 269.69C49.7049 269.628 49.8965 269.539 50.0568 269.423C50.2171 269.298 50.3418 269.151 50.4309 268.982C50.5289 268.804 50.5779 268.603 50.5779 268.381V265.815C50.5779 265.628 50.5289 265.454 50.4309 265.294C50.3418 265.125 50.2171 264.982 50.0568 264.866C49.8965 264.751 49.7049 264.662 49.4822 264.599C49.2685 264.528 49.0413 264.492 48.8008 264.492C48.1951 264.492 47.7185 264.684 47.3711 265.067C47.0237 265.441 46.85 265.935 46.85 266.55V267.726C46.85 268.34 47.0237 268.839 47.3711 269.222C47.7185 269.596 48.1951 269.784 48.8008 269.784ZM56.5114 270.746C56.0393 270.746 55.6118 270.661 55.2287 270.492C54.8546 270.322 54.5295 270.082 54.2533 269.77C53.9861 269.449 53.7768 269.071 53.6254 268.634C53.4828 268.189 53.4116 267.69 53.4116 267.138C53.4116 266.595 53.4828 266.1 53.6254 265.655C53.7768 265.209 53.9861 264.831 54.2533 264.519C54.5295 264.198 54.8546 263.953 55.2287 263.784C55.6118 263.615 56.0393 263.53 56.5114 263.53C56.9746 263.53 57.3888 263.615 57.754 263.784C58.1193 263.953 58.431 264.19 58.6894 264.492C58.9477 264.786 59.1436 265.138 59.2773 265.548C59.4198 265.958 59.491 266.408 59.491 266.897V267.405H54.5339V267.726C54.5339 268.02 54.5785 268.296 54.6675 268.554C54.7655 268.804 54.8991 269.022 55.0684 269.209C55.2465 269.396 55.4603 269.543 55.7097 269.65C55.9681 269.757 56.2576 269.81 56.5782 269.81C57.0147 269.81 57.3933 269.708 57.714 269.503C58.0435 269.298 58.2974 269.004 58.4756 268.621L59.2372 269.169C59.0145 269.641 58.6671 270.024 58.195 270.318C57.7229 270.603 57.1617 270.746 56.5114 270.746ZM56.5114 264.426C56.2175 264.426 55.9502 264.479 55.7097 264.586C55.4692 264.684 55.2599 264.826 55.0818 265.013C54.9125 265.201 54.7789 265.423 54.6809 265.682C54.5829 265.931 54.5339 266.207 54.5339 266.51V266.603H58.342V266.457C58.342 265.842 58.1727 265.352 57.8342 264.987C57.5046 264.613 57.0637 264.426 56.5114 264.426ZM67.0156 270.746C66.5524 270.746 66.1293 270.661 65.7463 270.492C65.3633 270.322 65.0337 270.082 64.7576 269.77C64.4903 269.449 64.281 269.071 64.1296 268.634C63.9781 268.189 63.9024 267.69 63.9024 267.138C63.9024 266.595 63.9781 266.1 64.1296 265.655C64.281 265.209 64.4903 264.831 64.7576 264.519C65.0337 264.198 65.3633 263.953 65.7463 263.784C66.1293 263.615 66.5524 263.53 67.0156 263.53C67.4788 263.53 67.8975 263.615 68.2716 263.784C68.6547 263.953 68.9842 264.198 69.2604 264.519C69.5365 264.831 69.7503 265.209 69.9017 265.655C70.0532 266.1 70.1289 266.595 70.1289 267.138C70.1289 267.69 70.0532 268.189 69.9017 268.634C69.7503 269.071 69.5365 269.449 69.2604 269.77C68.9842 270.082 68.6547 270.322 68.2716 270.492C67.8975 270.661 67.4788 270.746 67.0156 270.746ZM67.0156 269.797C67.5946 269.797 68.0667 269.619 68.432 269.262C68.7972 268.906 68.9798 268.363 68.9798 267.632V266.644C68.9798 265.913 68.7972 265.37 68.432 265.013C68.0667 264.657 67.5946 264.479 67.0156 264.479C66.4366 264.479 65.9645 264.657 65.5993 265.013C65.2341 265.37 65.0515 265.913 65.0515 266.644V267.632C65.0515 268.363 65.2341 268.906 65.5993 269.262C65.9645 269.619 66.4366 269.797 67.0156 269.797ZM71.8868 270.585V263.691H72.9558V264.96H73.0226C73.1473 264.63 73.37 264.336 73.6906 264.078C74.0113 263.82 74.4522 263.691 75.0134 263.691H75.4276V264.76H74.7996C74.2206 264.76 73.7664 264.871 73.4368 265.094C73.1161 265.307 72.9558 265.579 72.9558 265.909V270.585H71.8868ZM81.124 269.463H81.0706C80.6519 270.318 79.9794 270.746 79.053 270.746C78.6254 270.746 78.2379 270.661 77.8905 270.492C77.5431 270.322 77.2447 270.082 76.9953 269.77C76.7548 269.458 76.5677 269.08 76.4341 268.634C76.3094 268.189 76.2471 267.69 76.2471 267.138C76.2471 266.586 76.3094 266.087 76.4341 265.641C76.5677 265.196 76.7548 264.817 76.9953 264.506C77.2447 264.194 77.5431 263.953 77.8905 263.784C78.2379 263.615 78.6254 263.53 79.053 263.53C79.534 263.53 79.9438 263.637 80.2822 263.851C80.6296 264.056 80.8924 264.377 81.0706 264.813H81.124V260.698H82.1929V270.585H81.124V269.463ZM79.3469 269.784C79.5874 269.784 79.8146 269.752 80.0284 269.69C80.2511 269.628 80.4426 269.539 80.6029 269.423C80.7633 269.298 80.888 269.151 80.977 268.982C81.075 268.804 81.124 268.603 81.124 268.381V265.815C81.124 265.628 81.075 265.454 80.977 265.294C80.888 265.125 80.7633 264.982 80.6029 264.866C80.4426 264.751 80.2511 264.662 80.0284 264.599C79.8146 264.528 79.5874 264.492 79.3469 264.492C78.7412 264.492 78.2647 264.684 77.9173 265.067C77.5699 265.441 77.3962 265.935 77.3962 266.55V267.726C77.3962 268.34 77.5699 268.839 77.9173 269.222C78.2647 269.596 78.7412 269.784 79.3469 269.784ZM84.9999 262.074C84.7683 262.074 84.599 262.02 84.4922 261.914C84.3942 261.798 84.3452 261.651 84.3452 261.473V261.299C84.3452 261.121 84.3942 260.978 84.4922 260.871C84.599 260.756 84.7683 260.698 84.9999 260.698C85.2315 260.698 85.3963 260.756 85.4943 260.871C85.6012 260.978 85.6546 261.121 85.6546 261.299V261.473C85.6546 261.651 85.6012 261.798 85.4943 261.914C85.3963 262.02 85.2315 262.074 84.9999 262.074ZM84.4654 263.691H85.5343V270.585H84.4654V263.691ZM87.8058 270.585V263.691H88.8747V264.813H88.9282C89.0974 264.421 89.3335 264.109 89.6363 263.878C89.9481 263.646 90.3623 263.53 90.8789 263.53C91.5916 263.53 92.1527 263.762 92.5625 264.225C92.9811 264.679 93.1905 265.325 93.1905 266.163V270.585H92.1216V266.35C92.1216 265.111 91.6005 264.492 90.5583 264.492C90.3445 264.492 90.1352 264.519 89.9303 264.573C89.7343 264.626 89.5562 264.706 89.3958 264.813C89.2355 264.92 89.1063 265.058 89.0083 265.227C88.9193 265.388 88.8747 265.579 88.8747 265.802V270.585H87.8058ZM100.41 270.585C100.01 270.585 99.7201 270.478 99.542 270.265C99.3727 270.051 99.2658 269.784 99.2213 269.463H99.1545C99.0031 269.89 98.7537 270.211 98.4063 270.425C98.0589 270.639 97.6447 270.746 97.1636 270.746C96.4332 270.746 95.8631 270.558 95.4534 270.184C95.0525 269.81 94.8521 269.303 94.8521 268.661C94.8521 268.011 95.0882 267.512 95.5603 267.165C96.0413 266.817 96.7851 266.644 97.7916 266.644H99.1545V265.962C99.1545 265.472 99.0209 265.098 98.7537 264.84C98.4864 264.581 98.0767 264.452 97.5244 264.452C97.1057 264.452 96.7539 264.546 96.4688 264.733C96.1927 264.92 95.9611 265.169 95.774 265.481L95.1327 264.88C95.3198 264.506 95.6182 264.19 96.0279 263.931C96.4377 263.664 96.9543 263.53 97.5778 263.53C98.4152 263.53 99.0654 263.735 99.5286 264.145C99.9918 264.555 100.223 265.125 100.223 265.855V269.65H101.012V270.585H100.41ZM97.3373 269.837C97.6046 269.837 97.8495 269.806 98.0722 269.743C98.2949 269.681 98.4864 269.592 98.6468 269.476C98.8071 269.36 98.9318 269.227 99.0209 269.075C99.11 268.924 99.1545 268.759 99.1545 268.581V267.445H97.7382C97.1236 267.445 96.6737 267.534 96.3887 267.712C96.1125 267.891 95.9745 268.149 95.9745 268.487V268.768C95.9745 269.107 96.0947 269.369 96.3352 269.556C96.5846 269.743 96.9187 269.837 97.3373 269.837ZM103.673 270.585C103.299 270.585 103.014 270.483 102.818 270.278C102.631 270.064 102.537 269.797 102.537 269.476V260.698H103.606V269.65H104.622V270.585H103.673Z" fill="black"/>
</g>
<path d="M97.9883 105.543L97.9883 246.352" stroke="#64748B" stroke-width="1.93" stroke-dasharray="2.57 2.57"/>
<path d="M100 143H155.305C169.496 143 181 154.504 181 168.695V183" stroke="#64748B" stroke-width="1.93" stroke-dasharray="2.57 2.57"/>
<path d="M181.324 224.254L181.324 388.19" stroke="#64748B" stroke-width="1.93" stroke-dasharray="2.57 2.57"/>
<g filter="url(#filter4_d_2211_17760)">
<rect x="152.977" y="296.201" width="111.517" height="34.3826" rx="5.0011" fill="#D6E0FF" shape-rendering="crispEdges"/>
<path d="M164.745 312.933H163.623V311.998H164.745V310.608C164.745 310.127 164.87 309.739 165.119 309.446C165.369 309.152 165.747 309.005 166.255 309.005H167.297V309.94H165.814V311.998H167.297V312.933H165.814V318.892H164.745V312.933ZM171.243 319.052C170.771 319.052 170.343 318.968 169.96 318.799C169.586 318.629 169.261 318.389 168.985 318.077C168.718 317.756 168.508 317.378 168.357 316.941C168.214 316.496 168.143 315.997 168.143 315.445C168.143 314.901 168.214 314.407 168.357 313.962C168.508 313.516 168.718 313.138 168.985 312.826C169.261 312.505 169.586 312.26 169.96 312.091C170.343 311.922 170.771 311.837 171.243 311.837C171.706 311.837 172.12 311.922 172.486 312.091C172.851 312.26 173.163 312.496 173.421 312.799C173.679 313.093 173.875 313.445 174.009 313.855C174.151 314.265 174.223 314.714 174.223 315.204V315.712H169.266V316.033C169.266 316.327 169.31 316.603 169.399 316.861C169.497 317.111 169.631 317.329 169.8 317.516C169.978 317.703 170.192 317.85 170.441 317.957C170.7 318.064 170.989 318.117 171.31 318.117C171.746 318.117 172.125 318.015 172.446 317.81C172.775 317.605 173.029 317.311 173.207 316.928L173.969 317.476C173.746 317.948 173.399 318.331 172.927 318.625C172.454 318.91 171.893 319.052 171.243 319.052ZM171.243 312.732C170.949 312.732 170.682 312.786 170.441 312.893C170.201 312.991 169.992 313.133 169.813 313.32C169.644 313.507 169.511 313.73 169.413 313.988C169.315 314.238 169.266 314.514 169.266 314.817V314.91H173.074V314.763C173.074 314.149 172.904 313.659 172.566 313.294C172.236 312.92 171.795 312.732 171.243 312.732ZM180.995 318.892C180.594 318.892 180.304 318.785 180.126 318.571C179.957 318.358 179.85 318.09 179.805 317.77H179.739C179.587 318.197 179.338 318.518 178.99 318.732C178.643 318.946 178.229 319.052 177.748 319.052C177.017 319.052 176.447 318.865 176.038 318.491C175.637 318.117 175.436 317.609 175.436 316.968C175.436 316.318 175.672 315.819 176.144 315.472C176.625 315.124 177.369 314.95 178.376 314.95H179.739V314.269C179.739 313.779 179.605 313.405 179.338 313.147C179.071 312.888 178.661 312.759 178.109 312.759C177.69 312.759 177.338 312.853 177.053 313.04C176.777 313.227 176.545 313.476 176.358 313.788L175.717 313.187C175.904 312.813 176.202 312.496 176.612 312.238C177.022 311.971 177.538 311.837 178.162 311.837C178.999 311.837 179.65 312.042 180.113 312.452C180.576 312.862 180.808 313.432 180.808 314.162V317.957H181.596V318.892H180.995ZM177.922 318.144C178.189 318.144 178.434 318.113 178.656 318.05C178.879 317.988 179.071 317.899 179.231 317.783C179.391 317.667 179.516 317.534 179.605 317.382C179.694 317.231 179.739 317.066 179.739 316.888V315.752H178.322C177.708 315.752 177.258 315.841 176.973 316.019C176.697 316.198 176.559 316.456 176.559 316.794V317.075C176.559 317.413 176.679 317.676 176.919 317.863C177.169 318.05 177.503 318.144 177.922 318.144ZM184.645 318.892C184.271 318.892 183.986 318.79 183.79 318.585C183.603 318.371 183.509 318.095 183.509 317.756V312.933H182.373V311.998H183.015C183.246 311.998 183.402 311.953 183.482 311.864C183.571 311.766 183.616 311.601 183.616 311.37V310.087H184.578V311.998H186.088V312.933H184.578V317.957H185.981V318.892H184.645ZM192.055 317.77H192.001C191.93 317.93 191.841 318.09 191.734 318.251C191.636 318.402 191.511 318.54 191.36 318.665C191.209 318.781 191.026 318.874 190.812 318.946C190.598 319.017 190.349 319.052 190.064 319.052C189.351 319.052 188.786 318.825 188.367 318.371C187.948 317.908 187.739 317.258 187.739 316.42V311.998H188.808V316.233C188.808 317.471 189.334 318.09 190.385 318.09C190.598 318.09 190.803 318.064 190.999 318.01C191.204 317.957 191.382 317.877 191.534 317.77C191.694 317.663 191.819 317.529 191.908 317.369C192.006 317.2 192.055 316.999 192.055 316.768V311.998H193.124V318.892H192.055V317.77ZM195.4 318.892V311.998H196.469V313.267H196.536C196.66 312.937 196.883 312.643 197.204 312.385C197.524 312.127 197.965 311.998 198.527 311.998H198.941V313.066H198.313C197.734 313.066 197.28 313.178 196.95 313.401C196.629 313.614 196.469 313.886 196.469 314.216V318.892H195.4ZM202.833 319.052C202.361 319.052 201.933 318.968 201.55 318.799C201.176 318.629 200.851 318.389 200.575 318.077C200.308 317.756 200.098 317.378 199.947 316.941C199.804 316.496 199.733 315.997 199.733 315.445C199.733 314.901 199.804 314.407 199.947 313.962C200.098 313.516 200.308 313.138 200.575 312.826C200.851 312.505 201.176 312.26 201.55 312.091C201.933 311.922 202.361 311.837 202.833 311.837C203.296 311.837 203.71 311.922 204.076 312.091C204.441 312.26 204.753 312.496 205.011 312.799C205.269 313.093 205.465 313.445 205.599 313.855C205.741 314.265 205.813 314.714 205.813 315.204V315.712H200.856V316.033C200.856 316.327 200.9 316.603 200.989 316.861C201.087 317.111 201.221 317.329 201.39 317.516C201.568 317.703 201.782 317.85 202.031 317.957C202.29 318.064 202.579 318.117 202.9 318.117C203.336 318.117 203.715 318.015 204.036 317.81C204.365 317.605 204.619 317.311 204.797 316.928L205.559 317.476C205.336 317.948 204.989 318.331 204.517 318.625C204.044 318.91 203.483 319.052 202.833 319.052ZM202.833 312.732C202.539 312.732 202.272 312.786 202.031 312.893C201.791 312.991 201.582 313.133 201.403 313.32C201.234 313.507 201.101 313.73 201.003 313.988C200.905 314.238 200.856 314.514 200.856 314.817V314.91H204.664V314.763C204.664 314.149 204.494 313.659 204.156 313.294C203.826 312.92 203.385 312.732 202.833 312.732ZM209.645 319.052C209.004 319.052 208.465 318.932 208.028 318.692C207.601 318.442 207.231 318.113 206.919 317.703L207.681 317.088C207.948 317.427 208.247 317.69 208.576 317.877C208.906 318.055 209.289 318.144 209.725 318.144C210.18 318.144 210.531 318.046 210.781 317.85C211.039 317.654 211.168 317.378 211.168 317.021C211.168 316.754 211.079 316.527 210.901 316.34C210.732 316.144 210.42 316.01 209.966 315.939L209.418 315.859C209.097 315.814 208.803 315.748 208.536 315.659C208.269 315.561 208.033 315.436 207.828 315.284C207.632 315.124 207.476 314.928 207.36 314.697C207.253 314.465 207.2 314.189 207.2 313.868C207.2 313.53 207.262 313.236 207.387 312.986C207.512 312.728 207.681 312.514 207.895 312.345C208.117 312.176 208.38 312.051 208.683 311.971C208.986 311.882 209.311 311.837 209.658 311.837C210.22 311.837 210.687 311.935 211.061 312.131C211.444 312.327 211.778 312.599 212.064 312.946L211.355 313.588C211.204 313.374 210.981 313.182 210.687 313.013C210.393 312.835 210.024 312.746 209.578 312.746C209.133 312.746 208.794 312.844 208.563 313.04C208.34 313.227 208.229 313.485 208.229 313.815C208.229 314.153 208.34 314.398 208.563 314.55C208.794 314.701 209.124 314.812 209.552 314.884L210.086 314.964C210.852 315.08 211.395 315.302 211.716 315.632C212.037 315.953 212.197 316.376 212.197 316.901C212.197 317.569 211.97 318.095 211.516 318.478C211.061 318.861 210.438 319.052 209.645 319.052ZM217.243 318.892V311.998H218.312V313.12H218.365C218.445 312.942 218.534 312.777 218.632 312.626C218.739 312.465 218.864 312.327 219.007 312.211C219.158 312.096 219.332 312.006 219.528 311.944C219.724 311.873 219.955 311.837 220.222 311.837C220.677 311.837 221.095 311.949 221.478 312.171C221.862 312.385 222.147 312.741 222.334 313.24H222.36C222.485 312.866 222.717 312.541 223.055 312.265C223.403 311.98 223.87 311.837 224.458 311.837C225.162 311.837 225.71 312.069 226.102 312.532C226.502 312.986 226.703 313.632 226.703 314.469V318.892H225.634V314.656C225.634 314.042 225.514 313.579 225.273 313.267C225.033 312.955 224.65 312.799 224.124 312.799C223.91 312.799 223.705 312.826 223.509 312.879C223.322 312.933 223.153 313.013 223.002 313.12C222.85 313.227 222.73 313.365 222.641 313.534C222.552 313.694 222.507 313.886 222.507 314.109V318.892H221.438V314.656C221.438 314.042 221.318 313.579 221.078 313.267C220.837 312.955 220.463 312.799 219.955 312.799C219.741 312.799 219.537 312.826 219.341 312.879C219.145 312.933 218.971 313.013 218.82 313.12C218.668 313.227 218.543 313.365 218.445 313.534C218.356 313.694 218.312 313.886 218.312 314.109V318.892H217.243ZM231.5 319.052C231.028 319.052 230.601 318.968 230.218 318.799C229.843 318.629 229.518 318.389 229.242 318.077C228.975 317.756 228.766 317.378 228.614 316.941C228.472 316.496 228.4 315.997 228.4 315.445C228.4 314.901 228.472 314.407 228.614 313.962C228.766 313.516 228.975 313.138 229.242 312.826C229.518 312.505 229.843 312.26 230.218 312.091C230.601 311.922 231.028 311.837 231.5 311.837C231.963 311.837 232.378 311.922 232.743 312.091C233.108 312.26 233.42 312.496 233.678 312.799C233.936 313.093 234.132 313.445 234.266 313.855C234.409 314.265 234.48 314.714 234.48 315.204V315.712H229.523V316.033C229.523 316.327 229.567 316.603 229.656 316.861C229.754 317.111 229.888 317.329 230.057 317.516C230.235 317.703 230.449 317.85 230.699 317.957C230.957 318.064 231.246 318.117 231.567 318.117C232.003 318.117 232.382 318.015 232.703 317.81C233.032 317.605 233.286 317.311 233.464 316.928L234.226 317.476C234.003 317.948 233.656 318.331 233.184 318.625C232.712 318.91 232.15 319.052 231.5 319.052ZM231.5 312.732C231.206 312.732 230.939 312.786 230.699 312.893C230.458 312.991 230.249 313.133 230.071 313.32C229.901 313.507 229.768 313.73 229.67 313.988C229.572 314.238 229.523 314.514 229.523 314.817V314.91H233.331V314.763C233.331 314.149 233.161 313.659 232.823 313.294C232.493 312.92 232.052 312.732 231.5 312.732ZM236.241 318.892V311.998H237.31V313.267H237.377C237.502 312.937 237.724 312.643 238.045 312.385C238.366 312.127 238.807 311.998 239.368 311.998H239.782V313.066H239.154C238.575 313.066 238.121 313.178 237.791 313.401C237.47 313.614 237.31 313.886 237.31 314.216V318.892H236.241ZM246.647 319.654C246.647 320.366 246.366 320.887 245.805 321.217C245.252 321.555 244.42 321.725 243.306 321.725C242.228 321.725 241.453 321.578 240.981 321.284C240.509 320.99 240.273 320.571 240.273 320.028C240.273 319.654 240.371 319.36 240.567 319.146C240.763 318.941 241.03 318.79 241.369 318.692V318.545C240.959 318.349 240.754 318.028 240.754 317.583C240.754 317.235 240.865 316.972 241.088 316.794C241.311 316.607 241.596 316.469 241.943 316.38V316.327C241.534 316.131 241.213 315.85 240.981 315.485C240.759 315.12 240.647 314.697 240.647 314.216C240.647 313.868 240.71 313.547 240.834 313.254C240.959 312.96 241.133 312.71 241.355 312.505C241.587 312.292 241.859 312.127 242.17 312.011C242.491 311.895 242.847 311.837 243.239 311.837C243.729 311.837 244.166 311.926 244.549 312.104V311.984C244.549 311.717 244.611 311.499 244.736 311.329C244.861 311.151 245.065 311.062 245.35 311.062H246.379V311.998H245.07V312.438C245.319 312.652 245.511 312.911 245.644 313.213C245.787 313.507 245.858 313.841 245.858 314.216C245.858 314.563 245.796 314.884 245.671 315.178C245.546 315.472 245.368 315.725 245.137 315.939C244.914 316.144 244.642 316.304 244.322 316.42C244.001 316.536 243.645 316.594 243.253 316.594C243.03 316.594 242.807 316.572 242.585 316.527C242.353 316.589 242.144 316.683 241.957 316.808C241.77 316.923 241.676 317.088 241.676 317.302C241.676 317.507 241.774 317.645 241.97 317.716C242.166 317.788 242.42 317.823 242.732 317.823H244.201C245.056 317.823 245.676 317.988 246.059 318.318C246.451 318.638 246.647 319.084 246.647 319.654ZM245.644 319.734C245.644 319.458 245.538 319.235 245.324 319.066C245.119 318.905 244.749 318.825 244.215 318.825H241.917C241.489 319.021 241.275 319.333 241.275 319.761C241.275 320.063 241.387 320.322 241.609 320.536C241.841 320.749 242.228 320.856 242.772 320.856H243.76C244.357 320.856 244.82 320.763 245.15 320.576C245.48 320.389 245.644 320.108 245.644 319.734ZM243.253 315.739C243.707 315.739 244.068 315.632 244.335 315.418C244.602 315.195 244.736 314.857 244.736 314.403V314.029C244.736 313.574 244.602 313.24 244.335 313.026C244.068 312.804 243.707 312.692 243.253 312.692C242.798 312.692 242.438 312.804 242.17 313.026C241.903 313.24 241.77 313.574 241.77 314.029V314.403C241.77 314.857 241.903 315.195 242.17 315.418C242.438 315.632 242.798 315.739 243.253 315.739ZM250.407 319.052C249.935 319.052 249.508 318.968 249.125 318.799C248.75 318.629 248.425 318.389 248.149 318.077C247.882 317.756 247.673 317.378 247.521 316.941C247.379 316.496 247.307 315.997 247.307 315.445C247.307 314.901 247.379 314.407 247.521 313.962C247.673 313.516 247.882 313.138 248.149 312.826C248.425 312.505 248.75 312.26 249.125 312.091C249.508 311.922 249.935 311.837 250.407 311.837C250.87 311.837 251.285 311.922 251.65 312.091C252.015 312.26 252.327 312.496 252.585 312.799C252.843 313.093 253.039 313.445 253.173 313.855C253.316 314.265 253.387 314.714 253.387 315.204V315.712H248.43V316.033C248.43 316.327 248.474 316.603 248.563 316.861C248.661 317.111 248.795 317.329 248.964 317.516C249.142 317.703 249.356 317.85 249.606 317.957C249.864 318.064 250.153 318.117 250.474 318.117C250.911 318.117 251.289 318.015 251.61 317.81C251.939 317.605 252.193 317.311 252.371 316.928L253.133 317.476C252.91 317.948 252.563 318.331 252.091 318.625C251.619 318.91 251.057 319.052 250.407 319.052ZM250.407 312.732C250.113 312.732 249.846 312.786 249.606 312.893C249.365 312.991 249.156 313.133 248.978 313.32C248.808 313.507 248.675 313.73 248.577 313.988C248.479 314.238 248.43 314.514 248.43 314.817V314.91H252.238V314.763C252.238 314.149 252.069 313.659 251.73 313.294C251.4 312.92 250.96 312.732 250.407 312.732Z" fill="black"/>
</g>
<circle cx="98.031" cy="105.585" r="2.50055" fill="white" stroke="#64748B" stroke-width="1.25028"/>
<circle cx="98.031" cy="244.853" r="2.50055" fill="white" stroke="#64748B" stroke-width="1.25028"/>
<circle cx="181.339" cy="180.101" r="2.50055" fill="white" stroke="#64748B" stroke-width="1.25028"/>
<circle cx="181.367" cy="221.213" r="2.50055" fill="white" stroke="#64748B" stroke-width="1.25028"/>
<circle cx="181.367" cy="293.16" r="2.50055" fill="white" stroke="#64748B" stroke-width="1.25028"/>
<circle cx="270.703" cy="425.233" r="2.50055" fill="white" stroke="#64748B" stroke-width="1.25028"/>
<path d="M98.5 285.5V288C98.5 301.807 109.693 313 123.5 313H151" stroke="#64748B" stroke-width="1.93" stroke-dasharray="3 3"/>
<path d="M270.5 429V501.5" stroke="#64748B" stroke-width="1.93" stroke-dasharray="3 3"/>
<defs>
<filter id="filter0_d_2211_17760" x="70.1" y="61.723" width="153.657" height="54.9387" filterUnits="userSpaceOnUse" color-interpolation-filters="sRGB">
<feFlood flood-opacity="0" result="BackgroundImageFix"/>
<feColorMatrix in="SourceAlpha" type="matrix" values="0 0 0 0 0 0 0 0 0 0 0 0 0 0 0 0 0 0 127 0" result="hardAlpha"/>
<feOffset dx="5.0011" dy="5.0011"/>
<feGaussianBlur stdDeviation="5.13903"/>
<feComposite in2="hardAlpha" operator="out"/>
<feColorMatrix type="matrix" values="0 0 0 0 0.904167 0 0 0 0 0.904167 0 0 0 0 0.904167 0 0 0 0.25 0"/>
<feBlend mode="normal" in2="BackgroundImageFix" result="effect1_dropShadow_2211_17760"/>
<feBlend mode="normal" in="SourceGraphic" in2="effect1_dropShadow_2211_17760" result="shape"/>
</filter>
<filter id="filter1_d_2211_17760" x="147.7" y="382.399" width="165.991" height="54.9387" filterUnits="userSpaceOnUse" color-interpolation-filters="sRGB">
<feFlood flood-opacity="0" result="BackgroundImageFix"/>
<feColorMatrix in="SourceAlpha" type="matrix" values="0 0 0 0 0 0 0 0 0 0 0 0 0 0 0 0 0 0 127 0" result="hardAlpha"/>
<feOffset dx="5.0011" dy="5.0011"/>
<feGaussianBlur stdDeviation="5.13903"/>
<feComposite in2="hardAlpha" operator="out"/>
<feColorMatrix type="matrix" values="0 0 0 0 0.904167 0 0 0 0 0.904167 0 0 0 0 0.904167 0 0 0 0.25 0"/>
<feBlend mode="normal" in2="BackgroundImageFix" result="effect1_dropShadow_2211_17760"/>
<feBlend mode="normal" in="SourceGraphic" in2="effect1_dropShadow_2211_17760" result="shape"/>
</filter>
<filter id="filter2_d_2211_17760" x="157.463" y="177.865" width="131.045" height="54.9387" filterUnits="userSpaceOnUse" color-interpolation-filters="sRGB">
<feFlood flood-opacity="0" result="BackgroundImageFix"/>
<feColorMatrix in="SourceAlpha" type="matrix" values="0 0 0 0 0 0 0 0 0 0 0 0 0 0 0 0 0 0 127 0" result="hardAlpha"/>
<feOffset dx="5.0011" dy="5.0011"/>
<feGaussianBlur stdDeviation="5.13903"/>
<feComposite in2="hardAlpha" operator="out"/>
<feColorMatrix type="matrix" values="0 0 0 0 0.904167 0 0 0 0 0.904167 0 0 0 0 0.904167 0 0 0 0.25 0"/>
<feBlend mode="normal" in2="BackgroundImageFix" result="effect1_dropShadow_2211_17760"/>
<feBlend mode="normal" in="SourceGraphic" in2="effect1_dropShadow_2211_17760" result="shape"/>
</filter>
<filter id="filter3_d_2211_17760" x="0.723038" y="242.617" width="130.532" height="54.9387" filterUnits="userSpaceOnUse" color-interpolation-filters="sRGB">
<feFlood flood-opacity="0" result="BackgroundImageFix"/>
<feColorMatrix in="SourceAlpha" type="matrix" values="0 0 0 0 0 0 0 0 0 0 0 0 0 0 0 0 0 0 127 0" result="hardAlpha"/>
<feOffset dx="5.0011" dy="5.0011"/>
<feGaussianBlur stdDeviation="5.13903"/>
<feComposite in2="hardAlpha" operator="out"/>
<feColorMatrix type="matrix" values="0 0 0 0 0.904167 0 0 0 0 0.904167 0 0 0 0 0.904167 0 0 0 0.25 0"/>
<feBlend mode="normal" in2="BackgroundImageFix" result="effect1_dropShadow_2211_17760"/>
<feBlend mode="normal" in="SourceGraphic" in2="effect1_dropShadow_2211_17760" result="shape"/>
</filter>
<filter id="filter4_d_2211_17760" x="147.7" y="290.924" width="132.073" height="54.9387" filterUnits="userSpaceOnUse" color-interpolation-filters="sRGB">
<feFlood flood-opacity="0" result="BackgroundImageFix"/>
<feColorMatrix in="SourceAlpha" type="matrix" values="0 0 0 0 0 0 0 0 0 0 0 0 0 0 0 0 0 0 127 0" result="hardAlpha"/>
<feOffset dx="5.0011" dy="5.0011"/>
<feGaussianBlur stdDeviation="5.13903"/>
<feComposite in2="hardAlpha" operator="out"/>
<feColorMatrix type="matrix" values="0 0 0 0 0.904167 0 0 0 0 0.904167 0 0 0 0 0.904167 0 0 0 0.25 0"/>
<feBlend mode="normal" in2="BackgroundImageFix" result="effect1_dropShadow_2211_17760"/>
<feBlend mode="normal" in="SourceGraphic" in2="effect1_dropShadow_2211_17760" result="shape"/>
</filter>
</defs>
</svg>
