<svg width="24" height="25" viewBox="0 0 24 25" fill="none" xmlns="http://www.w3.org/2000/svg">
<path d="M18.335 18.7619H15.67V14.5849C15.67 13.5889 15.65 12.3069 14.28 12.3069C12.891 12.3069 12.679 13.3909 12.679 14.5119V18.7619H10.013V10.1729H12.573V11.3429H12.608C12.966 10.6689 13.836 9.95585 15.136 9.95585C17.836 9.95585 18.336 11.7339 18.336 14.0469V18.7619H18.335ZM7.003 8.99785C6.79956 8.99812 6.59806 8.95822 6.41006 8.88046C6.22207 8.80269 6.05127 8.68859 5.90746 8.54469C5.76365 8.40078 5.64965 8.22991 5.57201 8.04186C5.49437 7.85382 5.4546 7.6523 5.455 7.44885C5.4552 7.14269 5.54618 6.84346 5.71644 6.589C5.8867 6.33454 6.12859 6.13629 6.41153 6.0193C6.69447 5.90232 7.00574 5.87187 7.30598 5.93179C7.60622 5.99172 7.88196 6.13933 8.09831 6.35596C8.31466 6.57259 8.46191 6.84851 8.52145 7.14883C8.58099 7.44915 8.55013 7.76039 8.43278 8.04317C8.31543 8.32595 8.11687 8.56759 7.86219 8.73752C7.60751 8.90745 7.30817 8.99805 7.002 8.99785H7.003ZM8.339 18.7619H5.666V10.1729H8.34V18.7619H8.339ZM19.67 3.42285H4.329C3.593 3.42285 3 4.00285 3 4.71985V20.1259C3 20.8428 3.594 21.4229 4.328 21.4229H19.666C20.4 21.4229 21 20.8428 21 20.1259V4.71985C21 4.00285 20.4 3.42285 19.666 3.42285H19.669H19.67Z" fill="#475569"/>
</svg>
