<svg width="24" height="25" viewBox="0 0 24 25" fill="none" xmlns="http://www.w3.org/2000/svg">
<path d="M4 20.4229C3.45 20.4229 2.97933 20.2272 2.588 19.8359C2.196 19.4439 2 18.9729 2 18.4229V6.42285C2 5.87285 2.196 5.40218 2.588 5.01085C2.97933 4.61885 3.45 4.42285 4 4.42285H20C20.55 4.42285 21.021 4.61885 21.413 5.01085C21.8043 5.40218 22 5.87285 22 6.42285V18.4229C22 18.9729 21.8043 19.4439 21.413 19.8359C21.021 20.2272 20.55 20.4229 20 20.4229H4ZM12 13.2479C12.0833 13.2479 12.1707 13.2352 12.262 13.2099C12.354 13.1852 12.4417 13.1479 12.525 13.0979L19.6 8.67285C19.7333 8.58952 19.8333 8.48552 19.9 8.36085C19.9667 8.23552 20 8.09785 20 7.94785C20 7.61452 19.8583 7.36452 19.575 7.19785C19.2917 7.03118 19 7.03952 18.7 7.22285L12 11.4229L5.3 7.22285C5 7.03952 4.70833 7.03519 4.425 7.20985C4.14167 7.38519 4 7.63119 4 7.94785C4 8.11452 4.03333 8.26018 4.1 8.38485C4.16667 8.51018 4.26667 8.60618 4.4 8.67285L11.475 13.0979C11.5583 13.1479 11.646 13.1852 11.738 13.2099C11.8293 13.2352 11.9167 13.2479 12 13.2479Z" fill="#475569"/>
</svg>
