<svg width="24" height="25" viewBox="0 0 24 25" fill="none" xmlns="http://www.w3.org/2000/svg">
<path d="M22.4591 6.42285C21.6891 6.77285 20.8591 7.00285 19.9991 7.11285C20.8791 6.58285 21.5591 5.74285 21.8791 4.73285C21.0491 5.23285 20.1291 5.58285 19.1591 5.78285C18.3691 4.92285 17.2591 4.42285 15.9991 4.42285C13.6491 4.42285 11.7291 6.34285 11.7291 8.71285C11.7291 9.05285 11.7691 9.38285 11.8391 9.69285C8.27906 9.51285 5.10906 7.80285 2.99906 5.21285C2.62906 5.84285 2.41906 6.58285 2.41906 7.36285C2.41906 8.85285 3.16906 10.1729 4.32906 10.9229C3.61906 10.9229 2.95906 10.7229 2.37906 10.4229V10.4529C2.37906 12.5329 3.85906 14.2729 5.81906 14.6629C5.18979 14.8351 4.52916 14.859 3.88906 14.7329C4.16067 15.5853 4.6926 16.3313 5.41008 16.8658C6.12756 17.4003 6.99451 17.6965 7.88906 17.7129C6.37269 18.9133 4.49306 19.5622 2.55906 19.5529C2.21906 19.5529 1.87906 19.5329 1.53906 19.4929C3.43906 20.7129 5.69906 21.4229 8.11906 21.4229C15.9991 21.4229 20.3291 14.8829 20.3291 9.21285C20.3291 9.02285 20.3291 8.84285 20.3191 8.65285C21.1591 8.05285 21.8791 7.29285 22.4591 6.42285Z" fill="#475569"/>
</svg>
