<svg width="375" height="98" viewBox="0 0 375 98" fill="none" xmlns="http://www.w3.org/2000/svg">
<rect width="375" height="98" rx="8" fill="#020617"/>
<circle cx="36.5" cy="20.5" r="4.5" fill="#D14343"/>
<circle cx="52.5" cy="20.5" r="4.5" fill="#FFB020"/>
<circle cx="68.5" cy="20.5" r="4.5" fill="#2CC63B"/>
<path d="M33.008 57.954H33.974V53.698C34.45 54.678 35.36 55.168 36.508 55.168C38.51 55.168 39.644 53.628 39.644 51.584C39.644 49.54 38.468 48.042 36.508 48.042C35.374 48.042 34.422 48.546 33.946 49.596L33.848 48.224H33.008V57.954ZM33.988 51.612C33.988 50.044 34.856 48.924 36.34 48.924C37.81 48.924 38.664 50.044 38.664 51.612C38.664 53.166 37.81 54.3 36.34 54.3C34.856 54.3 33.988 53.166 33.988 51.612ZM45.7797 48.224V51.822C45.7797 53.432 45.0097 54.3 43.7077 54.3C42.6297 54.3 41.9157 53.726 41.9157 52.116V48.21H40.9357V52.424C40.9357 54.076 41.8037 55.168 43.3997 55.168C44.4637 55.168 45.4017 54.636 45.7797 53.852L45.9057 55H46.7457V48.224H45.7797ZM52.3 48.14C52.062 48.084 51.88 48.07 51.67 48.07C50.718 48.07 50.004 48.546 49.738 49.274L49.668 48.224H48.758V55H49.724V51.136C49.724 49.848 50.522 49.008 51.768 49.008H52.3V48.14ZM56.1664 55.168C57.7624 55.168 58.8124 54.398 59.1764 52.97H58.2524C58.0004 53.866 57.2864 54.342 56.1804 54.342C54.7244 54.342 53.8564 53.39 53.7864 51.738H59.1764V51.262C59.1764 49.344 57.9304 48.042 56.0964 48.042C54.1644 48.042 52.8484 49.498 52.8484 51.612C52.8484 53.74 54.1784 55.168 56.1664 55.168ZM56.0964 48.868C57.3704 48.868 58.2104 49.736 58.2104 51.038H53.8144C53.9824 49.708 54.8224 48.868 56.0964 48.868ZM61.6869 55V50.8C61.6869 49.764 62.3729 48.924 63.5069 48.924C64.5289 48.924 65.1869 49.596 65.1869 50.744V55H66.1389V50.814C66.1389 49.764 66.8109 48.91 67.9449 48.91C68.9809 48.91 69.6249 49.596 69.6249 50.758V55H70.5629V50.562C70.5629 48.994 69.5969 48.042 68.1269 48.042C67.0349 48.042 66.2089 48.602 65.9009 49.484C65.5789 48.602 64.7809 48.042 63.7169 48.042C62.7649 48.042 62.0089 48.476 61.6729 49.19L61.5609 48.224H60.7209V55H61.6869ZM73.514 55V44.794H72.548V55H73.514ZM81.3974 55.168C82.5454 55.168 83.4694 54.664 83.8894 53.81L84.0154 55H84.8274V50.618C84.8274 48.826 83.6794 48.042 82.1114 48.042C80.4454 48.042 79.3254 48.924 79.3254 50.296H80.2074C80.2074 49.386 80.9074 48.854 82.0834 48.854C83.0774 48.854 83.8754 49.274 83.8754 50.604V50.828L81.6354 51.01C80.0534 51.136 79.1014 51.92 79.1014 53.166C79.1014 54.356 79.9554 55.168 81.3974 55.168ZM81.6214 54.384C80.6974 54.384 80.0814 53.964 80.0814 53.138C80.0814 52.382 80.5994 51.822 81.8734 51.71L83.8754 51.556V51.92C83.8754 53.39 83.0494 54.384 81.6214 54.384ZM91.5258 48.224V51.822C91.5258 53.432 90.7558 54.3 89.4538 54.3C88.3758 54.3 87.6618 53.726 87.6618 52.116V48.21H86.6818V52.424C86.6818 54.076 87.5498 55.168 89.1458 55.168C90.2098 55.168 91.1478 54.636 91.5258 53.852L91.6518 55H92.4918V48.224H91.5258ZM96.0581 55V49.036H97.4161V48.224H96.0581V46.082H95.1061V48.224H93.7481V49.036H95.1061V55H96.0581ZM99.64 54.986V51.304C99.64 50.002 100.396 48.924 101.852 48.924C102.902 48.924 103.644 49.484 103.644 51.066V55H104.61V50.856C104.61 49.148 103.812 48.042 102.034 48.042C100.9 48.042 100.074 48.588 99.64 49.4V44.794H98.674V54.986H99.64ZM111.426 55V44.794H110.46V55H111.426ZM113.005 51.612C113.005 53.67 114.461 55.168 116.449 55.168C118.437 55.168 119.893 53.67 119.893 51.612C119.893 49.54 118.437 48.042 116.449 48.042C114.461 48.042 113.005 49.54 113.005 51.612ZM113.985 51.598C113.985 50.03 114.993 48.91 116.449 48.91C117.891 48.91 118.913 50.03 118.913 51.598C118.913 53.194 117.891 54.3 116.449 54.3C114.993 54.3 113.985 53.194 113.985 51.598ZM120.976 51.416C120.976 53.264 122.152 54.79 124.084 54.79C125.246 54.79 126.184 54.23 126.646 53.278V54.888C126.646 56.302 125.722 57.24 124.336 57.24C123.118 57.24 122.278 56.596 122.068 55.504H121.102C121.368 57.142 122.586 58.122 124.322 58.122C126.31 58.122 127.598 56.806 127.598 54.79V48.224H126.758L126.66 49.582C126.226 48.588 125.33 48.042 124.154 48.042C122.166 48.042 120.976 49.568 120.976 51.416ZM121.942 51.402C121.942 50.03 122.782 48.896 124.238 48.896C125.722 48.896 126.562 49.96 126.562 51.402C126.562 52.858 125.694 53.922 124.224 53.922C122.796 53.922 121.942 52.788 121.942 51.402ZM130.089 46.362C130.481 46.362 130.817 46.04 130.817 45.648C130.817 45.256 130.481 44.92 130.089 44.92C129.697 44.92 129.375 45.256 129.375 45.648C129.375 46.04 129.697 46.362 130.089 46.362ZM129.613 55H130.579V48.224H129.613V55ZM133.56 55V51.458C133.56 49.932 134.344 48.924 135.73 48.924C136.85 48.924 137.564 49.484 137.564 51.066V55H138.53V50.856C138.53 49.148 137.76 48.042 135.898 48.042C134.918 48.042 134.022 48.532 133.574 49.4L133.434 48.224H132.594V55H133.56Z" fill="#FFD079"/>
<path d="M309.328 50.59V49.68H305.226V45.9H310.126V44.976H304.218V55H305.226V50.59H309.328ZM312.995 55.168C314.143 55.168 315.067 54.664 315.487 53.81L315.613 55H316.425V50.618C316.425 48.826 315.277 48.042 313.709 48.042C312.043 48.042 310.923 48.924 310.923 50.296H311.805C311.805 49.386 312.505 48.854 313.681 48.854C314.675 48.854 315.473 49.274 315.473 50.604V50.828L313.233 51.01C311.651 51.136 310.699 51.92 310.699 53.166C310.699 54.356 311.553 55.168 312.995 55.168ZM313.219 54.384C312.295 54.384 311.679 53.964 311.679 53.138C311.679 52.382 312.197 51.822 313.471 51.71L315.473 51.556V51.92C315.473 53.39 314.647 54.384 313.219 54.384ZM318.839 46.362C319.231 46.362 319.567 46.04 319.567 45.648C319.567 45.256 319.231 44.92 318.839 44.92C318.447 44.92 318.125 45.256 318.125 45.648C318.125 46.04 318.447 46.362 318.839 46.362ZM318.363 55H319.329V48.224H318.363V55ZM322.352 55V44.794H321.386V55H322.352ZM327.248 55.168C328.844 55.168 329.894 54.398 330.258 52.97H329.334C329.082 53.866 328.368 54.342 327.262 54.342C325.806 54.342 324.938 53.39 324.868 51.738H330.258V51.262C330.258 49.344 329.012 48.042 327.178 48.042C325.246 48.042 323.93 49.498 323.93 51.612C323.93 53.74 325.26 55.168 327.248 55.168ZM327.178 48.868C328.452 48.868 329.292 49.736 329.292 51.038H324.896C325.064 49.708 325.904 48.868 327.178 48.868ZM334.463 55.168C335.597 55.168 336.549 54.664 337.025 53.614L337.123 55H337.963V44.794H336.997V49.512C336.521 48.532 335.625 48.042 334.505 48.042C332.489 48.042 331.327 49.582 331.327 51.626C331.327 53.656 332.489 55.168 334.463 55.168ZM334.631 54.286C333.161 54.286 332.307 53.166 332.307 51.598C332.307 50.044 333.161 48.91 334.631 48.91C336.115 48.91 336.983 50.044 336.983 51.598C336.983 53.166 336.115 54.286 334.631 54.286ZM341.211 51.99C341.323 50.996 341.393 49.162 341.393 47.342V44.976H340.343V47.342C340.343 49.148 340.399 50.996 340.511 51.99H341.211ZM340.875 55.196C341.337 55.196 341.743 54.79 341.743 54.314C341.743 53.838 341.337 53.446 340.875 53.446C340.385 53.446 339.993 53.838 339.993 54.314C339.993 54.79 340.385 55.196 340.875 55.196Z" fill="#D14343"/>
<path d="M32.768 76.216H36.248V75.472H32.768V76.216ZM37.7836 76.216H41.2636V75.472H37.7836V76.216ZM49.9074 79.132C51.7554 79.132 53.2554 78.04 53.6514 76.42H52.7274C52.3554 77.572 51.2754 78.304 49.9194 78.304C48.0354 78.304 46.7754 76.864 46.7754 74.704C46.7754 72.532 48.0354 71.092 49.9194 71.092C51.2634 71.092 52.3194 71.848 52.6794 73.084H53.6034C53.2554 71.38 51.8034 70.264 49.9554 70.264C47.5314 70.264 45.8754 72.064 45.8754 74.704C45.8754 77.344 47.5074 79.132 49.9074 79.132ZM56.0096 70.408H55.1456V79H59.9576V78.208H56.0096V70.408ZM62.115 70.408H61.251V79H62.115V70.408ZM68.2163 79V70.252H67.3883V79H68.2163ZM69.5693 76.096C69.5693 77.86 70.8173 79.144 72.5213 79.144C74.2253 79.144 75.4733 77.86 75.4733 76.096C75.4733 74.32 74.2253 73.036 72.5213 73.036C70.8173 73.036 69.5693 74.32 69.5693 76.096ZM70.4093 76.084C70.4093 74.74 71.2733 73.78 72.5213 73.78C73.7573 73.78 74.6333 74.74 74.6333 76.084C74.6333 77.452 73.7573 78.4 72.5213 78.4C71.2733 78.4 70.4093 77.452 70.4093 76.084ZM76.4016 75.928C76.4016 77.512 77.4096 78.82 79.0656 78.82C80.0616 78.82 80.8656 78.34 81.2616 77.524V78.904C81.2616 80.116 80.4696 80.92 79.2816 80.92C78.2376 80.92 77.5176 80.368 77.3376 79.432H76.5096C76.7376 80.836 77.7816 81.676 79.2696 81.676C80.9736 81.676 82.0776 80.548 82.0776 78.82V73.192H81.3576L81.2736 74.356C80.9016 73.504 80.1336 73.036 79.1256 73.036C77.4216 73.036 76.4016 74.344 76.4016 75.928ZM77.2296 75.916C77.2296 74.74 77.9496 73.768 79.1976 73.768C80.4696 73.768 81.1896 74.68 81.1896 75.916C81.1896 77.164 80.4456 78.076 79.1856 78.076C77.9616 78.076 77.2296 77.104 77.2296 75.916ZM84.2134 71.596C84.5494 71.596 84.8374 71.32 84.8374 70.984C84.8374 70.648 84.5494 70.36 84.2134 70.36C83.8774 70.36 83.6014 70.648 83.6014 70.984C83.6014 71.32 83.8774 71.596 84.2134 71.596ZM83.8054 79H84.6334V73.192H83.8054V79ZM87.1881 79V75.964C87.1881 74.656 87.8601 73.792 89.0481 73.792C90.0081 73.792 90.6201 74.272 90.6201 75.628V79H91.4481V75.448C91.4481 73.984 90.7881 73.036 89.1921 73.036C88.3521 73.036 87.5841 73.456 87.2001 74.2L87.0801 73.192H86.3601V79H87.1881ZM96.4265 81.532H97.2545V77.884C97.6625 78.724 98.4425 79.144 99.4265 79.144C101.143 79.144 102.115 77.824 102.115 76.072C102.115 74.32 101.107 73.036 99.4265 73.036C98.4545 73.036 97.6385 73.468 97.2305 74.368L97.1465 73.192H96.4265V81.532ZM97.2665 76.096C97.2665 74.752 98.0105 73.792 99.2825 73.792C100.543 73.792 101.275 74.752 101.275 76.096C101.275 77.428 100.543 78.4 99.2825 78.4C98.0105 78.4 97.2665 77.428 97.2665 76.096ZM105.102 79.144C106.086 79.144 106.878 78.712 107.238 77.98L107.346 79H108.042V75.244C108.042 73.708 107.058 73.036 105.714 73.036C104.286 73.036 103.326 73.792 103.326 74.968H104.082C104.082 74.188 104.682 73.732 105.69 73.732C106.542 73.732 107.226 74.092 107.226 75.232V75.424L105.306 75.58C103.95 75.688 103.134 76.36 103.134 77.428C103.134 78.448 103.866 79.144 105.102 79.144ZM105.294 78.472C104.502 78.472 103.974 78.112 103.974 77.404C103.974 76.756 104.418 76.276 105.51 76.18L107.226 76.048V76.36C107.226 77.62 106.518 78.472 105.294 78.472ZM110.93 79V73.888H112.094V73.192H110.93V71.356H110.114V73.192H108.95V73.888H110.114V79H110.93ZM114.001 78.988V75.832C114.001 74.716 114.649 73.792 115.897 73.792C116.797 73.792 117.433 74.272 117.433 75.628V79H118.261V75.448C118.261 73.984 117.577 73.036 116.053 73.036C115.081 73.036 114.373 73.504 114.001 74.2V70.252H113.173V78.988H114.001ZM123.143 76.216H126.623V75.472H123.143V76.216ZM128.159 76.216H131.639V75.472H128.159V76.216Z" fill="#64748B"/>
</svg>
